<svg width="47" height="30" fill="none" xmlns="http://www.w3.org/2000/svg"><path fill="#000" d="M0 21V0h5.241v21z"/><path fill="#000" d="M5.117 17V4H15.1v13zM46.1 0v21h-5.24V0z"/><path fill="#000" d="M40.983 4v13H31V4zM34.5 30h-21v-6h21zM30.1 24h-13v-7h13z"/><circle cx="23.1" cy="11.5" r="11.5" transform="rotate(180 23.1 11.5)" fill="#575757"/><path d="M6.177 11.177a.25.25 0 0 0 0-.354l-1.591-1.59a.25.25 0 0 0-.354.353L5.646 11l-1.414 1.414a.25.25 0 0 0 .354.354l1.59-1.591ZM1 11.25h5v-.5H1v.5Z" fill="#000"/><path fill="#9EC5FF" d="M0 6h46v9H0z"/></svg>