<svg width="77" height="62" viewBox="0 0 77 62" fill="none" xmlns="http://www.w3.org/2000/svg">
<path d="M63.102 46.5174C59.5288 46.5174 56.6322 40.149 56.6322 32.2932C56.6322 24.4375 59.5288 18.0691 63.102 18.0691C66.6752 18.0691 69.5718 24.4375 69.5718 32.2932C69.5718 40.149 66.6752 46.5174 63.102 46.5174Z" fill="white" stroke="#810000" stroke-miterlimit="10"/>
<path d="M62.6728 46.5466C59.1406 46.5466 56.2772 40.156 56.2772 32.2728C56.2772 24.3895 59.1406 17.9989 62.6728 17.9989C66.2049 17.9989 69.0684 24.3895 69.0684 32.2728C69.0684 40.156 66.2049 46.5466 62.6728 46.5466Z" fill="white" stroke="#7E0000" stroke-miterlimit="10"/>
<path d="M62.2527 46.5869C58.7661 46.5869 55.9395 40.174 55.9395 32.2633C55.9395 24.3526 58.7661 17.9397 62.2527 17.9397C65.7394 17.9397 68.5659 24.3526 68.5659 32.2633C68.5659 40.174 65.7394 46.5869 62.2527 46.5869Z" fill="white" stroke="#7B0000" stroke-miterlimit="10"/>
<path d="M61.8327 46.6168C58.3915 46.6168 55.6019 40.1816 55.6019 32.2435C55.6019 24.3053 58.3915 17.8701 61.8327 17.8701C65.2739 17.8701 68.0635 24.3053 68.0635 32.2435C68.0635 40.1816 65.2739 46.6168 61.8327 46.6168Z" fill="white" stroke="#790000" stroke-miterlimit="10"/>
<path d="M61.4039 46.6467C58.0083 46.6467 55.2555 40.1893 55.2555 32.2236C55.2555 24.258 58.0083 17.8005 61.4039 17.8005C64.7995 17.8005 67.5522 24.258 67.5522 32.2236C67.5522 40.1893 64.7995 46.6467 61.4039 46.6467Z" fill="white" stroke="#760000" stroke-miterlimit="10"/>
<path d="M60.9834 46.6762C57.6288 46.6762 54.9093 40.201 54.9093 32.2134C54.9093 24.2257 57.6288 17.7505 60.9834 17.7505C64.3381 17.7505 67.0576 24.2257 67.0576 32.2134C67.0576 40.201 64.3381 46.6762 60.9834 46.6762Z" fill="white" stroke="#730000" stroke-miterlimit="10"/>
<path d="M60.5634 46.7061C57.2543 46.7061 54.5717 40.2086 54.5717 32.1935C54.5717 24.1784 57.2543 17.6809 60.5634 17.6809C63.8726 17.6809 66.5552 24.1784 66.5552 32.1935C66.5552 40.2086 63.8726 46.7061 60.5634 46.7061Z" fill="white" stroke="#700000" stroke-miterlimit="10"/>
<path d="M60.1346 46.7458C56.871 46.7458 54.2253 40.226 54.2253 32.1834C54.2253 24.1409 56.871 17.6211 60.1346 17.6211C63.3982 17.6211 66.0439 24.1409 66.0439 32.1834C66.0439 40.226 63.3982 46.7458 60.1346 46.7458Z" fill="white" stroke="#6D0000" stroke-miterlimit="10"/>
<path d="M59.7141 46.7757C56.496 46.7757 53.8872 40.2336 53.8872 32.1636C53.8872 24.0936 56.496 17.5515 59.7141 17.5515C62.9322 17.5515 65.541 24.0936 65.541 32.1636C65.541 40.2336 62.9322 46.7757 59.7141 46.7757Z" fill="white" stroke="#6A0000" stroke-miterlimit="10"/>
<path d="M59.2858 46.8055C56.1132 46.8055 53.5413 40.2412 53.5413 32.1437C53.5413 24.0462 56.1132 17.4819 59.2858 17.4819C62.4584 17.4819 65.0303 24.0462 65.0303 32.1437C65.0303 40.2412 62.4584 46.8055 59.2858 46.8055Z" fill="white" stroke="#680000" stroke-miterlimit="10"/>
<path d="M58.8653 46.8452C55.7337 46.8452 53.195 40.2586 53.195 32.1337C53.195 24.0087 55.7337 17.4221 58.8653 17.4221C61.997 17.4221 64.5356 24.0087 64.5356 32.1337C64.5356 40.2586 61.997 46.8452 58.8653 46.8452Z" fill="white" stroke="#650000" stroke-miterlimit="10"/>
<path d="M58.4448 46.8751C55.3587 46.8751 52.8569 40.2662 52.8569 32.1138C52.8569 23.9614 55.3587 17.3525 58.4448 17.3525C61.5309 17.3525 64.0327 23.9614 64.0327 32.1138C64.0327 40.2662 61.5309 46.8751 58.4448 46.8751Z" fill="white" stroke="#620000" stroke-miterlimit="10"/>
<path d="M58.0165 46.905C54.9759 46.905 52.511 40.2739 52.511 32.094C52.511 23.9141 54.9759 17.283 58.0165 17.283C61.0571 17.283 63.522 23.9141 63.522 32.094C63.522 40.2739 61.0571 46.905 58.0165 46.905Z" fill="white" stroke="#5F0000" stroke-miterlimit="10"/>
<path d="M57.596 46.9345C54.6009 46.9345 52.1729 40.2856 52.1729 32.0837C52.1729 23.8818 54.6009 17.2329 57.596 17.2329C60.591 17.2329 63.019 23.8818 63.019 32.0837C63.019 40.2856 60.591 46.9345 57.596 46.9345Z" fill="white" stroke="#5C0000" stroke-miterlimit="10"/>
<path d="M57.1755 46.965C54.2214 46.965 51.8266 40.2938 51.8266 32.0645C51.8266 23.8351 54.2214 17.1639 57.1755 17.1639C60.1296 17.1639 62.5244 23.8351 62.5244 32.0645C62.5244 40.2938 60.1296 46.965 57.1755 46.965Z" fill="white" stroke="#5A0000" stroke-miterlimit="10"/>
<path d="M56.7472 47.0047C53.8386 47.0047 51.4807 40.3112 51.4807 32.0544C51.4807 23.7976 53.8386 17.1041 56.7472 17.1041C59.6558 17.1041 62.0137 23.7976 62.0137 32.0544C62.0137 40.3112 59.6558 47.0047 56.7472 47.0047Z" fill="white" stroke="#570000" stroke-miterlimit="10"/>
<path d="M56.3267 47.0345C53.4636 47.0345 51.1426 40.3188 51.1426 32.0345C51.1426 23.7503 53.4636 17.0345 56.3267 17.0345C59.1898 17.0345 61.5107 23.7503 61.5107 32.0345C61.5107 40.3188 59.1898 47.0345 56.3267 47.0345Z" fill="white" stroke="#540000" stroke-miterlimit="10"/>
<path d="M39.5794 58.9309C38.1638 58.9309 37.0162 56.6151 37.0162 53.7585C37.0162 50.9018 38.1638 48.5861 39.5794 48.5861C40.995 48.5861 42.1426 50.9018 42.1426 53.7585C42.1426 56.6151 40.995 58.9309 39.5794 58.9309Z" fill="white" stroke="#810000" stroke-miterlimit="10"/>
<path d="M39.324 58.9309C37.9084 58.9309 36.7608 56.6151 36.7608 53.7585C36.7608 50.9018 37.9084 48.5861 39.324 48.5861C40.7396 48.5861 41.8872 50.9018 41.8872 53.7585C41.8872 56.6151 40.7396 58.9309 39.324 58.9309Z" fill="white" stroke="#800000" stroke-miterlimit="10"/>
<path d="M39.0603 58.9309C37.6447 58.9309 36.4972 56.6151 36.4972 53.7585C36.4972 50.9018 37.6447 48.5861 39.0603 48.5861C40.476 48.5861 41.6235 50.9018 41.6235 53.7585C41.6235 56.6151 40.476 58.9309 39.0603 58.9309Z" fill="white" stroke="#7F0000" stroke-miterlimit="10"/>
<path d="M38.7967 58.9309C37.3811 58.9309 36.2335 56.6151 36.2335 53.7585C36.2335 50.9018 37.3811 48.5861 38.7967 48.5861C40.2123 48.5861 41.3599 50.9018 41.3599 53.7585C41.3599 56.6151 40.2123 58.9309 38.7967 58.9309Z" fill="white" stroke="#7E0000" stroke-miterlimit="10"/>
<path d="M38.5413 58.9309C37.1257 58.9309 35.9781 56.6151 35.9781 53.7585C35.9781 50.9018 37.1257 48.5861 38.5413 48.5861C39.9569 48.5861 41.1045 50.9018 41.1045 53.7585C41.1045 56.6151 39.9569 58.9309 38.5413 58.9309Z" fill="white" stroke="#7D0000" stroke-miterlimit="10"/>
<path d="M38.2771 58.9309C36.8615 58.9309 35.714 56.6151 35.714 53.7585C35.714 50.9018 36.8615 48.5861 38.2771 48.5861C39.6928 48.5861 40.8403 50.9018 40.8403 53.7585C40.8403 56.6151 39.6928 58.9309 38.2771 58.9309Z" fill="white" stroke="#7D0000" stroke-miterlimit="10"/>
<path d="M38.014 58.9309C36.5984 58.9309 35.4508 56.6151 35.4508 53.7585C35.4508 50.9018 36.5984 48.5861 38.014 48.5861C39.4296 48.5861 40.5771 50.9018 40.5771 53.7585C40.5771 56.6151 39.4296 58.9309 38.014 58.9309Z" fill="white" stroke="#7C0000" stroke-miterlimit="10"/>
<path d="M37.7581 58.9309C36.3425 58.9309 35.1949 56.6151 35.1949 53.7585C35.1949 50.9018 36.3425 48.5861 37.7581 48.5861C39.1737 48.5861 40.3213 50.9018 40.3213 53.7585C40.3213 56.6151 39.1737 58.9309 37.7581 58.9309Z" fill="white" stroke="#7B0000" stroke-miterlimit="10"/>
<path d="M37.4944 58.9309C36.0788 58.9309 34.9312 56.6151 34.9312 53.7585C34.9312 50.9018 36.0788 48.5861 37.4944 48.5861C38.91 48.5861 40.0576 50.9018 40.0576 53.7585C40.0576 56.6151 38.91 58.9309 37.4944 58.9309Z" fill="white" stroke="#7A0000" stroke-miterlimit="10"/>
<path d="M37.2308 58.9309C35.8151 58.9309 34.6676 56.6151 34.6676 53.7585C34.6676 50.9018 35.8151 48.5861 37.2308 48.5861C38.6464 48.5861 39.7939 50.9018 39.7939 53.7585C39.7939 56.6151 38.6464 58.9309 37.2308 58.9309Z" fill="white" stroke="#790000" stroke-miterlimit="10"/>
<path d="M36.9749 58.9309C35.5593 58.9309 34.4117 56.6151 34.4117 53.7585C34.4117 50.9018 35.5593 48.5861 36.9749 48.5861C38.3905 48.5861 39.5381 50.9018 39.5381 53.7585C39.5381 56.6151 38.3905 58.9309 36.9749 58.9309Z" fill="white" stroke="#780000" stroke-miterlimit="10"/>
<path d="M36.7117 58.9309C35.2961 58.9309 34.1485 56.6151 34.1485 53.7585C34.1485 50.9018 35.2961 48.5861 36.7117 48.5861C38.1273 48.5861 39.2749 50.9018 39.2749 53.7585C39.2749 56.6151 38.1273 58.9309 36.7117 58.9309Z" fill="white" stroke="#770000" stroke-miterlimit="10"/>
<path d="M36.448 58.9309C35.0324 58.9309 33.8849 56.6151 33.8849 53.7585C33.8849 50.9018 35.0324 48.5861 36.448 48.5861C37.8637 48.5861 39.0112 50.9018 39.0112 53.7585C39.0112 56.6151 37.8637 58.9309 36.448 58.9309Z" fill="white" stroke="#760000" stroke-miterlimit="10"/>
<path d="M36.1922 58.9309C34.7766 58.9309 33.629 56.6151 33.629 53.7585C33.629 50.9018 34.7766 48.5861 36.1922 48.5861C37.6078 48.5861 38.7554 50.9018 38.7554 53.7585C38.7554 56.6151 37.6078 58.9309 36.1922 58.9309Z" fill="white" stroke="#760000" stroke-miterlimit="10"/>
<path d="M35.929 58.9309C34.5134 58.9309 33.3658 56.6151 33.3658 53.7585C33.3658 50.9018 34.5134 48.5861 35.929 48.5861C37.3446 48.5861 38.4922 50.9018 38.4922 53.7585C38.4922 56.6151 37.3446 58.9309 35.929 58.9309Z" fill="white" stroke="#750000" stroke-miterlimit="10"/>
<path d="M35.6648 58.9309C34.2492 58.9309 33.1017 56.6151 33.1017 53.7585C33.1017 50.9018 34.2492 48.5861 35.6648 48.5861C37.0805 48.5861 38.228 50.9018 38.228 53.7585C38.228 56.6151 37.0805 58.9309 35.6648 58.9309Z" fill="white" stroke="#740000" stroke-miterlimit="10"/>
<path d="M35.4095 58.9309C33.9939 58.9309 32.8463 56.6151 32.8463 53.7585C32.8463 50.9018 33.9939 48.5861 35.4095 48.5861C36.8251 48.5861 37.9727 50.9018 37.9727 53.7585C37.9727 56.6151 36.8251 58.9309 35.4095 58.9309Z" fill="white" stroke="#730000" stroke-miterlimit="10"/>
<path d="M35.1458 58.9309C33.7302 58.9309 32.5826 56.6151 32.5826 53.7585C32.5826 50.9018 33.7302 48.5861 35.1458 48.5861C36.5614 48.5861 37.709 50.9018 37.709 53.7585C37.709 56.6151 36.5614 58.9309 35.1458 58.9309Z" fill="white" stroke="#720000" stroke-miterlimit="10"/>
<path d="M34.8821 58.9309C33.4665 58.9309 32.3189 56.6151 32.3189 53.7585C32.3189 50.9018 33.4665 48.5861 34.8821 48.5861C36.2977 48.5861 37.4453 50.9018 37.4453 53.7585C37.4453 56.6151 36.2977 58.9309 34.8821 58.9309Z" fill="white" stroke="#710000" stroke-miterlimit="10"/>
<path d="M34.6263 58.9309C33.2107 58.9309 32.0631 56.6151 32.0631 53.7585C32.0631 50.9018 33.2107 48.5861 34.6263 48.5861C36.0419 48.5861 37.1895 50.9018 37.1895 53.7585C37.1895 56.6151 36.0419 58.9309 34.6263 58.9309Z" fill="white" stroke="#700000" stroke-miterlimit="10"/>
<path d="M34.3626 58.9309C32.947 58.9309 31.7994 56.6151 31.7994 53.7585C31.7994 50.9018 32.947 48.5861 34.3626 48.5861C35.7782 48.5861 36.9258 50.9018 36.9258 53.7585C36.9258 56.6151 35.7782 58.9309 34.3626 58.9309Z" fill="white" stroke="#6F0000" stroke-miterlimit="10"/>
<path d="M34.0989 58.9309C32.6833 58.9309 31.5357 56.6151 31.5357 53.7585C31.5357 50.9018 32.6833 48.5861 34.0989 48.5861C35.5145 48.5861 36.6621 50.9018 36.6621 53.7585C36.6621 56.6151 35.5145 58.9309 34.0989 58.9309Z" fill="white" stroke="#6E0000" stroke-miterlimit="10"/>
<path d="M33.8436 58.9309C32.4279 58.9309 31.2804 56.6151 31.2804 53.7585C31.2804 50.9018 32.4279 48.5861 33.8436 48.5861C35.2592 48.5861 36.4067 50.9018 36.4067 53.7585C36.4067 56.6151 35.2592 58.9309 33.8436 58.9309Z" fill="white" stroke="#6E0000" stroke-miterlimit="10"/>
<path d="M33.5799 58.9309C32.1643 58.9309 31.0167 56.6151 31.0167 53.7585C31.0167 50.9018 32.1643 48.5861 33.5799 48.5861C34.9955 48.5861 36.1431 50.9018 36.1431 53.7585C36.1431 56.6151 34.9955 58.9309 33.5799 58.9309Z" fill="white" stroke="#6D0000" stroke-miterlimit="10"/>
<path d="M33.3157 58.9309C31.9001 58.9309 30.7525 56.6151 30.7525 53.7585C30.7525 50.9018 31.9001 48.5861 33.3157 48.5861C34.7313 48.5861 35.8789 50.9018 35.8789 53.7585C35.8789 56.6151 34.7313 58.9309 33.3157 58.9309Z" fill="white" stroke="#6C0000" stroke-miterlimit="10"/>
<path d="M33.0604 58.9309C31.6447 58.9309 30.4972 56.6151 30.4972 53.7585C30.4972 50.9018 31.6447 48.5861 33.0604 48.5861C34.476 48.5861 35.6235 50.9018 35.6235 53.7585C35.6235 56.6151 34.476 58.9309 33.0604 58.9309Z" fill="white" stroke="#6B0000" stroke-miterlimit="10"/>
<path d="M32.7967 58.9309C31.3811 58.9309 30.2335 56.6151 30.2335 53.7585C30.2335 50.9018 31.3811 48.5861 32.7967 48.5861C34.2123 48.5861 35.3599 50.9018 35.3599 53.7585C35.3599 56.6151 34.2123 58.9309 32.7967 58.9309Z" fill="white" stroke="#6A0000" stroke-miterlimit="10"/>
<path d="M32.5413 58.9309C31.1257 58.9309 29.9781 56.6151 29.9781 53.7585C29.9781 50.9018 31.1257 48.5861 32.5413 48.5861C33.9569 48.5861 35.1045 50.9018 35.1045 53.7585C35.1045 56.6151 33.9569 58.9309 32.5413 58.9309Z" fill="white" stroke="#690000" stroke-miterlimit="10"/>
<path d="M32.2776 58.9309C30.862 58.9309 29.7144 56.6151 29.7144 53.7585C29.7144 50.9018 30.862 48.5861 32.2776 48.5861C33.6932 48.5861 34.8408 50.9018 34.8408 53.7585C34.8408 56.6151 33.6932 58.9309 32.2776 58.9309Z" fill="white" stroke="#680000" stroke-miterlimit="10"/>
<path d="M32.014 58.9309C30.5984 58.9309 29.4508 56.6151 29.4508 53.7585C29.4508 50.9018 30.5984 48.5861 32.014 48.5861C33.4296 48.5861 34.5771 50.9018 34.5771 53.7585C34.5771 56.6151 33.4296 58.9309 32.014 58.9309Z" fill="white" stroke="#670000" stroke-miterlimit="10"/>
<path d="M31.7586 58.9309C30.343 58.9309 29.1954 56.6151 29.1954 53.7585C29.1954 50.9018 30.343 48.5861 31.7586 48.5861C33.1742 48.5861 34.3218 50.9018 34.3218 53.7585C34.3218 56.6151 33.1742 58.9309 31.7586 58.9309Z" fill="white" stroke="#670000" stroke-miterlimit="10"/>
<path d="M31.4944 58.9309C30.0788 58.9309 28.9312 56.6151 28.9312 53.7585C28.9312 50.9018 30.0788 48.5861 31.4944 48.5861C32.91 48.5861 34.0576 50.9018 34.0576 53.7585C34.0576 56.6151 32.91 58.9309 31.4944 58.9309Z" fill="white" stroke="#660000" stroke-miterlimit="10"/>
<path d="M31.2308 58.9309C29.8151 58.9309 28.6676 56.6151 28.6676 53.7585C28.6676 50.9018 29.8151 48.5861 31.2308 48.5861C32.6464 48.5861 33.7939 50.9018 33.7939 53.7585C33.7939 56.6151 32.6464 58.9309 31.2308 58.9309Z" fill="white" stroke="#650000" stroke-miterlimit="10"/>
<path d="M30.9754 58.9309C29.5598 58.9309 28.4122 56.6151 28.4122 53.7585C28.4122 50.9018 29.5598 48.5861 30.9754 48.5861C32.391 48.5861 33.5386 50.9018 33.5386 53.7585C33.5386 56.6151 32.391 58.9309 30.9754 58.9309Z" fill="white" stroke="#640000" stroke-miterlimit="10"/>
<path d="M30.7117 58.9309C29.2961 58.9309 28.1485 56.6151 28.1485 53.7585C28.1485 50.9018 29.2961 48.5861 30.7117 48.5861C32.1273 48.5861 33.2749 50.9018 33.2749 53.7585C33.2749 56.6151 32.1273 58.9309 30.7117 58.9309Z" fill="white" stroke="#630000" stroke-miterlimit="10"/>
<path d="M30.4476 58.9309C29.0319 58.9309 27.8844 56.6151 27.8844 53.7585C27.8844 50.9018 29.0319 48.5861 30.4476 48.5861C31.8632 48.5861 33.0107 50.9018 33.0107 53.7585C33.0107 56.6151 31.8632 58.9309 30.4476 58.9309Z" fill="white" stroke="#620000" stroke-miterlimit="10"/>
<path d="M30.1922 58.9309C28.7766 58.9309 27.629 56.6151 27.629 53.7585C27.629 50.9018 28.7766 48.5861 30.1922 48.5861C31.6078 48.5861 32.7554 50.9018 32.7554 53.7585C32.7554 56.6151 31.6078 58.9309 30.1922 58.9309Z" fill="white" stroke="#610000" stroke-miterlimit="10"/>
<path d="M29.9285 58.9309C28.5129 58.9309 27.3653 56.6151 27.3653 53.7585C27.3653 50.9018 28.5129 48.5861 29.9285 48.5861C31.3441 48.5861 32.4917 50.9018 32.4917 53.7585C32.4917 56.6151 31.3441 58.9309 29.9285 58.9309Z" fill="white" stroke="#600000" stroke-miterlimit="10"/>
<path d="M29.6648 58.9309C28.2492 58.9309 27.1017 56.6151 27.1017 53.7585C27.1017 50.9018 28.2492 48.5861 29.6648 48.5861C31.0804 48.5861 32.228 50.9018 32.228 53.7585C32.228 56.6151 31.0804 58.9309 29.6648 58.9309Z" fill="white" stroke="#5F0000" stroke-miterlimit="10"/>
<path d="M29.4095 58.9309C27.9939 58.9309 26.8463 56.6151 26.8463 53.7585C26.8463 50.9018 27.9939 48.5861 29.4095 48.5861C30.8251 48.5861 31.9727 50.9018 31.9727 53.7585C31.9727 56.6151 30.8251 58.9309 29.4095 58.9309Z" fill="white" stroke="#5F0000" stroke-miterlimit="10"/>
<path d="M29.1453 58.9309C27.7297 58.9309 26.5821 56.6151 26.5821 53.7585C26.5821 50.9018 27.7297 48.5861 29.1453 48.5861C30.5609 48.5861 31.7085 50.9018 31.7085 53.7585C31.7085 56.6151 30.5609 58.9309 29.1453 58.9309Z" fill="white" stroke="#5E0000" stroke-miterlimit="10"/>
<path d="M28.8816 58.9309C27.466 58.9309 26.3185 56.6151 26.3185 53.7585C26.3185 50.9018 27.466 48.5861 28.8816 48.5861C30.2972 48.5861 31.4448 50.9018 31.4448 53.7585C31.4448 56.6151 30.2972 58.9309 28.8816 58.9309Z" fill="white" stroke="#5D0000" stroke-miterlimit="10"/>
<path d="M28.6263 58.9309C27.2107 58.9309 26.0631 56.6151 26.0631 53.7585C26.0631 50.9018 27.2107 48.5861 28.6263 48.5861C30.0419 48.5861 31.1895 50.9018 31.1895 53.7585C31.1895 56.6151 30.0419 58.9309 28.6263 58.9309Z" fill="white" stroke="#5C0000" stroke-miterlimit="10"/>
<path d="M28.3626 58.9309C26.947 58.9309 25.7994 56.6151 25.7994 53.7585C25.7994 50.9018 26.947 48.5861 28.3626 48.5861C29.7782 48.5861 30.9258 50.9018 30.9258 53.7585C30.9258 56.6151 29.7782 58.9309 28.3626 58.9309Z" fill="white" stroke="#5B0000" stroke-miterlimit="10"/>
<path d="M28.0989 58.9309C26.6833 58.9309 25.5357 56.6151 25.5357 53.7585C25.5357 50.9018 26.6833 48.5861 28.0989 48.5861C29.5145 48.5861 30.6621 50.9018 30.6621 53.7585C30.6621 56.6151 29.5145 58.9309 28.0989 58.9309Z" fill="white" stroke="#5A0000" stroke-miterlimit="10"/>
<path d="M27.8436 58.9309C26.4279 58.9309 25.2804 56.6151 25.2804 53.7585C25.2804 50.9018 26.4279 48.5861 27.8436 48.5861C29.2592 48.5861 30.4067 50.9018 30.4067 53.7585C30.4067 56.6151 29.2592 58.9309 27.8436 58.9309Z" fill="white" stroke="#590000" stroke-miterlimit="10"/>
<path d="M27.5794 58.9309C26.1638 58.9309 25.0162 56.6151 25.0162 53.7585C25.0162 50.9018 26.1638 48.5861 27.5794 48.5861C28.995 48.5861 30.1426 50.9018 30.1426 53.7585C30.1426 56.6151 28.995 58.9309 27.5794 58.9309Z" fill="white" stroke="#580000" stroke-miterlimit="10"/>
<path d="M27.3162 58.9309C25.9006 58.9309 24.753 56.6151 24.753 53.7585C24.753 50.9018 25.9006 48.5861 27.3162 48.5861C28.7318 48.5861 29.8794 50.9018 29.8794 53.7585C29.8794 56.6151 28.7318 58.9309 27.3162 58.9309Z" fill="white" stroke="#580000" stroke-miterlimit="10"/>
<path d="M27.0603 58.9309C25.6447 58.9309 24.4972 56.6151 24.4972 53.7585C24.4972 50.9018 25.6447 48.5861 27.0603 48.5861C28.476 48.5861 29.6235 50.9018 29.6235 53.7585C29.6235 56.6151 28.476 58.9309 27.0603 58.9309Z" fill="white" stroke="#570000" stroke-miterlimit="10"/>
<path d="M26.7967 58.9309C25.3811 58.9309 24.2335 56.6151 24.2335 53.7585C24.2335 50.9018 25.3811 48.5861 26.7967 48.5861C28.2123 48.5861 29.3599 50.9018 29.3599 53.7585C29.3599 56.6151 28.2123 58.9309 26.7967 58.9309Z" fill="white" stroke="#560000" stroke-miterlimit="10"/>
<path d="M26.533 58.9309C25.1174 58.9309 23.9698 56.6151 23.9698 53.7585C23.9698 50.9018 25.1174 48.5861 26.533 48.5861C27.9486 48.5861 29.0962 50.9018 29.0962 53.7585C29.0962 56.6151 27.9486 58.9309 26.533 58.9309Z" fill="white" stroke="#550000" stroke-miterlimit="10"/>
<path d="M26.2771 58.9309C24.8615 58.9309 23.714 56.6151 23.714 53.7585C23.714 50.9018 24.8615 48.5861 26.2771 48.5861C27.6928 48.5861 28.8403 50.9018 28.8403 53.7585C28.8403 56.6151 27.6928 58.9309 26.2771 58.9309Z" fill="white" stroke="#540000" stroke-miterlimit="10"/>
<path d="M24.4643 11.3448C22.8666 11.3448 21.5715 9.02906 21.5715 6.17241C21.5715 3.31577 22.8666 1 24.4643 1C26.062 1 27.3572 3.31577 27.3572 6.17241C27.3572 9.02906 26.062 11.3448 24.4643 11.3448Z" fill="white" stroke="#540000" stroke-miterlimit="10"/>
<path d="M24.9504 11.3448C23.3527 11.3448 22.0576 9.02906 22.0576 6.17241C22.0576 3.31577 23.3527 1 24.9504 1C26.5481 1 27.8433 3.31577 27.8433 6.17241C27.8433 9.02906 26.5481 11.3448 24.9504 11.3448Z" fill="white" stroke="#540000" stroke-miterlimit="10"/>
<path d="M25.4284 11.3448C23.8307 11.3448 22.5356 9.02906 22.5356 6.17241C22.5356 3.31577 23.8307 1 25.4284 1C27.0261 1 28.3213 3.31577 28.3213 6.17241C28.3213 9.02906 27.0261 11.3448 25.4284 11.3448Z" fill="white" stroke="#550000" stroke-miterlimit="10"/>
<path d="M25.915 11.3448C24.3173 11.3448 23.0221 9.02906 23.0221 6.17241C23.0221 3.31577 24.3173 1 25.915 1C27.5127 1 28.8079 3.31577 28.8079 6.17241C28.8079 9.02906 27.5127 11.3448 25.915 11.3448Z" fill="white" stroke="#550000" stroke-miterlimit="10"/>
<path d="M26.3927 11.3448C24.795 11.3448 23.4998 9.02906 23.4998 6.17241C23.4998 3.31577 24.795 1 26.3927 1C27.9903 1 29.2855 3.31577 29.2855 6.17241C29.2855 9.02906 27.9903 11.3448 26.3927 11.3448Z" fill="white" stroke="#560000" stroke-miterlimit="10"/>
<path d="M26.8708 11.3448C25.2731 11.3448 23.978 9.02906 23.978 6.17241C23.978 3.31577 25.2731 1 26.8708 1C28.4685 1 29.7637 3.31577 29.7637 6.17241C29.7637 9.02906 28.4685 11.3448 26.8708 11.3448Z" fill="white" stroke="#560000" stroke-miterlimit="10"/>
<path d="M27.3574 11.3448C25.7597 11.3448 24.4645 9.02906 24.4645 6.17241C24.4645 3.31577 25.7597 1 27.3574 1C28.9551 1 30.2502 3.31577 30.2502 6.17241C30.2502 9.02906 28.9551 11.3448 27.3574 11.3448Z" fill="white" stroke="#570000" stroke-miterlimit="10"/>
<path d="M27.835 11.3448C26.2374 11.3448 24.9422 9.02906 24.9422 6.17241C24.9422 3.31577 26.2374 1 27.835 1C29.4327 1 30.7279 3.31577 30.7279 6.17241C30.7279 9.02906 29.4327 11.3448 27.835 11.3448Z" fill="white" stroke="#570000" stroke-miterlimit="10"/>
<path d="M28.3215 11.3448C26.7238 11.3448 25.4286 9.02906 25.4286 6.17241C25.4286 3.31577 26.7238 1 28.3215 1C29.9192 1 31.2144 3.31577 31.2144 6.17241C31.2144 9.02906 29.9192 11.3448 28.3215 11.3448Z" fill="white" stroke="#580000" stroke-miterlimit="10"/>
<path d="M28.7996 11.3448C27.202 11.3448 25.9068 9.02906 25.9068 6.17241C25.9068 3.31577 27.202 1 28.7996 1C30.3973 1 31.6925 3.31577 31.6925 6.17241C31.6925 9.02906 30.3973 11.3448 28.7996 11.3448Z" fill="white" stroke="#580000" stroke-miterlimit="10"/>
<path d="M29.2857 11.3448C27.688 11.3448 26.3929 9.02906 26.3929 6.17241C26.3929 3.31577 27.688 1 29.2857 1C30.8834 1 32.1786 3.31577 32.1786 6.17241C32.1786 9.02906 30.8834 11.3448 29.2857 11.3448Z" fill="white" stroke="#580000" stroke-miterlimit="10"/>
<path d="M29.7639 11.3448C28.1662 11.3448 26.871 9.02906 26.871 6.17241C26.871 3.31577 28.1662 1 29.7639 1C31.3616 1 32.6567 3.31577 32.6567 6.17241C32.6567 9.02906 31.3616 11.3448 29.7639 11.3448Z" fill="white" stroke="#590000" stroke-miterlimit="10"/>
<path d="M30.2419 11.3448C28.6442 11.3448 27.3491 9.02906 27.3491 6.17241C27.3491 3.31577 28.6442 1 30.2419 1C31.8396 1 33.1348 3.31577 33.1348 6.17241C33.1348 9.02906 31.8396 11.3448 30.2419 11.3448Z" fill="white" stroke="#590000" stroke-miterlimit="10"/>
<path d="M30.7281 11.3448C29.1304 11.3448 27.8353 9.02906 27.8353 6.17241C27.8353 3.31577 29.1304 1 30.7281 1C32.3258 1 33.621 3.31577 33.621 6.17241C33.621 9.02906 32.3258 11.3448 30.7281 11.3448Z" fill="white" stroke="#5A0000" stroke-miterlimit="10"/>
<path d="M31.2061 11.3448C29.6085 11.3448 28.3133 9.02906 28.3133 6.17241C28.3133 3.31577 29.6085 1 31.2061 1C32.8038 1 34.099 3.31577 34.099 6.17241C34.099 9.02906 32.8038 11.3448 31.2061 11.3448Z" fill="white" stroke="#5A0000" stroke-miterlimit="10"/>
<path d="M31.6923 11.3448C30.0947 11.3448 28.7995 9.02906 28.7995 6.17241C28.7995 3.31577 30.0947 1 31.6923 1C33.29 1 34.5852 3.31577 34.5852 6.17241C34.5852 9.02906 33.29 11.3448 31.6923 11.3448Z" fill="white" stroke="#5B0000" stroke-miterlimit="10"/>
<path d="M32.1704 11.3448C30.5727 11.3448 29.2775 9.02906 29.2775 6.17241C29.2775 3.31577 30.5727 1 32.1704 1C33.7681 1 35.0632 3.31577 35.0632 6.17241C35.0632 9.02906 33.7681 11.3448 32.1704 11.3448Z" fill="white" stroke="#5B0000" stroke-miterlimit="10"/>
<path d="M32.6566 11.3448C31.0589 11.3448 29.7637 9.02906 29.7637 6.17241C29.7637 3.31577 31.0589 1 32.6566 1C34.2543 1 35.5494 3.31577 35.5494 6.17241C35.5494 9.02906 34.2543 11.3448 32.6566 11.3448Z" fill="white" stroke="#5C0000" stroke-miterlimit="10"/>
<path d="M33.1346 11.3448C31.5369 11.3448 30.2418 9.02906 30.2418 6.17241C30.2418 3.31577 31.5369 1 33.1346 1C34.7323 1 36.0275 3.31577 36.0275 6.17241C36.0275 9.02906 34.7323 11.3448 33.1346 11.3448Z" fill="white" stroke="#5C0000" stroke-miterlimit="10"/>
<path d="M33.6128 11.3448C32.0151 11.3448 30.7199 9.02906 30.7199 6.17241C30.7199 3.31577 32.0151 1 33.6128 1C35.2104 1 36.5056 3.31577 36.5056 6.17241C36.5056 9.02906 35.2104 11.3448 33.6128 11.3448Z" fill="white" stroke="#5C0000" stroke-miterlimit="10"/>
<path d="M34.0988 11.3448C32.5012 11.3448 31.206 9.02906 31.206 6.17241C31.206 3.31577 32.5012 1 34.0988 1C35.6965 1 36.9917 3.31577 36.9917 6.17241C36.9917 9.02906 35.6965 11.3448 34.0988 11.3448Z" fill="white" stroke="#5D0000" stroke-miterlimit="10"/>
<path d="M34.5769 11.3448C32.9792 11.3448 31.684 9.02906 31.684 6.17241C31.684 3.31577 32.9792 1 34.5769 1C36.1746 1 37.4697 3.31577 37.4697 6.17241C37.4697 9.02906 36.1746 11.3448 34.5769 11.3448Z" fill="white" stroke="#5D0000" stroke-miterlimit="10"/>
<path d="M35.0631 11.3448C33.4654 11.3448 32.1702 9.02906 32.1702 6.17241C32.1702 3.31577 33.4654 1 35.0631 1C36.6608 1 37.9559 3.31577 37.9559 6.17241C37.9559 9.02906 36.6608 11.3448 35.0631 11.3448Z" fill="white" stroke="#5E0000" stroke-miterlimit="10"/>
<path d="M35.5411 11.3448C33.9434 11.3448 32.6482 9.02906 32.6482 6.17241C32.6482 3.31577 33.9434 1 35.5411 1C37.1388 1 38.434 3.31577 38.434 6.17241C38.434 9.02906 37.1388 11.3448 35.5411 11.3448Z" fill="white" stroke="#5E0000" stroke-miterlimit="10"/>
<path d="M36.0273 11.3448C34.4296 11.3448 33.1345 9.02906 33.1345 6.17241C33.1345 3.31577 34.4296 1 36.0273 1C37.625 1 38.9202 3.31577 38.9202 6.17241C38.9202 9.02906 37.625 11.3448 36.0273 11.3448Z" fill="white" stroke="#5F0000" stroke-miterlimit="10"/>
<path d="M36.5053 11.3448C34.9077 11.3448 33.6125 9.02906 33.6125 6.17241C33.6125 3.31577 34.9077 1 36.5053 1C38.103 1 39.3982 3.31577 39.3982 6.17241C39.3982 9.02906 38.103 11.3448 36.5053 11.3448Z" fill="white" stroke="#5F0000" stroke-miterlimit="10"/>
<path d="M36.9835 11.3448C35.3858 11.3448 34.0906 9.02906 34.0906 6.17241C34.0906 3.31577 35.3858 1 36.9835 1C38.5812 1 39.8763 3.31577 39.8763 6.17241C39.8763 9.02906 38.5812 11.3448 36.9835 11.3448Z" fill="white" stroke="#600000" stroke-miterlimit="10"/>
<path d="M37.4696 11.3448C35.8719 11.3448 34.5767 9.02906 34.5767 6.17241C34.5767 3.31577 35.8719 1 37.4696 1C39.0673 1 40.3624 3.31577 40.3624 6.17241C40.3624 9.02906 39.0673 11.3448 37.4696 11.3448Z" fill="white" stroke="#600000" stroke-miterlimit="10"/>
<path d="M37.9477 11.3448C36.35 11.3448 35.0549 9.02906 35.0549 6.17241C35.0549 3.31577 36.35 1 37.9477 1C39.5454 1 40.8406 3.31577 40.8406 6.17241C40.8406 9.02906 39.5454 11.3448 37.9477 11.3448Z" fill="white" stroke="#600000" stroke-miterlimit="10"/>
<path d="M38.4342 11.3448C36.8365 11.3448 35.5413 9.02906 35.5413 6.17241C35.5413 3.31577 36.8365 1 38.4342 1C40.0318 1 41.327 3.31577 41.327 6.17241C41.327 9.02906 40.0318 11.3448 38.4342 11.3448Z" fill="white" stroke="#610000" stroke-miterlimit="10"/>
<path d="M38.912 11.3448C37.3143 11.3448 36.0191 9.02906 36.0191 6.17241C36.0191 3.31577 37.3143 1 38.912 1C40.5096 1 41.8048 3.31577 41.8048 6.17241C41.8048 9.02906 40.5096 11.3448 38.912 11.3448Z" fill="white" stroke="#610000" stroke-miterlimit="10"/>
<path d="M39.3984 11.3448C37.8007 11.3448 36.5055 9.02906 36.5055 6.17241C36.5055 3.31577 37.8007 1 39.3984 1C40.9961 1 42.2913 3.31577 42.2913 6.17241C42.2913 9.02906 40.9961 11.3448 39.3984 11.3448Z" fill="white" stroke="#620000" stroke-miterlimit="10"/>
<path d="M39.8766 11.3448C38.2789 11.3448 36.9837 9.02906 36.9837 6.17241C36.9837 3.31577 38.2789 1 39.8766 1C41.4742 1 42.7694 3.31577 42.7694 6.17241C42.7694 9.02906 41.4742 11.3448 39.8766 11.3448Z" fill="white" stroke="#620000" stroke-miterlimit="10"/>
<path d="M40.3542 11.3448C38.7565 11.3448 37.4614 9.02906 37.4614 6.17241C37.4614 3.31577 38.7565 1 40.3542 1C41.9519 1 43.2471 3.31577 43.2471 6.17241C43.2471 9.02906 41.9519 11.3448 40.3542 11.3448Z" fill="white" stroke="#630000" stroke-miterlimit="10"/>
<path d="M40.8408 11.3448C39.2431 11.3448 37.9479 9.02906 37.9479 6.17241C37.9479 3.31577 39.2431 1 40.8408 1C42.4385 1 43.7336 3.31577 43.7336 6.17241C43.7336 9.02906 42.4385 11.3448 40.8408 11.3448Z" fill="white" stroke="#630000" stroke-miterlimit="10"/>
<path d="M41.3188 11.3448C39.7211 11.3448 38.426 9.02906 38.426 6.17241C38.426 3.31577 39.7211 1 41.3188 1C42.9165 1 44.2117 3.31577 44.2117 6.17241C44.2117 9.02906 42.9165 11.3448 41.3188 11.3448Z" fill="white" stroke="#640000" stroke-miterlimit="10"/>
<path d="M41.805 11.3448C40.2073 11.3448 38.9122 9.02906 38.9122 6.17241C38.9122 3.31577 40.2073 1 41.805 1C43.4027 1 44.6979 3.31577 44.6979 6.17241C44.6979 9.02906 43.4027 11.3448 41.805 11.3448Z" fill="white" stroke="#640000" stroke-miterlimit="10"/>
<path d="M42.283 11.3448C40.6854 11.3448 39.3902 9.02906 39.3902 6.17241C39.3902 3.31577 40.6854 1 42.283 1C43.8807 1 45.1759 3.31577 45.1759 6.17241C45.1759 9.02906 43.8807 11.3448 42.283 11.3448Z" fill="white" stroke="#640000" stroke-miterlimit="10"/>
<path d="M42.7691 11.3448C41.1715 11.3448 39.8763 9.02906 39.8763 6.17241C39.8763 3.31577 41.1715 1 42.7691 1C44.3668 1 45.662 3.31577 45.662 6.17241C45.662 9.02906 44.3668 11.3448 42.7691 11.3448Z" fill="white" stroke="#650000" stroke-miterlimit="10"/>
<path d="M43.2473 11.3448C41.6496 11.3448 40.3544 9.02906 40.3544 6.17241C40.3544 3.31577 41.6496 1 43.2473 1C44.845 1 46.1401 3.31577 46.1401 6.17241C46.1401 9.02906 44.845 11.3448 43.2473 11.3448Z" fill="white" stroke="#650000" stroke-miterlimit="10"/>
<path d="M43.7253 11.3448C42.1276 11.3448 40.8325 9.02906 40.8325 6.17241C40.8325 3.31577 42.1276 1 43.7253 1C45.323 1 46.6182 3.31577 46.6182 6.17241C46.6182 9.02906 45.323 11.3448 43.7253 11.3448Z" fill="white" stroke="#660000" stroke-miterlimit="10"/>
<path d="M44.2115 11.3448C42.6138 11.3448 41.3187 9.02906 41.3187 6.17241C41.3187 3.31577 42.6138 1 44.2115 1C45.8092 1 47.1044 3.31577 47.1044 6.17241C47.1044 9.02906 45.8092 11.3448 44.2115 11.3448Z" fill="white" stroke="#660000" stroke-miterlimit="10"/>
<path d="M44.6895 11.3448C43.0919 11.3448 41.7967 9.02906 41.7967 6.17241C41.7967 3.31577 43.0919 1 44.6895 1C46.2872 1 47.5824 3.31577 47.5824 6.17241C47.5824 9.02906 46.2872 11.3448 44.6895 11.3448Z" fill="white" stroke="#670000" stroke-miterlimit="10"/>
<path d="M45.1757 11.3448C43.5781 11.3448 42.2829 9.02906 42.2829 6.17241C42.2829 3.31577 43.5781 1 45.1757 1C46.7734 1 48.0686 3.31577 48.0686 6.17241C48.0686 9.02906 46.7734 11.3448 45.1757 11.3448Z" fill="white" stroke="#670000" stroke-miterlimit="10"/>
<path d="M45.6538 11.3448C44.0561 11.3448 42.7609 9.02906 42.7609 6.17241C42.7609 3.31577 44.0561 1 45.6538 1C47.2515 1 48.5466 3.31577 48.5466 6.17241C48.5466 9.02906 47.2515 11.3448 45.6538 11.3448Z" fill="white" stroke="#680000" stroke-miterlimit="10"/>
<path d="M46.14 11.3448C44.5423 11.3448 43.2471 9.02906 43.2471 6.17241C43.2471 3.31577 44.5423 1 46.14 1C47.7377 1 49.0328 3.31577 49.0328 6.17241C49.0328 9.02906 47.7377 11.3448 46.14 11.3448Z" fill="white" stroke="#680000" stroke-miterlimit="10"/>
<path d="M46.618 11.3448C45.0203 11.3448 43.7251 9.02906 43.7251 6.17241C43.7251 3.31577 45.0203 1 46.618 1C48.2157 1 49.5109 3.31577 49.5109 6.17241C49.5109 9.02906 48.2157 11.3448 46.618 11.3448Z" fill="white" stroke="#680000" stroke-miterlimit="10"/>
<path d="M47.0962 11.3448C45.4985 11.3448 44.2033 9.02906 44.2033 6.17241C44.2033 3.31577 45.4985 1 47.0962 1C48.6938 1 49.989 3.31577 49.989 6.17241C49.989 9.02906 48.6938 11.3448 47.0962 11.3448Z" fill="white" stroke="#690000" stroke-miterlimit="10"/>
<path d="M47.5822 11.3448C45.9846 11.3448 44.6894 9.02906 44.6894 6.17241C44.6894 3.31577 45.9846 1 47.5822 1C49.1799 1 50.4751 3.31577 50.4751 6.17241C50.4751 9.02906 49.1799 11.3448 47.5822 11.3448Z" fill="white" stroke="#690000" stroke-miterlimit="10"/>
<path d="M48.0603 11.3448C46.4626 11.3448 45.1674 9.02906 45.1674 6.17241C45.1674 3.31577 46.4626 1 48.0603 1C49.6579 1 50.9531 3.31577 50.9531 6.17241C50.9531 9.02906 49.6579 11.3448 48.0603 11.3448Z" fill="white" stroke="#6A0000" stroke-miterlimit="10"/>
<path d="M48.5468 11.3448C46.9492 11.3448 45.654 9.02906 45.654 6.17241C45.654 3.31577 46.9492 1 48.5468 1C50.1445 1 51.4397 3.31577 51.4397 6.17241C51.4397 9.02906 50.1445 11.3448 48.5468 11.3448Z" fill="white" stroke="#6A0000" stroke-miterlimit="10"/>
<path d="M49.0245 11.3448C47.4268 11.3448 46.1316 9.02906 46.1316 6.17241C46.1316 3.31577 47.4268 1 49.0245 1C50.6222 1 51.9174 3.31577 51.9174 6.17241C51.9174 9.02906 50.6222 11.3448 49.0245 11.3448Z" fill="white" stroke="#6B0000" stroke-miterlimit="10"/>
<path d="M49.5111 11.3448C47.9134 11.3448 46.6182 9.02906 46.6182 6.17241C46.6182 3.31577 47.9134 1 49.5111 1C51.1088 1 52.4039 3.31577 52.4039 6.17241C52.4039 9.02906 51.1088 11.3448 49.5111 11.3448Z" fill="white" stroke="#6B0000" stroke-miterlimit="10"/>
<path d="M49.9892 11.3448C48.3915 11.3448 47.0964 9.02906 47.0964 6.17241C47.0964 3.31577 48.3915 1 49.9892 1C51.5869 1 52.8821 3.31577 52.8821 6.17241C52.8821 9.02906 51.5869 11.3448 49.9892 11.3448Z" fill="white" stroke="#6C0000" stroke-miterlimit="10"/>
<path d="M50.4753 11.3448C48.8776 11.3448 47.5824 9.02906 47.5824 6.17241C47.5824 3.31577 48.8776 1 50.4753 1C52.073 1 53.3682 3.31577 53.3682 6.17241C53.3682 9.02906 52.073 11.3448 50.4753 11.3448Z" fill="white" stroke="#6C0000" stroke-miterlimit="10"/>
<path d="M50.9533 11.3448C49.3557 11.3448 48.0605 9.02906 48.0605 6.17241C48.0605 3.31577 49.3557 1 50.9533 1C52.551 1 53.8462 3.31577 53.8462 6.17241C53.8462 9.02906 52.551 11.3448 50.9533 11.3448Z" fill="white" stroke="#6D0000" stroke-miterlimit="10"/>
<path d="M51.4315 11.3448C49.8338 11.3448 48.5386 9.02906 48.5386 6.17241C48.5386 3.31577 49.8338 1 51.4315 1C53.0292 1 54.3243 3.31577 54.3243 6.17241C54.3243 9.02906 53.0292 11.3448 51.4315 11.3448Z" fill="white" stroke="#6D0000" stroke-miterlimit="10"/>
<path d="M51.9176 11.3448C50.3199 11.3448 49.0247 9.02906 49.0247 6.17241C49.0247 3.31577 50.3199 1 51.9176 1C53.5152 1 54.8104 3.31577 54.8104 6.17241C54.8104 9.02906 53.5152 11.3448 51.9176 11.3448Z" fill="white" stroke="#6D0000" stroke-miterlimit="10"/>
<path d="M52.3957 11.3448C50.798 11.3448 49.5029 9.02906 49.5029 6.17241C49.5029 3.31577 50.798 1 52.3957 1C53.9934 1 55.2886 3.31577 55.2886 6.17241C55.2886 9.02906 53.9934 11.3448 52.3957 11.3448Z" fill="white" stroke="#6E0000" stroke-miterlimit="10"/>
<path d="M52.8818 11.3448C51.2841 11.3448 49.9889 9.02906 49.9889 6.17241C49.9889 3.31577 51.2841 1 52.8818 1C54.4795 1 55.7747 3.31577 55.7747 6.17241C55.7747 9.02906 54.4795 11.3448 52.8818 11.3448Z" fill="white" stroke="#6E0000" stroke-miterlimit="10"/>
<path d="M53.36 11.3448C51.7623 11.3448 50.4671 9.02906 50.4671 6.17241C50.4671 3.31577 51.7623 1 53.36 1C54.9576 1 56.2528 3.31577 56.2528 6.17241C56.2528 9.02906 54.9576 11.3448 53.36 11.3448Z" fill="white" stroke="#6F0000" stroke-miterlimit="10"/>
<path d="M53.846 11.3448C52.2484 11.3448 50.9532 9.02906 50.9532 6.17241C50.9532 3.31577 52.2484 1 53.846 1C55.4437 1 56.7389 3.31577 56.7389 6.17241C56.7389 9.02906 55.4437 11.3448 53.846 11.3448Z" fill="white" stroke="#6F0000" stroke-miterlimit="10"/>
<path d="M54.3242 11.3448C52.7265 11.3448 51.4313 9.02906 51.4313 6.17241C51.4313 3.31577 52.7265 1 54.3242 1C55.9219 1 57.217 3.31577 57.217 6.17241C57.217 9.02906 55.9219 11.3448 54.3242 11.3448Z" fill="white" stroke="#700000" stroke-miterlimit="10"/>
<path d="M54.8022 11.3448C53.2045 11.3448 51.9094 9.02906 51.9094 6.17241C51.9094 3.31577 53.2045 1 54.8022 1C56.3999 1 57.6951 3.31577 57.6951 6.17241C57.6951 9.02906 56.3999 11.3448 54.8022 11.3448Z" fill="white" stroke="#700000" stroke-miterlimit="10"/>
<path d="M55.2884 11.3448C53.6907 11.3448 52.3956 9.02906 52.3956 6.17241C52.3956 3.31577 53.6907 1 55.2884 1C56.8861 1 58.1813 3.31577 58.1813 6.17241C58.1813 9.02906 56.8861 11.3448 55.2884 11.3448Z" fill="white" stroke="#710000" stroke-miterlimit="10"/>
<path d="M55.7664 11.3448C54.1688 11.3448 52.8736 9.02906 52.8736 6.17241C52.8736 3.31577 54.1688 1 55.7664 1C57.3641 1 58.6593 3.31577 58.6593 6.17241C58.6593 9.02906 57.3641 11.3448 55.7664 11.3448Z" fill="white" stroke="#710000" stroke-miterlimit="10"/>
<path d="M56.2525 11.3448C54.6548 11.3448 53.3597 9.02906 53.3597 6.17241C53.3597 3.31577 54.6548 1 56.2525 1C57.8502 1 59.1454 3.31577 59.1454 6.17241C59.1454 9.02906 57.8502 11.3448 56.2525 11.3448Z" fill="white" stroke="#710000" stroke-miterlimit="10"/>
<path d="M56.7307 11.3448C55.133 11.3448 53.8378 9.02906 53.8378 6.17241C53.8378 3.31577 55.133 1 56.7307 1C58.3284 1 59.6235 3.31577 59.6235 6.17241C59.6235 9.02906 58.3284 11.3448 56.7307 11.3448Z" fill="white" stroke="#720000" stroke-miterlimit="10"/>
<path d="M57.2173 11.3448C55.6196 11.3448 54.3244 9.02906 54.3244 6.17241C54.3244 3.31577 55.6196 1 57.2173 1C58.8149 1 60.1101 3.31577 60.1101 6.17241C60.1101 9.02906 58.8149 11.3448 57.2173 11.3448Z" fill="white" stroke="#720000" stroke-miterlimit="10"/>
<path d="M57.6949 11.3448C56.0972 11.3448 54.8021 9.02906 54.8021 6.17241C54.8021 3.31577 56.0972 1 57.6949 1C59.2926 1 60.5878 3.31577 60.5878 6.17241C60.5878 9.02906 59.2926 11.3448 57.6949 11.3448Z" fill="white" stroke="#730000" stroke-miterlimit="10"/>
<path d="M58.1729 11.3448C56.5753 11.3448 55.2801 9.02906 55.2801 6.17241C55.2801 3.31577 56.5753 1 58.1729 1C59.7706 1 61.0658 3.31577 61.0658 6.17241C61.0658 9.02906 59.7706 11.3448 58.1729 11.3448Z" fill="white" stroke="#730000" stroke-miterlimit="10"/>
<path d="M58.6595 11.3448C57.0618 11.3448 55.7667 9.02906 55.7667 6.17241C55.7667 3.31577 57.0618 1 58.6595 1C60.2572 1 61.5524 3.31577 61.5524 6.17241C61.5524 9.02906 60.2572 11.3448 58.6595 11.3448Z" fill="white" stroke="#740000" stroke-miterlimit="10"/>
<path d="M59.1372 11.3448C57.5395 11.3448 56.2443 9.02906 56.2443 6.17241C56.2443 3.31577 57.5395 1 59.1372 1C60.7349 1 62.03 3.31577 62.03 6.17241C62.03 9.02906 60.7349 11.3448 59.1372 11.3448Z" fill="white" stroke="#740000" stroke-miterlimit="10"/>
<path d="M59.6237 11.3448C58.0261 11.3448 56.7309 9.02906 56.7309 6.17241C56.7309 3.31577 58.0261 1 59.6237 1C61.2214 1 62.5166 3.31577 62.5166 6.17241C62.5166 9.02906 61.2214 11.3448 59.6237 11.3448Z" fill="white" stroke="#750000" stroke-miterlimit="10"/>
<path d="M60.1018 11.3448C58.5041 11.3448 57.2089 9.02906 57.2089 6.17241C57.2089 3.31577 58.5041 1 60.1018 1C61.6995 1 62.9946 3.31577 62.9946 6.17241C62.9946 9.02906 61.6995 11.3448 60.1018 11.3448Z" fill="white" stroke="#750000" stroke-miterlimit="10"/>
<path d="M60.588 11.3448C58.9903 11.3448 57.6951 9.02906 57.6951 6.17241C57.6951 3.31577 58.9903 1 60.588 1C62.1857 1 63.4808 3.31577 63.4808 6.17241C63.4808 9.02906 62.1857 11.3448 60.588 11.3448Z" fill="white" stroke="#750000" stroke-miterlimit="10"/>
<path d="M61.066 11.3448C59.4683 11.3448 58.1731 9.02906 58.1731 6.17241C58.1731 3.31577 59.4683 1 61.066 1C62.6637 1 63.9589 3.31577 63.9589 6.17241C63.9589 9.02906 62.6637 11.3448 61.066 11.3448Z" fill="white" stroke="#760000" stroke-miterlimit="10"/>
<path d="M61.5442 11.3448C59.9465 11.3448 58.6513 9.02906 58.6513 6.17241C58.6513 3.31577 59.9465 1 61.5442 1C63.1418 1 64.437 3.31577 64.437 6.17241C64.437 9.02906 63.1418 11.3448 61.5442 11.3448Z" fill="white" stroke="#760000" stroke-miterlimit="10"/>
<path d="M62.0302 11.3448C60.4326 11.3448 59.1374 9.02906 59.1374 6.17241C59.1374 3.31577 60.4326 1 62.0302 1C63.6279 1 64.9231 3.31577 64.9231 6.17241C64.9231 9.02906 63.6279 11.3448 62.0302 11.3448Z" fill="white" stroke="#770000" stroke-miterlimit="10"/>
<path d="M62.5084 11.3448C60.9107 11.3448 59.6155 9.02906 59.6155 6.17241C59.6155 3.31577 60.9107 1 62.5084 1C64.1061 1 65.4012 3.31577 65.4012 6.17241C65.4012 9.02906 64.1061 11.3448 62.5084 11.3448Z" fill="white" stroke="#770000" stroke-miterlimit="10"/>
<path d="M62.9945 11.3448C61.3968 11.3448 60.1016 9.02906 60.1016 6.17241C60.1016 3.31577 61.3968 1 62.9945 1C64.5922 1 65.8873 3.31577 65.8873 6.17241C65.8873 9.02906 64.5922 11.3448 62.9945 11.3448Z" fill="white" stroke="#780000" stroke-miterlimit="10"/>
<path d="M63.4726 11.3448C61.8749 11.3448 60.5798 9.02906 60.5798 6.17241C60.5798 3.31577 61.8749 1 63.4726 1C65.0703 1 66.3655 3.31577 66.3655 6.17241C66.3655 9.02906 65.0703 11.3448 63.4726 11.3448Z" fill="white" stroke="#780000" stroke-miterlimit="10"/>
<path d="M63.9587 11.3448C62.361 11.3448 61.0658 9.02906 61.0658 6.17241C61.0658 3.31577 62.361 1 63.9587 1C65.5564 1 66.8516 3.31577 66.8516 6.17241C66.8516 9.02906 65.5564 11.3448 63.9587 11.3448Z" fill="white" stroke="#790000" stroke-miterlimit="10"/>
<path d="M64.4369 11.3448C62.8392 11.3448 61.544 9.02906 61.544 6.17241C61.544 3.31577 62.8392 1 64.4369 1C66.0345 1 67.3297 3.31577 67.3297 6.17241C67.3297 9.02906 66.0345 11.3448 64.4369 11.3448Z" fill="white" stroke="#790000" stroke-miterlimit="10"/>
<path d="M64.9149 11.3448C63.3172 11.3448 62.022 9.02906 62.022 6.17241C62.022 3.31577 63.3172 1 64.9149 1C66.5126 1 67.8077 3.31577 67.8077 6.17241C67.8077 9.02906 66.5126 11.3448 64.9149 11.3448Z" fill="white" stroke="#790000" stroke-miterlimit="10"/>
<path d="M65.401 11.3448C63.8033 11.3448 62.5081 9.02906 62.5081 6.17241C62.5081 3.31577 63.8033 1 65.401 1C66.9986 1 68.2938 3.31577 68.2938 6.17241C68.2938 9.02906 66.9986 11.3448 65.401 11.3448Z" fill="white" stroke="#7A0000" stroke-miterlimit="10"/>
<path d="M65.8791 11.3448C64.2814 11.3448 62.9863 9.02906 62.9863 6.17241C62.9863 3.31577 64.2814 1 65.8791 1C67.4768 1 68.772 3.31577 68.772 6.17241C68.772 9.02906 67.4768 11.3448 65.8791 11.3448Z" fill="white" stroke="#7A0000" stroke-miterlimit="10"/>
<path d="M66.3652 11.3448C64.7675 11.3448 63.4723 9.02906 63.4723 6.17241C63.4723 3.31577 64.7675 1 66.3652 1C67.9629 1 69.2581 3.31577 69.2581 6.17241C69.2581 9.02906 67.9629 11.3448 66.3652 11.3448Z" fill="white" stroke="#7B0000" stroke-miterlimit="10"/>
<path d="M66.8433 11.3448C65.2457 11.3448 63.9505 9.02906 63.9505 6.17241C63.9505 3.31577 65.2457 1 66.8433 1C68.441 1 69.7362 3.31577 69.7362 6.17241C69.7362 9.02906 68.441 11.3448 66.8433 11.3448Z" fill="white" stroke="#7B0000" stroke-miterlimit="10"/>
<path d="M67.3299 11.3448C65.7322 11.3448 64.4371 9.02906 64.4371 6.17241C64.4371 3.31577 65.7322 1 67.3299 1C68.9276 1 70.2228 3.31577 70.2228 6.17241C70.2228 9.02906 68.9276 11.3448 67.3299 11.3448Z" fill="white" stroke="#7C0000" stroke-miterlimit="10"/>
<path d="M67.8076 11.3448C66.2099 11.3448 64.9147 9.02906 64.9147 6.17241C64.9147 3.31577 66.2099 1 67.8076 1C69.4053 1 70.7004 3.31577 70.7004 6.17241C70.7004 9.02906 69.4053 11.3448 67.8076 11.3448Z" fill="white" stroke="#7C0000" stroke-miterlimit="10"/>
<path d="M68.2856 11.3448C66.6879 11.3448 65.3928 9.02906 65.3928 6.17241C65.3928 3.31577 66.6879 1 68.2856 1C69.8833 1 71.1785 3.31577 71.1785 6.17241C71.1785 9.02906 69.8833 11.3448 68.2856 11.3448Z" fill="white" stroke="#7D0000" stroke-miterlimit="10"/>
<path d="M68.7722 11.3448C67.1745 11.3448 65.8793 9.02906 65.8793 6.17241C65.8793 3.31577 67.1745 1 68.7722 1C70.3699 1 71.665 3.31577 71.665 6.17241C71.665 9.02906 70.3699 11.3448 68.7722 11.3448Z" fill="white" stroke="#7D0000" stroke-miterlimit="10"/>
<path d="M69.2498 11.3448C67.6522 11.3448 66.357 9.02906 66.357 6.17241C66.357 3.31577 67.6522 1 69.2498 1C70.8475 1 72.1427 3.31577 72.1427 6.17241C72.1427 9.02906 70.8475 11.3448 69.2498 11.3448Z" fill="white" stroke="#7D0000" stroke-miterlimit="10"/>
<path d="M69.7364 11.3448C68.1387 11.3448 66.8436 9.02906 66.8436 6.17241C66.8436 3.31577 68.1387 1 69.7364 1C71.3341 1 72.6293 3.31577 72.6293 6.17241C72.6293 9.02906 71.3341 11.3448 69.7364 11.3448Z" fill="white" stroke="#7E0000" stroke-miterlimit="10"/>
<path d="M70.2144 11.3448C68.6168 11.3448 67.3216 9.02906 67.3216 6.17241C67.3216 3.31577 68.6168 1 70.2144 1C71.8121 1 73.1073 3.31577 73.1073 6.17241C73.1073 9.02906 71.8121 11.3448 70.2144 11.3448Z" fill="white" stroke="#7E0000" stroke-miterlimit="10"/>
<path d="M70.7006 11.3448C69.103 11.3448 67.8078 9.02906 67.8078 6.17241C67.8078 3.31577 69.103 1 70.7006 1C72.2983 1 73.5935 3.31577 73.5935 6.17241C73.5935 9.02906 72.2983 11.3448 70.7006 11.3448Z" fill="white" stroke="#7F0000" stroke-miterlimit="10"/>
<path d="M71.1787 11.3448C69.581 11.3448 68.2858 9.02906 68.2858 6.17241C68.2858 3.31577 69.581 1 71.1787 1C72.7764 1 74.0715 3.31577 74.0715 6.17241C74.0715 9.02906 72.7764 11.3448 71.1787 11.3448Z" fill="white" stroke="#7F0000" stroke-miterlimit="10"/>
<path d="M71.6568 11.3448C70.0591 11.3448 68.764 9.02906 68.764 6.17241C68.764 3.31577 70.0591 1 71.6568 1C73.2545 1 74.5497 3.31577 74.5497 6.17241C74.5497 9.02906 73.2545 11.3448 71.6568 11.3448Z" fill="white" stroke="#800000" stroke-miterlimit="10"/>
<path d="M72.1429 11.3448C70.5452 11.3448 69.2501 9.02906 69.2501 6.17241C69.2501 3.31577 70.5452 1 72.1429 1C73.7406 1 75.0358 3.31577 75.0358 6.17241C75.0358 9.02906 73.7406 11.3448 72.1429 11.3448Z" fill="white" stroke="#800000" stroke-miterlimit="10"/>
<path d="M72.6211 11.3448C71.0234 11.3448 69.7282 9.02906 69.7282 6.17241C69.7282 3.31577 71.0234 1 72.6211 1C74.2187 1 75.5139 3.31577 75.5139 6.17241C75.5139 9.02906 74.2187 11.3448 72.6211 11.3448Z" fill="white" stroke="#810000" stroke-miterlimit="10"/>
<path d="M73.1071 11.3448C71.5095 11.3448 70.2143 9.02906 70.2143 6.17241C70.2143 3.31577 71.5095 1 73.1071 1C74.7048 1 76 3.31577 76 6.17241C76 9.02906 74.7048 11.3448 73.1071 11.3448Z" fill="white" stroke="#810000" stroke-miterlimit="10"/>
<path d="M58.7994 14.4282C59.2021 14.3612 59.5673 14.1079 59.818 13.7218C60.0687 13.3357 60.1852 12.8471 60.1429 12.3593H30.5714V14.4282H58.7994Z" fill="url(#paint0_linear_3378_3045)" stroke="black" stroke-miterlimit="10"/>
<path d="M54.2996 16.5175C54.926 16.5175 55.4287 15.5924 55.4287 14.4485H30.5716V16.5175H54.2996Z" fill="url(#paint1_linear_3378_3045)" stroke="black" stroke-miterlimit="10"/>
<path d="M32.2859 47.0348H58.437C60.2783 42.0322 61.1547 36.5905 61.0002 31.1197C61.0202 26.0872 60.1462 21.108 58.437 16.5176H32.2859V47.0348Z" fill="url(#paint2_linear_3378_3045)" stroke="black" stroke-miterlimit="10"/>
<path d="M60.1426 22.933H33.8019" stroke="black" stroke-miterlimit="10"/>
<path d="M60.1426 20.6552H33.2909" stroke="black" stroke-miterlimit="10"/>
<path d="M59.2861 45.483H31.429" stroke="black" stroke-miterlimit="10"/>
<path d="M59.2861 18.5867H32.2861" stroke="black" stroke-miterlimit="10"/>
<path d="M60.1426 25.2108H33.2909" stroke="black" stroke-miterlimit="10"/>
<path d="M61 27.4789H33.1429" stroke="black" stroke-miterlimit="10"/>
<path d="M61 29.7567H33.1429" stroke="black" stroke-miterlimit="10"/>
<path d="M61 34.313H33.5714" stroke="black" stroke-miterlimit="10"/>
<path d="M61.8569 32.0345H33.1426" stroke="black" stroke-miterlimit="10"/>
<path d="M61 36.5896H33.1429" stroke="black" stroke-miterlimit="10"/>
<path d="M60.1426 38.8583H33.1426" stroke="black" stroke-miterlimit="10"/>
<path d="M60.1426 41.1355H33.1426" stroke="black" stroke-miterlimit="10"/>
<path d="M60.1426 43.4139H32.2854" stroke="black" stroke-miterlimit="10"/>
<path d="M46.0002 51.6897C44.8167 51.6897 43.8574 49.3739 43.8574 46.5173C43.8574 43.6606 44.8167 41.3448 46.0002 41.3448C47.1837 41.3448 48.1431 43.6606 48.1431 46.5173C48.1431 49.3739 47.1837 51.6897 46.0002 51.6897Z" fill="white" stroke="#560000" stroke-miterlimit="10"/>
<path d="M45.3073 51.6897C44.1239 51.6897 43.1645 49.3739 43.1645 46.5173C43.1645 43.6606 44.1239 41.3448 45.3073 41.3448C46.4908 41.3448 47.4502 43.6606 47.4502 46.5173C47.4502 49.3739 46.4908 51.6897 45.3073 51.6897Z" fill="#F7F7F7" stroke="#560000" stroke-miterlimit="10"/>
<path d="M44.6071 51.6897C43.4237 51.6897 42.4643 49.3739 42.4643 46.5173C42.4643 43.6606 43.4237 41.3448 44.6071 41.3448C45.7906 41.3448 46.75 43.6606 46.75 46.5173C46.75 49.3739 45.7906 51.6897 44.6071 51.6897Z" fill="#EFEFEF" stroke="#560000" stroke-miterlimit="10"/>
<path d="M43.9148 51.6897C42.7313 51.6897 41.7719 49.3739 41.7719 46.5173C41.7719 43.6606 42.7313 41.3448 43.9148 41.3448C45.0982 41.3448 46.0576 43.6606 46.0576 46.5173C46.0576 49.3739 45.0982 51.6897 43.9148 51.6897Z" fill="#E7E7E7" stroke="#560000" stroke-miterlimit="10"/>
<path d="M43.2141 51.6897C42.0306 51.6897 41.0712 49.3739 41.0712 46.5173C41.0712 43.6606 42.0306 41.3448 43.2141 41.3448C44.3975 41.3448 45.3569 43.6606 45.3569 46.5173C45.3569 49.3739 44.3975 51.6897 43.2141 51.6897Z" fill="#DFDFDF" stroke="#560000" stroke-miterlimit="10"/>
<path d="M42.5139 51.6897C41.3304 51.6897 40.371 49.3739 40.371 46.5173C40.371 43.6606 41.3304 41.3448 42.5139 41.3448C43.6973 41.3448 44.6567 43.6606 44.6567 46.5173C44.6567 49.3739 43.6973 51.6897 42.5139 51.6897Z" fill="#D7D7D7" stroke="#550000" stroke-miterlimit="10"/>
<path d="M41.8215 51.6897C40.638 51.6897 39.6786 49.3739 39.6786 46.5173C39.6786 43.6606 40.638 41.3448 41.8215 41.3448C43.005 41.3448 43.9644 43.6606 43.9644 46.5173C43.9644 49.3739 43.005 51.6897 41.8215 51.6897Z" fill="#CFCFCF" stroke="#550000" stroke-miterlimit="10"/>
<path d="M41.1291 51.6897C39.9456 51.6897 38.9863 49.3739 38.9863 46.5173C38.9863 43.6606 39.9456 41.3448 41.1291 41.3448C42.3126 41.3448 43.272 43.6606 43.272 46.5173C43.272 49.3739 42.3126 51.6897 41.1291 51.6897Z" fill="#C7C7C7" stroke="#550000" stroke-miterlimit="10"/>
<path d="M40.4284 51.6897C39.245 51.6897 38.2856 49.3739 38.2856 46.5173C38.2856 43.6606 39.245 41.3448 40.4284 41.3448C41.6119 41.3448 42.5713 43.6606 42.5713 46.5173C42.5713 49.3739 41.6119 51.6897 40.4284 51.6897Z" fill="#C0C0C0" stroke="#550000" stroke-miterlimit="10"/>
<path d="M39.7365 51.6897C38.5531 51.6897 37.5937 49.3739 37.5937 46.5173C37.5937 43.6606 38.5531 41.3448 39.7365 41.3448C40.92 41.3448 41.8794 43.6606 41.8794 46.5173C41.8794 49.3739 40.92 51.6897 39.7365 51.6897Z" fill="#B8B8B8" stroke="#550000" stroke-miterlimit="10"/>
<path d="M39.0359 51.6897C37.8524 51.6897 36.893 49.3739 36.893 46.5173C36.893 43.6606 37.8524 41.3448 39.0359 41.3448C40.2193 41.3448 41.1787 43.6606 41.1787 46.5173C41.1787 49.3739 40.2193 51.6897 39.0359 51.6897Z" fill="#B0B0B0" stroke="#550000" stroke-miterlimit="10"/>
<path d="M38.3435 51.6897C37.16 51.6897 36.2006 49.3739 36.2006 46.5173C36.2006 43.6606 37.16 41.3448 38.3435 41.3448C39.5269 41.3448 40.4863 43.6606 40.4863 46.5173C40.4863 49.3739 39.5269 51.6897 38.3435 51.6897Z" fill="#A8A8A8" stroke="#550000" stroke-miterlimit="10"/>
<path d="M37.6428 51.6897C36.4593 51.6897 35.4999 49.3739 35.4999 46.5173C35.4999 43.6606 36.4593 41.3448 37.6428 41.3448C38.8263 41.3448 39.7856 43.6606 39.7856 46.5173C39.7856 49.3739 38.8263 51.6897 37.6428 51.6897Z" fill="#A0A0A0" stroke="#550000" stroke-miterlimit="10"/>
<path d="M36.9421 51.6897C35.7586 51.6897 34.7992 49.3739 34.7992 46.5173C34.7992 43.6606 35.7586 41.3448 36.9421 41.3448C38.1256 41.3448 39.085 43.6606 39.085 46.5173C39.085 49.3739 38.1256 51.6897 36.9421 51.6897Z" fill="#989898" stroke="#540000" stroke-miterlimit="10"/>
<path d="M36.2502 51.6897C35.0667 51.6897 34.1074 49.3739 34.1074 46.5173C34.1074 43.6606 35.0667 41.3448 36.2502 41.3448C37.4337 41.3448 38.3931 43.6606 38.3931 46.5173C38.3931 49.3739 37.4337 51.6897 36.2502 51.6897Z" fill="#909090" stroke="#540000" stroke-miterlimit="10"/>
<path d="M35.5573 51.6897C34.3739 51.6897 33.4145 49.3739 33.4145 46.5173C33.4145 43.6606 34.3739 41.3448 35.5573 41.3448C36.7408 41.3448 37.7002 43.6606 37.7002 46.5173C37.7002 49.3739 36.7408 51.6897 35.5573 51.6897Z" fill="#888888" stroke="#540000" stroke-miterlimit="10"/>
<path d="M34.8571 51.6897C33.6737 51.6897 32.7143 49.3739 32.7143 46.5173C32.7143 43.6606 33.6737 41.3448 34.8571 41.3448C36.0406 41.3448 37 43.6606 37 46.5173C37 49.3739 36.0406 51.6897 34.8571 51.6897Z" fill="#808080" stroke="#540000" stroke-miterlimit="10"/>
<path d="M22.8571 61C16.9398 61 12.1428 47.5685 12.1428 31C12.1428 14.4315 16.9398 1 22.8571 1C28.7745 1 33.5714 14.4315 33.5714 31C33.5714 47.5685 28.7745 61 22.8571 61Z" fill="white" stroke="#540000" stroke-miterlimit="10"/>
<path d="M22.1566 61C16.2392 61 11.4423 47.5685 11.4423 31C11.4423 14.4315 16.2392 1 22.1566 1C28.0739 1 32.8708 14.4315 32.8708 31C32.8708 47.5685 28.0739 61 22.1566 61Z" fill="white" stroke="#540000" stroke-miterlimit="10"/>
<path d="M21.4643 61C15.547 61 10.75 47.5685 10.75 31C10.75 14.4315 15.547 1 21.4643 1C27.3816 1 32.1786 14.4315 32.1786 31C32.1786 47.5685 27.3816 61 21.4643 61Z" fill="white" stroke="#540000" stroke-miterlimit="10"/>
<path d="M20.7722 61C14.8548 61 10.0579 47.5685 10.0579 31C10.0579 14.4315 14.8548 1 20.7722 1C26.6895 1 31.4865 14.4315 31.4865 31C31.4865 47.5685 26.6895 61 20.7722 61Z" fill="white" stroke="#540000" stroke-miterlimit="10"/>
<path d="M20.0716 61C14.1543 61 9.35732 47.5685 9.35732 31C9.35732 14.4315 14.1543 1 20.0716 1C25.9889 1 30.7859 14.4315 30.7859 31C30.7859 47.5685 25.9889 61 20.0716 61Z" fill="white" stroke="#540000" stroke-miterlimit="10"/>
<path d="M19.379 61C13.4616 61 8.66469 47.5685 8.66469 31C8.66469 14.4315 13.4616 1 19.379 1C25.2963 1 30.0933 14.4315 30.0933 31C30.0933 47.5685 25.2963 61 19.379 61Z" fill="white" stroke="#540000" stroke-miterlimit="10"/>
<path d="M18.6788 61C12.7614 61 7.96449 47.5685 7.96449 31C7.96449 14.4315 12.7614 1 18.6788 1C24.5961 1 29.3931 14.4315 29.3931 31C29.3931 47.5685 24.5961 61 18.6788 61Z" fill="white" stroke="#540000" stroke-miterlimit="10"/>
<path d="M17.9781 61C12.0608 61 7.26381 47.5685 7.26381 31C7.26381 14.4315 12.0608 1 17.9781 1C23.8954 1 28.6924 14.4315 28.6924 31C28.6924 47.5685 23.8954 61 17.9781 61Z" fill="white" stroke="#540000" stroke-miterlimit="10"/>
<path d="M17.2855 61C11.3681 61 6.57119 47.5685 6.57119 31C6.57119 14.4315 11.3681 1 17.2855 1C23.2028 1 27.9998 14.4315 27.9998 31C27.9998 47.5685 23.2028 61 17.2855 61Z" fill="white" stroke="#540000" stroke-miterlimit="10"/>
<path d="M16.5933 61C10.676 61 5.87905 47.5685 5.87905 31C5.87905 14.4315 10.676 1 16.5933 1C22.5107 1 27.3076 14.4315 27.3076 31C27.3076 47.5685 22.5107 61 16.5933 61Z" fill="white" stroke="#540000" stroke-miterlimit="10"/>
<path d="M15.8928 61C9.97543 61 5.17848 47.5685 5.17848 31C5.17848 14.4315 9.97543 1 15.8928 1C21.8101 1 26.6071 14.4315 26.6071 31C26.6071 47.5685 21.8101 61 15.8928 61Z" fill="white" stroke="#540000" stroke-miterlimit="10"/>
<path d="M15.2005 61C9.28318 61 4.48623 47.5685 4.48623 31C4.48623 14.4315 9.28318 1 15.2005 1C21.1178 1 25.9148 14.4315 25.9148 31C25.9148 47.5685 21.1178 61 15.2005 61Z" fill="white" stroke="#540000" stroke-miterlimit="10"/>
<path d="M14.4999 61C8.58261 61 3.78566 47.5685 3.78566 31C3.78566 14.4315 8.58261 1 14.4999 1C20.4173 1 25.2142 14.4315 25.2142 31C25.2142 47.5685 20.4173 61 14.4999 61Z" fill="white" stroke="#540000" stroke-miterlimit="10"/>
<path d="M13.7993 61C7.88193 61 3.08498 47.5685 3.08498 31C3.08498 14.4315 7.88193 1 13.7993 1C19.7166 1 24.5135 14.4315 24.5135 31C24.5135 47.5685 19.7166 61 13.7993 61Z" fill="white" stroke="#540000" stroke-miterlimit="10"/>
<path d="M13.1071 61C7.18979 61 2.39284 47.5685 2.39284 31C2.39284 14.4315 7.18979 1 13.1071 1C19.0245 1 23.8214 14.4315 23.8214 31C23.8214 47.5685 19.0245 61 13.1071 61Z" fill="white" stroke="#540000" stroke-miterlimit="10"/>
<path d="M12.4064 61C6.48911 61 1.69216 47.5685 1.69216 31C1.69216 14.4315 6.48911 1 12.4064 1C18.3238 1 23.1207 14.4315 23.1207 31C23.1207 47.5685 18.3238 61 12.4064 61Z" fill="white" stroke="#540000" stroke-miterlimit="10"/>
<path d="M11.7143 61C5.79697 61 1.00002 47.5685 1.00002 31C1.00002 14.4315 5.79697 1 11.7143 1C17.6316 1 22.4286 14.4315 22.4286 31C22.4286 47.5685 17.6316 61 11.7143 61Z" fill="white" stroke="#540000" stroke-miterlimit="10"/>
<path d="M11.4997 56.3449C7.83097 56.3449 4.85686 45.2292 4.85686 31.5173C4.85686 17.8054 7.83097 6.6897 11.4997 6.6897C15.1685 6.6897 18.1426 17.8054 18.1426 31.5173C18.1426 45.2292 15.1685 56.3449 11.4997 56.3449Z" fill="white" stroke="black" stroke-miterlimit="10"/>
<path d="M11.1703 36.1725C10.1598 36.1725 9.34066 33.8745 9.34066 31.0399C9.34066 28.2052 10.1598 25.9072 11.1703 25.9072C12.1808 25.9072 13 28.2052 13 31.0399C13 33.8745 12.1808 36.1725 11.1703 36.1725Z" fill="white" stroke="black" stroke-miterlimit="10"/>
<path d="M11.0468 36.1725C10.0363 36.1725 9.21712 33.8745 9.21712 31.0399C9.21712 28.2052 10.0363 25.9072 11.0468 25.9072C12.0573 25.9072 12.8765 28.2052 12.8765 31.0399C12.8765 33.8745 12.0573 36.1725 11.0468 36.1725Z" fill="white" stroke="black" stroke-miterlimit="10"/>
<path d="M10.9316 36.1725C9.92107 36.1725 9.10189 33.8745 9.10189 31.0399C9.10189 28.2052 9.92107 25.9072 10.9316 25.9072C11.9421 25.9072 12.7612 28.2052 12.7612 31.0399C12.7612 33.8745 11.9421 36.1725 10.9316 36.1725Z" fill="white" stroke="black" stroke-miterlimit="10"/>
<path d="M10.808 36.1725C9.79752 36.1725 8.97835 33.8745 8.97835 31.0399C8.97835 28.2052 9.79752 25.9072 10.808 25.9072C11.8185 25.9072 12.6377 28.2052 12.6377 31.0399C12.6377 33.8745 11.8185 36.1725 10.808 36.1725Z" fill="white" stroke="black" stroke-miterlimit="10"/>
<path d="M10.6923 36.1725C9.6818 36.1725 8.86263 33.8745 8.86263 31.0399C8.86263 28.2052 9.6818 25.9072 10.6923 25.9072C11.7028 25.9072 12.522 28.2052 12.522 31.0399C12.522 33.8745 11.7028 36.1725 10.6923 36.1725Z" fill="white" stroke="black" stroke-miterlimit="10"/>
<path d="M10.5688 36.1725C9.55827 36.1725 8.73909 33.8745 8.73909 31.0399C8.73909 28.2052 9.55827 25.9072 10.5688 25.9072C11.5793 25.9072 12.3984 28.2052 12.3984 31.0399C12.3984 33.8745 11.5793 36.1725 10.5688 36.1725Z" fill="white" stroke="black" stroke-miterlimit="10"/>
<path d="M10.453 36.1725C9.44254 36.1725 8.62337 33.8745 8.62337 31.0399C8.62337 28.2052 9.44254 25.9072 10.453 25.9072C11.4635 25.9072 12.2827 28.2052 12.2827 31.0399C12.2827 33.8745 11.4635 36.1725 10.453 36.1725Z" fill="white" stroke="black" stroke-miterlimit="10"/>
<path d="M10.3295 36.1725C9.31901 36.1725 8.49984 33.8745 8.49984 31.0399C8.49984 28.2052 9.31901 25.9072 10.3295 25.9072C11.34 25.9072 12.1592 28.2052 12.1592 31.0399C12.1592 33.8745 11.34 36.1725 10.3295 36.1725Z" fill="white" stroke="black" stroke-miterlimit="10"/>
<path d="M10.2143 36.1725C9.20377 36.1725 8.3846 33.8745 8.3846 31.0399C8.3846 28.2052 9.20377 25.9072 10.2143 25.9072C11.2248 25.9072 12.0439 28.2052 12.0439 31.0399C12.0439 33.8745 11.2248 36.1725 10.2143 36.1725Z" fill="white" stroke="black" stroke-miterlimit="10"/>
<path d="M10.0986 36.1725C9.08805 36.1725 8.26888 33.8745 8.26888 31.0399C8.26888 28.2052 9.08805 25.9072 10.0986 25.9072C11.1091 25.9072 11.9282 28.2052 11.9282 31.0399C11.9282 33.8745 11.1091 36.1725 10.0986 36.1725Z" fill="white" stroke="black" stroke-miterlimit="10"/>
<path d="M9.97502 36.1725C8.96452 36.1725 8.14534 33.8745 8.14534 31.0399C8.14534 28.2052 8.96452 25.9072 9.97502 25.9072C10.9855 25.9072 11.8047 28.2052 11.8047 31.0399C11.8047 33.8745 10.9855 36.1725 9.97502 36.1725Z" fill="white" stroke="black" stroke-miterlimit="10"/>
<path d="M9.86027 36.1725C8.84977 36.1725 8.0306 33.8745 8.0306 31.0399C8.0306 28.2052 8.84977 25.9072 9.86027 25.9072C10.8708 25.9072 11.6899 28.2052 11.6899 31.0399C11.6899 33.8745 10.8708 36.1725 9.86027 36.1725Z" fill="white" stroke="black" stroke-miterlimit="10"/>
<path d="M9.73625 36.1725C8.72575 36.1725 7.90658 33.8745 7.90658 31.0399C7.90658 28.2052 8.72575 25.9072 9.73625 25.9072C10.7467 25.9072 11.5659 28.2052 11.5659 31.0399C11.5659 33.8745 10.7467 36.1725 9.73625 36.1725Z" fill="white" stroke="black" stroke-miterlimit="10"/>
<path d="M9.62101 36.1725C8.61051 36.1725 7.79134 33.8745 7.79134 31.0399C7.79134 28.2052 8.61051 25.9072 9.62101 25.9072C10.6315 25.9072 11.4507 28.2052 11.4507 31.0399C11.4507 33.8745 10.6315 36.1725 9.62101 36.1725Z" fill="white" stroke="black" stroke-miterlimit="10"/>
<path d="M9.49699 36.1725C8.48649 36.1725 7.66732 33.8745 7.66732 31.0399C7.66732 28.2052 8.48649 25.9072 9.49699 25.9072C10.5075 25.9072 11.3267 28.2052 11.3267 31.0399C11.3267 33.8745 10.5075 36.1725 9.49699 36.1725Z" fill="white" stroke="black" stroke-miterlimit="10"/>
<path d="M9.38175 36.1725C8.37126 36.1725 7.55208 33.8745 7.55208 31.0399C7.55208 28.2052 8.37126 25.9072 9.38175 25.9072C10.3923 25.9072 11.2114 28.2052 11.2114 31.0399C11.2114 33.8745 10.3923 36.1725 9.38175 36.1725Z" fill="white" stroke="black" stroke-miterlimit="10"/>
<path d="M9.25822 36.1725C8.24772 36.1725 7.42855 33.8745 7.42855 31.0399C7.42855 28.2052 8.24772 25.9072 9.25822 25.9072C10.2687 25.9072 11.0879 28.2052 11.0879 31.0399C11.0879 33.8745 10.2687 36.1725 9.25822 36.1725Z" fill="white" stroke="black" stroke-miterlimit="10"/>
<defs>
<linearGradient id="paint0_linear_3378_3045" x1="60.1429" y1="13.4136" x2="30.5714" y2="13.4136" gradientUnits="userSpaceOnUse">
<stop stop-color="#B90000"/>
<stop offset="1" stop-color="#540000"/>
</linearGradient>
<linearGradient id="paint1_linear_3378_3045" x1="55.4287" y1="15.483" x2="30.5716" y2="15.483" gradientUnits="userSpaceOnUse">
<stop stop-color="#B90000"/>
<stop offset="1" stop-color="#540000"/>
</linearGradient>
<linearGradient id="paint2_linear_3378_3045" x1="32.2859" y1="31.7762" x2="61.0084" y2="31.7762" gradientUnits="userSpaceOnUse">
<stop stop-color="#540000"/>
<stop offset="0.98" stop-color="#B90000"/>
</linearGradient>
</defs>
</svg>
