<svg width="77" height="62" viewBox="0 0 77 62" fill="none" xmlns="http://www.w3.org/2000/svg">
<path d="M63.102 46.5176C59.5288 46.5176 56.6322 40.1492 56.6322 32.2935C56.6322 24.4377 59.5288 18.0693 63.102 18.0693C66.6751 18.0693 69.5718 24.4377 69.5718 32.2935C69.5718 40.1492 66.6751 46.5176 63.102 46.5176Z" fill="white" stroke="#333333" stroke-miterlimit="10"/>
<path d="M62.6732 46.5477C59.141 46.5477 56.2776 40.1571 56.2776 32.2739C56.2776 24.3906 59.141 18 62.6732 18C66.2054 18 69.0688 24.3906 69.0688 32.2739C69.0688 40.1571 66.2054 46.5477 62.6732 46.5477Z" fill="white" stroke="#333333" stroke-miterlimit="10"/>
<path d="M62.2527 46.5867C58.766 46.5867 55.9395 40.1738 55.9395 32.2631C55.9395 24.3524 58.766 17.9395 62.2527 17.9395C65.7394 17.9395 68.5659 24.3524 68.5659 32.2631C68.5659 40.1738 65.7394 46.5867 62.2527 46.5867Z" fill="white" stroke="#333333" stroke-miterlimit="10"/>
<path d="M61.8327 46.6168C58.3915 46.6168 55.6019 40.1816 55.6019 32.2435C55.6019 24.3053 58.3915 17.8701 61.8327 17.8701C65.2739 17.8701 68.0635 24.3053 68.0635 32.2435C68.0635 40.1816 65.2739 46.6168 61.8327 46.6168Z" fill="white" stroke="#333333" stroke-miterlimit="10"/>
<path d="M61.4042 46.6469C58.0086 46.6469 55.2558 40.1895 55.2558 32.2239C55.2558 24.2582 58.0086 17.8008 61.4042 17.8008C64.7999 17.8008 67.5526 24.2582 67.5526 32.2239C67.5526 40.1895 64.7999 46.6469 61.4042 46.6469Z" fill="white" stroke="#333333" stroke-miterlimit="10"/>
<path d="M60.9838 46.6757C57.6291 46.6757 54.9096 40.2005 54.9096 32.2129C54.9096 24.2252 57.6291 17.75 60.9838 17.75C64.3385 17.75 67.058 24.2252 67.058 32.2129C67.058 40.2005 64.3385 46.6757 60.9838 46.6757Z" fill="white" stroke="#333333" stroke-miterlimit="10"/>
<path d="M60.5633 46.7059C57.2541 46.7059 54.5715 40.2083 54.5715 32.1933C54.5715 24.1782 57.2541 17.6807 60.5633 17.6807C63.8724 17.6807 66.5551 24.1782 66.5551 32.1933C66.5551 40.2083 63.8724 46.7059 60.5633 46.7059Z" fill="white" stroke="#333333" stroke-miterlimit="10"/>
<path d="M60.1348 46.7458C56.8712 46.7458 54.2254 40.226 54.2254 32.1834C54.2254 24.1409 56.8712 17.6211 60.1348 17.6211C63.3985 17.6211 66.0442 24.1409 66.0442 32.1834C66.0442 40.226 63.3985 46.7458 60.1348 46.7458Z" fill="white" stroke="#333333" stroke-miterlimit="10"/>
<path d="M59.7143 46.7764C56.4962 46.7764 53.8874 40.2343 53.8874 32.1643C53.8874 24.0943 56.4962 17.5522 59.7143 17.5522C62.9324 17.5522 65.5413 24.0943 65.5413 32.1643C65.5413 40.2343 62.9324 46.7764 59.7143 46.7764Z" fill="white" stroke="#333333" stroke-miterlimit="10"/>
<path d="M59.2859 46.806C56.1132 46.806 53.5413 40.2417 53.5413 32.1442C53.5413 24.0467 56.1132 17.4824 59.2859 17.4824C62.4585 17.4824 65.0304 24.0467 65.0304 32.1442C65.0304 40.2417 62.4585 46.806 59.2859 46.806Z" fill="white" stroke="#333333" stroke-miterlimit="10"/>
<path d="M58.8654 46.845C55.7338 46.845 53.195 40.2584 53.195 32.1334C53.195 24.0085 55.7338 17.4219 58.8654 17.4219C61.9971 17.4219 64.5358 24.0085 64.5358 32.1334C64.5358 40.2584 61.9971 46.845 58.8654 46.845Z" fill="white" stroke="#333333" stroke-miterlimit="10"/>
<path d="M58.4449 46.8751C55.3588 46.8751 52.857 40.2662 52.857 32.1138C52.857 23.9614 55.3588 17.3525 58.4449 17.3525C61.531 17.3525 64.0328 23.9614 64.0328 32.1138C64.0328 40.2662 61.531 46.8751 58.4449 46.8751Z" fill="white" stroke="#333333" stroke-miterlimit="10"/>
<path d="M58.0171 46.9057C54.9764 46.9057 52.5115 40.2746 52.5115 32.0947C52.5115 23.9148 54.9764 17.2837 58.0171 17.2837C61.0577 17.2837 63.5226 23.9148 63.5226 32.0947C63.5226 40.2746 61.0577 46.9057 58.0171 46.9057Z" fill="white" stroke="#333333" stroke-miterlimit="10"/>
<path d="M57.5959 46.9355C54.6008 46.9355 52.1728 40.2866 52.1728 32.0847C52.1728 23.8828 54.6008 17.2339 57.5959 17.2339C60.591 17.2339 63.019 23.8828 63.019 32.0847C63.019 40.2866 60.591 46.9355 57.5959 46.9355Z" fill="white" stroke="#333333" stroke-miterlimit="10"/>
<path d="M57.1756 46.9646C54.2215 46.9646 51.8267 40.2934 51.8267 32.0641C51.8267 23.8348 54.2215 17.1636 57.1756 17.1636C60.1297 17.1636 62.5245 23.8348 62.5245 32.0641C62.5245 40.2934 60.1297 46.9646 57.1756 46.9646Z" fill="white" stroke="#333333" stroke-miterlimit="10"/>
<path d="M56.7472 47.004C53.8385 47.004 51.4806 40.3106 51.4806 32.0538C51.4806 23.797 53.8385 17.1035 56.7472 17.1035C59.6558 17.1035 62.0137 23.797 62.0137 32.0538C62.0137 40.3106 59.6558 47.004 56.7472 47.004Z" fill="white" stroke="#333333" stroke-miterlimit="10"/>
<path d="M56.3271 47.0347C53.464 47.0347 51.143 40.3189 51.143 32.0347C51.143 23.7504 53.464 17.0347 56.3271 17.0347C59.1902 17.0347 61.5112 23.7504 61.5112 32.0347C61.5112 40.3189 59.1902 47.0347 56.3271 47.0347Z" fill="white" stroke="#333333" stroke-miterlimit="10"/>
<path d="M39.5797 58.9317C38.1641 58.9317 37.0165 56.616 37.0165 53.7593C37.0165 50.9027 38.1641 48.5869 39.5797 48.5869C40.9954 48.5869 42.1429 50.9027 42.1429 53.7593C42.1429 56.616 40.9954 58.9317 39.5797 58.9317Z" fill="white" stroke="#333333" stroke-miterlimit="10"/>
<path d="M38.7554 58.9317C37.3398 58.9317 36.1922 56.616 36.1922 53.7593C36.1922 50.9027 37.3398 48.5869 38.7554 48.5869C40.171 48.5869 41.3186 50.9027 41.3186 53.7593C41.3186 56.616 40.171 58.9317 38.7554 58.9317Z" fill="white" stroke="#333333" stroke-miterlimit="10"/>
<path d="M37.9237 58.9317C36.5081 58.9317 35.3605 56.616 35.3605 53.7593C35.3605 50.9027 36.5081 48.5869 37.9237 48.5869C39.3394 48.5869 40.4869 50.9027 40.4869 53.7593C40.4869 56.616 39.3394 58.9317 37.9237 58.9317Z" fill="white" stroke="#333333" stroke-miterlimit="10"/>
<path d="M37.0905 58.9317C35.6749 58.9317 34.5273 56.616 34.5273 53.7593C34.5273 50.9027 35.6749 48.5869 37.0905 48.5869C38.5061 48.5869 39.6537 50.9027 39.6537 53.7593C39.6537 56.616 38.5061 58.9317 37.0905 58.9317Z" fill="white" stroke="#333333" stroke-miterlimit="10"/>
<path d="M36.2583 58.9317C34.8427 58.9317 33.6951 56.616 33.6951 53.7593C33.6951 50.9027 34.8427 48.5869 36.2583 48.5869C37.6739 48.5869 38.8215 50.9027 38.8215 53.7593C38.8215 56.616 37.6739 58.9317 36.2583 58.9317Z" fill="white" stroke="#333333" stroke-miterlimit="10"/>
<path d="M35.4257 58.9317C34.0101 58.9317 32.8625 56.616 32.8625 53.7593C32.8625 50.9027 34.0101 48.5869 35.4257 48.5869C36.8413 48.5869 37.9889 50.9027 37.9889 53.7593C37.9889 56.616 36.8413 58.9317 35.4257 58.9317Z" fill="white" stroke="#333333" stroke-miterlimit="10"/>
<path d="M34.5934 58.9317C33.1778 58.9317 32.0302 56.616 32.0302 53.7593C32.0302 50.9027 33.1778 48.5869 34.5934 48.5869C36.009 48.5869 37.1566 50.9027 37.1566 53.7593C37.1566 56.616 36.009 58.9317 34.5934 58.9317Z" fill="white" stroke="#333333" stroke-miterlimit="10"/>
<path d="M33.7613 58.9317C32.3456 58.9317 31.1981 56.616 31.1981 53.7593C31.1981 50.9027 32.3456 48.5869 33.7613 48.5869C35.1769 48.5869 36.3245 50.9027 36.3245 53.7593C36.3245 56.616 35.1769 58.9317 33.7613 58.9317Z" fill="white" stroke="#333333" stroke-miterlimit="10"/>
<path d="M32.9291 58.9317C31.5135 58.9317 30.3659 56.616 30.3659 53.7593C30.3659 50.9027 31.5135 48.5869 32.9291 48.5869C34.3447 48.5869 35.4923 50.9027 35.4923 53.7593C35.4923 56.616 34.3447 58.9317 32.9291 58.9317Z" fill="white" stroke="#333333" stroke-miterlimit="10"/>
<path d="M32.0959 58.9317C30.6802 58.9317 29.5327 56.616 29.5327 53.7593C29.5327 50.9027 30.6802 48.5869 32.0959 48.5869C33.5115 48.5869 34.6591 50.9027 34.6591 53.7593C34.6591 56.616 33.5115 58.9317 32.0959 58.9317Z" fill="white" stroke="#333333" stroke-miterlimit="10"/>
<path d="M31.2642 58.9317C29.8486 58.9317 28.701 56.616 28.701 53.7593C28.701 50.9027 29.8486 48.5869 31.2642 48.5869C32.6798 48.5869 33.8274 50.9027 33.8274 53.7593C33.8274 56.616 32.6798 58.9317 31.2642 58.9317Z" fill="white" stroke="#333333" stroke-miterlimit="10"/>
<path d="M30.4311 58.9317C29.0154 58.9317 27.8679 56.616 27.8679 53.7593C27.8679 50.9027 29.0154 48.5869 30.4311 48.5869C31.8467 48.5869 32.9943 50.9027 32.9943 53.7593C32.9943 56.616 31.8467 58.9317 30.4311 58.9317Z" fill="white" stroke="#333333" stroke-miterlimit="10"/>
<path d="M29.5988 58.9317C28.1832 58.9317 27.0356 56.616 27.0356 53.7593C27.0356 50.9027 28.1832 48.5869 29.5988 48.5869C31.0144 48.5869 32.162 50.9027 32.162 53.7593C32.162 56.616 31.0144 58.9317 29.5988 58.9317Z" fill="white" stroke="#333333" stroke-miterlimit="10"/>
<path d="M28.7661 58.9317C27.3505 58.9317 26.2029 56.616 26.2029 53.7593C26.2029 50.9027 27.3505 48.5869 28.7661 48.5869C30.1818 48.5869 31.3293 50.9027 31.3293 53.7593C31.3293 56.616 30.1818 58.9317 28.7661 58.9317Z" fill="white" stroke="#333333" stroke-miterlimit="10"/>
<path d="M27.934 58.9317C26.5184 58.9317 25.3708 56.616 25.3708 53.7593C25.3708 50.9027 26.5184 48.5869 27.934 48.5869C29.3496 48.5869 30.4972 50.9027 30.4972 53.7593C30.4972 56.616 29.3496 58.9317 27.934 58.9317Z" fill="white" stroke="#333333" stroke-miterlimit="10"/>
<path d="M27.1007 58.9317C25.6851 58.9317 24.5375 56.616 24.5375 53.7593C24.5375 50.9027 25.6851 48.5869 27.1007 48.5869C28.5164 48.5869 29.6639 50.9027 29.6639 53.7593C29.6639 56.616 28.5164 58.9317 27.1007 58.9317Z" fill="white" stroke="#333333" stroke-miterlimit="10"/>
<path d="M26.2769 58.9317C24.8613 58.9317 23.7137 56.616 23.7137 53.7593C23.7137 50.9027 24.8613 48.5869 26.2769 48.5869C27.6925 48.5869 28.8401 50.9027 28.8401 53.7593C28.8401 56.616 27.6925 58.9317 26.2769 58.9317Z" fill="white" stroke="#333333" stroke-miterlimit="10"/>
<path d="M24.4639 11.3448C22.8663 11.3448 21.5711 9.02906 21.5711 6.17241C21.5711 3.31577 22.8663 1 24.4639 1C26.0616 1 27.3568 3.31577 27.3568 6.17241C27.3568 9.02906 26.0616 11.3448 24.4639 11.3448Z" fill="white" stroke="#1A1A1A" stroke-miterlimit="10"/>
<path d="M24.9503 11.3448C23.3526 11.3448 22.0574 9.02906 22.0574 6.17241C22.0574 3.31577 23.3526 1 24.9503 1C26.548 1 27.8431 3.31577 27.8431 6.17241C27.8431 9.02906 26.548 11.3448 24.9503 11.3448Z" fill="white" stroke="#1B1B1B" stroke-miterlimit="10"/>
<path d="M25.4285 11.3448C23.8308 11.3448 22.5357 9.02906 22.5357 6.17241C22.5357 3.31577 23.8308 1 25.4285 1C27.0262 1 28.3214 3.31577 28.3214 6.17241C28.3214 9.02906 27.0262 11.3448 25.4285 11.3448Z" fill="white" stroke="#1C1C1C" stroke-miterlimit="10"/>
<path d="M25.9147 11.3448C24.3171 11.3448 23.0219 9.02906 23.0219 6.17241C23.0219 3.31577 24.3171 1 25.9147 1C27.5124 1 28.8076 3.31577 28.8076 6.17241C28.8076 9.02906 27.5124 11.3448 25.9147 11.3448Z" fill="white" stroke="#1C1C1C" stroke-miterlimit="10"/>
<path d="M26.3931 11.3448C24.7955 11.3448 23.5003 9.02906 23.5003 6.17241C23.5003 3.31577 24.7955 1 26.3931 1C27.9908 1 29.286 3.31577 29.286 6.17241C29.286 9.02906 27.9908 11.3448 26.3931 11.3448Z" fill="white" stroke="#1D1D1D" stroke-miterlimit="10"/>
<path d="M26.871 11.3448C25.2734 11.3448 23.9782 9.02906 23.9782 6.17241C23.9782 3.31577 25.2734 1 26.871 1C28.4687 1 29.7639 3.31577 29.7639 6.17241C29.7639 9.02906 28.4687 11.3448 26.871 11.3448Z" fill="white" stroke="#1E1E1E" stroke-miterlimit="10"/>
<path d="M27.3572 11.3448C25.7596 11.3448 24.4644 9.02906 24.4644 6.17241C24.4644 3.31577 25.7596 1 27.3572 1C28.9549 1 30.2501 3.31577 30.2501 6.17241C30.2501 9.02906 28.9549 11.3448 27.3572 11.3448Z" fill="white" stroke="#1F1F1F" stroke-miterlimit="10"/>
<path d="M27.835 11.3448C26.2373 11.3448 24.9422 9.02906 24.9422 6.17241C24.9422 3.31577 26.2373 1 27.835 1C29.4327 1 30.7279 3.31577 30.7279 6.17241C30.7279 9.02906 29.4327 11.3448 27.835 11.3448Z" fill="white" stroke="#1F1F1F" stroke-miterlimit="10"/>
<path d="M28.3214 11.3448C26.7237 11.3448 25.4285 9.02906 25.4285 6.17241C25.4285 3.31577 26.7237 1 28.3214 1C29.9191 1 31.2142 3.31577 31.2142 6.17241C31.2142 9.02906 29.9191 11.3448 28.3214 11.3448Z" fill="white" stroke="#202020" stroke-miterlimit="10"/>
<path d="M28.7996 11.3448C27.2019 11.3448 25.9068 9.02906 25.9068 6.17241C25.9068 3.31577 27.2019 1 28.7996 1C30.3973 1 31.6925 3.31577 31.6925 6.17241C31.6925 9.02906 30.3973 11.3448 28.7996 11.3448Z" fill="white" stroke="#212121" stroke-miterlimit="10"/>
<path d="M29.2858 11.3448C27.6881 11.3448 26.393 9.02906 26.393 6.17241C26.393 3.31577 27.6881 1 29.2858 1C30.8835 1 32.1787 3.31577 32.1787 6.17241C32.1787 9.02906 30.8835 11.3448 29.2858 11.3448Z" fill="white" stroke="#222222" stroke-miterlimit="10"/>
<path d="M29.7637 11.3448C28.1661 11.3448 26.8709 9.02906 26.8709 6.17241C26.8709 3.31577 28.1661 1 29.7637 1C31.3614 1 32.6566 3.31577 32.6566 6.17241C32.6566 9.02906 31.3614 11.3448 29.7637 11.3448Z" fill="white" stroke="#222222" stroke-miterlimit="10"/>
<path d="M30.2416 11.3448C28.644 11.3448 27.3488 9.02906 27.3488 6.17241C27.3488 3.31577 28.644 1 30.2416 1C31.8393 1 33.1345 3.31577 33.1345 6.17241C33.1345 9.02906 31.8393 11.3448 30.2416 11.3448Z" fill="white" stroke="#232323" stroke-miterlimit="10"/>
<path d="M30.7283 11.3448C29.1307 11.3448 27.8355 9.02906 27.8355 6.17241C27.8355 3.31577 29.1307 1 30.7283 1C32.326 1 33.6212 3.31577 33.6212 6.17241C33.6212 9.02906 32.326 11.3448 30.7283 11.3448Z" fill="white" stroke="#242424" stroke-miterlimit="10"/>
<path d="M31.2066 11.3448C29.6089 11.3448 28.3137 9.02906 28.3137 6.17241C28.3137 3.31577 29.6089 1 31.2066 1C32.8043 1 34.0995 3.31577 34.0995 6.17241C34.0995 9.02906 32.8043 11.3448 31.2066 11.3448Z" fill="white" stroke="#252525" stroke-miterlimit="10"/>
<path d="M31.6925 11.3448C30.0948 11.3448 28.7996 9.02906 28.7996 6.17241C28.7996 3.31577 30.0948 1 31.6925 1C33.2901 1 34.5853 3.31577 34.5853 6.17241C34.5853 9.02906 33.2901 11.3448 31.6925 11.3448Z" fill="white" stroke="#252525" stroke-miterlimit="10"/>
<path d="M32.1702 11.3448C30.5725 11.3448 29.2774 9.02906 29.2774 6.17241C29.2774 3.31577 30.5725 1 32.1702 1C33.7679 1 35.0631 3.31577 35.0631 6.17241C35.0631 9.02906 33.7679 11.3448 32.1702 11.3448Z" fill="white" stroke="#262626" stroke-miterlimit="10"/>
<path d="M32.6564 11.3448C31.0588 11.3448 29.7636 9.02906 29.7636 6.17241C29.7636 3.31577 31.0588 1 32.6564 1C34.2541 1 35.5493 3.31577 35.5493 6.17241C35.5493 9.02906 34.2541 11.3448 32.6564 11.3448Z" fill="white" stroke="#272727" stroke-miterlimit="10"/>
<path d="M33.1344 11.3448C31.5367 11.3448 30.2415 9.02906 30.2415 6.17241C30.2415 3.31577 31.5367 1 33.1344 1C34.732 1 36.0272 3.31577 36.0272 6.17241C36.0272 9.02906 34.732 11.3448 33.1344 11.3448Z" fill="white" stroke="#282828" stroke-miterlimit="10"/>
<path d="M33.6127 11.3448C32.0151 11.3448 30.7199 9.02906 30.7199 6.17241C30.7199 3.31577 32.0151 1 33.6127 1C35.2104 1 36.5056 3.31577 36.5056 6.17241C36.5056 9.02906 35.2104 11.3448 33.6127 11.3448Z" fill="white" stroke="#282828" stroke-miterlimit="10"/>
<path d="M34.099 11.3448C32.5013 11.3448 31.2061 9.02906 31.2061 6.17241C31.2061 3.31577 32.5013 1 34.099 1C35.6966 1 36.9918 3.31577 36.9918 6.17241C36.9918 9.02906 35.6966 11.3448 34.099 11.3448Z" fill="white" stroke="#292929" stroke-miterlimit="10"/>
<path d="M34.5767 11.3448C32.979 11.3448 31.6839 9.02906 31.6839 6.17241C31.6839 3.31577 32.979 1 34.5767 1C36.1744 1 37.4696 3.31577 37.4696 6.17241C37.4696 9.02906 36.1744 11.3448 34.5767 11.3448Z" fill="white" stroke="#2A2A2A" stroke-miterlimit="10"/>
<path d="M35.0629 11.3448C33.4653 11.3448 32.1701 9.02906 32.1701 6.17241C32.1701 3.31577 33.4653 1 35.0629 1C36.6606 1 37.9558 3.31577 37.9558 6.17241C37.9558 9.02906 36.6606 11.3448 35.0629 11.3448Z" fill="white" stroke="#2B2B2B" stroke-miterlimit="10"/>
<path d="M35.5408 11.3448C33.9432 11.3448 32.648 9.02906 32.648 6.17241C32.648 3.31577 33.9432 1 35.5408 1C37.1385 1 38.4337 3.31577 38.4337 6.17241C38.4337 9.02906 37.1385 11.3448 35.5408 11.3448Z" fill="white" stroke="#2B2B2B" stroke-miterlimit="10"/>
<path d="M36.0275 11.3448C34.4299 11.3448 33.1347 9.02906 33.1347 6.17241C33.1347 3.31577 34.4299 1 36.0275 1C37.6252 1 38.9204 3.31577 38.9204 6.17241C38.9204 9.02906 37.6252 11.3448 36.0275 11.3448Z" fill="white" stroke="#2C2C2C" stroke-miterlimit="10"/>
<path d="M36.5054 11.3448C34.9078 11.3448 33.6126 9.02906 33.6126 6.17241C33.6126 3.31577 34.9078 1 36.5054 1C38.1031 1 39.3983 3.31577 39.3983 6.17241C39.3983 9.02906 38.1031 11.3448 36.5054 11.3448Z" fill="white" stroke="#2D2D2D" stroke-miterlimit="10"/>
<path d="M36.9834 11.3448C35.3857 11.3448 34.0905 9.02906 34.0905 6.17241C34.0905 3.31577 35.3857 1 36.9834 1C38.581 1 39.8762 3.31577 39.8762 6.17241C39.8762 9.02906 38.581 11.3448 36.9834 11.3448Z" fill="white" stroke="#2E2E2E" stroke-miterlimit="10"/>
<path d="M37.4696 11.3448C35.8719 11.3448 34.5767 9.02906 34.5767 6.17241C34.5767 3.31577 35.8719 1 37.4696 1C39.0672 1 40.3624 3.31577 40.3624 6.17241C40.3624 9.02906 39.0672 11.3448 37.4696 11.3448Z" fill="white" stroke="#2E2E2E" stroke-miterlimit="10"/>
<path d="M37.9473 11.3448C36.3497 11.3448 35.0545 9.02906 35.0545 6.17241C35.0545 3.31577 36.3497 1 37.9473 1C39.545 1 40.8402 3.31577 40.8402 6.17241C40.8402 9.02906 39.545 11.3448 37.9473 11.3448Z" fill="white" stroke="#2F2F2F" stroke-miterlimit="10"/>
<path d="M38.434 11.3448C36.8363 11.3448 35.5412 9.02906 35.5412 6.17241C35.5412 3.31577 36.8363 1 38.434 1C40.0317 1 41.3269 3.31577 41.3269 6.17241C41.3269 9.02906 40.0317 11.3448 38.434 11.3448Z" fill="white" stroke="#303030" stroke-miterlimit="10"/>
<path d="M38.9119 11.3448C37.3142 11.3448 36.0191 9.02906 36.0191 6.17241C36.0191 3.31577 37.3142 1 38.9119 1C40.5096 1 41.8048 3.31577 41.8048 6.17241C41.8048 9.02906 40.5096 11.3448 38.9119 11.3448Z" fill="white" stroke="#313131" stroke-miterlimit="10"/>
<path d="M39.3986 11.3448C37.8009 11.3448 36.5058 9.02906 36.5058 6.17241C36.5058 3.31577 37.8009 1 39.3986 1C40.9963 1 42.2915 3.31577 42.2915 6.17241C42.2915 9.02906 40.9963 11.3448 39.3986 11.3448Z" fill="white" stroke="#313131" stroke-miterlimit="10"/>
<path d="M39.8765 11.3448C38.2788 11.3448 36.9837 9.02906 36.9837 6.17241C36.9837 3.31577 38.2788 1 39.8765 1C41.4742 1 42.7694 3.31577 42.7694 6.17241C42.7694 9.02906 41.4742 11.3448 39.8765 11.3448Z" fill="white" stroke="#323232" stroke-miterlimit="10"/>
<path d="M40.3544 11.3448C38.7568 11.3448 37.4616 9.02906 37.4616 6.17241C37.4616 3.31577 38.7568 1 40.3544 1C41.9521 1 43.2473 3.31577 43.2473 6.17241C43.2473 9.02906 41.9521 11.3448 40.3544 11.3448Z" fill="white" stroke="#333333" stroke-miterlimit="10"/>
<path d="M40.8411 11.3448C39.2434 11.3448 37.9483 9.02906 37.9483 6.17241C37.9483 3.31577 39.2434 1 40.8411 1C42.4388 1 43.734 3.31577 43.734 6.17241C43.734 9.02906 42.4388 11.3448 40.8411 11.3448Z" fill="white" stroke="#343434" stroke-miterlimit="10"/>
<path d="M41.3189 11.3448C39.7212 11.3448 38.426 9.02906 38.426 6.17241C38.426 3.31577 39.7212 1 41.3189 1C42.9166 1 44.2118 3.31577 44.2118 6.17241C44.2118 9.02906 42.9166 11.3448 41.3189 11.3448Z" fill="white" stroke="#343434" stroke-miterlimit="10"/>
<path d="M41.8046 11.3448C40.2069 11.3448 38.9118 9.02906 38.9118 6.17241C38.9118 3.31577 40.2069 1 41.8046 1C43.4023 1 44.6975 3.31577 44.6975 6.17241C44.6975 9.02906 43.4023 11.3448 41.8046 11.3448Z" fill="white" stroke="#353535" stroke-miterlimit="10"/>
<path d="M42.283 11.3448C40.6853 11.3448 39.3902 9.02906 39.3902 6.17241C39.3902 3.31577 40.6853 1 42.283 1C43.8807 1 45.1759 3.31577 45.1759 6.17241C45.1759 9.02906 43.8807 11.3448 42.283 11.3448Z" fill="white" stroke="#363636" stroke-miterlimit="10"/>
<path d="M42.7688 11.3448C41.1711 11.3448 39.8759 9.02906 39.8759 6.17241C39.8759 3.31577 41.1711 1 42.7688 1C44.3664 1 45.6616 3.31577 45.6616 6.17241C45.6616 9.02906 44.3664 11.3448 42.7688 11.3448Z" fill="white" stroke="#373737" stroke-miterlimit="10"/>
<path d="M43.2471 11.3448C41.6495 11.3448 40.3543 9.02906 40.3543 6.17241C40.3543 3.31577 41.6495 1 43.2471 1C44.8448 1 46.14 3.31577 46.14 6.17241C46.14 9.02906 44.8448 11.3448 43.2471 11.3448Z" fill="white" stroke="#373737" stroke-miterlimit="10"/>
<path d="M43.7249 11.3448C42.1272 11.3448 40.8321 9.02906 40.8321 6.17241C40.8321 3.31577 42.1272 1 43.7249 1C45.3226 1 46.6178 3.31577 46.6178 6.17241C46.6178 9.02906 45.3226 11.3448 43.7249 11.3448Z" fill="white" stroke="#383838" stroke-miterlimit="10"/>
<path d="M44.2117 11.3448C42.6141 11.3448 41.3189 9.02906 41.3189 6.17241C41.3189 3.31577 42.6141 1 44.2117 1C45.8094 1 47.1046 3.31577 47.1046 6.17241C47.1046 9.02906 45.8094 11.3448 44.2117 11.3448Z" fill="white" stroke="#393939" stroke-miterlimit="10"/>
<path d="M44.6895 11.3448C43.0918 11.3448 41.7967 9.02906 41.7967 6.17241C41.7967 3.31577 43.0918 1 44.6895 1C46.2872 1 47.5824 3.31577 47.5824 6.17241C47.5824 9.02906 46.2872 11.3448 44.6895 11.3448Z" fill="white" stroke="#3A3A3A" stroke-miterlimit="10"/>
<path d="M45.1757 11.3448C43.578 11.3448 42.2829 9.02906 42.2829 6.17241C42.2829 3.31577 43.578 1 45.1757 1C46.7734 1 48.0686 3.31577 48.0686 6.17241C48.0686 9.02906 46.7734 11.3448 45.1757 11.3448Z" fill="white" stroke="#3A3A3A" stroke-miterlimit="10"/>
<path d="M45.6541 11.3448C44.0564 11.3448 42.7613 9.02906 42.7613 6.17241C42.7613 3.31577 44.0564 1 45.6541 1C47.2518 1 48.547 3.31577 48.547 6.17241C48.547 9.02906 47.2518 11.3448 45.6541 11.3448Z" fill="white" stroke="#3B3B3B" stroke-miterlimit="10"/>
<path d="M46.1398 11.3448C44.5422 11.3448 43.247 9.02906 43.247 6.17241C43.247 3.31577 44.5422 1 46.1398 1C47.7375 1 49.0327 3.31577 49.0327 6.17241C49.0327 9.02906 47.7375 11.3448 46.1398 11.3448Z" fill="white" stroke="#3C3C3C" stroke-miterlimit="10"/>
<path d="M46.6177 11.3448C45.0201 11.3448 43.7249 9.02906 43.7249 6.17241C43.7249 3.31577 45.0201 1 46.6177 1C48.2154 1 49.5106 3.31577 49.5106 6.17241C49.5106 9.02906 48.2154 11.3448 46.6177 11.3448Z" fill="white" stroke="#3D3D3D" stroke-miterlimit="10"/>
<path d="M47.0955 11.3448C45.4978 11.3448 44.2027 9.02906 44.2027 6.17241C44.2027 3.31577 45.4978 1 47.0955 1C48.6932 1 49.9884 3.31577 49.9884 6.17241C49.9884 9.02906 48.6932 11.3448 47.0955 11.3448Z" fill="white" stroke="#3D3D3D" stroke-miterlimit="10"/>
<path d="M47.5828 11.3448C45.9851 11.3448 44.69 9.02906 44.69 6.17241C44.69 3.31577 45.9851 1 47.5828 1C49.1805 1 50.4757 3.31577 50.4757 6.17241C50.4757 9.02906 49.1805 11.3448 47.5828 11.3448Z" fill="white" stroke="#3E3E3E" stroke-miterlimit="10"/>
<path d="M48.0606 11.3448C46.4629 11.3448 45.1677 9.02906 45.1677 6.17241C45.1677 3.31577 46.4629 1 48.0606 1C49.6583 1 50.9535 3.31577 50.9535 6.17241C50.9535 9.02906 49.6583 11.3448 48.0606 11.3448Z" fill="white" stroke="#3F3F3F" stroke-miterlimit="10"/>
<path d="M48.5468 11.3448C46.9491 11.3448 45.654 9.02906 45.654 6.17241C45.654 3.31577 46.9491 1 48.5468 1C50.1445 1 51.4397 3.31577 51.4397 6.17241C51.4397 9.02906 50.1445 11.3448 48.5468 11.3448Z" fill="white" stroke="#404040" stroke-miterlimit="10"/>
<path d="M49.0247 11.3448C47.427 11.3448 46.1319 9.02906 46.1319 6.17241C46.1319 3.31577 47.427 1 49.0247 1C50.6224 1 51.9176 3.31577 51.9176 6.17241C51.9176 9.02906 50.6224 11.3448 49.0247 11.3448Z" fill="white" stroke="#404040" stroke-miterlimit="10"/>
<path d="M49.5109 11.3448C47.9132 11.3448 46.6181 9.02906 46.6181 6.17241C46.6181 3.31577 47.9132 1 49.5109 1C51.1086 1 52.4038 3.31577 52.4038 6.17241C52.4038 9.02906 51.1086 11.3448 49.5109 11.3448Z" fill="white" stroke="#414141" stroke-miterlimit="10"/>
<path d="M49.9893 11.3448C48.3916 11.3448 47.0965 9.02906 47.0965 6.17241C47.0965 3.31577 48.3916 1 49.9893 1C51.587 1 52.8822 3.31577 52.8822 6.17241C52.8822 9.02906 51.587 11.3448 49.9893 11.3448Z" fill="white" stroke="#424242" stroke-miterlimit="10"/>
<path d="M50.4755 11.3448C48.8778 11.3448 47.5827 9.02906 47.5827 6.17241C47.5827 3.31577 48.8778 1 50.4755 1C52.0732 1 53.3684 3.31577 53.3684 6.17241C53.3684 9.02906 52.0732 11.3448 50.4755 11.3448Z" fill="white" stroke="#434343" stroke-miterlimit="10"/>
<path d="M50.9534 11.3448C49.3558 11.3448 48.0606 9.02906 48.0606 6.17241C48.0606 3.31577 49.3558 1 50.9534 1C52.5511 1 53.8463 3.31577 53.8463 6.17241C53.8463 9.02906 52.5511 11.3448 50.9534 11.3448Z" fill="white" stroke="#434343" stroke-miterlimit="10"/>
<path d="M51.4312 11.3448C49.8335 11.3448 48.5384 9.02906 48.5384 6.17241C48.5384 3.31577 49.8335 1 51.4312 1C53.0289 1 54.3241 3.31577 54.3241 6.17241C54.3241 9.02906 53.0289 11.3448 51.4312 11.3448Z" fill="white" stroke="#444444" stroke-miterlimit="10"/>
<path d="M51.9174 11.3448C50.3197 11.3448 49.0246 9.02906 49.0246 6.17241C49.0246 3.31577 50.3197 1 51.9174 1C53.5151 1 54.8103 3.31577 54.8103 6.17241C54.8103 9.02906 53.5151 11.3448 51.9174 11.3448Z" fill="white" stroke="#454545" stroke-miterlimit="10"/>
<path d="M52.3958 11.3448C50.7981 11.3448 49.503 9.02906 49.503 6.17241C49.503 3.31577 50.7981 1 52.3958 1C53.9935 1 55.2887 3.31577 55.2887 6.17241C55.2887 9.02906 53.9935 11.3448 52.3958 11.3448Z" fill="white" stroke="#464646" stroke-miterlimit="10"/>
<path d="M52.882 11.3448C51.2843 11.3448 49.9892 9.02906 49.9892 6.17241C49.9892 3.31577 51.2843 1 52.882 1C54.4797 1 55.7749 3.31577 55.7749 6.17241C55.7749 9.02906 54.4797 11.3448 52.882 11.3448Z" fill="white" stroke="#464646" stroke-miterlimit="10"/>
<path d="M53.3604 11.3448C51.7627 11.3448 50.4676 9.02906 50.4676 6.17241C50.4676 3.31577 51.7627 1 53.3604 1C54.9581 1 56.2533 3.31577 56.2533 6.17241C56.2533 9.02906 54.9581 11.3448 53.3604 11.3448Z" fill="white" stroke="#474747" stroke-miterlimit="10"/>
<path d="M53.8461 11.3448C52.2485 11.3448 50.9533 9.02906 50.9533 6.17241C50.9533 3.31577 52.2485 1 53.8461 1C55.4438 1 56.739 3.31577 56.739 6.17241C56.739 9.02906 55.4438 11.3448 53.8461 11.3448Z" fill="white" stroke="#484848" stroke-miterlimit="10"/>
<path d="M54.324 11.3448C52.7264 11.3448 51.4312 9.02906 51.4312 6.17241C51.4312 3.31577 52.7264 1 54.324 1C55.9217 1 57.2169 3.31577 57.2169 6.17241C57.2169 9.02906 55.9217 11.3448 54.324 11.3448Z" fill="white" stroke="#494949" stroke-miterlimit="10"/>
<path d="M54.8023 11.3448C53.2046 11.3448 51.9094 9.02906 51.9094 6.17241C51.9094 3.31577 53.2046 1 54.8023 1C56.4 1 57.6952 3.31577 57.6952 6.17241C57.6952 9.02906 56.4 11.3448 54.8023 11.3448Z" fill="white" stroke="#494949" stroke-miterlimit="10"/>
<path d="M55.2885 11.3448C53.6908 11.3448 52.3957 9.02906 52.3957 6.17241C52.3957 3.31577 53.6908 1 55.2885 1C56.8862 1 58.1814 3.31577 58.1814 6.17241C58.1814 9.02906 56.8862 11.3448 55.2885 11.3448Z" fill="white" stroke="#4A4A4A" stroke-miterlimit="10"/>
<path d="M55.7664 11.3448C54.1687 11.3448 52.8736 9.02906 52.8736 6.17241C52.8736 3.31577 54.1687 1 55.7664 1C57.3641 1 58.6593 3.31577 58.6593 6.17241C58.6593 9.02906 57.3641 11.3448 55.7664 11.3448Z" fill="white" stroke="#4B4B4B" stroke-miterlimit="10"/>
<path d="M56.2526 11.3448C54.6549 11.3448 53.3598 9.02906 53.3598 6.17241C53.3598 3.31577 54.6549 1 56.2526 1C57.8503 1 59.1455 3.31577 59.1455 6.17241C59.1455 9.02906 57.8503 11.3448 56.2526 11.3448Z" fill="white" stroke="#4C4C4C" stroke-miterlimit="10"/>
<path d="M56.7305 11.3448C55.1329 11.3448 53.8377 9.02906 53.8377 6.17241C53.8377 3.31577 55.1329 1 56.7305 1C58.3282 1 59.6234 3.31577 59.6234 6.17241C59.6234 9.02906 58.3282 11.3448 56.7305 11.3448Z" fill="white" stroke="#4C4C4C" stroke-miterlimit="10"/>
<path d="M57.2172 11.3448C55.6195 11.3448 54.3244 9.02906 54.3244 6.17241C54.3244 3.31577 55.6195 1 57.2172 1C58.8149 1 60.1101 3.31577 60.1101 6.17241C60.1101 9.02906 58.8149 11.3448 57.2172 11.3448Z" fill="white" stroke="#4D4D4D" stroke-miterlimit="10"/>
<path d="M57.6951 11.3448C56.0975 11.3448 54.8023 9.02906 54.8023 6.17241C54.8023 3.31577 56.0975 1 57.6951 1C59.2928 1 60.588 3.31577 60.588 6.17241C60.588 9.02906 59.2928 11.3448 57.6951 11.3448Z" fill="white" stroke="#4E4E4E" stroke-miterlimit="10"/>
<path d="M58.1729 11.3448C56.5752 11.3448 55.2801 9.02906 55.2801 6.17241C55.2801 3.31577 56.5752 1 58.1729 1C59.7706 1 61.0658 3.31577 61.0658 6.17241C61.0658 9.02906 59.7706 11.3448 58.1729 11.3448Z" fill="white" stroke="#4F4F4F" stroke-miterlimit="10"/>
<path d="M58.6596 11.3448C57.0619 11.3448 55.7667 9.02906 55.7667 6.17241C55.7667 3.31577 57.0619 1 58.6596 1C60.2573 1 61.5525 3.31577 61.5525 6.17241C61.5525 9.02906 60.2573 11.3448 58.6596 11.3448Z" fill="white" stroke="#4F4F4F" stroke-miterlimit="10"/>
<path d="M59.1375 11.3448C57.5398 11.3448 56.2447 9.02906 56.2447 6.17241C56.2447 3.31577 57.5398 1 59.1375 1C60.7352 1 62.0304 3.31577 62.0304 6.17241C62.0304 9.02906 60.7352 11.3448 59.1375 11.3448Z" fill="white" stroke="#505050" stroke-miterlimit="10"/>
<path d="M59.6242 11.3448C58.0265 11.3448 56.7313 9.02906 56.7313 6.17241C56.7313 3.31577 58.0265 1 59.6242 1C61.2219 1 62.5171 3.31577 62.5171 6.17241C62.5171 9.02906 61.2219 11.3448 59.6242 11.3448Z" fill="white" stroke="#515151" stroke-miterlimit="10"/>
<path d="M60.1021 11.3448C58.5044 11.3448 57.2093 9.02906 57.2093 6.17241C57.2093 3.31577 58.5044 1 60.1021 1C61.6998 1 62.995 3.31577 62.995 6.17241C62.995 9.02906 61.6998 11.3448 60.1021 11.3448Z" fill="white" stroke="#525252" stroke-miterlimit="10"/>
<path d="M60.5878 11.3448C58.9902 11.3448 57.695 9.02906 57.695 6.17241C57.695 3.31577 58.9902 1 60.5878 1C62.1855 1 63.4807 3.31577 63.4807 6.17241C63.4807 9.02906 62.1855 11.3448 60.5878 11.3448Z" fill="white" stroke="#525252" stroke-miterlimit="10"/>
<path d="M61.0657 11.3448C59.4681 11.3448 58.1729 9.02906 58.1729 6.17241C58.1729 3.31577 59.4681 1 61.0657 1C62.6634 1 63.9586 3.31577 63.9586 6.17241C63.9586 9.02906 62.6634 11.3448 61.0657 11.3448Z" fill="white" stroke="#535353" stroke-miterlimit="10"/>
<path d="M61.5445 11.3448C59.9468 11.3448 58.6516 9.02906 58.6516 6.17241C58.6516 3.31577 59.9468 1 61.5445 1C63.1422 1 64.4374 3.31577 64.4374 6.17241C64.4374 9.02906 63.1422 11.3448 61.5445 11.3448Z" fill="white" stroke="#545454" stroke-miterlimit="10"/>
<path d="M62.0307 11.3448C60.433 11.3448 59.1378 9.02906 59.1378 6.17241C59.1378 3.31577 60.433 1 62.0307 1C63.6284 1 64.9236 3.31577 64.9236 6.17241C64.9236 9.02906 63.6284 11.3448 62.0307 11.3448Z" fill="white" stroke="#555555" stroke-miterlimit="10"/>
<path d="M62.5086 11.3448C60.9109 11.3448 59.6157 9.02906 59.6157 6.17241C59.6157 3.31577 60.9109 1 62.5086 1C64.1063 1 65.4015 3.31577 65.4015 6.17241C65.4015 9.02906 64.1063 11.3448 62.5086 11.3448Z" fill="white" stroke="#555555" stroke-miterlimit="10"/>
<path d="M62.9948 11.3448C61.3971 11.3448 60.102 9.02906 60.102 6.17241C60.102 3.31577 61.3971 1 62.9948 1C64.5925 1 65.8877 3.31577 65.8877 6.17241C65.8877 9.02906 64.5925 11.3448 62.9948 11.3448Z" fill="white" stroke="#565656" stroke-miterlimit="10"/>
<path d="M63.4727 11.3448C61.875 11.3448 60.5799 9.02906 60.5799 6.17241C60.5799 3.31577 61.875 1 63.4727 1C65.0704 1 66.3656 3.31577 66.3656 6.17241C66.3656 9.02906 65.0704 11.3448 63.4727 11.3448Z" fill="white" stroke="#575757" stroke-miterlimit="10"/>
<path d="M63.9584 11.3448C62.3608 11.3448 61.0656 9.02906 61.0656 6.17241C61.0656 3.31577 62.3608 1 63.9584 1C65.5561 1 66.8513 3.31577 66.8513 6.17241C66.8513 9.02906 65.5561 11.3448 63.9584 11.3448Z" fill="white" stroke="#585858" stroke-miterlimit="10"/>
<path d="M64.4367 11.3448C62.839 11.3448 61.5438 9.02906 61.5438 6.17241C61.5438 3.31577 62.839 1 64.4367 1C66.0344 1 67.3296 3.31577 67.3296 6.17241C67.3296 9.02906 66.0344 11.3448 64.4367 11.3448Z" fill="white" stroke="#585858" stroke-miterlimit="10"/>
<path d="M64.9151 11.3448C63.3174 11.3448 62.0222 9.02906 62.0222 6.17241C62.0222 3.31577 63.3174 1 64.9151 1C66.5128 1 67.808 3.31577 67.808 6.17241C67.808 9.02906 66.5128 11.3448 64.9151 11.3448Z" fill="white" stroke="#595959" stroke-miterlimit="10"/>
<path d="M65.4008 11.3448C63.8031 11.3448 62.508 9.02906 62.508 6.17241C62.508 3.31577 63.8031 1 65.4008 1C66.9985 1 68.2937 3.31577 68.2937 6.17241C68.2937 9.02906 66.9985 11.3448 65.4008 11.3448Z" fill="white" stroke="#5A5A5A" stroke-miterlimit="10"/>
<path d="M65.8786 11.3448C64.2809 11.3448 62.9857 9.02906 62.9857 6.17241C62.9857 3.31577 64.2809 1 65.8786 1C67.4763 1 68.7715 3.31577 68.7715 6.17241C68.7715 9.02906 67.4763 11.3448 65.8786 11.3448Z" fill="white" stroke="#5B5B5B" stroke-miterlimit="10"/>
<path d="M66.3659 11.3448C64.7682 11.3448 63.473 9.02906 63.473 6.17241C63.473 3.31577 64.7682 1 66.3659 1C67.9636 1 69.2588 3.31577 69.2588 6.17241C69.2588 9.02906 67.9636 11.3448 66.3659 11.3448Z" fill="white" stroke="#5B5B5B" stroke-miterlimit="10"/>
<path d="M66.8437 11.3448C65.246 11.3448 63.9508 9.02906 63.9508 6.17241C63.9508 3.31577 65.246 1 66.8437 1C68.4414 1 69.7366 3.31577 69.7366 6.17241C69.7366 9.02906 68.4414 11.3448 66.8437 11.3448Z" fill="white" stroke="#5C5C5C" stroke-miterlimit="10"/>
<path d="M67.3305 11.3448C65.7328 11.3448 64.4376 9.02906 64.4376 6.17241C64.4376 3.31577 65.7328 1 67.3305 1C68.9282 1 70.2234 3.31577 70.2234 6.17241C70.2234 9.02906 68.9282 11.3448 67.3305 11.3448Z" fill="white" stroke="#5D5D5D" stroke-miterlimit="10"/>
<path d="M67.8078 11.3448C66.2101 11.3448 64.9149 9.02906 64.9149 6.17241C64.9149 3.31577 66.2101 1 67.8078 1C69.4055 1 70.7007 3.31577 70.7007 6.17241C70.7007 9.02906 69.4055 11.3448 67.8078 11.3448Z" fill="white" stroke="#5E5E5E" stroke-miterlimit="10"/>
<path d="M68.2863 11.3448C66.6886 11.3448 65.3935 9.02906 65.3935 6.17241C65.3935 3.31577 66.6886 1 68.2863 1C69.884 1 71.1792 3.31577 71.1792 6.17241C71.1792 9.02906 69.884 11.3448 68.2863 11.3448Z" fill="white" stroke="#5E5E5E" stroke-miterlimit="10"/>
<path d="M68.7724 11.3448C67.1747 11.3448 65.8795 9.02906 65.8795 6.17241C65.8795 3.31577 67.1747 1 68.7724 1C70.3701 1 71.6653 3.31577 71.6653 6.17241C71.6653 9.02906 70.3701 11.3448 68.7724 11.3448Z" fill="white" stroke="#5F5F5F" stroke-miterlimit="10"/>
<path d="M69.2497 11.3448C67.652 11.3448 66.3568 9.02906 66.3568 6.17241C66.3568 3.31577 67.652 1 69.2497 1C70.8474 1 72.1426 3.31577 72.1426 6.17241C72.1426 9.02906 70.8474 11.3448 69.2497 11.3448Z" fill="white" stroke="#606060" stroke-miterlimit="10"/>
<path d="M69.7365 11.3448C68.1388 11.3448 66.8437 9.02906 66.8437 6.17241C66.8437 3.31577 68.1388 1 69.7365 1C71.3342 1 72.6294 3.31577 72.6294 6.17241C72.6294 9.02906 71.3342 11.3448 69.7365 11.3448Z" fill="white" stroke="#616161" stroke-miterlimit="10"/>
<path d="M70.2143 11.3448C68.6166 11.3448 67.3214 9.02906 67.3214 6.17241C67.3214 3.31577 68.6166 1 70.2143 1C71.812 1 73.1072 3.31577 73.1072 6.17241C73.1072 9.02906 71.812 11.3448 70.2143 11.3448Z" fill="white" stroke="#616161" stroke-miterlimit="10"/>
<path d="M70.7006 11.3448C69.1029 11.3448 67.8078 9.02906 67.8078 6.17241C67.8078 3.31577 69.1029 1 70.7006 1C72.2983 1 73.5935 3.31577 73.5935 6.17241C73.5935 9.02906 72.2983 11.3448 70.7006 11.3448Z" fill="white" stroke="#626262" stroke-miterlimit="10"/>
<path d="M71.1789 11.3448C69.5812 11.3448 68.286 9.02906 68.286 6.17241C68.286 3.31577 69.5812 1 71.1789 1C72.7766 1 74.0718 3.31577 74.0718 6.17241C74.0718 9.02906 72.7766 11.3448 71.1789 11.3448Z" fill="white" stroke="#636363" stroke-miterlimit="10"/>
<path d="M71.6574 11.3448C70.0597 11.3448 68.7645 9.02906 68.7645 6.17241C68.7645 3.31577 70.0597 1 71.6574 1C73.2551 1 74.5503 3.31577 74.5503 6.17241C74.5503 9.02906 73.2551 11.3448 71.6574 11.3448Z" fill="white" stroke="#646464" stroke-miterlimit="10"/>
<path d="M72.143 11.3448C70.5453 11.3448 69.2501 9.02906 69.2501 6.17241C69.2501 3.31577 70.5453 1 72.143 1C73.7407 1 75.0359 3.31577 75.0359 6.17241C75.0359 9.02906 73.7407 11.3448 72.143 11.3448Z" fill="white" stroke="#646464" stroke-miterlimit="10"/>
<path d="M72.6208 11.3448C71.0231 11.3448 69.7279 9.02906 69.7279 6.17241C69.7279 3.31577 71.0231 1 72.6208 1C74.2185 1 75.5137 3.31577 75.5137 6.17241C75.5137 9.02906 74.2185 11.3448 72.6208 11.3448Z" fill="white" stroke="#656565" stroke-miterlimit="10"/>
<path d="M73.1071 11.3448C71.5094 11.3448 70.2143 9.02906 70.2143 6.17241C70.2143 3.31577 71.5094 1 73.1071 1C74.7048 1 76 3.31577 76 6.17241C76 9.02906 74.7048 11.3448 73.1071 11.3448Z" fill="white" stroke="#666666" stroke-miterlimit="10"/>
<path d="M58.7996 14.4279C59.2022 14.3608 59.5674 14.1075 59.8181 13.7214C60.0688 13.3353 60.1853 12.8467 60.143 12.3589H30.5714V14.4279H58.7996Z" fill="url(#paint0_linear_3378_2597)" stroke="black" stroke-miterlimit="10"/>
<path d="M54.2998 16.5172C54.9262 16.5172 55.429 15.5921 55.429 14.4482H30.5717V16.5172H54.2998Z" fill="url(#paint1_linear_3378_2597)" stroke="black" stroke-miterlimit="10"/>
<path d="M32.2862 47.0343H58.4375C60.2788 42.0318 61.1552 36.59 61.0007 31.1192C61.0207 26.0867 60.1466 21.1075 58.4375 16.5171H32.2862V47.0343Z" fill="url(#paint2_linear_3378_2597)" stroke="black" stroke-miterlimit="10"/>
<path d="M60.1431 22.9331H33.8023" stroke="black" stroke-miterlimit="10"/>
<path d="M60.1431 20.6543H33.2913" stroke="black" stroke-miterlimit="10"/>
<path d="M59.2863 45.4829H31.429" stroke="black" stroke-miterlimit="10"/>
<path d="M59.2863 18.5869H32.2861" stroke="black" stroke-miterlimit="10"/>
<path d="M60.1431 25.2104H33.2913" stroke="black" stroke-miterlimit="10"/>
<path d="M61.0004 27.479H33.1431" stroke="black" stroke-miterlimit="10"/>
<path d="M61.0004 29.7563H33.1431" stroke="black" stroke-miterlimit="10"/>
<path d="M61.0004 34.3125H33.5717" stroke="black" stroke-miterlimit="10"/>
<path d="M61.8572 32.0347H33.1427" stroke="black" stroke-miterlimit="10"/>
<path d="M61.0004 36.5903H33.1431" stroke="black" stroke-miterlimit="10"/>
<path d="M60.1431 38.8579H33.1429" stroke="black" stroke-miterlimit="10"/>
<path d="M60.1431 41.1357H33.1429" stroke="black" stroke-miterlimit="10"/>
<path d="M60.1431 43.4136H32.2858" stroke="black" stroke-miterlimit="10"/>
<path d="M46.0006 51.69C44.8171 51.69 43.8577 49.3743 43.8577 46.5176C43.8577 43.661 44.8171 41.3452 46.0006 41.3452C47.184 41.3452 48.1434 43.661 48.1434 46.5176C48.1434 49.3743 47.184 51.69 46.0006 51.69Z" fill="white" stroke="#333333" stroke-miterlimit="10"/>
<path d="M45.2993 51.69C44.1158 51.69 43.1564 49.3743 43.1564 46.5176C43.1564 43.661 44.1158 41.3452 45.2993 41.3452C46.4827 41.3452 47.4421 43.661 47.4421 46.5176C47.4421 49.3743 46.4827 51.69 45.2993 51.69Z" fill="#F7F7F7" stroke="#333333" stroke-miterlimit="10"/>
<path d="M44.6069 51.69C43.4234 51.69 42.464 49.3743 42.464 46.5176C42.464 43.661 43.4234 41.3452 44.6069 41.3452C45.7904 41.3452 46.7498 43.661 46.7498 46.5176C46.7498 49.3743 45.7904 51.69 44.6069 51.69Z" fill="#EFEFEF" stroke="#333333" stroke-miterlimit="10"/>
<path d="M43.9066 51.69C42.7231 51.69 41.7637 49.3743 41.7637 46.5176C41.7637 43.661 42.7231 41.3452 43.9066 41.3452C45.09 41.3452 46.0494 43.661 46.0494 46.5176C46.0494 49.3743 45.09 51.69 43.9066 51.69Z" fill="#E7E7E7" stroke="#333333" stroke-miterlimit="10"/>
<path d="M43.2142 51.69C42.0307 51.69 41.0713 49.3743 41.0713 46.5176C41.0713 43.661 42.0307 41.3452 43.2142 41.3452C44.3977 41.3452 45.3571 43.661 45.3571 46.5176C45.3571 49.3743 44.3977 51.69 43.2142 51.69Z" fill="#DFDFDF" stroke="#333333" stroke-miterlimit="10"/>
<path d="M42.5139 51.69C41.3304 51.69 40.371 49.3743 40.371 46.5176C40.371 43.661 41.3304 41.3452 42.5139 41.3452C43.6973 41.3452 44.6567 43.661 44.6567 46.5176C44.6567 49.3743 43.6973 51.69 42.5139 51.69Z" fill="#D7D7D7" stroke="#333333" stroke-miterlimit="10"/>
<path d="M41.8214 51.69C40.6379 51.69 39.6785 49.3743 39.6785 46.5176C39.6785 43.661 40.6379 41.3452 41.8214 41.3452C43.0048 41.3452 43.9642 43.661 43.9642 46.5176C43.9642 49.3743 43.0048 51.69 41.8214 51.69Z" fill="#CFCFCF" stroke="#333333" stroke-miterlimit="10"/>
<path d="M41.1207 51.69C39.9372 51.69 38.9778 49.3743 38.9778 46.5176C38.9778 43.661 39.9372 41.3452 41.1207 41.3452C42.3042 41.3452 43.2635 43.661 43.2635 46.5176C43.2635 49.3743 42.3042 51.69 41.1207 51.69Z" fill="#C7C7C7" stroke="#333333" stroke-miterlimit="10"/>
<path d="M40.4287 51.69C39.2452 51.69 38.2858 49.3743 38.2858 46.5176C38.2858 43.661 39.2452 41.3452 40.4287 41.3452C41.6121 41.3452 42.5715 43.661 42.5715 46.5176C42.5715 49.3743 41.6121 51.69 40.4287 51.69Z" fill="#C0C0C0" stroke="#333333" stroke-miterlimit="10"/>
<path d="M39.7279 51.69C38.5444 51.69 37.585 49.3743 37.585 46.5176C37.585 43.661 38.5444 41.3452 39.7279 41.3452C40.9113 41.3452 41.8707 43.661 41.8707 46.5176C41.8707 49.3743 40.9113 51.69 39.7279 51.69Z" fill="#B8B8B8" stroke="#333333" stroke-miterlimit="10"/>
<path d="M39.036 51.69C37.8525 51.69 36.8931 49.3743 36.8931 46.5176C36.8931 43.661 37.8525 41.3452 39.036 41.3452C40.2194 41.3452 41.1788 43.661 41.1788 46.5176C41.1788 49.3743 40.2194 51.69 39.036 51.69Z" fill="#B0B0B0" stroke="#333333" stroke-miterlimit="10"/>
<path d="M38.3352 51.69C37.1517 51.69 36.1923 49.3743 36.1923 46.5176C36.1923 43.661 37.1517 41.3452 38.3352 41.3452C39.5186 41.3452 40.478 43.661 40.478 46.5176C40.478 49.3743 39.5186 51.69 38.3352 51.69Z" fill="#A8A8A8" stroke="#333333" stroke-miterlimit="10"/>
<path d="M37.6433 51.69C36.4598 51.69 35.5004 49.3743 35.5004 46.5176C35.5004 43.661 36.4598 41.3452 37.6433 41.3452C38.8267 41.3452 39.7861 43.661 39.7861 46.5176C39.7861 49.3743 38.8267 51.69 37.6433 51.69Z" fill="#A0A0A0" stroke="#333333" stroke-miterlimit="10"/>
<path d="M36.9425 51.69C35.759 51.69 34.7996 49.3743 34.7996 46.5176C34.7996 43.661 35.759 41.3452 36.9425 41.3452C38.1259 41.3452 39.0853 43.661 39.0853 46.5176C39.0853 49.3743 38.1259 51.69 36.9425 51.69Z" fill="#989898" stroke="#333333" stroke-miterlimit="10"/>
<path d="M36.25 51.69C35.0665 51.69 34.1071 49.3743 34.1071 46.5176C34.1071 43.661 35.0665 41.3452 36.25 41.3452C37.4334 41.3452 38.3928 43.661 38.3928 46.5176C38.3928 49.3743 37.4334 51.69 36.25 51.69Z" fill="#909090" stroke="#333333" stroke-miterlimit="10"/>
<path d="M35.5493 51.69C34.3658 51.69 33.4064 49.3743 33.4064 46.5176C33.4064 43.661 34.3658 41.3452 35.5493 41.3452C36.7327 41.3452 37.6921 43.661 37.6921 46.5176C37.6921 49.3743 36.7327 51.69 35.5493 51.69Z" fill="#888888" stroke="#333333" stroke-miterlimit="10"/>
<path d="M34.8573 51.69C33.6738 51.69 32.7144 49.3743 32.7144 46.5176C32.7144 43.661 33.6738 41.3452 34.8573 41.3452C36.0407 41.3452 37.0001 43.661 37.0001 46.5176C37.0001 49.3743 36.0407 51.69 34.8573 51.69Z" fill="#808080" stroke="#333333" stroke-miterlimit="10"/>
<path d="M22.8572 61C16.9398 61 12.1428 47.5685 12.1428 31C12.1428 14.4315 16.9398 1 22.8572 1C28.7746 1 33.5715 14.4315 33.5715 31C33.5715 47.5685 28.7746 61 22.8572 61Z" fill="white" stroke="#4D4D4D" stroke-miterlimit="10"/>
<path d="M22.1564 61C16.239 61 11.442 47.5685 11.442 31C11.442 14.4315 16.239 1 22.1564 1C28.0738 1 32.8707 14.4315 32.8707 31C32.8707 47.5685 28.0738 61 22.1564 61Z" fill="white" stroke="#4D4D4D" stroke-miterlimit="10"/>
<path d="M21.4644 61C15.547 61 10.75 47.5685 10.75 31C10.75 14.4315 15.547 1 21.4644 1C27.3817 1 32.1787 14.4315 32.1787 31C32.1787 47.5685 27.3817 61 21.4644 61Z" fill="white" stroke="#4D4D4D" stroke-miterlimit="10"/>
<path d="M20.7631 61C14.8457 61 10.0487 47.5685 10.0487 31C10.0487 14.4315 14.8457 1 20.7631 1C26.6804 1 31.4774 14.4315 31.4774 31C31.4774 47.5685 26.6804 61 20.7631 61Z" fill="white" stroke="#4D4D4D" stroke-miterlimit="10"/>
<path d="M20.0717 61C14.1543 61 9.35733 47.5685 9.35733 31C9.35733 14.4315 14.1543 1 20.0717 1C25.989 1 30.786 14.4315 30.786 31C30.786 47.5685 25.989 61 20.0717 61Z" fill="white" stroke="#4D4D4D" stroke-miterlimit="10"/>
<path d="M19.3704 61C13.453 61 8.65603 47.5685 8.65603 31C8.65603 14.4315 13.453 1 19.3704 1C25.2877 1 30.0847 14.4315 30.0847 31C30.0847 47.5685 25.2877 61 19.3704 61Z" fill="white" stroke="#4D4D4D" stroke-miterlimit="10"/>
<path d="M18.679 61C12.7616 61 7.96462 47.5685 7.96462 31C7.96462 14.4315 12.7616 1 18.679 1C24.5963 1 29.3933 14.4315 29.3933 31C29.3933 47.5685 24.5963 61 18.679 61Z" fill="white" stroke="#4D4D4D" stroke-miterlimit="10"/>
<path d="M17.9777 61C12.0603 61 7.26333 47.5685 7.26333 31C7.26333 14.4315 12.0603 1 17.9777 1C23.895 1 28.692 14.4315 28.692 31C28.692 47.5685 23.895 61 17.9777 61Z" fill="white" stroke="#4D4D4D" stroke-miterlimit="10"/>
<path d="M17.2858 61C11.3684 61 6.57144 47.5685 6.57144 31C6.57144 14.4315 11.3684 1 17.2858 1C23.2032 1 28.0001 14.4315 28.0001 31C28.0001 47.5685 23.2032 61 17.2858 61Z" fill="white" stroke="#4D4D4D" stroke-miterlimit="10"/>
<path d="M16.585 61C10.6676 61 5.87064 47.5685 5.87064 31C5.87064 14.4315 10.6676 1 16.585 1C22.5023 1 27.2993 14.4315 27.2993 31C27.2993 47.5685 22.5023 61 16.585 61Z" fill="white" stroke="#4D4D4D" stroke-miterlimit="10"/>
<path d="M15.8925 61C9.9751 61 5.17813 47.5685 5.17813 31C5.17813 14.4315 9.9751 1 15.8925 1C21.8098 1 26.6068 14.4315 26.6068 31C26.6068 47.5685 21.8098 61 15.8925 61Z" fill="white" stroke="#4D4D4D" stroke-miterlimit="10"/>
<path d="M15.1922 61C9.27478 61 4.47781 47.5685 4.47781 31C4.47781 14.4315 9.27478 1 15.1922 1C21.1095 1 25.9065 14.4315 25.9065 31C25.9065 47.5685 21.1095 61 15.1922 61Z" fill="white" stroke="#4D4D4D" stroke-miterlimit="10"/>
<path d="M14.4998 61C8.5824 61 3.78543 47.5685 3.78543 31C3.78543 14.4315 8.5824 1 14.4998 1C20.4171 1 25.2141 14.4315 25.2141 31C25.2141 47.5685 20.4171 61 14.4998 61Z" fill="white" stroke="#4D4D4D" stroke-miterlimit="10"/>
<path d="M13.799 61C7.8816 61 3.08462 47.5685 3.08462 31C3.08462 14.4315 7.8816 1 13.799 1C19.7163 1 24.5133 14.4315 24.5133 31C24.5133 47.5685 19.7163 61 13.799 61Z" fill="white" stroke="#4D4D4D" stroke-miterlimit="10"/>
<path d="M13.1071 61C7.18971 61 2.39273 47.5685 2.39273 31C2.39273 14.4315 7.18971 1 13.1071 1C19.0244 1 23.8214 14.4315 23.8214 31C23.8214 47.5685 19.0244 61 13.1071 61Z" fill="white" stroke="#4D4D4D" stroke-miterlimit="10"/>
<path d="M12.4063 61C6.4889 61 1.69192 47.5685 1.69192 31C1.69192 14.4315 6.4889 1 12.4063 1C18.3236 1 23.1206 14.4315 23.1206 31C23.1206 47.5685 18.3236 61 12.4063 61Z" fill="white" stroke="#4D4D4D" stroke-miterlimit="10"/>
<path d="M11.7144 61C5.797 61 1.00003 47.5685 1.00003 31C1.00003 14.4315 5.797 1 11.7144 1C17.6317 1 22.4287 14.4315 22.4287 31C22.4287 47.5685 17.6317 61 11.7144 61Z" fill="white" stroke="#4D4D4D" stroke-miterlimit="10"/>
<path d="M11.4998 56.3446C7.83104 56.3446 4.85692 45.2289 4.85692 31.517C4.85692 17.8051 7.83104 6.68945 11.4998 6.68945C15.1686 6.68945 18.1427 17.8051 18.1427 31.517C18.1427 45.2289 15.1686 56.3446 11.4998 56.3446Z" fill="white" stroke="black" stroke-miterlimit="10"/>
<path d="M11.1698 36.1725C10.1593 36.1725 9.34016 33.8745 9.34016 31.0399C9.34016 28.2052 10.1593 25.9072 11.1698 25.9072C12.1803 25.9072 12.9995 28.2052 12.9995 31.0399C12.9995 33.8745 12.1803 36.1725 11.1698 36.1725Z" fill="white" stroke="black" stroke-miterlimit="10"/>
<path d="M11.0473 36.1725C10.0368 36.1725 9.21759 33.8745 9.21759 31.0399C9.21759 28.2052 10.0368 25.9072 11.0473 25.9072C12.0578 25.9072 12.877 28.2052 12.877 31.0399C12.877 33.8745 12.0578 36.1725 11.0473 36.1725Z" fill="white" stroke="black" stroke-miterlimit="10"/>
<path d="M10.9306 36.1725C9.92007 36.1725 9.1009 33.8745 9.1009 31.0399C9.1009 28.2052 9.92007 25.9072 10.9306 25.9072C11.9411 25.9072 12.7603 28.2052 12.7603 31.0399C12.7603 33.8745 11.9411 36.1725 10.9306 36.1725Z" fill="white" stroke="black" stroke-miterlimit="10"/>
<path d="M10.808 36.1725C9.79751 36.1725 8.97833 33.8745 8.97833 31.0399C8.97833 28.2052 9.79751 25.9072 10.808 25.9072C11.8185 25.9072 12.6377 28.2052 12.6377 31.0399C12.6377 33.8745 11.8185 36.1725 10.808 36.1725Z" fill="white" stroke="black" stroke-miterlimit="10"/>
<path d="M10.6919 36.1725C9.68142 36.1725 8.86224 33.8745 8.86224 31.0399C8.86224 28.2052 9.68142 25.9072 10.6919 25.9072C11.7024 25.9072 12.5216 28.2052 12.5216 31.0399C12.5216 33.8745 11.7024 36.1725 10.6919 36.1725Z" fill="white" stroke="black" stroke-miterlimit="10"/>
<path d="M10.5684 36.1725C9.55789 36.1725 8.73871 33.8745 8.73871 31.0399C8.73871 28.2052 9.55789 25.9072 10.5684 25.9072C11.5789 25.9072 12.3981 28.2052 12.3981 31.0399C12.3981 33.8745 11.5789 36.1725 10.5684 36.1725Z" fill="white" stroke="black" stroke-miterlimit="10"/>
<path d="M10.4528 36.1725C9.44229 36.1725 8.62311 33.8745 8.62311 31.0399C8.62311 28.2052 9.44229 25.9072 10.4528 25.9072C11.4633 25.9072 12.2825 28.2052 12.2825 31.0399C12.2825 33.8745 11.4633 36.1725 10.4528 36.1725Z" fill="white" stroke="black" stroke-miterlimit="10"/>
<path d="M10.3297 36.1725C9.31924 36.1725 8.50006 33.8745 8.50006 31.0399C8.50006 28.2052 9.31924 25.9072 10.3297 25.9072C11.3402 25.9072 12.1594 28.2052 12.1594 31.0399C12.1594 33.8745 11.3402 36.1725 10.3297 36.1725Z" fill="white" stroke="black" stroke-miterlimit="10"/>
<path d="M10.214 36.1725C9.20352 36.1725 8.38434 33.8745 8.38434 31.0399C8.38434 28.2052 9.20352 25.9072 10.214 25.9072C11.2245 25.9072 12.0437 28.2052 12.0437 31.0399C12.0437 33.8745 11.2245 36.1725 10.214 36.1725Z" fill="white" stroke="black" stroke-miterlimit="10"/>
<path d="M10.0989 36.1725C9.0884 36.1725 8.26923 33.8745 8.26923 31.0399C8.26923 28.2052 9.0884 25.9072 10.0989 25.9072C11.1094 25.9072 11.9286 28.2052 11.9286 31.0399C11.9286 33.8745 11.1094 36.1725 10.0989 36.1725Z" fill="white" stroke="black" stroke-miterlimit="10"/>
<path d="M9.97488 36.1725C8.96438 36.1725 8.1452 33.8745 8.1452 31.0399C8.1452 28.2052 8.96438 25.9072 9.97488 25.9072C10.9854 25.9072 11.8046 28.2052 11.8046 31.0399C11.8046 33.8745 10.9854 36.1725 9.97488 36.1725Z" fill="white" stroke="black" stroke-miterlimit="10"/>
<path d="M9.86026 36.1725C8.84976 36.1725 8.03058 33.8745 8.03058 31.0399C8.03058 28.2052 8.84976 25.9072 9.86026 25.9072C10.8708 25.9072 11.6899 28.2052 11.6899 31.0399C11.6899 33.8745 10.8708 36.1725 9.86026 36.1725Z" fill="white" stroke="black" stroke-miterlimit="10"/>
<path d="M9.73575 36.1725C8.72524 36.1725 7.90607 33.8745 7.90607 31.0399C7.90607 28.2052 8.72524 25.9072 9.73575 25.9072C10.7463 25.9072 11.5654 28.2052 11.5654 31.0399C11.5654 33.8745 10.7463 36.1725 9.73575 36.1725Z" fill="white" stroke="black" stroke-miterlimit="10"/>
<path d="M9.621 36.1725C8.6105 36.1725 7.79132 33.8745 7.79132 31.0399C7.79132 28.2052 8.6105 25.9072 9.621 25.9072C10.6315 25.9072 11.4507 28.2052 11.4507 31.0399C11.4507 33.8745 10.6315 36.1725 9.621 36.1725Z" fill="white" stroke="black" stroke-miterlimit="10"/>
<path d="M9.49698 36.1725C8.48648 36.1725 7.6673 33.8745 7.6673 31.0399C7.6673 28.2052 8.48648 25.9072 9.49698 25.9072C10.5075 25.9072 11.3267 28.2052 11.3267 31.0399C11.3267 33.8745 10.5075 36.1725 9.49698 36.1725Z" fill="white" stroke="black" stroke-miterlimit="10"/>
<path d="M9.38236 36.1725C8.37185 36.1725 7.55267 33.8745 7.55267 31.0399C7.55267 28.2052 8.37185 25.9072 9.38236 25.9072C10.3929 25.9072 11.212 28.2052 11.212 31.0399C11.212 33.8745 10.3929 36.1725 9.38236 36.1725Z" fill="white" stroke="black" stroke-miterlimit="10"/>
<path d="M9.25833 36.1725C8.24783 36.1725 7.42866 33.8745 7.42866 31.0399C7.42866 28.2052 8.24783 25.9072 9.25833 25.9072C10.2688 25.9072 11.088 28.2052 11.088 31.0399C11.088 33.8745 10.2688 36.1725 9.25833 36.1725Z" fill="white" stroke="black" stroke-miterlimit="10"/>
<defs>
<linearGradient id="paint0_linear_3378_2597" x1="60.143" y1="13.4133" x2="30.5714" y2="13.4133" gradientUnits="userSpaceOnUse">
<stop stop-color="white"/>
<stop offset="1"/>
</linearGradient>
<linearGradient id="paint1_linear_3378_2597" x1="55.429" y1="15.4827" x2="30.5717" y2="15.4827" gradientUnits="userSpaceOnUse">
<stop stop-color="white"/>
<stop offset="1"/>
</linearGradient>
<linearGradient id="paint2_linear_3378_2597" x1="32.2862" y1="31.7757" x2="61.0089" y2="31.7757" gradientUnits="userSpaceOnUse">
<stop stop-color="white"/>
<stop offset="1" stop-color="#565656"/>
</linearGradient>
</defs>
</svg>
