<svg width="102" height="57" fill="none" xmlns="http://www.w3.org/2000/svg"><g filter="url(#a)"><path d="M22 40H1v8h21v-8Z" fill="url(#b)"/><path d="M101 40H81v8h20v-8Z" fill="url(#c)"/><rect width="16" height="31" rx="3" transform="matrix(0 1 1 0 36 35)" fill="url(#d)"/><path d="M26 38h-4v12h4V38Z" fill="url(#e)"/><path d="M81 38h-4v12h4V38Z" fill="url(#f)"/><path d="M67 48h7v-8h-7v8Z" fill="url(#g)"/><path d="M29 48h7v-8h-7v8Z" fill="url(#h)"/><path d="M26 50h4V38h-4v12Z" fill="url(#i)"/><path d="M73 50h4V38h-4v12Z" fill="url(#j)"/><path d="M46 0a5 5 0 0 0-5 5v16a5 5 0 0 0 5 5h11a5 5 0 0 0 5-5V5a5 5 0 0 0-5-5H46Z" fill="url(#k)"/><path d="M46 26v9h11v-9H46Z" fill="url(#l)"/><path stroke="#000" d="M41 4.5h21M41 19.5h21M43.5 5v15M47.5 5v15M51.5 5v15M55.5 5v15M59.5 5v15"/></g><defs><linearGradient id="g" x1="70.5" y1="40" x2="70.5" y2="48" gradientUnits="userSpaceOnUse"><stop stop-color="#5D6266"/><stop offset=".505" stop-color="#FBFBFB"/><stop offset="1" stop-color="#C7BEBE"/></linearGradient><linearGradient id="l" x1="57" y1="30.5" x2="46" y2="30.5" gradientUnits="userSpaceOnUse"><stop stop-color="#5D6266"/><stop offset=".505" stop-color="#FBFBFB"/><stop offset="1" stop-color="#C7BEBE"/></linearGradient><linearGradient id="c" x1="91" y1="48" x2="91" y2="40" gradientUnits="userSpaceOnUse"><stop stop-color="#696969"/><stop offset=".505" stop-color="#BCC6CA"/><stop offset="1" stop-color="#818181"/></linearGradient><linearGradient id="d" x1="8" y1="31" x2="8" y2="0" gradientUnits="userSpaceOnUse"><stop stop-color="#5D6266"/><stop offset=".505" stop-color="#FBFBFB"/><stop offset="1" stop-color="#C7BEBE"/></linearGradient><linearGradient id="e" x1="24" y1="50" x2="24" y2="38" gradientUnits="userSpaceOnUse"><stop stop-color="#696969"/><stop offset=".505" stop-color="#BCC6CA"/><stop offset="1" stop-color="#818181"/></linearGradient><linearGradient id="f" x1="79" y1="50" x2="79" y2="38" gradientUnits="userSpaceOnUse"><stop stop-color="#696969"/><stop offset=".505" stop-color="#BCC6CA"/><stop offset="1" stop-color="#818181"/></linearGradient><linearGradient id="b" x1="11.5" y1="48" x2="11.5" y2="40" gradientUnits="userSpaceOnUse"><stop stop-color="#696969"/><stop offset=".505" stop-color="#BCC6CA"/><stop offset="1" stop-color="#818181"/></linearGradient><linearGradient id="h" x1="32.5" y1="40" x2="32.5" y2="48" gradientUnits="userSpaceOnUse"><stop stop-color="#5D6266"/><stop offset=".505" stop-color="#FBFBFB"/><stop offset="1" stop-color="#C7BEBE"/></linearGradient><linearGradient id="i" x1="28" y1="38" x2="28" y2="50" gradientUnits="userSpaceOnUse"><stop stop-color="#5D6266"/><stop offset=".505" stop-color="#FBFBFB"/><stop offset="1" stop-color="#C7BEBE"/></linearGradient><linearGradient id="j" x1="75" y1="38" x2="75" y2="50" gradientUnits="userSpaceOnUse"><stop stop-color="#5D6266"/><stop offset=".505" stop-color="#FBFBFB"/><stop offset="1" stop-color="#C7BEBE"/></linearGradient><linearGradient id="k" x1="62" y1="13" x2="41" y2="13" gradientUnits="userSpaceOnUse"><stop stop-color="#696969"/><stop offset=".505" stop-color="#BCC6CA"/><stop offset="1" stop-color="#818181"/></linearGradient><filter id="a" x="0" y="0" width="102" height="53" filterUnits="userSpaceOnUse" color-interpolation-filters="sRGB"><feFlood flood-opacity="0" result="BackgroundImageFix"/><feColorMatrix in="SourceAlpha" values="0 0 0 0 0 0 0 0 0 0 0 0 0 0 0 0 0 0 127 0" result="hardAlpha"/><feOffset dy="1"/><feGaussianBlur stdDeviation=".5"/><feComposite in2="hardAlpha" operator="out"/><feColorMatrix values="0 0 0 0 0 0 0 0 0 0 0 0 0 0 0 0 0 0 0.25 0"/><feBlend in2="BackgroundImageFix" result="effect1_dropShadow_2486_2747"/><feBlend in="SourceGraphic" in2="effect1_dropShadow_2486_2747" result="shape"/></filter></defs></svg>