<svg width="100" height="51" fill="none" xmlns="http://www.w3.org/2000/svg"><g filter="url(#a)"><path d="M21 40H0v8h21v-8Z" fill="url(#b)"/><path d="M100 40H80v8h20v-8Z" fill="url(#c)"/><rect width="16" height="31" rx="3" transform="matrix(0 1 1 0 35 35)" fill="url(#d)"/><path d="M25 38h-4v12h4V38Z" fill="url(#e)"/><path d="M80 38h-4v12h4V38Z" fill="url(#f)"/><path d="M66 48h7v-8h-7v8Z" fill="url(#g)"/><path d="M28 48h7v-8h-7v8Z" fill="url(#h)"/><path d="M25 50h4V38h-4v12Z" fill="url(#i)"/><path d="M72 50h4V38h-4v12Z" fill="url(#j)"/><path d="M45 0a5 5 0 0 0-5 5v16a5 5 0 0 0 5 5h11a5 5 0 0 0 5-5V5a5 5 0 0 0-5-5H45Z" fill="url(#k)"/><path d="M45 26v9h11v-9H45Z" fill="url(#l)"/><path stroke="#000" d="M40 4.5h21M40 19.5h21M42.5 5v15M46.5 5v15M50.5 5v15M54.5 5v15M58.5 5v15"/></g><defs><linearGradient id="g" x1="69.5" y1="40" x2="69.5" y2="48" gradientUnits="userSpaceOnUse"><stop stop-color="#5D6266"/><stop offset=".505" stop-color="#FBFBFB"/><stop offset="1" stop-color="#C7BEBE"/></linearGradient><linearGradient id="l" x1="56" y1="30.5" x2="45" y2="30.5" gradientUnits="userSpaceOnUse"><stop stop-color="#5D6266"/><stop offset=".505" stop-color="#FBFBFB"/><stop offset="1" stop-color="#C7BEBE"/></linearGradient><linearGradient id="c" x1="90" y1="48" x2="90" y2="40" gradientUnits="userSpaceOnUse"><stop stop-color="#166890"/><stop offset=".505" stop-color="#45C9FA"/><stop offset="1" stop-color="#165E7C"/></linearGradient><linearGradient id="d" x1="8" y1="31" x2="8" y2="0" gradientUnits="userSpaceOnUse"><stop stop-color="#5D6266"/><stop offset=".505" stop-color="#FBFBFB"/><stop offset="1" stop-color="#C7BEBE"/></linearGradient><linearGradient id="e" x1="23" y1="50" x2="23" y2="38" gradientUnits="userSpaceOnUse"><stop stop-color="#166890"/><stop offset=".505" stop-color="#45C9FA"/><stop offset="1" stop-color="#165E7C"/></linearGradient><linearGradient id="f" x1="78" y1="50" x2="78" y2="38" gradientUnits="userSpaceOnUse"><stop stop-color="#166890"/><stop offset=".505" stop-color="#45C9FA"/><stop offset="1" stop-color="#165E7C"/></linearGradient><linearGradient id="b" x1="10.5" y1="48" x2="10.5" y2="40" gradientUnits="userSpaceOnUse"><stop stop-color="#166890"/><stop offset=".505" stop-color="#45C9FA"/><stop offset="1" stop-color="#165E7C"/></linearGradient><linearGradient id="h" x1="31.5" y1="40" x2="31.5" y2="48" gradientUnits="userSpaceOnUse"><stop stop-color="#5D6266"/><stop offset=".505" stop-color="#FBFBFB"/><stop offset="1" stop-color="#C7BEBE"/></linearGradient><linearGradient id="i" x1="27" y1="38" x2="27" y2="50" gradientUnits="userSpaceOnUse"><stop stop-color="#5D6266"/><stop offset=".505" stop-color="#FBFBFB"/><stop offset="1" stop-color="#C7BEBE"/></linearGradient><linearGradient id="j" x1="74" y1="38" x2="74" y2="50" gradientUnits="userSpaceOnUse"><stop stop-color="#5D6266"/><stop offset=".505" stop-color="#FBFBFB"/><stop offset="1" stop-color="#C7BEBE"/></linearGradient><linearGradient id="k" x1="61" y1="13" x2="40" y2="13" gradientUnits="userSpaceOnUse"><stop stop-color="#166890"/><stop offset=".505" stop-color="#45C9FA"/><stop offset="1" stop-color="#165E7C"/></linearGradient><filter id="a" x="-1" y="0" width="102" height="53" filterUnits="userSpaceOnUse" color-interpolation-filters="sRGB"><feFlood flood-opacity="0" result="BackgroundImageFix"/><feColorMatrix in="SourceAlpha" values="0 0 0 0 0 0 0 0 0 0 0 0 0 0 0 0 0 0 127 0" result="hardAlpha"/><feOffset dy="1"/><feGaussianBlur stdDeviation=".5"/><feComposite in2="hardAlpha" operator="out"/><feColorMatrix values="0 0 0 0 0 0 0 0 0 0 0 0 0 0 0 0 0 0 0.25 0"/><feBlend in2="BackgroundImageFix" result="effect1_dropShadow_2415_2661"/><feBlend in="SourceGraphic" in2="effect1_dropShadow_2415_2661" result="shape"/></filter></defs></svg>