<svg width="98" height="386" fill="none" xmlns="http://www.w3.org/2000/svg"><g clip-path="url(#a)" stroke="#000" stroke-width=".8" stroke-miterlimit="10"><path d="M47.511 318v-12.716h6.148v-7.912H47.51v-9.537h4.043c2.61 0 4.715-1.625 4.715-3.603v-21.687c0-1.978-2.105-3.603-4.715-3.603H47.51v-9.184h6.148v-7.912H47.51V228h-11.79v13.846h-7.157v7.912h7.158v9.113h-5.559c-2.61 0-4.715 1.625-4.715 3.603v21.688c0 1.978 2.105 3.603 4.715 3.603h5.559v9.536h-7.159v7.983h7.159V318h11.79Z" fill="url(#b)"/><path d="M60.195 290.435v-32.646c0-1.478.956-2.674 2.137-2.674h4.105c1.181 0 2.137 1.196 2.137 2.674v32.646c0 1.478-.956 2.674-2.137 2.674h-4.105c-1.181 0-2.137-1.196-2.137-2.674Z" fill="url(#c)"/><path d="M68.568 277.77v-10.132c0-1.477.956-2.673 2.137-2.673h1.35c1.18 0 2.136 1.196 2.136 2.673v10.132c0 1.478-.956 2.674-2.137 2.674h-1.35c-1.18 0-2.136-1.196-2.136-2.674Z" fill="url(#d)"/><path d="M55.7 279.738v-13.58c0-.211.168-.422.337-.422h3.712c.168 0 .337.211.337.422v13.58c0 .211-.169.422-.337.422h-3.712c-.169 0-.338-.211-.338-.422Z" fill="url(#e)"/><path d="M80.504 275.801v-6.121H74.26v6.121h6.243Z" fill="url(#f)"/><path d="M82.918 276.927v-8.372h-2.362v8.372h2.362Z" fill="url(#g)"/><path d="M74.871 264.332v-6.121H68.63v6.121h6.242Z" fill="url(#h)"/><path d="M77.297 265.457v-8.373h-2.362v8.373h2.362Z" fill="url(#i)"/><path d="M53.805 246.572H29.147M53.805 300.857H29.147"/></g><path d="M80 65.864v.05a.508.508 0 0 1-.087.054.618.618 0 0 1-.3.015c-.23-.035-.459-.035-.688-.035H1.406c-.295 0-.596.01-.891.035-.174.015-.357.05-.515-.07v-.049a.276.276 0 0 1 .163-.065c.326-.05.326-.05.326-.383 0-3.39-.04-6.776.01-10.167.051-3.103 1.09-5.877 3.2-8.239 1.325-1.486 2.91-2.655 4.642-3.644 2.135-1.218 4.403-2.148 6.732-2.938 1.814-.612 3.612-1.268 5.457-1.78a72.059 72.059 0 0 1 12.036-2.273c.886-.089 1.773-.154 2.66-.223 2.185-.18 4.377-.15 6.563-.135 1.039.005 2.084.095 3.123.18 1.254.099 2.502.238 3.745.407 2.044.269 4.077.622 6.095 1.044 1.87.388 3.724.82 5.564 1.328.265.074.295.05.295-.219.006-.795 0-1.591.006-2.386 0-.125-.041-.269.107-.358.188-.025.372-.005.56-.005H72.25c.158 0 .32-.02.479.04.142.099.107.253.107.387.005 1.203 0 2.402 0 3.605 0 1.203.005 2.401-.005 3.604 0 .249.081.413.29.557a17.926 17.926 0 0 1 2.522 2.084c2.16 2.172 3.516 4.733 3.898 7.756.077.606.118 1.218.118 1.834 0 3.148.005 6.295-.006 9.447.01.259.016.482.347.542Z" fill="url(#j)"/><path d="M66.39 136h-.155a.631.631 0 0 0-.412 0H14.047c-.119-.064-.248-.018-.371-.029h-.304c-.705-.006-1.4-.139-2.084-.329-2.167-.589-4.164-1.593-6.001-3.007a15.64 15.64 0 0 1-2.275-2.118c-1.184-1.368-2.141-2.903-2.646-4.75a9.259 9.259 0 0 1-.344-2.441c0-5.57 0-11.139.005-16.708 0-.191-.093-.404.067-.572.164-.069.34-.04.51-.04H79.178c.247 0 .499-.023.74.046.104.052.078.156.078.248-.01 5.656.01 11.312-.01 16.968-.005 1.599-.427 3.088-1.132 4.479-1.025 2.014-2.47 3.578-4.159 4.882-1.96 1.512-4.102 2.551-6.428 3.117a8.37 8.37 0 0 1-1.555.225c-.103.011-.216-.029-.324.029Z" fill="url(#k)"/><path d="M79.99 86c0 .125-.005.257-.005.382v19.16c0 .152.01.298.015.451-.144 0-.289.007-.433.007H.36c-.119 0-.242-.007-.361-.007.005-.153.01-.299.01-.451V86.007c.13 0 .258-.007.387-.007H79.99Z" fill="url(#l)"/><path d="M79.99 65.998c0 .125-.005.257-.005.382v19.16c0 .152.01.298.015.45-.144 0-.289.008-.433.008H.36c-.119 0-.242-.007-.361-.007.005-.153.01-.299.01-.451V66.005c.13 0 .258-.007.387-.007H79.99Z" fill="url(#m)"/><path d="M72.735 1.283H59.969v35.154h12.766V1.283Z" fill="#B3B8BA"/><path fill-rule="evenodd" clip-rule="evenodd" d="M71.968 3.511v30.697c-.002.169-.18.331-.496.45-.316.12-.745.188-1.192.188h-7.858c-.447 0-.876-.068-1.193-.187-.316-.12-.494-.282-.495-.451V3.51c.001-.169.18-.33.495-.45.317-.12.745-.188 1.193-.188h7.858c.447 0 .876.068 1.192.188.316.12.495.281.496.45Z" fill="#D3D6D8"/><path fill-rule="evenodd" clip-rule="evenodd" d="M65.956 3.487v30.744c0 .064-.069.126-.19.172-.12.046-.284.071-.455.072h-3.004c-.172 0-.336-.026-.457-.072-.12-.046-.19-.108-.19-.172V3.486c.001-.064.07-.126.19-.172.122-.045.286-.07.457-.07h3.004c.17 0 .334.025.455.07.12.046.189.108.19.172Z" fill="#B3B8BA"/><path d="M68.897 3.244c-1.091 0-1.975.334-1.975.746v29.74c0 .412.884.746 1.974.746h.001c1.09 0 1.975-.334 1.975-.746V3.99c0-.412-.884-.746-1.975-.746Z" fill="#EAECEC"/><path fill-rule="evenodd" clip-rule="evenodd" d="M70.388 4.305v12.297c-.001.073-.079.144-.217.196a1.543 1.543 0 0 1-.52.082c-.195 0-.383-.03-.52-.082-.139-.052-.217-.123-.217-.196V4.305c.003-.073.081-.143.22-.195.137-.051.323-.08.517-.08s.38.029.518.08c.137.052.216.122.219.195ZM70.388 19.462v-1.805c-.001-.073-.079-.144-.217-.196a1.543 1.543 0 0 0-.52-.082c-.195 0-.382.03-.52.082-.138.052-.216.123-.217.196v1.805c0 .074.078.145.216.197.138.052.326.082.52.082.196 0 .383-.03.521-.082.138-.052.216-.123.217-.197Z" fill="#fff"/><path fill-rule="evenodd" clip-rule="evenodd" d="M64.418 35.805h-2.796c-.07 0-.136.01-.185.029-.05.019-.077.044-.078.07v.296c0 .027.028.052.077.07a.55.55 0 0 0 .186.03h2.796c.07 0 .137-.01.186-.03.05-.018.078-.043.078-.07v-.296c0-.026-.028-.052-.078-.07a.551.551 0 0 0-.186-.03Z" fill="#919898"/><path d="M66.01 35.805h-.72c-.135 0-.243.04-.243.091v.313c0 .05.108.091.242.091h.722c.134 0 .242-.04.242-.091v-.313c0-.05-.108-.091-.242-.091Z" fill="#919898"/><path d="M74.951 0H57.75C56.782 0 56 .296 56 .66v1.243c0 .365.783.661 1.748.661h17.203c.966 0 1.749-.296 1.749-.66V.66C76.7.296 75.917 0 74.951 0Z" fill="#273335"/><path d="M74.95.252H57.747c-.598 0-1.083.183-1.083.41v1.241c0 .226.485.41 1.083.41H74.95c.597 0 1.082-.184 1.082-.41V.661c0-.226-.484-.409-1.082-.409Z" fill="#455456"/><path fill-rule="evenodd" clip-rule="evenodd" d="M61.596.484h8.63c.394 0 .715.1.715.222v.656c0 .122-.322.222-.715.222h-8.63c-.392 0-.713-.1-.713-.222V.706c0-.122.321-.222.713-.222Z" fill="#747F81"/><path fill-rule="evenodd" clip-rule="evenodd" d="M74.411 1.859H57.12c-.158 0-.313-.013-.456-.039v.092c.002.11.117.214.32.29.204.078.48.121.768.122H75.05c.288 0 .564-.044.768-.121.204-.077.319-.182.32-.29V.662c0-.077-.059-.153-.168-.218a1.384 1.384 0 0 0-.45-.152h-.016v1.154c0 .11-.116.214-.321.291-.205.077-.482.12-.77.12Z" fill="#273335"/><path d="M57.87.484h1.592c.142 0 .28.022.38.06.1.038.157.09.157.143v.693c0 .054-.056.106-.157.144-.1.038-.237.06-.38.06h-1.593c-.142 0-.279-.022-.38-.06-.1-.038-.157-.09-.157-.143V.688c0-.027.014-.053.04-.078a.365.365 0 0 1 .117-.066.886.886 0 0 1 .174-.044c.066-.01.136-.016.206-.016Z" fill="#747F81"/><path d="M58.776.65h-.721c-.134 0-.242.041-.242.092v.312c0 .05.108.092.242.092h.721c.134 0 .243-.041.243-.092V.742c0-.05-.109-.092-.243-.092ZM64.418.65h-2.796c-.145 0-.263.045-.263.1v.296c0 .055.118.1.263.1h2.796c.145 0 .263-.045.263-.1V.75c0-.055-.118-.1-.263-.1ZM66.01.65h-.72c-.135 0-.243.041-.243.092v.312c0 .05.108.092.242.092h.722c.134 0 .242-.041.242-.092V.742c0-.05-.108-.092-.242-.092Z" fill="#919898"/><path d="M34.669 224.76H48.03v-88.761H34.67v88.761Z" fill="#B3B8BA"/><path fill-rule="evenodd" clip-rule="evenodd" d="M35.472 219.134v-77.505c.001-.427.188-.837.519-1.139a1.86 1.86 0 0 1 1.248-.473h8.225c.468.001.917.171 1.248.473.331.302.518.712.518 1.139v77.505c0 .427-.187.837-.518 1.139-.33.302-.78.472-1.248.473h-8.225a1.86 1.86 0 0 1-1.248-.474 1.547 1.547 0 0 1-.519-1.138Z" fill="#D3D6D8"/><path fill-rule="evenodd" clip-rule="evenodd" d="M41.765 219.194v-77.623c0-.163.072-.32.199-.435a.712.712 0 0 1 .476-.182h3.145c.18.001.35.066.478.181a.596.596 0 0 1 .199.436v77.623a.592.592 0 0 1-.2.434.718.718 0 0 1-.477.181H42.44a.715.715 0 0 1-.476-.181.593.593 0 0 1-.199-.434Z" fill="#B3B8BA"/><path d="M38.686 219.809h.002c1.14 0 2.066-.844 2.066-1.884v-75.09c0-1.04-.925-1.884-2.067-1.884h-.001c-1.141 0-2.066.844-2.066 1.884v75.09c0 1.04.925 1.884 2.066 1.884Z" fill="#EAECEC"/><path fill-rule="evenodd" clip-rule="evenodd" d="M37.126 217.13v-31.048c0-.186.082-.364.226-.496a.814.814 0 0 1 .545-.207c.204.001.4.075.545.207.144.131.226.31.226.496v31.048a.676.676 0 0 1-.23.492.817.817 0 0 1-.541.204.817.817 0 0 1-.542-.204.676.676 0 0 1-.23-.492ZM37.126 178.86v4.558c0 .186.082.365.226.496.145.132.34.206.545.207a.814.814 0 0 0 .544-.207.674.674 0 0 0 .227-.496v-4.558a.672.672 0 0 0-.226-.496.815.815 0 0 0-.545-.207.814.814 0 0 0-.545.207.676.676 0 0 0-.226.496Z" fill="#fff"/><path fill-rule="evenodd" clip-rule="evenodd" d="M43.373 137.596H46.3a.294.294 0 0 0 .194-.074.242.242 0 0 0 .081-.177v-.748a.24.24 0 0 0-.08-.178.29.29 0 0 0-.195-.074h-2.926a.292.292 0 0 0-.195.074.242.242 0 0 0-.082.178v.748c0 .066.03.13.082.177a.292.292 0 0 0 .195.074Z" fill="#919898"/><path d="M41.706 137.596h.755c.14 0 .254-.104.254-.232v-.788c0-.128-.114-.231-.254-.231h-.755c-.14 0-.254.103-.254.231v.788c0 .128.114.232.254.232Z" fill="#919898"/><path d="M32.346 228h18.007c1.011 0 1.83-.747 1.83-1.669v-3.136c0-.922-.819-1.669-1.83-1.669H32.346c-1.01 0-1.83.747-1.83 1.669v3.136c0 .922.82 1.669 1.83 1.669Z" fill="#273335"/><path d="M32.348 227.363h18.007c.626 0 1.133-.462 1.133-1.033v-3.136c0-.571-.507-1.034-1.133-1.034H32.348c-.626 0-1.133.463-1.133 1.034v3.136c0 .571.507 1.033 1.133 1.033Z" fill="#455456"/><path fill-rule="evenodd" clip-rule="evenodd" d="M46.328 226.777h-9.034c-.411 0-.748-.252-.748-.559v-1.658c0-.306.337-.558.748-.558h9.034c.41 0 .746.252.746.558v1.658c0 .307-.336.559-.746.559Z" fill="#747F81"/><path fill-rule="evenodd" clip-rule="evenodd" d="M32.908 223.309h18.1c.164 0 .327.032.476.096v-.232a1 1 0 0 0-.335-.733 1.204 1.204 0 0 0-.804-.306H32.24c-.302.002-.59.111-.804.306a1 1 0 0 0-.335.733v3.153a.98.98 0 0 0 .177.553c.114.165.277.298.47.383h.017v-2.915a.996.996 0 0 1 .336-.734 1.2 1.2 0 0 1 .807-.304Z" fill="#273335"/><path d="M50.227 226.777H48.56a.592.592 0 0 1-.398-.15.49.49 0 0 1-.165-.362v-1.75a.49.49 0 0 1 .165-.362.588.588 0 0 1 .398-.151h1.667c.149 0 .292.054.397.15a.49.49 0 0 1 .165.362v1.749a.473.473 0 0 1-.042.197.52.52 0 0 1-.122.167.583.583 0 0 1-.398.15Z" fill="#747F81"/><path d="M49.276 226.357h.755c.14 0 .254-.103.254-.231v-.789c0-.127-.113-.231-.253-.231h-.756c-.14 0-.254.104-.254.231v.789c0 .128.114.231.254.231ZM43.373 226.357H46.3c.152 0 .275-.112.275-.251v-.749c0-.138-.123-.251-.275-.251h-2.926c-.152 0-.275.113-.275.251v.749c0 .139.123.251.275.251ZM41.706 226.357h.755c.14 0 .254-.103.254-.231v-.789c0-.127-.114-.231-.254-.231h-.755c-.14 0-.254.104-.254.231v.789c0 .128.114.231.254.231Z" fill="#919898"/><path d="M33.968 320.395h12.766V386H33.968v-65.605Z" fill="#B3B8BA"/><path fill-rule="evenodd" clip-rule="evenodd" d="M34.736 324.553v57.286c0 .316.179.618.495.841.316.223.745.349 1.192.35h7.858c.448 0 .876-.126 1.193-.35.316-.223.494-.525.495-.841v-57.286c-.001-.316-.179-.619-.495-.842-.317-.223-.745-.349-1.193-.35h-7.858c-.447.001-.876.127-1.192.35-.316.224-.494.526-.495.842Z" fill="#D3D6D8"/><path fill-rule="evenodd" clip-rule="evenodd" d="M40.743 324.509v57.373c0 .121.07.236.19.322a.81.81 0 0 0 .455.134h3.005a.805.805 0 0 0 .456-.134c.121-.086.19-.201.19-.322v-57.373c-.001-.121-.07-.236-.19-.321a.803.803 0 0 0-.456-.133h-3.005a.8.8 0 0 0-.455.133c-.12.085-.189.2-.19.321Z" fill="#B3B8BA"/><path d="M37.806 324.055h.001c1.09 0 1.974.623 1.974 1.392v55.5c0 .77-.884 1.393-1.974 1.393h-.001c-1.09 0-1.974-.623-1.974-1.393v-55.5c0-.769.883-1.392 1.974-1.392Z" fill="#EAECEC"/><path fill-rule="evenodd" clip-rule="evenodd" d="M36.312 326.034v22.948c0 .138.078.27.216.367a.924.924 0 0 0 .52.153.91.91 0 0 0 .521-.153c.138-.097.216-.229.216-.367v-22.948c-.002-.137-.081-.267-.219-.363a.91.91 0 0 0-.518-.151.91.91 0 0 0-.517.151c-.138.096-.217.226-.22.363ZM36.312 354.32v-3.369c0-.137.078-.269.216-.367a.916.916 0 0 1 .52-.152c.196 0 .383.055.52.152.139.098.216.23.217.367v3.369c0 .138-.078.27-.216.367a.918.918 0 0 1-.52.153.924.924 0 0 1-.52-.153c-.139-.097-.217-.229-.217-.367Z" fill="#fff"/><path fill-rule="evenodd" clip-rule="evenodd" d="M42.282 384.82h2.795c.07.001.136.02.185.055.05.035.078.082.078.131v.553c0 .049-.028.096-.077.131a.326.326 0 0 1-.186.055h-2.795a.327.327 0 0 1-.187-.055c-.05-.035-.077-.082-.078-.131v-.553c0-.049.029-.097.078-.131a.328.328 0 0 1 .187-.055Z" fill="#919898"/><path d="M40.688 384.82h.722c.134 0 .242.077.242.171v.583c0 .095-.108.171-.242.171h-.722c-.133 0-.242-.076-.242-.171v-.583c0-.094.109-.171.242-.171Z" fill="#919898"/><path d="M31.748 318H48.95c.965 0 1.748.552 1.748 1.233v2.319c0 .681-.783 1.233-1.748 1.233H31.748c-.966 0-1.749-.552-1.749-1.233v-2.319c0-.681.783-1.233 1.749-1.233Z" fill="#273335"/><path d="M31.75 318.471h17.203c.597 0 1.082.342 1.082.763v2.319c0 .421-.485.763-1.082.763H31.75c-.598 0-1.083-.342-1.083-.763v-2.319c0-.421.485-.763 1.083-.763Z" fill="#455456"/><path fill-rule="evenodd" clip-rule="evenodd" d="M45.103 318.904h-8.63c-.393 0-.715.187-.715.413v1.226c0 .226.322.413.715.413h8.63c.392 0 .713-.187.713-.413v-1.226c0-.226-.32-.413-.713-.413Z" fill="#747F81"/><path fill-rule="evenodd" clip-rule="evenodd" d="M32.288 321.469H49.58c.157 0 .313-.025.455-.072v.172c-.001.203-.116.398-.32.542-.204.144-.48.225-.768.226H31.65a1.355 1.355 0 0 1-.768-.226c-.204-.144-.319-.339-.32-.542v-2.331c0-.144.06-.286.169-.408.11-.122.265-.22.45-.283h.015v2.154c0 .204.116.399.321.543.205.144.482.225.771.225Z" fill="#273335"/><path d="M48.83 318.904h-1.593c-.142 0-.279.04-.38.111-.1.071-.157.168-.157.268v1.293c0 .101.056.197.157.268.1.072.238.112.38.112h1.593c.142 0 .279-.04.38-.111.1-.071.157-.167.157-.268v-1.293a.283.283 0 0 0-.04-.145.398.398 0 0 0-.117-.123.57.57 0 0 0-.174-.083.74.74 0 0 0-.206-.029Z" fill="#747F81"/><path d="M47.923 319.215h.721c.134 0 .243.076.243.171v.583c0 .094-.109.171-.243.171h-.721c-.134 0-.242-.077-.242-.171v-.583c0-.095.108-.171.242-.171ZM42.282 319.215h2.795c.145 0 .263.083.263.185v.554c0 .103-.118.186-.263.186h-2.795c-.146 0-.263-.083-.263-.186v-.554c0-.102.117-.185.263-.185ZM40.688 319.215h.722c.134 0 .242.076.242.171v.583c0 .094-.108.171-.242.171h-.722c-.133 0-.242-.077-.242-.171v-.583c0-.095.109-.171.242-.171Z" fill="#919898"/><defs><linearGradient id="h" x1="74.871" y1="261.272" x2="68.629" y2="261.272" gradientUnits="userSpaceOnUse"><stop stop-color="#E31818"/><stop offset=".5" stop-color="#E86262"/><stop offset="1" stop-color="#EC3434"/></linearGradient><linearGradient id="b" x1="56.27" y1="273" x2="25.448" y2="273" gradientUnits="userSpaceOnUse"><stop stop-color="#540000"/><stop offset=".5" stop-color="#E86262"/><stop offset="1" stop-color="#540000"/></linearGradient><linearGradient id="d" x1="74.191" y1="272.704" x2="68.568" y2="272.704" gradientUnits="userSpaceOnUse"><stop stop-color="#E31818"/><stop offset=".5" stop-color="#E86262"/><stop offset="1" stop-color="#EC3434"/></linearGradient><linearGradient id="e" x1="60.086" y1="272.948" x2="55.699" y2="272.948" gradientUnits="userSpaceOnUse"><stop stop-color="#E31818"/><stop offset=".5" stop-color="#E86262"/><stop offset="1" stop-color="#EC3434"/></linearGradient><linearGradient id="f" x1="80.504" y1="272.74" x2="74.261" y2="272.74" gradientUnits="userSpaceOnUse"><stop stop-color="#E31818"/><stop offset=".5" stop-color="#E86262"/><stop offset="1" stop-color="#EC3434"/></linearGradient><linearGradient id="g" x1="82.918" y1="272.741" x2="80.556" y2="272.741" gradientUnits="userSpaceOnUse"><stop stop-color="#E31818"/><stop offset=".5" stop-color="#E86262"/><stop offset="1" stop-color="#EC3434"/></linearGradient><linearGradient id="c" x1="68.574" y1="274.112" x2="60.195" y2="274.112" gradientUnits="userSpaceOnUse"><stop stop-color="#E31818"/><stop offset=".5" stop-color="#E86262"/><stop offset="1" stop-color="#EC3434"/></linearGradient><linearGradient id="i" x1="77.297" y1="261.27" x2="74.935" y2="261.27" gradientUnits="userSpaceOnUse"><stop stop-color="#E31818"/><stop offset=".5" stop-color="#E86262"/><stop offset="1" stop-color="#EC3434"/></linearGradient><linearGradient id="j" x1="40" y1="36" x2="40" y2="66" gradientUnits="userSpaceOnUse"><stop stop-color="#540000"/><stop offset="1" stop-color="#F86060"/></linearGradient><linearGradient id="k" x1="40" y1="106" x2="40" y2="136" gradientUnits="userSpaceOnUse"><stop stop-color="#540000"/><stop offset="1" stop-color="#F86060"/></linearGradient><linearGradient id="l" x1="40" y1="86" x2="40" y2="106" gradientUnits="userSpaceOnUse"><stop stop-color="#540000"/><stop offset="1" stop-color="#F86060"/></linearGradient><linearGradient id="m" x1="40" y1="65.998" x2="40" y2="85.998" gradientUnits="userSpaceOnUse"><stop stop-color="#540000"/><stop offset="1" stop-color="#F86060"/></linearGradient><clipPath id="a"><path fill="#fff" transform="translate(18 228)" d="M0 0h80v90H0z"/></clipPath></defs></svg>