<svg width="52" height="52" fill="none" xmlns="http://www.w3.org/2000/svg"><rect width="51.627" height="51.627" rx="10.756" fill="#E9EBF1"/><mask id="a" style="mask-type:luminance" maskUnits="userSpaceOnUse" x="0" y="0" width="52" height="52"><rect width="51.627" height="51.627" rx="10.756" fill="#fff"/></mask><g mask="url(#a)"><mask id="b" style="mask-type:luminance" maskUnits="userSpaceOnUse" x="-122" y="-155" width="378" height="215"><path fill-rule="evenodd" clip-rule="evenodd" d="M-121.539-154.882h377.524V59.156h-377.524v-214.038Z" fill="#fff"/></mask><g mask="url(#b)" fill-rule="evenodd" clip-rule="evenodd" fill="#FFFFFE"><path d="M258.135 63.524V79.59h-378.6v-253.834h37.042a87.193 87.193 0 0 1 10.414 4.732c22.176 11.889 39.011 33.257 45.983 57.539 6.077 21.17 4.876 43.654 7.021 65.586 2.146 21.926 8.693 45.121 25.876 58.788 13.862 11.021 32.51 14.016 50.173 13.377 17.657-.645 35.058-4.519 52.696-5.58 27.229-1.645 54.836 3.544 79.632 14.966 20.389 9.392 39.283 23.044 61.318 27.242 2.796.533 5.618.904 8.445 1.117M258.137-174.243V10.755a29.863 29.863 0 0 1-1.347-.425c-12.193-4.1-22.422-13.79-27.066-25.815-5.661-14.655-3.204-31.75-10.153-45.839-7.302-14.818-23.613-23.142-39.742-26.579-16.124-3.436-32.833-2.995-49.099-5.668-27.721-4.55-53.847-18.4-73.201-38.815-8.938-9.423-16.593-20.501-19.677-33.132a47.313 47.313 0 0 1-1.282-8.725h221.567"/></g><mask id="c" style="mask-type:luminance" maskUnits="userSpaceOnUse" x="-109" y="-155" width="291" height="159"><path fill-rule="evenodd" clip-rule="evenodd" d="M-108.633-154.882h290.404V3.226h-290.404v-158.108Z" fill="#fff"/></mask><mask id="d" style="mask-type:luminance" maskUnits="userSpaceOnUse" x="-33" y="-127" width="164" height="187"><path fill-rule="evenodd" clip-rule="evenodd" d="M-32.266-126.917h162.411V59.156h-162.41v-186.073Z" fill="#fff"/></mask><g mask="url(#d)"><path fill-rule="evenodd" clip-rule="evenodd" d="M41.956 44.517C33.831 30.902 19.39 24.428 6.998 23.704-7.336 22.871-17.77 34.23-24.95 46.262c-4.025 6.747-7.296 14.757-7.316 23.79-.007 3.829.845 8.077 2.751 11.646 2.01 3.764 5.122 6.6 8.294 8.86 7.688 5.475 16.759 7.868 25.02 9.022 8.492 1.185 16.534.064 23.652-3.939 7.633-4.295 13.214-11.786 16.337-21.057 3.096-9.188 4.06-20.195-1.832-30.068" fill="#FDC748"/></g><path fill-rule="evenodd" clip-rule="evenodd" d="m7.49 31.675-.007-.026a.972.972 0 0 0-.066-.18c-.014-.029-.036-.049-.052-.071-.026-.033-.046-.067-.08-.094a.404.404 0 0 0-.199-.089c-.053-.006-.102-.014-.152-.022-.277-.041-.429.468-.45.754l-.026.323c-.06.759.424 1.484.845.796.035-.055.068-.144.099-.24.004.008.004.017.006.025.033-.107.067-.262.091-.438a1.996 1.996 0 0 0-.01-.738M8.216 36.688c-.328-.426-.624.417-.608.629.012.168-.048.326-.071.484-.027.2-.005.558.182.728l.067.061c.529.479.81-.488.817-.845.005-.35-.155-.758-.387-1.057M4.045 40.003c-.462-.748-.837.742-.818 1.147.013.318.132.789.41.797.16.005.276-.122.366-.29.23-.103.35-.536.278-.897-.051-.247-.084-.51-.236-.757M5.652 44.38a.604.604 0 0 1 .036-.054c-.31.288-.438 1.172-.143 1.684a.242.242 0 0 0 .065.088c.475.507.796-.381.839-.914.062-.77-.403-1.505-.797-.804M21.404 36.613c-1.214.277-1.436 2.44.215 2.064 1.218-.275 1.44-2.44-.215-2.064M21.684 41.947a1.245 1.245 0 0 0-1.168.785c-.14.363-.204 1.35.799 1.366.895.014 1.342-.81 1.265-1.324a.065.065 0 0 1-.004-.023c-.048-.32-.276-.794-.892-.804M21.063 40.085c-.62-.675-1.331-.008-1.54.378a1.331 1.331 0 0 0-.06.113c-.163.299-.169.849.243 1.14.39.271.607.226 1.055.23.727.005.944-.797.567-1.219-.051-.22-.081-.436-.265-.642M19.598 33.352c-.147.066-.175.577.027.488.146-.066.175-.576-.027-.488M14.289 26.968c-.382-.58-.4 2.24-.081 1.874l.012.041c.178.596.318-.674.282-1.03-.041-.414-.077-.68-.213-.885" fill="#FFF9E0"/><path fill-rule="evenodd" clip-rule="evenodd" d="M48.4 33.91c.087 4.139-2.872 8.531-7.538 11.19-5.048 2.877-10.67 2.969-15.036.243-3.294-2.056-5.308-5.535-5.386-9.308-.062-2.974 1.091-5.79 3.248-7.93 4.735-4.694 12.79-5.828 18.735-2.637 4.849 2.601 5.927 6.026 5.977 8.44v.001" fill="#09525C"/><path fill-rule="evenodd" clip-rule="evenodd" d="M18.288 36.355c.097 4.575 2.57 8.79 6.614 11.275 5.253 3.226 11.971 3.142 17.972-.225 5.57-3.124 9.1-8.377 8.994-13.38-.052-2.465-1.076-7.096-7.348-10.408-7.049-3.723-16.602-2.396-22.221 3.086-2.663 2.6-4.088 6.028-4.01 9.652Zm3.39-.07c-.054-2.563.91-5.158 3.005-7.205 4.619-4.505 12.545-5.522 18.237-2.516 3.879 2.048 5.5 4.763 5.56 7.531.168 7.955-12.566 16.36-21.784 10.698-3.194-1.962-4.948-5.209-5.018-8.507Z" fill="#FFFFFE"/><path fill-rule="evenodd" clip-rule="evenodd" d="M28.156 38.378c.414.5 1.07.4 1.507.04.345-.288.673-1.009.261-1.506-.413-.499-1.07-.4-1.506-.04-.345.287-.673 1.008-.262 1.506M28.156 33c.413.498 1.07.401 1.506.038.345-.286.674-1.005.262-1.505-.413-.499-1.07-.4-1.505-.038-.345.287-.674 1.007-.263 1.504" fill="#FFF9E0"/><path fill-rule="evenodd" clip-rule="evenodd" d="M27.988 32.258c.024.095.047.191.068.288.238.999 1.142.922 1.647.505.645-.528.489-1.438-.151-1.714l-.276-.119c-.291-.125-1.492.174-1.288 1.04M31.248 34.76a2.844 2.844 0 0 1-.038.089c-.063.139.042.237.156.328l.19.15c.635.504 2.546-.253 1.458-.73a1.92 1.92 0 0 0-.893-.18c-.311.007-.751.08-.873.343" fill="#FFF9E0"/><mask id="e" style="mask-type:luminance" maskUnits="userSpaceOnUse" x="38" y="31" width="61" height="29"><path fill-rule="evenodd" clip-rule="evenodd" d="M38.719 31.19H98.95v27.966H38.719V31.19Z" fill="#fff"/></mask><g mask="url(#e)"><path fill-rule="evenodd" clip-rule="evenodd" d="M38.91 32.096c.413.248 1.071.2 1.506.018.346-.143.674-.503.261-.752-.412-.249-1.07-.2-1.505-.02-.345.144-.673.504-.261.754" fill="#FFF9E0"/></g></g></svg>