<svg width="55" height="102" viewBox="0 0 55 102" fill="none" xmlns="http://www.w3.org/2000/svg">
<rect width="55" height="102" fill="url(#paint0_linear_1011_557)"/>
<ellipse cx="7.00003" cy="6.5" rx="2.5" ry="2.99997" transform="rotate(90 7.00003 6.5)" fill="url(#paint1_linear_1011_557)"/>
<ellipse cx="6.64691" cy="6.5" rx="2.5" ry="2.64703" transform="rotate(90 6.64691 6.5)" fill="url(#paint2_linear_1011_557)"/>
<ellipse cx="26" cy="5.5" rx="2.5" ry="2.99997" transform="rotate(90 26 5.5)" fill="url(#paint3_linear_1011_557)"/>
<ellipse cx="25.6469" cy="5.5" rx="2.5" ry="2.64703" transform="rotate(90 25.6469 5.5)" fill="url(#paint4_linear_1011_557)"/>
<ellipse cx="43" cy="6.5" rx="2.5" ry="2.99997" transform="rotate(90 43 6.5)" fill="url(#paint5_linear_1011_557)"/>
<ellipse cx="42.6469" cy="6.5" rx="2.5" ry="2.64703" transform="rotate(90 42.6469 6.5)" fill="url(#paint6_linear_1011_557)"/>
<ellipse cx="13" cy="37.5" rx="2.5" ry="3" transform="rotate(90 13 37.5)" fill="url(#paint7_linear_1011_557)"/>
<ellipse cx="12.6469" cy="37.5" rx="2.5" ry="2.64703" transform="rotate(90 12.6469 37.5)" fill="url(#paint8_linear_1011_557)"/>
<ellipse cx="32" cy="36.5" rx="2.5" ry="3" transform="rotate(90 32 36.5)" fill="url(#paint9_linear_1011_557)"/>
<ellipse cx="31.6469" cy="36.5" rx="2.5" ry="2.64703" transform="rotate(90 31.6469 36.5)" fill="url(#paint10_linear_1011_557)"/>
<ellipse cx="49" cy="37.5" rx="2.5" ry="3" transform="rotate(90 49 37.5)" fill="url(#paint11_linear_1011_557)"/>
<ellipse cx="48.6469" cy="37.5" rx="2.5" ry="2.64703" transform="rotate(90 48.6469 37.5)" fill="url(#paint12_linear_1011_557)"/>
<ellipse cx="6.5" cy="72" rx="2" ry="2.5" transform="rotate(90 6.5 72)" fill="url(#paint13_linear_1011_557)"/>
<circle cx="6" cy="72" r="2" transform="rotate(90 6 72)" fill="url(#paint14_linear_1011_557)"/>
<ellipse cx="25.5" cy="71" rx="2" ry="2.5" transform="rotate(90 25.5 71)" fill="url(#paint15_linear_1011_557)"/>
<circle cx="25" cy="71" r="2" transform="rotate(90 25 71)" fill="url(#paint16_linear_1011_557)"/>
<ellipse cx="42.5" cy="72" rx="2" ry="2.5" transform="rotate(90 42.5 72)" fill="url(#paint17_linear_1011_557)"/>
<circle cx="42" cy="72" r="2" transform="rotate(90 42 72)" fill="url(#paint18_linear_1011_557)"/>
<circle cx="14" cy="96" r="2" transform="rotate(90 14 96)" fill="url(#paint19_linear_1011_557)"/>
<ellipse cx="14.25" cy="96" rx="2" ry="1.75" transform="rotate(90 14.25 96)" fill="url(#paint20_linear_1011_557)"/>
<circle cx="33" cy="95" r="2" transform="rotate(90 33 95)" fill="url(#paint21_linear_1011_557)"/>
<ellipse cx="33.25" cy="95" rx="2" ry="1.75" transform="rotate(90 33.25 95)" fill="url(#paint22_linear_1011_557)"/>
<circle cx="50" cy="96" r="2" transform="rotate(90 50 96)" fill="url(#paint23_linear_1011_557)"/>
<ellipse cx="50.25" cy="96" rx="2" ry="1.75" transform="rotate(90 50.25 96)" fill="url(#paint24_linear_1011_557)"/>
<path d="M9.5 18C8.67157 18 8 17.3284 8 16.5C8 15.6716 8.67157 15 9.5 15C10.3284 15 11 15.6716 11 16.5C11 17.3284 10.3284 18 9.5 18Z" fill="#156CB4"/>
<path d="M28.5 17C27.6716 17 27 16.3284 27 15.5C27 14.6716 27.6716 14 28.5 14C29.3284 14 30 14.6716 30 15.5C30 16.3284 29.3284 17 28.5 17Z" fill="#156CB4"/>
<path d="M45.5 18C44.6716 18 44 17.3284 44 16.5C44 15.6716 44.6716 15 45.5 15C46.3284 15 47 15.6716 47 16.5C47 17.3284 46.3284 18 45.5 18Z" fill="#156CB4"/>
<path d="M6 43C5.44772 43 5 42.5523 5 42C5 41.4477 5.44772 41 6 41C6.55228 41 7 41.4477 7 42C7 42.5523 6.55228 43 6 43Z" fill="#156CB4"/>
<path d="M25 42C24.4477 42 24 41.5523 24 41C24 40.4477 24.4477 40 25 40C25.5523 40 26 40.4477 26 41C26 41.5523 25.5523 42 25 42Z" fill="#156CB4"/>
<path d="M42 43C41.4477 43 41 42.5523 41 42C41 41.4477 41.4477 41 42 41C42.5523 41 43 41.4477 43 42C43 42.5523 42.5523 43 42 43Z" fill="#156CB4"/>
<path d="M16.5 30C16.2239 30 16 29.7761 16 29.5C16 29.2239 16.2239 29 16.5 29C16.7761 29 17 29.2239 17 29.5C17 29.7761 16.7761 30 16.5 30Z" fill="#156CB4"/>
<path d="M35.5 29C35.2239 29 35 28.7761 35 28.5C35 28.2239 35.2239 28 35.5 28C35.7761 28 36 28.2239 36 28.5C36 28.7761 35.7761 29 35.5 29Z" fill="#156CB4"/>
<path d="M52.5 30C52.2239 30 52 29.7761 52 29.5C52 29.2239 52.2239 29 52.5 29C52.7761 29 53 29.2239 53 29.5C53 29.7761 52.7761 30 52.5 30Z" fill="#156CB4"/>
<path d="M13 53C12.4477 53 12 52.5523 12 52C12 51.4477 12.4477 51 13 51C13.5523 51 14 51.4477 14 52C14 52.5523 13.5523 53 13 53Z" fill="#156CB4"/>
<path d="M32 52C31.4477 52 31 51.5523 31 51C31 50.4477 31.4477 50 32 50C32.5523 50 33 50.4477 33 51C33 51.5523 32.5523 52 32 52Z" fill="#156CB4"/>
<path d="M49 53C48.4477 53 48 52.5523 48 52C48 51.4477 48.4477 51 49 51C49.5523 51 50 51.4477 50 52C50 52.5523 49.5523 53 49 53Z" fill="#156CB4"/>
<path d="M6 97C5.44772 97 5 96.5523 5 96C5 95.4477 5.44772 95 6 95C6.55228 95 7 95.4477 7 96C7 96.5523 6.55228 97 6 97Z" fill="#156CB4"/>
<path d="M25 96C24.4477 96 24 95.5523 24 95C24 94.4477 24.4477 94 25 94C25.5523 94 26 94.4477 26 95C26 95.5523 25.5523 96 25 96Z" fill="#156CB4"/>
<path d="M42 97C41.4477 97 41 96.5523 41 96C41 95.4477 41.4477 95 42 95C42.5523 95 43 95.4477 43 96C43 96.5523 42.5523 97 42 97Z" fill="#156CB4"/>
<path d="M14.5 81C13.6716 81 13 80.3284 13 79.5C13 78.6716 13.6716 78 14.5 78C15.3284 78 16 78.6716 16 79.5C16 80.3284 15.3284 81 14.5 81Z" fill="#156CB4"/>
<path d="M33.5 80C32.6716 80 32 79.3284 32 78.5C32 77.6716 32.6716 77 33.5 77C34.3284 77 35 77.6716 35 78.5C35 79.3284 34.3284 80 33.5 80Z" fill="#156CB4"/>
<path d="M50.5 81C49.6716 81 49 80.3284 49 79.5C49 78.6716 49.6716 78 50.5 78C51.3284 78 52 78.6716 52 79.5C52 80.3284 51.3284 81 50.5 81Z" fill="#156CB4"/>
<path d="M12.5 11C12.2239 11 12 10.7761 12 10.5C12 10.2239 12.2239 10 12.5 10C12.7761 10 13 10.2239 13 10.5C13 10.7761 12.7761 11 12.5 11Z" fill="#156CB4"/>
<path d="M31.5 10C31.2239 10 31 9.77614 31 9.5C31 9.22386 31.2239 9 31.5 9C31.7761 9 32 9.22386 32 9.5C32 9.77614 31.7761 10 31.5 10Z" fill="#156CB4"/>
<path d="M48.5 11C48.2239 11 48 10.7761 48 10.5C48 10.2239 48.2239 10 48.5 10C48.7761 10 49 10.2239 49 10.5C49 10.7761 48.7761 11 48.5 11Z" fill="#156CB4"/>
<path d="M15.5 15C15.2239 15 15 14.7761 15 14.5C15 14.2239 15.2239 14 15.5 14C15.7761 14 16 14.2239 16 14.5C16 14.7761 15.7761 15 15.5 15Z" fill="#156CB4"/>
<path d="M34.5 14C34.2239 14 34 13.7761 34 13.5C34 13.2239 34.2239 13 34.5 13C34.7761 13 35 13.2239 35 13.5C35 13.7761 34.7761 14 34.5 14Z" fill="#156CB4"/>
<path d="M51.5 15C51.2239 15 51 14.7761 51 14.5C51 14.2239 51.2239 14 51.5 14C51.7761 14 52 14.2239 52 14.5C52 14.7761 51.7761 15 51.5 15Z" fill="#156CB4"/>
<path d="M12.5 26C12.2239 26 12 25.7761 12 25.5C12 25.2239 12.2239 25 12.5 25C12.7761 25 13 25.2239 13 25.5C13 25.7761 12.7761 26 12.5 26Z" fill="#156CB4"/>
<path d="M31.5 25C31.2239 25 31 24.7761 31 24.5C31 24.2239 31.2239 24 31.5 24C31.7761 24 32 24.2239 32 24.5C32 24.7761 31.7761 25 31.5 25Z" fill="#156CB4"/>
<path d="M48.5 26C48.2239 26 48 25.7761 48 25.5C48 25.2239 48.2239 25 48.5 25C48.7761 25 49 25.2239 49 25.5C49 25.7761 48.7761 26 48.5 26Z" fill="#156CB4"/>
<path d="M6.5 26C6.22386 26 6 25.7761 6 25.5C6 25.2239 6.22386 25 6.5 25C6.77614 25 7 25.2239 7 25.5C7 25.7761 6.77614 26 6.5 26Z" fill="#156CB4"/>
<path d="M25.5 25C25.2239 25 25 24.7761 25 24.5C25 24.2239 25.2239 24 25.5 24C25.7761 24 26 24.2239 26 24.5C26 24.7761 25.7761 25 25.5 25Z" fill="#156CB4"/>
<path d="M42.5 26C42.2239 26 42 25.7761 42 25.5C42 25.2239 42.2239 25 42.5 25C42.7761 25 43 25.2239 43 25.5C43 25.7761 42.7761 26 42.5 26Z" fill="#156CB4"/>
<path d="M6.5 63C6.22386 63 6 62.7761 6 62.5C6 62.2239 6.22386 62 6.5 62C6.77614 62 7 62.2239 7 62.5C7 62.7761 6.77614 63 6.5 63Z" fill="#156CB4"/>
<path d="M25.5 62C25.2239 62 25 61.7761 25 61.5C25 61.2239 25.2239 61 25.5 61C25.7761 61 26 61.2239 26 61.5C26 61.7761 25.7761 62 25.5 62Z" fill="#156CB4"/>
<path d="M42.5 63C42.2239 63 42 62.7761 42 62.5C42 62.2239 42.2239 62 42.5 62C42.7761 62 43 62.2239 43 62.5C43 62.7761 42.7761 63 42.5 63Z" fill="#156CB4"/>
<path d="M16.5 67C16.2239 67 16 66.7761 16 66.5C16 66.2239 16.2239 66 16.5 66C16.7761 66 17 66.2239 17 66.5C17 66.7761 16.7761 67 16.5 67Z" fill="#156CB4"/>
<path d="M35.5 66C35.2239 66 35 65.7761 35 65.5C35 65.2239 35.2239 65 35.5 65C35.7761 65 36 65.2239 36 65.5C36 65.7761 35.7761 66 35.5 66Z" fill="#156CB4"/>
<path d="M52.5 67C52.2239 67 52 66.7761 52 66.5C52 66.2239 52.2239 66 52.5 66C52.7761 66 53 66.2239 53 66.5C53 66.7761 52.7761 67 52.5 67Z" fill="#156CB4"/>
<path d="M6.5 85C6.22386 85 6 84.7761 6 84.5C6 84.2239 6.22386 84 6.5 84C6.77614 84 7 84.2239 7 84.5C7 84.7761 6.77614 85 6.5 85Z" fill="#156CB4"/>
<path d="M25.5 84C25.2239 84 25 83.7761 25 83.5C25 83.2239 25.2239 83 25.5 83C25.7761 83 26 83.2239 26 83.5C26 83.7761 25.7761 84 25.5 84Z" fill="#156CB4"/>
<path d="M42.5 85C42.2239 85 42 84.7761 42 84.5C42 84.2239 42.2239 84 42.5 84C42.7761 84 43 84.2239 43 84.5C43 84.7761 42.7761 85 42.5 85Z" fill="#156CB4"/>
<path d="M13.5 89C13.2239 89 13 88.7761 13 88.5C13 88.2239 13.2239 88 13.5 88C13.7761 88 14 88.2239 14 88.5C14 88.7761 13.7761 89 13.5 89Z" fill="#156CB4"/>
<path d="M32.5 88C32.2239 88 32 87.7761 32 87.5C32 87.2239 32.2239 87 32.5 87C32.7761 87 33 87.2239 33 87.5C33 87.7761 32.7761 88 32.5 88Z" fill="#156CB4"/>
<path d="M49.5 89C49.2239 89 49 88.7761 49 88.5C49 88.2239 49.2239 88 49.5 88C49.7761 88 50 88.2239 50 88.5C50 88.7761 49.7761 89 49.5 89Z" fill="#156CB4"/>
<path d="M10.5 90C10.2239 90 10 89.7761 10 89.5C10 89.2239 10.2239 89 10.5 89C10.7761 89 11 89.2239 11 89.5C11 89.7761 10.7761 90 10.5 90Z" fill="#156CB4"/>
<path d="M29.5 89C29.2239 89 29 88.7761 29 88.5C29 88.2239 29.2239 88 29.5 88C29.7761 88 30 88.2239 30 88.5C30 88.7761 29.7761 89 29.5 89Z" fill="#156CB4"/>
<path d="M46.5 90C46.2239 90 46 89.7761 46 89.5C46 89.2239 46.2239 89 46.5 89C46.7761 89 47 89.2239 47 89.5C47 89.7761 46.7761 90 46.5 90Z" fill="#156CB4"/>
<defs>
<linearGradient id="paint0_linear_1011_557" x1="0" y1="56" x2="55" y2="56" gradientUnits="userSpaceOnUse">
<stop stop-color="#52DAFC"/>
<stop offset="1" stop-color="#83D9FE"/>
</linearGradient>
<linearGradient id="paint1_linear_1011_557" x1="4.6765" y1="5.65295" x2="9.4123" y2="5.72649" gradientUnits="userSpaceOnUse">
<stop offset="0.0239996" stop-color="#69A5DB"/>
<stop offset="0.519" stop-color="#FEFCFC"/>
<stop offset="1" stop-color="#69A5DB"/>
</linearGradient>
<linearGradient id="paint2_linear_1011_557" x1="6.64691" y1="3.85297" x2="6.64691" y2="9.14703" gradientUnits="userSpaceOnUse">
<stop stop-color="#488BC2"/>
<stop offset="1" stop-color="#020E39"/>
</linearGradient>
<linearGradient id="paint3_linear_1011_557" x1="23.6765" y1="4.65295" x2="28.4123" y2="4.72649" gradientUnits="userSpaceOnUse">
<stop offset="0.0239996" stop-color="#69A5DB"/>
<stop offset="0.519" stop-color="#FEFCFC"/>
<stop offset="1" stop-color="#69A5DB"/>
</linearGradient>
<linearGradient id="paint4_linear_1011_557" x1="25.6469" y1="2.85297" x2="25.6469" y2="8.14703" gradientUnits="userSpaceOnUse">
<stop stop-color="#488BC2"/>
<stop offset="1" stop-color="#020E39"/>
</linearGradient>
<linearGradient id="paint5_linear_1011_557" x1="40.6765" y1="5.65295" x2="45.4123" y2="5.72649" gradientUnits="userSpaceOnUse">
<stop offset="0.0239996" stop-color="#69A5DB"/>
<stop offset="0.519" stop-color="#FEFCFC"/>
<stop offset="1" stop-color="#69A5DB"/>
</linearGradient>
<linearGradient id="paint6_linear_1011_557" x1="42.6469" y1="3.85297" x2="42.6469" y2="9.14703" gradientUnits="userSpaceOnUse">
<stop stop-color="#488BC2"/>
<stop offset="1" stop-color="#020E39"/>
</linearGradient>
<linearGradient id="paint7_linear_1011_557" x1="10.6765" y1="36.6529" x2="15.4123" y2="36.7265" gradientUnits="userSpaceOnUse">
<stop offset="0.0239996" stop-color="#69A5DB"/>
<stop offset="0.519" stop-color="#FEFCFC"/>
<stop offset="1" stop-color="#69A5DB"/>
</linearGradient>
<linearGradient id="paint8_linear_1011_557" x1="12.6469" y1="34.853" x2="12.6469" y2="40.147" gradientUnits="userSpaceOnUse">
<stop stop-color="#488BC2"/>
<stop offset="1" stop-color="#020E39"/>
</linearGradient>
<linearGradient id="paint9_linear_1011_557" x1="29.6765" y1="35.6529" x2="34.4123" y2="35.7265" gradientUnits="userSpaceOnUse">
<stop offset="0.0239996" stop-color="#69A5DB"/>
<stop offset="0.519" stop-color="#FEFCFC"/>
<stop offset="1" stop-color="#69A5DB"/>
</linearGradient>
<linearGradient id="paint10_linear_1011_557" x1="31.6469" y1="33.853" x2="31.6469" y2="39.147" gradientUnits="userSpaceOnUse">
<stop stop-color="#488BC2"/>
<stop offset="1" stop-color="#020E39"/>
</linearGradient>
<linearGradient id="paint11_linear_1011_557" x1="46.6765" y1="36.6529" x2="51.4123" y2="36.7265" gradientUnits="userSpaceOnUse">
<stop offset="0.0239996" stop-color="#69A5DB"/>
<stop offset="0.519" stop-color="#FEFCFC"/>
<stop offset="1" stop-color="#69A5DB"/>
</linearGradient>
<linearGradient id="paint12_linear_1011_557" x1="48.6469" y1="34.853" x2="48.6469" y2="40.147" gradientUnits="userSpaceOnUse">
<stop stop-color="#488BC2"/>
<stop offset="1" stop-color="#020E39"/>
</linearGradient>
<linearGradient id="paint13_linear_1011_557" x1="4.64118" y1="71.2941" x2="8.42989" y2="71.3506" gradientUnits="userSpaceOnUse">
<stop offset="0.0239996" stop-color="#69A5DB"/>
<stop offset="0.519" stop-color="#FEFCFC"/>
<stop offset="1" stop-color="#69A5DB"/>
</linearGradient>
<linearGradient id="paint14_linear_1011_557" x1="6" y1="70" x2="6" y2="74" gradientUnits="userSpaceOnUse">
<stop stop-color="#488BC2"/>
<stop offset="1" stop-color="#020E39"/>
</linearGradient>
<linearGradient id="paint15_linear_1011_557" x1="23.6412" y1="70.2941" x2="27.4299" y2="70.3506" gradientUnits="userSpaceOnUse">
<stop offset="0.0239996" stop-color="#69A5DB"/>
<stop offset="0.519" stop-color="#FEFCFC"/>
<stop offset="1" stop-color="#69A5DB"/>
</linearGradient>
<linearGradient id="paint16_linear_1011_557" x1="25" y1="69" x2="25" y2="73" gradientUnits="userSpaceOnUse">
<stop stop-color="#488BC2"/>
<stop offset="1" stop-color="#020E39"/>
</linearGradient>
<linearGradient id="paint17_linear_1011_557" x1="40.6412" y1="71.2941" x2="44.4299" y2="71.3506" gradientUnits="userSpaceOnUse">
<stop offset="0.0239996" stop-color="#69A5DB"/>
<stop offset="0.519" stop-color="#FEFCFC"/>
<stop offset="1" stop-color="#69A5DB"/>
</linearGradient>
<linearGradient id="paint18_linear_1011_557" x1="42" y1="70" x2="42" y2="74" gradientUnits="userSpaceOnUse">
<stop stop-color="#488BC2"/>
<stop offset="1" stop-color="#020E39"/>
</linearGradient>
<linearGradient id="paint19_linear_1011_557" x1="12.1412" y1="95.4353" x2="15.9294" y2="95.5059" gradientUnits="userSpaceOnUse">
<stop offset="0.0239996" stop-color="#69A5DB"/>
<stop offset="0.519" stop-color="#FEFCFC"/>
<stop offset="1" stop-color="#69A5DB"/>
</linearGradient>
<linearGradient id="paint20_linear_1011_557" x1="14.25" y1="94.25" x2="14.25" y2="97.75" gradientUnits="userSpaceOnUse">
<stop stop-color="#488BC2"/>
<stop offset="1" stop-color="#020E39"/>
</linearGradient>
<linearGradient id="paint21_linear_1011_557" x1="31.1412" y1="94.4353" x2="34.9294" y2="94.5059" gradientUnits="userSpaceOnUse">
<stop offset="0.0239996" stop-color="#69A5DB"/>
<stop offset="0.519" stop-color="#FEFCFC"/>
<stop offset="1" stop-color="#69A5DB"/>
</linearGradient>
<linearGradient id="paint22_linear_1011_557" x1="33.25" y1="93.25" x2="33.25" y2="96.75" gradientUnits="userSpaceOnUse">
<stop stop-color="#488BC2"/>
<stop offset="1" stop-color="#020E39"/>
</linearGradient>
<linearGradient id="paint23_linear_1011_557" x1="48.1412" y1="95.4353" x2="51.9294" y2="95.5059" gradientUnits="userSpaceOnUse">
<stop offset="0.0239996" stop-color="#69A5DB"/>
<stop offset="0.519" stop-color="#FEFCFC"/>
<stop offset="1" stop-color="#69A5DB"/>
</linearGradient>
<linearGradient id="paint24_linear_1011_557" x1="50.25" y1="94.25" x2="50.25" y2="97.75" gradientUnits="userSpaceOnUse">
<stop stop-color="#488BC2"/>
<stop offset="1" stop-color="#020E39"/>
</linearGradient>
</defs>
</svg>
