<svg width="100" height="9" fill="none" xmlns="http://www.w3.org/2000/svg"><path fill="url(#a)" d="M0 0h100v9H0z"/><path d="M87 4.5a.5.5 0 1 1 1 0 .5.5 0 0 1-1 0ZM83 6.5a.5.5 0 1 1 1 0 .5.5 0 0 1-1 0ZM71 1.5a.5.5 0 1 1 1 0 .5.5 0 0 1-1 0ZM71 4.5a.5.5 0 1 1 1 0 .5.5 0 0 1-1 0ZM65 6.5a.5.5 0 1 1 1 0 .5.5 0 0 1-1 0ZM41 1.5a.5.5 0 1 1 1 0 .5.5 0 0 1-1 0ZM33 6.5a.5.5 0 1 1 1 0 .5.5 0 0 1-1 0ZM23 1.5a.5.5 0 1 1 1 0 .5.5 0 0 1-1 0ZM18 4.5a.5.5 0 1 1 1 0 .5.5 0 0 1-1 0ZM20 6.5a.5.5 0 1 1 1 0 .5.5 0 0 1-1 0Z" fill="#156CB4"/><path d="M93 6.5a1.5 1.5 0 1 1 3 0 1.5 1.5 0 0 1-3 0Z" fill="url(#b)"/><path d="M40 6.5a1.5 1.5 0 1 1 3 0 1.5 1.5 0 0 1-3 0Z" fill="url(#c)"/><path d="M58 2.5a1.5 1.5 0 1 1 3 0 1.5 1.5 0 0 1-3 0Z" fill="url(#d)"/><path d="M93 6.25c0-.69.672-1.25 1.5-1.25s1.5.56 1.5 1.25-.672 1.25-1.5 1.25S93 6.94 93 6.25ZM40 6.25c0-.69.672-1.25 1.5-1.25s1.5.56 1.5 1.25-.672 1.25-1.5 1.25S40 6.94 40 6.25ZM58 2.25c0-.69.672-1.25 1.5-1.25s1.5.56 1.5 1.25-.672 1.25-1.5 1.25S58 2.94 58 2.25ZM79 2.5a1.5 1.5 0 1 1 3 0 1.5 1.5 0 0 1-3 0ZM2 6.5a1.5 1.5 0 1 1 3 0 1.5 1.5 0 0 1-3 0Z" fill="#156CB4"/><defs><linearGradient id="a" x1="54.5" y1="0" x2="54.5" y2="9" gradientUnits="userSpaceOnUse"><stop stop-color="#D374AD"/><stop offset="1" stop-color="#8DCAF2"/></linearGradient><linearGradient id="b" x1="96" y1="6.5" x2="93" y2="6.5" gradientUnits="userSpaceOnUse"><stop stop-color="#75ACDE"/><stop offset=".475" stop-color="#FCFBFC"/><stop offset="1" stop-color="#7EB1DF"/></linearGradient><linearGradient id="c" x1="43" y1="6.5" x2="40" y2="6.5" gradientUnits="userSpaceOnUse"><stop stop-color="#75ACDE"/><stop offset=".475" stop-color="#FCFBFC"/><stop offset="1" stop-color="#7EB1DF"/></linearGradient><linearGradient id="d" x1="61" y1="2.5" x2="58" y2="2.5" gradientUnits="userSpaceOnUse"><stop stop-color="#75ACDE"/><stop offset=".475" stop-color="#FCFBFC"/><stop offset="1" stop-color="#7EB1DF"/></linearGradient></defs></svg>