<svg width="100" height="9" fill="none" xmlns="http://www.w3.org/2000/svg"><path fill="#B3B8BA" d="M0 0h100v9H0z"/><path fill-rule="evenodd" clip-rule="evenodd" d="M5.854.5h89.167c.491 0 .962.127 1.31.35.347.224.543.528.544.845v5.563c0 .317-.197.62-.544.845-.348.224-.819.35-1.31.35H5.854c-.49 0-.962-.126-1.31-.35-.347-.224-.543-.528-.544-.845V1.695c.002-.317.198-.62.545-.845.347-.223.818-.35 1.31-.35Z" fill="#D3D6D8"/><path fill-rule="evenodd" clip-rule="evenodd" d="M5.686 4.686h89.5c.188 0 .369.05.502.138.133.089.209.208.21.333v2.196c-.001.125-.076.245-.21.333a.926.926 0 0 1-.502.14h-89.5a.923.923 0 0 1-.5-.14c-.133-.089-.208-.208-.208-.333V5.157c0-.125.075-.244.208-.332a.924.924 0 0 1 .5-.14Z" fill="#B3B8BA"/><path d="M4.978 2.698c0 .752.972 1.36 2.172 1.36h86.576c1.2 0 2.172-.608 2.172-1.36 0-.751-.973-1.36-2.172-1.36H7.15c-1.2 0-2.172.609-2.172 1.36Z" fill="#EAECEC"/></svg>