<svg width="100" height="8" fill="none" xmlns="http://www.w3.org/2000/svg"><path fill-rule="evenodd" clip-rule="evenodd" d="M1.997 0h96.006c.53 0 1.036.127 1.41.35.374.224.585.528.587.845v5.563c-.001.317-.212.62-.586.845-.374.224-.882.35-1.41.35H1.996c-.53 0-1.036-.126-1.41-.35C.211 7.379 0 7.075 0 6.758V1.195C.002.878.213.575.587.35.96.127 1.467 0 1.997 0Z" fill="#D3D6D8"/><path d="M11.56 1.006a6.02 6.02 0 0 1-.118.033c-.098.026-.16.096-.16.18.003.096.034.129.207.216.17.087.348.263.426.424.052.107.105.313.105.407a.491.491 0 0 1-.23.415c-.04.022-.4.072-1.107.15-3.11.348-3.79.429-3.824.448-.09.05-.107.19-.029.27l.05.055h2.515c2.438 0 2.52-.003 2.674-.044.23-.06.389-.159.567-.348.647-.683.395-1.834-.473-2.156a.985.985 0 0 0-.348-.054c-.119-.004-.233 0-.256.004ZM10.382 3.802l-3.296.171c-3.351.172-3.08.144-3.08.327 0 .182-.271.154 3.09.326l3.368.174c.57.033.5.046.737-.144.293-.237.328-.274.328-.356 0-.083-.035-.12-.328-.357l-.207-.165-.147.002c-.082.002-.29.013-.465.022ZM6.83 5.048c-.078.083-.061.222.029.272.034.02.714.1 3.824.448.706.078 1.066.128 1.107.15a.496.496 0 0 1 .207.267.6.6 0 0 1-.008.344.938.938 0 0 1-.495.635c-.16.079-.211.135-.211.23 0 .149.213.227.565.208.878-.05 1.414-1.047 1.017-1.889a1.286 1.286 0 0 0-.696-.643l-.16-.063L9.444 5l-2.563-.004-.051.052ZM39.56 1.006a6.02 6.02 0 0 1-.118.033c-.098.026-.16.096-.16.18.003.096.034.129.208.216.17.087.347.263.425.424.052.107.105.313.105.407a.491.491 0 0 1-.23.415c-.04.022-.4.072-1.107.15-3.11.348-3.79.429-3.824.448-.09.05-.107.19-.029.27l.05.055h2.515c2.438 0 2.52-.003 2.674-.044.23-.06.389-.159.567-.348.647-.683.395-1.834-.473-2.156a.985.985 0 0 0-.348-.054c-.119-.004-.233 0-.256.004ZM38.382 3.802l-3.296.171c-3.351.172-3.08.144-3.08.327 0 .182-.271.154 3.09.326l3.368.174c.57.033.5.046.737-.144.293-.237.328-.274.328-.356 0-.083-.035-.12-.328-.357l-.207-.165-.147.002c-.082.002-.29.013-.465.022ZM34.83 5.048c-.078.083-.061.222.029.272.035.02.714.1 3.824.448.706.078 1.066.128 1.107.15a.496.496 0 0 1 .207.267.6.6 0 0 1-.008.344.938.938 0 0 1-.495.635c-.16.079-.211.135-.211.23 0 .149.213.227.565.208.878-.05 1.414-1.047 1.017-1.889a1.286 1.286 0 0 0-.696-.643l-.16-.063L37.445 5l-2.563-.004-.051.052ZM63.56 1.006a6.02 6.02 0 0 1-.118.033c-.098.026-.16.096-.16.18.003.096.034.129.208.216.17.087.347.263.425.424.052.107.105.313.105.407a.491.491 0 0 1-.23.415c-.04.022-.4.072-1.107.15-3.11.348-3.79.429-3.824.448-.09.05-.107.19-.029.27l.05.055h2.515c2.438 0 2.52-.003 2.674-.044.23-.06.389-.159.567-.348.647-.683.395-1.834-.473-2.156a.985.985 0 0 0-.348-.054c-.119-.004-.233 0-.256.004ZM62.382 3.802l-3.296.171c-3.351.172-3.08.144-3.08.327 0 .182-.271.154 3.09.326l3.368.174c.57.033.5.046.737-.144.293-.237.328-.274.328-.356 0-.083-.035-.12-.328-.357l-.207-.165-.147.002c-.082.002-.29.013-.465.022ZM58.83 5.048c-.078.083-.061.222.029.272.035.02.714.1 3.824.448.706.078 1.066.128 1.107.15a.496.496 0 0 1 .207.267.6.6 0 0 1-.008.344.938.938 0 0 1-.495.635c-.16.079-.211.135-.211.23 0 .149.213.227.565.208.878-.05 1.414-1.047 1.017-1.889a1.286 1.286 0 0 0-.696-.643l-.16-.063L61.445 5l-2.563-.004-.051.052ZM91.56 1.006a6.02 6.02 0 0 1-.118.033c-.098.026-.16.096-.16.18.003.096.034.129.208.216.17.087.348.263.425.424.051.107.105.313.105.407a.491.491 0 0 1-.23.415c-.04.022-.4.072-1.107.15-3.11.348-3.79.429-3.824.448-.09.05-.107.19-.029.27l.05.055h2.515c2.438 0 2.52-.003 2.674-.044.23-.06.389-.159.567-.348.647-.683.395-1.834-.473-2.156a.985.985 0 0 0-.348-.054c-.119-.004-.233 0-.256.004ZM90.382 3.802l-3.296.171c-3.351.172-3.08.144-3.08.327 0 .182-.271.154 3.09.326l3.368.174c.57.033.5.046.737-.144.293-.237.328-.274.328-.356 0-.083-.035-.12-.328-.357l-.207-.165-.147.002c-.082.002-.29.013-.465.022ZM86.83 5.048c-.078.083-.061.222.029.272.035.02.714.1 3.824.448.706.078 1.066.128 1.107.15a.496.496 0 0 1 .207.267.6.6 0 0 1-.008.344.938.938 0 0 1-.495.635c-.16.079-.211.135-.211.23 0 .149.213.227.565.208.878-.05 1.414-1.047 1.017-1.889a1.286 1.286 0 0 0-.696-.643l-.16-.063L89.445 5l-2.563-.004-.051.052Z" fill="#2F5E91"/></svg>