<svg width="49" height="49" fill="none" xmlns="http://www.w3.org/2000/svg"><g clip-path="url(#a)"><g clip-path="url(#b)"><path d="M0 0h49v49H0V0Z" fill="#89D0FF"/><path opacity=".33" d="m49 25.725-9.953 1.99-6.89-3.598L9.34 27.87 0 25.572v23.045h49V25.725Z" fill="#62727A"/><path opacity=".33" d="m0 33.381 7.656 2.757 9.188-4.365 28.175 4.518L49 33.228v15.39H0V33.38Z" fill="#767F83"/><path d="m42.722 38.052-8.269-6.508-8.422-13.935-4.747 6.968-6.737 4.593-3.445 7.197-3.446 1.685L0 49h49l-6.278-10.948Z" fill="#62727A"/><path d="m26.031 17.61-1.301 5.742 3.445 4.67-4.21-.23 6.124 4.364-4.594 2.91-4.287 9.646 1.148-6.89-8.575-1.761 9.57-3.063-2.067-8.421 4.747-6.968Zm13.016 17.609-4.211 4.67-6.125 4.823 8.805-3.598 5.206-3.062-3.675-2.833Zm-27.945 1.148-3.446 1.685 6.125 4.9-2.68-6.585Zm22.509-21.36c-.153-.23-.23-.46-.23-.766a1.21 1.21 0 0 1 1.225-1.225c.613 0 1.149.459 1.225 1.072.383-.154.766-.23 1.149-.23 1.148 0 2.143.689 2.68 1.608.23-.307.688-.536 1.148-.536.23 0 .46.076.689.153.46-.766 1.225-1.302 2.22-1.302.995 0 1.914.613 2.297 1.455h.23c.765 0 1.378.612 1.378 1.302 0 .689-.613 1.301-1.378 1.301-.23 0-.383-.076-.536-.153-.613.689-1.302 1.072-2.067 1.072h-.077a1.241 1.241 0 0 1-1.225.919c-.153 0-.306 0-.46-.077-.382.69-1.071 1.072-1.913 1.072-.843 0-1.608-.46-1.991-1.225-.306.153-.69.153-.995.153-.996 0-1.838-.46-2.374-1.225-.153.077-.383.077-.612.077a1.863 1.863 0 0 1-1.838-1.838c0-.766.613-1.455 1.455-1.608" fill="#fff"/><path d="M45.784 16.92c-.153 0-.382 0-.536-.076-.459.46-1.071.765-1.837.765h-.077c-.153.46-.612.766-1.148.766-.153 0-.306 0-.46-.077-.382.536-1.071.92-1.837.92-.842 0-1.531-.384-1.837-.996-.307.076-.613.153-.996.153-.918 0-1.76-.383-2.297-.995-.153.076-.382.076-.536.076-.382 0-.689-.076-.918-.23.23.537.842.92 1.454.92.154 0 .383 0 .536-.077.46.612 1.225.995 2.067.995.307 0 .613-.076.92-.153.306.612.918.995 1.684.995.689 0 1.301-.383 1.684-.918.153.076.306.076.383.076.536 0 .919-.306 1.072-.766h.076c.69 0 1.302-.306 1.685-.765.153.076.306.076.459.076.536 0 .919-.306 1.072-.765-.23.076-.46.076-.613.076" fill="#89D0FF"/><path d="M21.667 6.584c.23-.306.383-.613.383-.995 0-.92-.766-1.685-1.76-1.685-.843 0-1.609.613-1.762 1.455-.46-.23-.995-.306-1.608-.306-1.608 0-3.062.918-3.675 2.297-.382-.46-.918-.766-1.53-.766-.384 0-.69.077-.996.23a3.507 3.507 0 0 0-3.063-1.761c-1.454 0-2.68.842-3.215 2.067h-.307c-.995-.077-1.837.689-1.837 1.76 0 1.073.842 1.838 1.914 1.838.306 0 .536-.076.766-.153a3.53 3.53 0 0 0 2.756 1.302h.076c.23.765.843 1.301 1.685 1.301.23 0 .46-.076.689-.153a3.088 3.088 0 0 0 2.68 1.531c1.225 0 2.22-.689 2.756-1.684.46.153.919.23 1.454.23 1.379 0 2.604-.69 3.37-1.685.229.077.535.153.841.153 1.455 0 2.604-1.148 2.604-2.526-.154-1.225-.996-2.22-2.22-2.45" fill="#fff"/><path d="M20.748 9.34c-.306 0-.536-.076-.765-.152-.69.842-1.838 1.378-3.216 1.378-.46 0-.919-.077-1.378-.23-.46.842-1.455 1.378-2.603 1.378-1.072 0-2.067-.536-2.527-1.302-.23.077-.382.077-.612.077-.766 0-1.455-.46-1.608-1.072h-.076c-1.072.153-1.991-.306-2.604-.995-.23.076-.459.153-.765.153-.307 0-.536-.077-.766-.153.077.765.766 1.455 1.608 1.455.23 0 .46-.077.689-.154.536.69 1.378 1.072 2.373 1.072h.077c.153.613.766 1.072 1.455 1.072.23 0 .383-.076.612-.076a2.67 2.67 0 0 0 2.297 1.301c1.072 0 1.914-.536 2.373-1.378.383.153.766.23 1.226.23 1.148 0 2.22-.536 2.909-1.378.23.076.46.153.689.153 1.072 0 1.99-.69 2.22-1.685-.536.153-1.072.307-1.608.307" fill="#89D0FF"/></g></g><rect x="1" y="1" width="47" height="47" rx="23.5" stroke="#fff" stroke-width="2"/><defs><clipPath id="a"><rect width="49" height="49" rx="24.5" fill="#fff"/></clipPath><clipPath id="b"><path fill="#fff" d="M0 0h49v49H0z"/></clipPath></defs></svg>