<svg width="147" height="243" viewBox="0 0 147 243" fill="none" xmlns="http://www.w3.org/2000/svg">
<path d="M122.634 14.7877C135.406 25.6581 144.343 40.6844 146.274 57.5099C146.425 60.3185 146.473 63.1002 146.454 65.9127C146.448 66.9109 146.443 67.909 146.437 68.9374C145.969 88.5476 136.646 102.831 124.411 117.522C120.989 121.645 117.742 125.885 114.517 130.163C109.526 136.756 104.358 143.173 99.0683 149.528C94.734 154.743 90.5228 160.041 86.4164 165.437C84.3839 168.073 82.7559 169.857 79.954 171.725C75.0023 166.372 70.4235 160.824 66.0168 155.015C62.6045 150.532 59.0821 146.149 55.5165 141.788C50.068 135.114 44.6917 128.391 39.4091 121.585C37.8296 119.566 36.2281 117.566 34.6259 115.565C27.8642 107.041 22.108 98.8295 17.954 88.7252C17.4184 87.4684 17.4184 87.4684 16.872 86.1862C11.6371 71.1269 13.9991 52.0132 20.2743 37.7174C28.5542 21.4744 41.6367 10.0852 58.4189 3.3307C80.8661 -3.68871 104.078 0.506049 122.634 14.7877Z" fill="#EEBF30"/>
<path d="M94.9422 198.979C100.711 203.512 103.733 208.992 104.829 216.225C105.36 223.961 103.006 230.814 97.9539 236.725C90.4316 242.661 83.3931 243.529 73.9539 242.725C67.0482 240.705 62.137 236.178 58.7039 229.913C55.7797 223.565 55.3556 217.736 57.0984 210.963C59.5278 204.607 63.9763 199.897 69.9539 196.725C78.7043 193.543 87.0144 193.979 94.9422 198.979Z" fill="#33507E"/>
<path d="M10.5438 212.194C11.6552 212.188 11.6552 212.188 12.7891 212.182C14.3551 212.18 15.9211 212.187 17.4869 212.204C19.88 212.225 22.27 212.204 24.663 212.178C26.1858 212.181 27.7086 212.186 29.2313 212.194C29.945 212.186 30.6586 212.178 31.3939 212.17C34.8047 212.234 36.666 212.512 39.4367 214.567C40.954 216.725 40.954 216.725 40.954 219.788C39.7783 223.241 39.091 223.958 35.954 225.725C32.7177 226.098 32.7177 226.098 28.9227 226.089C28.2498 226.089 27.5769 226.09 26.8836 226.09C25.4648 226.088 24.046 226.078 22.6273 226.061C20.4611 226.038 18.2961 226.041 16.1298 226.048C4.04177 225.999 4.04177 225.999 0.953985 223.725C-0.0208103 220.216 -0.593308 217.9 0.975714 214.532C3.88776 211.873 6.79357 212.152 10.5438 212.194Z" fill="#334F7E"/>
<path d="M84.954 207.725C88.4246 209.793 90.7313 211.835 91.954 215.725C92.2894 219.414 92.2303 222.01 90.8915 225.475C88.2126 228.586 85.8711 229.55 81.954 230.725C77.6669 230.725 75.6003 230.175 72.079 227.725C69.2914 223.79 68.5059 220.527 68.954 215.725C72.7023 208.363 77.0861 206.591 84.954 207.725Z" fill="#95959B"/>
</svg>
