<svg width="147" height="243" viewBox="0 0 147 243" fill="none" xmlns="http://www.w3.org/2000/svg">
<path d="M107.503 14.3474C120.782 25.49 129.88 40.558 131.488 58.0227C133.127 83.5227 123.91 100.298 107.889 119.494C105.415 122.487 103.018 125.537 100.628 128.597C100.181 129.168 99.7339 129.74 99.2732 130.328C97.932 132.042 96.5923 133.757 95.2532 135.472C85.7698 147.622 76.1421 159.65 66.2532 171.472C62.2071 168.498 59.2011 165.135 56.1907 161.16C55.2214 159.903 54.2513 158.646 53.2806 157.39C52.7828 156.744 52.2851 156.097 51.7723 155.431C49.3035 152.248 46.7776 149.111 44.2532 145.972C39.9548 140.616 35.6967 135.231 31.4747 129.814C29.0133 126.669 26.5128 123.564 23.9564 120.496C6.79114 99.8585 -1.60305 81.6412 0.253228 54.4724C2.23879 38.4207 12.6055 23.3056 24.9407 13.2849C50.338 -4.52353 82.6907 -4.6817 107.503 14.3474Z" fill="#76A9DC"/>
<path d="M80.2415 198.726C85.7798 203.079 88.9146 208.473 90.1282 215.41C90.6814 222.477 88.7421 228.825 84.8157 234.679C80.8806 239.195 75.3702 242.212 69.3977 242.711C60.5232 242.908 55.2841 241.862 48.5032 236.16C42.9247 229.497 40.7426 223.85 41.4368 215.179C42.6665 207.814 46.4567 202.733 52.1907 198.097C61.5079 193.154 71.2644 193.065 80.2415 198.726Z" fill="#33507E"/>
<path d="M116.878 212.136C117.621 212.13 118.365 212.123 119.131 212.116C120.701 212.106 122.271 212.101 123.841 212.102C126.245 212.097 128.647 212.061 131.05 212.023C132.576 212.017 134.102 212.013 135.628 212.011C136.706 211.99 136.706 211.99 137.806 211.968C141.035 211.998 142.798 212.058 145.234 214.275C146.798 217.646 146.228 219.962 145.253 223.472C140.47 226.976 133.659 225.883 127.981 225.898C125.825 225.91 123.672 225.959 121.517 226.009C120.139 226.019 118.76 226.026 117.382 226.031C116.135 226.044 114.888 226.058 113.603 226.072C109.352 225.311 107.859 223.852 105.253 220.472C105.253 217.285 105.253 217.285 106.253 214.472C109.898 212.043 112.66 212.15 116.878 212.136Z" fill="#334F7E"/>
<path d="M70.2532 207.472C73.8555 209.618 75.6919 211.625 77.2532 215.472C77.5792 220.144 76.8461 223.61 74.1907 227.472C70.5101 229.978 67.6871 230.768 63.2532 230.472C59.6457 229.247 57.811 228.142 55.3782 225.222C53.9231 221.665 53.7844 219.29 54.2532 215.472C58.2338 208.198 62.2628 206.321 70.2532 207.472Z" fill="#95959B"/>
</svg>
