<svg width="353" height="250" viewBox="0 0 353 250" fill="none" xmlns="http://www.w3.org/2000/svg">
<g clip-path="url(#clip0_3205_1009)">
<path d="M25.0992 0.5H0.699219V13.4H25.0992V0.5Z" fill="#FF9DB0"/>
<path d="M24.5992 1V12.9H1.19922V1H24.5992ZM25.5992 0H0.199219V13.9H25.5992V0Z" fill="black"/>
<path d="M49.9 0.5H25.5V13.4H49.9V0.5Z" fill="#FF9DB0"/>
<path d="M49.4 1V12.9H26V1H49.4ZM50.4 0H25V13.9H50.4V0Z" fill="black"/>
<path d="M36.8004 13.8H12.9004V26.7H36.8004V13.8Z" fill="#FF9DB0"/>
<path d="M36.3004 14.3V26.2H13.4004V14.3H36.3004ZM37.3004 13.3H12.4004V27.2H37.3004V13.3Z" fill="black"/>
<path d="M13.2 13.8H0.5V26.7H13.2V13.8Z" fill="#FF9DB0"/>
<path d="M12.7 14.3V26.2H1V14.3H12.7ZM13.7 13.3H0V27.2H13.7V13.3Z" fill="black"/>
<path d="M49.8992 13.8H37.1992V26.7H49.8992V13.8Z" fill="#FF9DB0"/>
<path d="M49.3992 14.3V26.2H37.6992V14.3H49.3992ZM50.3992 13.3H36.6992V27.2H50.3992V13.3Z" fill="black"/>
<path d="M25.0992 27.6H0.699219V40.5H25.0992V27.6Z" fill="#FF9DB0"/>
<path d="M24.5992 28.1V40H1.19922V28.1H24.5992ZM25.5992 27.1H0.199219V41H25.5992V27.1Z" fill="black"/>
<path d="M49.9 27.6H25.5V40.5H49.9V27.6Z" fill="#FF9DB0"/>
<path d="M49.4 28.1V40H26V28.1H49.4ZM50.4 27.1H25V41H50.4V27.1Z" fill="black"/>
<path d="M36.8004 40.9H12.9004V53.8H36.8004V40.9Z" fill="#FF9DB0"/>
<path d="M36.3004 41.4V53.3H13.4004V41.4H36.3004ZM37.3004 40.4H12.4004V54.3H37.3004V40.4Z" fill="black"/>
<path d="M13.2 40.9H0.5V53.8H13.2V40.9Z" fill="#FF9DB0"/>
<path d="M12.7 41.4V53.3H1V41.4H12.7ZM13.7 40.4H0V54.3H13.7V40.4Z" fill="black"/>
<path d="M49.8992 40.9H37.1992V53.8H49.8992V40.9Z" fill="#FF9DB0"/>
<path d="M49.3992 41.4V53.3H37.6992V41.4H49.3992ZM50.3992 40.4H36.6992V54.3H50.3992V40.4Z" fill="black"/>
<path d="M25.0992 54.8H0.699219V67.7H25.0992V54.8Z" fill="#FF9DB0"/>
<path d="M24.5992 55.3V67.2H1.19922V55.3H24.5992ZM25.5992 54.3H0.199219V68.2H25.5992V54.3Z" fill="black"/>
<path d="M49.9 54.8H25.5V67.7H49.9V54.8Z" fill="#FF9DB0"/>
<path d="M49.4 55.3V67.2H26V55.3H49.4ZM50.4 54.3H25V68.2H50.4V54.3Z" fill="black"/>
<path d="M36.8004 68.1H12.9004V81H36.8004V68.1Z" fill="#FF9DB0"/>
<path d="M36.3004 68.6V80.5H13.4004V68.6H36.3004ZM37.3004 67.6H12.4004V81.5H37.3004V67.6Z" fill="black"/>
<path d="M13.2 68.1H0.5V81H13.2V68.1Z" fill="#FF9DB0"/>
<path d="M12.7 68.6V80.5H1V68.6H12.7ZM13.7 67.6H0V81.5H13.7V67.6Z" fill="black"/>
<path d="M49.8992 68.1H37.1992V81H49.8992V68.1Z" fill="#FF9DB0"/>
<path d="M49.3992 68.6V80.5H37.6992V68.6H49.3992ZM50.3992 67.6H36.6992V81.5H50.3992V67.6Z" fill="black"/>
<path d="M25.0992 81.9H0.699219V94.8H25.0992V81.9Z" fill="#FF9DB0"/>
<path d="M24.5992 82.4V94.3H1.19922V82.4H24.5992ZM25.5992 81.4H0.199219V95.3H25.5992V81.4Z" fill="black"/>
<path d="M49.9 81.9H25.5V94.8H49.9V81.9Z" fill="#FF9DB0"/>
<path d="M49.4 82.4V94.3H26V82.4H49.4ZM50.4 81.4H25V95.3H50.4V81.4Z" fill="black"/>
<path d="M36.8004 95.2H12.9004V108.1H36.8004V95.2Z" fill="#FF9DB0"/>
<path d="M36.3004 95.7V107.6H13.4004V95.7H36.3004ZM37.3004 94.7H12.4004V108.6H37.3004V94.7Z" fill="black"/>
<path d="M13.2 95.2H0.5V108.1H13.2V95.2Z" fill="#FF9DB0"/>
<path d="M12.7 95.7V107.6H1V95.7H12.7ZM13.7 94.7H0V108.6H13.7V94.7Z" fill="black"/>
<path d="M49.8992 95.2H37.1992V108.1H49.8992V95.2Z" fill="#FF9DB0"/>
<path d="M49.3992 95.7V107.6H37.6992V95.7H49.3992ZM50.3992 94.7H36.6992V108.6H50.3992V94.7Z" fill="black"/>
<path d="M25.0992 109H0.699219V121.9H25.0992V109Z" fill="#FF9DB0"/>
<path d="M24.5992 109.5V121.4H1.19922V109.5H24.5992ZM25.5992 108.5H0.199219V122.4H25.5992V108.5Z" fill="black"/>
<path d="M49.9 109H25.5V121.9H49.9V109Z" fill="#FF9DB0"/>
<path d="M49.4 109.5V121.4H26V109.5H49.4ZM50.4 108.5H25V122.4H50.4V108.5Z" fill="black"/>
<path d="M36.8004 122.3H12.9004V135.2H36.8004V122.3Z" fill="#FF9DB0"/>
<path d="M36.3004 122.8V134.7H13.4004V122.8H36.3004ZM37.3004 121.8H12.4004V135.7H37.3004V121.8Z" fill="black"/>
<path d="M13.2 122.3H0.5V135.2H13.2V122.3Z" fill="#FF9DB0"/>
<path d="M12.7 122.8V134.7H1V122.8H12.7ZM13.7 121.8H0V135.7H13.7V121.8Z" fill="black"/>
<path d="M49.8992 122.3H37.1992V135.2H49.8992V122.3Z" fill="#FF9DB0"/>
<path d="M49.3992 122.8V134.7H37.6992V122.8H49.3992ZM50.3992 121.8H36.6992V135.7H50.3992V121.8Z" fill="black"/>
<path d="M25.0992 136.2H0.699219V149.1H25.0992V136.2Z" fill="#FF9DB0"/>
<path d="M24.5992 136.7V148.6H1.19922V136.7H24.5992ZM25.5992 135.7H0.199219V149.6H25.5992V135.7Z" fill="black"/>
<path d="M49.9 136.2H25.5V149.1H49.9V136.2Z" fill="#FF9DB0"/>
<path d="M49.4 136.7V148.6H26V136.7H49.4ZM50.4 135.7H25V149.6H50.4V135.7Z" fill="black"/>
<path d="M36.8004 149.5H12.9004V162.4H36.8004V149.5Z" fill="#FF9DB0"/>
<path d="M36.3004 150V161.9H13.4004V150H36.3004ZM37.3004 149H12.4004V162.9H37.3004V149Z" fill="black"/>
<path d="M13.2 149.5H0.5V162.4H13.2V149.5Z" fill="#FF9DB0"/>
<path d="M12.7 150V161.9H1V150H12.7ZM13.7 149H0V162.9H13.7V149Z" fill="black"/>
<path d="M49.8992 149.5H37.1992V162.4H49.8992V149.5Z" fill="#FF9DB0"/>
<path d="M49.3992 150V161.9H37.6992V150H49.3992ZM50.3992 149H36.6992V162.9H50.3992V149Z" fill="black"/>
<path d="M25.0992 163.3H0.699219V179.7H25.0992V163.3Z" fill="#FF9DB0"/>
<path d="M24.5992 163.8V179.2H1.19922V163.8H24.5992ZM25.5992 162.8H0.199219V180.2H25.5992V162.8Z" fill="black"/>
<path d="M49.9 163.3H25.5V179.7H49.9V163.3Z" fill="#FF9DB0"/>
<path d="M49.4 163.8V179.2H26V163.8H49.4ZM50.4 162.8H25V180.2H50.4V162.8Z" fill="black"/>
<path d="M36.8004 180H12.9004V196.4H36.8004V180Z" fill="#FF9DB0"/>
<path d="M36.3004 180.5V195.9H13.4004V180.5H36.3004ZM37.3004 179.5H12.4004V196.9H37.3004V179.5Z" fill="black"/>
<path d="M13.2 180H0.5V196.4H13.2V180Z" fill="#FF9DB0"/>
<path d="M12.7 180.5V195.9H1V180.5H12.7ZM13.7 179.5H0V196.9H13.7V179.5Z" fill="black"/>
<path d="M49.8992 180H37.1992V196.4H49.8992V180Z" fill="#FF9DB0"/>
<path d="M49.3992 180.5V195.9H37.6992V180.5H49.3992ZM50.3992 179.5H36.6992V196.9H50.3992V179.5Z" fill="black"/>
<path d="M326.8 0.5H302.5V13.4H326.8V0.5Z" fill="#FF9DB0"/>
<path d="M326.3 1V12.9H303V1H326.3ZM327.3 0H302V13.9H327.3V0Z" fill="black"/>
<path d="M351.501 0.5H327.201V13.4H351.501V0.5Z" fill="#FF9DB0"/>
<path d="M351.001 1V12.9H327.701V1H351.001ZM352.001 0H326.701V13.9H352.001V0Z" fill="black"/>
<path d="M338.401 13.8H314.701V26.7H338.401V13.8Z" fill="#FF9DB0"/>
<path d="M337.901 14.3V26.2H315.201V14.3H337.901ZM338.901 13.3H314.201V27.2H338.901V13.3Z" fill="black"/>
<path d="M315 13.8H302.4V26.7H315V13.8Z" fill="#FF9DB0"/>
<path d="M314.5 14.3V26.2H302.9V14.3H314.5ZM315.5 13.3H301.9V27.2H315.5V13.3Z" fill="black"/>
<path d="M351.5 13.8H338.9V26.7H351.5V13.8Z" fill="#FF9DB0"/>
<path d="M351 14.3V26.2H339.4V14.3H351ZM352 13.3H338.4V27.2H352V13.3Z" fill="black"/>
<path d="M326.8 27.6H302.5V40.5H326.8V27.6Z" fill="#FF9DB0"/>
<path d="M326.3 28.1V40H303V28.1H326.3ZM327.3 27.1H302V41H327.3V27.1Z" fill="black"/>
<path d="M351.501 27.6H327.201V40.5H351.501V27.6Z" fill="#FF9DB0"/>
<path d="M351.001 28.1V40H327.701V28.1H351.001ZM352.001 27.1H326.701V41H352.001V27.1Z" fill="black"/>
<path d="M338.401 40.9H314.701V53.8H338.401V40.9Z" fill="#FF9DB0"/>
<path d="M337.901 41.4V53.3H315.201V41.4H337.901ZM338.901 40.4H314.201V54.3H338.901V40.4Z" fill="black"/>
<path d="M315 40.9H302.4V53.8H315V40.9Z" fill="#FF9DB0"/>
<path d="M314.5 41.4V53.3H302.9V41.4H314.5ZM315.5 40.4H301.9V54.3H315.5V40.4Z" fill="black"/>
<path d="M351.5 40.9H338.9V53.8H351.5V40.9Z" fill="#FF9DB0"/>
<path d="M351 41.4V53.3H339.4V41.4H351ZM352 40.4H338.4V54.3H352V40.4Z" fill="black"/>
<path d="M326.8 54.8H302.5V67.7H326.8V54.8Z" fill="#FF9DB0"/>
<path d="M326.3 55.3V67.2H303V55.3H326.3ZM327.3 54.3H302V68.2H327.3V54.3Z" fill="black"/>
<path d="M351.501 54.8H327.201V67.7H351.501V54.8Z" fill="#FF9DB0"/>
<path d="M351.001 55.3V67.2H327.701V55.3H351.001ZM352.001 54.3H326.701V68.2H352.001V54.3Z" fill="black"/>
<path d="M338.401 68.1H314.701V81H338.401V68.1Z" fill="#FF9DB0"/>
<path d="M337.901 68.6V80.5H315.201V68.6H337.901ZM338.901 67.6H314.201V81.5H338.901V67.6Z" fill="black"/>
<path d="M315 68.1H302.4V81H315V68.1Z" fill="#FF9DB0"/>
<path d="M314.5 68.6V80.5H302.9V68.6H314.5ZM315.5 67.6H301.9V81.5H315.5V67.6Z" fill="black"/>
<path d="M351.5 68.1H338.9V81H351.5V68.1Z" fill="#FF9DB0"/>
<path d="M351 68.6V80.5H339.4V68.6H351ZM352 67.6H338.4V81.5H352V67.6Z" fill="black"/>
<path d="M326.8 81.9H302.5V94.8H326.8V81.9Z" fill="#FF9DB0"/>
<path d="M326.3 82.4V94.3H303V82.4H326.3ZM327.3 81.4H302V95.3H327.3V81.4Z" fill="black"/>
<path d="M351.501 81.9H327.201V94.8H351.501V81.9Z" fill="#FF9DB0"/>
<path d="M351.001 82.4V94.3H327.701V82.4H351.001ZM352.001 81.4H326.701V95.3H352.001V81.4Z" fill="black"/>
<path d="M338.401 95.2H314.701V108.1H338.401V95.2Z" fill="#FF9DB0"/>
<path d="M337.901 95.7V107.6H315.201V95.7H337.901ZM338.901 94.7H314.201V108.6H338.901V94.7Z" fill="black"/>
<path d="M315 95.2H302.4V108.1H315V95.2Z" fill="#FF9DB0"/>
<path d="M314.5 95.7V107.6H302.9V95.7H314.5ZM315.5 94.7H301.9V108.6H315.5V94.7Z" fill="black"/>
<path d="M351.5 95.2H338.9V108.1H351.5V95.2Z" fill="#FF9DB0"/>
<path d="M351 95.7V107.6H339.4V95.7H351ZM352 94.7H338.4V108.6H352V94.7Z" fill="black"/>
<path d="M326.8 109H302.5V121.9H326.8V109Z" fill="#FF9DB0"/>
<path d="M326.3 109.5V121.4H303V109.5H326.3ZM327.3 108.5H302V122.4H327.3V108.5Z" fill="black"/>
<path d="M351.501 109H327.201V121.9H351.501V109Z" fill="#FF9DB0"/>
<path d="M351.001 109.5V121.4H327.701V109.5H351.001ZM352.001 108.5H326.701V122.4H352.001V108.5Z" fill="black"/>
<path d="M338.401 122.3H314.701V135.2H338.401V122.3Z" fill="#FF9DB0"/>
<path d="M337.901 122.8V134.7H315.201V122.8H337.901ZM338.901 121.8H314.201V135.7H338.901V121.8Z" fill="black"/>
<path d="M315 122.3H302.4V135.2H315V122.3Z" fill="#FF9DB0"/>
<path d="M314.5 122.8V134.7H302.9V122.8H314.5ZM315.5 121.8H301.9V135.7H315.5V121.8Z" fill="black"/>
<path d="M351.5 122.3H338.9V135.2H351.5V122.3Z" fill="#FF9DB0"/>
<path d="M351 122.8V134.7H339.4V122.8H351ZM352 121.8H338.4V135.7H352V121.8Z" fill="black"/>
<path d="M326.8 136.2H302.5V149.1H326.8V136.2Z" fill="#FF9DB0"/>
<path d="M326.3 136.7V148.6H303V136.7H326.3ZM327.3 135.7H302V149.6H327.3V135.7Z" fill="black"/>
<path d="M351.501 136.2H327.201V149.1H351.501V136.2Z" fill="#FF9DB0"/>
<path d="M351.001 136.7V148.6H327.701V136.7H351.001ZM352.001 135.7H326.701V149.6H352.001V135.7Z" fill="black"/>
<path d="M338.401 149.5H314.701V162.4H338.401V149.5Z" fill="#FF9DB0"/>
<path d="M337.901 150V161.9H315.201V150H337.901ZM338.901 149H314.201V162.9H338.901V149Z" fill="black"/>
<path d="M315 149.5H302.4V162.4H315V149.5Z" fill="#FF9DB0"/>
<path d="M314.5 150V161.9H302.9V150H314.5ZM315.5 149H301.9V162.9H315.5V149Z" fill="black"/>
<path d="M351.5 149.5H338.9V162.4H351.5V149.5Z" fill="#FF9DB0"/>
<path d="M351 150V161.9H339.4V150H351ZM352 149H338.4V162.9H352V149Z" fill="black"/>
<path d="M326.8 163.3H302.5V179.7H326.8V163.3Z" fill="#FF9DB0"/>
<path d="M326.3 163.8V179.2H303V163.8H326.3ZM327.3 162.8H302V180.2H327.3V162.8Z" fill="black"/>
<path d="M351.501 163.3H327.201V179.7H351.501V163.3Z" fill="#FF9DB0"/>
<path d="M351.001 163.8V179.2H327.701V163.8H351.001ZM352.001 162.8H326.701V180.2H352.001V162.8Z" fill="black"/>
<path d="M338.401 180H314.701V196.4H338.401V180Z" fill="#FF9DB0"/>
<path d="M337.901 180.5V195.9H315.201V180.5H337.901ZM338.901 179.5H314.201V196.9H338.901V179.5Z" fill="black"/>
<path d="M315 180H302.4V196.4H315V180Z" fill="#FF9DB0"/>
<path d="M314.5 180.5V195.9H302.9V180.5H314.5ZM315.5 179.5H301.9V196.9H315.5V179.5Z" fill="black"/>
<path d="M351.5 180H338.9V196.4H351.5V180Z" fill="#FF9DB0"/>
<path d="M351 180.5V195.9H339.4V180.5H351ZM352 179.5H338.4V196.9H352V179.5Z" fill="black"/>
<path d="M25.0992 197.4H0.699219V210H25.0992V197.4Z" fill="#FF9DB0"/>
<path d="M24.5992 197.9V209.5H1.19922V197.9H24.5992ZM25.5992 196.9H0.199219V210.5H25.5992V196.9Z" fill="black"/>
<path d="M49.9 197.4H25.5V210H49.9V197.4Z" fill="#FF9DB0"/>
<path d="M49.4 197.9V209.5H26V197.9H49.4ZM50.4 196.9H25V210.5H50.4V196.9Z" fill="black"/>
<path d="M36.8004 210.4H12.9004V223H36.8004V210.4Z" fill="#FF9DB0"/>
<path d="M36.3004 210.9V222.5H13.4004V210.9H36.3004ZM37.3004 209.9H12.4004V223.5H37.3004V209.9Z" fill="black"/>
<path d="M13.2 210.4H0.5V223H13.2V210.4Z" fill="#FF9DB0"/>
<path d="M12.7 210.9V222.5H1V210.9H12.7ZM13.7 209.9H0V223.5H13.7V209.9Z" fill="black"/>
<path d="M49.8992 210.4H37.1992V223H49.8992V210.4Z" fill="#FF9DB0"/>
<path d="M49.3992 210.9V222.5H37.6992V210.9H49.3992ZM50.3992 209.9H36.6992V223.5H50.3992V209.9Z" fill="black"/>
<path d="M25.0992 223.9H0.699219V236.5H25.0992V223.9Z" fill="#FF9DB0"/>
<path d="M24.5992 224.4V236H1.19922V224.4H24.5992ZM25.5992 223.4H0.199219V237H25.5992V223.4Z" fill="black"/>
<path d="M49.9 223.9H25.5V236.5H49.9V223.9Z" fill="#FF9DB0"/>
<path d="M49.4 224.4V236H26V224.4H49.4ZM50.4 223.4H25V237H50.4V223.4Z" fill="black"/>
<path d="M36.8004 236.9H12.9004V249.5H36.8004V236.9Z" fill="#FF9DB0"/>
<path d="M36.3004 237.4V249H13.4004V237.4H36.3004ZM37.3004 236.4H12.4004V250H37.3004V236.4Z" fill="black"/>
<path d="M13.2 236.9H0.5V249.5H13.2V236.9Z" fill="#FF9DB0"/>
<path d="M12.7 237.4V249H1V237.4H12.7ZM13.7 236.4H0V250H13.7V236.4Z" fill="black"/>
<path d="M49.8992 236.9H37.1992V249.5H49.8992V236.9Z" fill="#FF9DB0"/>
<path d="M49.3992 237.4V249H37.6992V237.4H49.3992ZM50.3992 236.4H36.6992V250H50.3992V236.4Z" fill="black"/>
<path d="M75.4996 197.4H51.0996V210H75.4996V197.4Z" fill="#FF9DB0"/>
<path d="M75.0996 197.9V209.5H51.5996V197.9H75.0996ZM76.0996 196.9H50.5996V210.5H75.9996V196.9H76.0996Z" fill="black"/>
<path d="M100.3 197.4H75.9004V210H100.3V197.4Z" fill="#FF9DB0"/>
<path d="M99.9004 197.9V209.5H76.4004V197.9H99.9004ZM100.9 196.9H75.4004V210.5H100.8V196.9H100.9Z" fill="black"/>
<path d="M87.3004 210.4H63.4004V223H87.3004V210.4Z" fill="#FF9DB0"/>
<path d="M86.7004 210.9V222.5H63.9004V210.9H86.7004ZM87.7004 209.9H62.9004V223.5H87.8004V209.9H87.7004Z" fill="black"/>
<path d="M63.7 210.4H51V223H63.7V210.4Z" fill="#FF9DB0"/>
<path d="M63.2 210.9V222.5H51.5V210.9H63.2ZM64.2 209.9H50.5V223.5H64.2V209.9Z" fill="black"/>
<path d="M100.399 210.4H87.6992V223H100.399V210.4Z" fill="#FF9DB0"/>
<path d="M99.8992 210.9V222.5H88.1992V210.9H99.8992ZM100.899 209.9H87.1992V223.5H100.899V209.9Z" fill="black"/>
<path d="M75.4996 223.9H51.0996V236.5H75.4996V223.9Z" fill="#FF9DB0"/>
<path d="M75.0996 224.4V236H51.5996V224.4H75.0996ZM76.0996 223.4H50.5996V237H75.9996V223.4H76.0996Z" fill="black"/>
<path d="M100.3 223.9H75.9004V236.5H100.3V223.9Z" fill="#FF9DB0"/>
<path d="M99.9004 224.4V236H76.4004V224.4H99.9004ZM100.9 223.4H75.4004V237H100.8V223.4H100.9Z" fill="black"/>
<path d="M87.3004 236.9H63.4004V249.5H87.3004V236.9Z" fill="#FF9DB0"/>
<path d="M86.7004 237.4V249H63.9004V237.4H86.7004ZM87.7004 236.4H62.9004V250H87.8004V236.4H87.7004Z" fill="black"/>
<path d="M63.7 236.9H51V249.5H63.7V236.9Z" fill="#FF9DB0"/>
<path d="M63.2 237.4V249H51.5V237.4H63.2ZM64.2 236.4H50.5V250H64.2V236.4Z" fill="black"/>
<path d="M100.399 236.9H87.6992V249.5H100.399V236.9Z" fill="#FF9DB0"/>
<path d="M99.8992 237.4V249H88.1992V237.4H99.8992ZM100.899 236.4H87.1992V250H100.899V236.4Z" fill="black"/>
<path d="M125.798 197.4H101.398V210H125.798V197.4Z" fill="#FF9DB0"/>
<path d="M125.298 197.9V209.5H101.898V197.9H125.298ZM126.298 196.9H100.898V210.5H126.298V196.9Z" fill="black"/>
<path d="M150.599 197.4H126.199V210H150.599V197.4Z" fill="#FF9DB0"/>
<path d="M150.099 197.9V209.5H126.699V197.9H150.099ZM151.099 196.9H125.699V210.5H151.099V196.9Z" fill="black"/>
<path d="M137.5 210.4H113.6V223H137.5V210.4Z" fill="#FF9DB0"/>
<path d="M137 210.9V222.5H114.1V210.9H137ZM138 209.9H113.1V223.5H138V209.9Z" fill="black"/>
<path d="M113.899 210.4H101.199V223H113.899V210.4Z" fill="#FF9DB0"/>
<path d="M113.399 210.9V222.5H101.699V210.9H113.399ZM114.399 209.9H100.699V223.5H114.399V209.9Z" fill="black"/>
<path d="M150.598 210.4H137.898V223H150.598V210.4Z" fill="#FF9DB0"/>
<path d="M150.098 210.9V222.5H138.398V210.9H150.098ZM151.098 209.9H137.398V223.5H151.098V209.9Z" fill="black"/>
<path d="M125.798 223.9H101.398V236.5H125.798V223.9Z" fill="#FF9DB0"/>
<path d="M125.298 224.4V236H101.898V224.4H125.298ZM126.298 223.4H100.898V237H126.298V223.4Z" fill="black"/>
<path d="M150.599 223.9H126.199V236.5H150.599V223.9Z" fill="#FF9DB0"/>
<path d="M150.099 224.4V236H126.699V224.4H150.099ZM151.099 223.4H125.699V237H151.099V223.4Z" fill="black"/>
<path d="M137.5 236.9H113.6V249.5H137.5V236.9Z" fill="#FF9DB0"/>
<path d="M137 237.4V249H114.1V237.4H137ZM138 236.4H113.1V250H138V236.4Z" fill="black"/>
<path d="M113.899 236.9H101.199V249.5H113.899V236.9Z" fill="#FF9DB0"/>
<path d="M113.399 237.4V249H101.699V237.4H113.399ZM114.399 236.4H100.699V250H114.399V236.4Z" fill="black"/>
<path d="M150.598 236.9H137.898V249.5H150.598V236.9Z" fill="#FF9DB0"/>
<path d="M150.098 237.4V249H138.398V237.4H150.098ZM151.098 236.4H137.398V250H151.098V236.4Z" fill="black"/>
<path d="M176 197.4H151.6V210H176V197.4Z" fill="#FF9DB0"/>
<path d="M175.5 197.9V209.5H152.1V197.9H175.5ZM176.5 196.9H151.1V210.5H176.5V196.9Z" fill="black"/>
<path d="M200.8 197.4H176.4V210H200.8V197.4Z" fill="#FF9DB0"/>
<path d="M200.3 197.9V209.5H176.9V197.9H200.3ZM201.3 196.9H175.9V210.5H201.3V196.9Z" fill="black"/>
<path d="M187.8 210.4H163.9V223H187.8V210.4Z" fill="#FF9DB0"/>
<path d="M187.201 210.9V222.5H164.301V210.9H187.201ZM188.201 209.9H163.301V223.5H188.201V209.9Z" fill="black"/>
<path d="M164.1 210.4H151.4V223H164.1V210.4Z" fill="#FF9DB0"/>
<path d="M163.6 210.9V222.5H151.9V210.9H163.6ZM164.6 209.9H150.9V223.5H164.6V209.9Z" fill="black"/>
<path d="M200.8 210.4H188.1V223H200.8V210.4Z" fill="#FF9DB0"/>
<path d="M200.3 210.9V222.5H188.6V210.9H200.3ZM201.3 209.9H187.6V223.5H201.3V209.9Z" fill="black"/>
<path d="M176 223.9H151.6V236.5H176V223.9Z" fill="#FF9DB0"/>
<path d="M175.5 224.4V236H152.1V224.4H175.5ZM176.5 223.4H151.1V237H176.5V223.4Z" fill="black"/>
<path d="M200.8 223.9H176.4V236.5H200.8V223.9Z" fill="#FF9DB0"/>
<path d="M200.3 224.4V236H176.9V224.4H200.3ZM201.3 223.4H175.9V237H201.3V223.4Z" fill="black"/>
<path d="M187.8 236.9H163.9V249.5H187.8V236.9Z" fill="#FF9DB0"/>
<path d="M187.201 237.4V249H164.301V237.4H187.201ZM188.201 236.4H163.301V250H188.201V236.4Z" fill="black"/>
<path d="M164.1 236.9H151.4V249.5H164.1V236.9Z" fill="#FF9DB0"/>
<path d="M163.6 237.4V249H151.9V237.4H163.6ZM164.6 236.4H150.9V250H164.6V236.4Z" fill="black"/>
<path d="M200.8 236.9H188.1V249.5H200.8V236.9Z" fill="#FF9DB0"/>
<path d="M200.3 237.4V249H188.6V237.4H200.3ZM201.3 236.4H187.6V250H201.3V236.4Z" fill="black"/>
<path d="M226.199 197.4H201.799V210H226.199V197.4Z" fill="#FF9DB0"/>
<path d="M225.699 197.9V209.5H202.299V197.9H225.699ZM226.699 196.9H201.299V210.5H226.699V196.9Z" fill="black"/>
<path d="M251 197.4H226.6V210H251V197.4Z" fill="#FF9DB0"/>
<path d="M250.599 197.9V209.5H227.199V197.9H250.599ZM251.599 196.9H226.199V210.5H251.599V196.9Z" fill="black"/>
<path d="M238 210.4H214.1V223H238V210.4Z" fill="#FF9DB0"/>
<path d="M237.4 210.9V222.5H214.5V210.9H237.4ZM238.4 209.9H213.5V223.5H238.4V209.9Z" fill="black"/>
<path d="M214.399 210.4H201.699V223H214.399V210.4Z" fill="#FF9DB0"/>
<path d="M213.899 210.9V222.5H202.199V210.9H213.899ZM214.899 209.9H201.199V223.5H214.899V209.9Z" fill="black"/>
<path d="M250.999 210.4H238.299V223H250.999V210.4Z" fill="#FF9DB0"/>
<path d="M250.598 210.9V222.5H238.898V210.9H250.598ZM251.598 209.9H237.898V223.5H251.598V209.9Z" fill="black"/>
<path d="M226.199 223.9H201.799V236.5H226.199V223.9Z" fill="#FF9DB0"/>
<path d="M225.699 224.4V236H202.299V224.4H225.699ZM226.699 223.4H201.299V237H226.699V223.4Z" fill="black"/>
<path d="M251 223.9H226.6V236.5H251V223.9Z" fill="#FF9DB0"/>
<path d="M250.599 224.4V236H227.199V224.4H250.599ZM251.599 223.4H226.199V237H251.599V223.4Z" fill="black"/>
<path d="M238 236.9H214.1V249.5H238V236.9Z" fill="#FF9DB0"/>
<path d="M237.4 237.4V249H214.5V237.4H237.4ZM238.4 236.4H213.5V250H238.4V236.4Z" fill="black"/>
<path d="M214.399 236.9H201.699V249.5H214.399V236.9Z" fill="#FF9DB0"/>
<path d="M213.899 237.4V249H202.199V237.4H213.899ZM214.899 236.4H201.199V250H214.899V236.4Z" fill="black"/>
<path d="M250.999 236.9H238.299V249.5H250.999V236.9Z" fill="#FF9DB0"/>
<path d="M250.598 237.4V249H238.898V237.4H250.598ZM251.598 236.4H237.898V250H251.598V236.4Z" fill="black"/>
<path d="M276.5 197.4H252.1V210H276.5V197.4Z" fill="#FF9DB0"/>
<path d="M276 197.9V209.5H252.6V197.9H276ZM277 196.9H251.6V210.5H277V196.9Z" fill="black"/>
<path d="M301.3 197.4H276.9V210H301.3V197.4Z" fill="#FF9DB0"/>
<path d="M300.8 197.9V209.5H277.4V197.9H300.8ZM301.8 196.9H276.4V210.5H301.8V196.9Z" fill="black"/>
<path d="M288.201 210.4H264.301V223H288.201V210.4Z" fill="#FF9DB0"/>
<path d="M287.701 210.9V222.5H264.801V210.9H287.701ZM288.701 209.9H263.801V223.5H288.701V209.9Z" fill="black"/>
<path d="M264.6 210.4H251.9V223H264.6V210.4Z" fill="#FF9DB0"/>
<path d="M264.1 210.9V222.5H252.4V210.9H264.1ZM265.1 209.9H251.4V223.5H265.1V209.9Z" fill="black"/>
<path d="M301.3 210.4H288.6V223H301.3V210.4Z" fill="#FF9DB0"/>
<path d="M300.8 210.9V222.5H289.1V210.9H300.8ZM301.8 209.9H288.1V223.5H301.8V209.9Z" fill="black"/>
<path d="M276.5 223.9H252.1V236.5H276.5V223.9Z" fill="#FF9DB0"/>
<path d="M276 224.4V236H252.6V224.4H276ZM277 223.4H251.6V237H277V223.4Z" fill="black"/>
<path d="M301.3 223.9H276.9V236.5H301.3V223.9Z" fill="#FF9DB0"/>
<path d="M300.8 224.4V236H277.4V224.4H300.8ZM301.8 223.4H276.4V237H301.8V223.4Z" fill="black"/>
<path d="M288.201 236.9H264.301V249.5H288.201V236.9Z" fill="#FF9DB0"/>
<path d="M287.701 237.4V249H264.801V237.4H287.701ZM288.701 236.4H263.801V250H288.701V236.4Z" fill="black"/>
<path d="M264.6 236.9H251.9V249.5H264.6V236.9Z" fill="#FF9DB0"/>
<path d="M264.1 237.4V249H252.4V237.4H264.1ZM265.1 236.4H251.4V250H265.1V236.4Z" fill="black"/>
<path d="M301.3 236.9H288.6V249.5H301.3V236.9Z" fill="#FF9DB0"/>
<path d="M300.8 237.4V249H289.1V237.4H300.8ZM301.8 236.4H288.1V250H301.8V236.4Z" fill="black"/>
<path d="M326.798 197.4H302.398V210H326.798V197.4Z" fill="#FF9DB0"/>
<path d="M326.298 197.9V209.5H302.898V197.9H326.298ZM327.298 196.9H301.898V210.5H327.298V196.9Z" fill="black"/>
<path d="M351.599 197.4H327.199V210H351.599V197.4Z" fill="#FF9DB0"/>
<path d="M351.099 197.9V209.5H327.699V197.9H351.099ZM352.099 196.9H326.699V210.5H352.099V196.9Z" fill="black"/>
<path d="M338.599 210.4H314.699V223H338.599V210.4Z" fill="#FF9DB0"/>
<path d="M338 210.9V222.5H315.1V210.9H338ZM339 209.9H314.1V223.5H339V209.9Z" fill="black"/>
<path d="M314.899 210.4H302.199V223H314.899V210.4Z" fill="#FF9DB0"/>
<path d="M314.399 210.9V222.5H302.699V210.9H314.399ZM315.399 209.9H301.699V223.5H315.399V209.9Z" fill="black"/>
<path d="M351.598 210.4H338.898V223H351.598V210.4Z" fill="#FF9DB0"/>
<path d="M351.098 210.9V222.5H339.398V210.9H351.098ZM352.098 209.9H338.398V223.5H352.098V209.9Z" fill="black"/>
<path d="M326.798 223.9H302.398V236.5H326.798V223.9Z" fill="#FF9DB0"/>
<path d="M326.298 224.4V236H302.898V224.4H326.298ZM327.298 223.4H301.898V237H327.298V223.4Z" fill="black"/>
<path d="M351.599 223.9H327.199V236.5H351.599V223.9Z" fill="#FF9DB0"/>
<path d="M351.099 224.4V236H327.699V224.4H351.099ZM352.099 223.4H326.699V237H352.099V223.4Z" fill="black"/>
<path d="M338.599 236.9H314.699V249.5H338.599V236.9Z" fill="#FF9DB0"/>
<path d="M338 237.4V249H315.1V237.4H338ZM339 236.4H314.1V250H339V236.4Z" fill="black"/>
<path d="M314.899 236.9H302.199V249.5H314.899V236.9Z" fill="#FF9DB0"/>
<path d="M314.399 237.4V249H302.699V237.4H314.399ZM315.399 236.4H301.699V250H315.399V236.4Z" fill="black"/>
<path d="M351.598 236.9H338.898V249.5H351.598V236.9Z" fill="#FF9DB0"/>
<path d="M351.098 237.4V249H339.398V237.4H351.098ZM352.098 236.4H338.398V250H352.098V236.4Z" fill="black"/>
</g>
<defs>
<clipPath id="clip0_3205_1009">
<rect width="352.1" height="250" fill="white"/>
</clipPath>
</defs>
</svg>
