<svg width="40" height="30" fill="none" xmlns="http://www.w3.org/2000/svg"><g clip-path="url(#a)"><path d="M40 0H0v15h8a5 5 0 0 1 5 5v10h13V20a5 5 0 0 1 5-5h9V0Z" fill="url(#b)"/><path fill="url(#c)" d="M12 15h15v15H12z"/><path d="M12 15H7c2.913 1.036 4.633 2.747 5 5v-5ZM27 15h5c-2.913 1.036-4.633 2.747-5 5v-5Z" fill="#1F1F1F"/></g><defs><linearGradient id="b" x1="20" y1="0" x2="19.5" y2="15" gradientUnits="userSpaceOnUse"><stop stop-color="#1C1C1C"/><stop offset=".526" stop-color="#9B9A9A"/><stop offset="1" stop-color="#1C1C1C"/></linearGradient><linearGradient id="c" x1="27" y1="22.5" x2="12" y2="22.5" gradientUnits="userSpaceOnUse"><stop stop-color="#1B1B1B"/><stop offset=".49" stop-color="#989898"/><stop offset="1" stop-color="#1B1B1B"/></linearGradient><clipPath id="a"><path fill="#fff" d="M0 0h40v30H0z"/></clipPath></defs></svg>