<svg xmlns="http://www.w3.org/2000/svg" width="512" height="512"><path fill="#272727" d="m421 9 2.875 2.75c3.47 2.498 4.615 2.532 8.75 2.688 8.484.39 16.206 3.734 22 10.062 3.9 5.231 4.754 10.038 4.375 16.5-3.02 8.418-7.867 15.46-13.427 22.368C440.793 69.36 437.297 75.405 436 83l2.379.332c13.884 2.095 24.279 7.97 33.457 18.688 19.117 26.328 20.631 62.93 24.578 94.05 2.893 25.074 2.893 25.074 10.336 49.055 3.189 7.393 4.868 14.363 2.063 22.188-6.517 9.662-16.31 13.574-26.813 17.687l3.945.113c1.727.066 3.453.132 5.18.2l2.594.068c6.043.256 10.616 1.027 15.129 5.416 2.676 5.116 1.974 12.095.53 17.55-3.662 8.189-10.646 13.734-18.495 17.645-9.942 3.476-19.967 3.282-30.358 3.235h-5.266c-4.739.002-9.477-.01-14.216-.024-4.962-.013-9.924-.014-14.887-.016-9.385-.006-18.77-.023-28.154-.043-10.69-.022-21.379-.033-32.068-.043-21.978-.021-43.956-.056-65.934-.101l.84 3.672a221884.893 221884.893 0 0 1 10.509 46.004c2.545 11.135 5.086 22.27 7.62 33.408 1.13 4.961 2.26 9.923 3.395 14.883 1.079 4.722 2.154 9.444 3.226 14.168.397 1.748.796 3.497 1.197 5.245a2640.22 2640.22 0 0 1 1.633 7.184l.49 2.122c.725 3.233 1.09 5.973 1.09 9.314l1.688-.105c7.644-.272 13.315 1.003 19.125 6.168 4.694 5.08 6.233 11.326 6.562 18.125-.474 4.822-1.332 8.608-4.71 12.253-10.352 8.458-26.803 7.727-39.415 7.684l-3.188.012a417.253 417.253 0 0 1-17.696-.37c-15.867-.678-31.693-.838-47.573-.794l-3.253.008c-10.077.026-20.155.065-30.232.115-5.57.027-11.141.044-16.712.055-2.1.006-4.202.016-6.302.03-2.92.02-5.839.026-8.758.03l-2.58.027c-6.524-.01-12.624-.312-17.831-4.613-3.89-4.806-4.694-8.412-4.563-14.547 1.213-8.528 5.848-15.58 12.567-20.812 4.805-3.25 9.234-3.59 14.871-4.266 3.322-14.796 6.643-29.592 9.963-44.39 1.541-6.872 3.084-13.744 4.627-20.616a64358.18 64358.18 0 0 0 4.474-19.938 20216.909 20216.909 0 0 0 4.095-18.25l.693-3.08c2.139-9.557 4.143-19.14 6.148-28.726l-2.858.011c-22.979.09-45.957.155-68.935.196-11.112.02-22.224.049-33.337.095-9.688.04-19.376.065-29.064.074-5.127.006-10.254.018-15.382.047-4.832.027-9.663.035-14.496.03a654.63 654.63 0 0 0-5.302.024c-11.643.096-23.085-.173-32.06-8.63-5.456-6.436-8.967-13.082-8.843-21.566.438-3.608 1.9-5.591 4.277-8.281 4.896-3.697 8.405-5.11 14.481-5.205l3.397-.06 3.665-.051 3.754-.063c3.29-.055 6.579-.105 9.868-.153 3.359-.05 6.717-.106 10.075-.161 6.587-.108 13.173-.21 19.76-.307l-1.641-.847c-2.487-1.286-4.97-2.579-7.453-3.872l-2.58-1.33C52.27 275.266 46.105 271.131 40 266l-2.82-2.328c-19.687-17-32.5-41.858-34.418-67.898C1.557 165.227 7.367 136.717 26 112l2.168-2.898C32.109 104.025 36.368 99.444 41 95l2.379-2.434C56.18 80.032 72.814 71.628 90 67l3.543-.965c19.403-4.437 40.36-3.33 59.457 1.965l2.354.65c28.279 8.074 51.654 25.573 66.076 51.344 15.925 29.237 18.4 62.516 9.163 94.256-2.616 8.427-6.223 16.103-10.593 23.75l-1.68 3.008c-4.5 7.558-10.255 13.691-16.32 19.992l-1.734 1.96c-3.631 3.987-7.837 7.01-12.266 10.04l-1.704 1.186c-4.484 2.968-9.205 5.236-14.077 7.478l-2.107.976c-1.703.789-3.407 1.575-5.112 2.36 8.754.163 17.508.287 26.264.363 4.067.036 8.133.085 12.2.165 3.936.077 7.87.118 11.807.136 1.49.013 2.98.038 4.47.076 9.768.24 16.823-1.242 25.313-6.156 4-2.151 7.238-2.532 11.696-2.209l2.163.081c6.858.364 13.208 1.29 18.694 5.585 4.232 2.444 7.079 2.48 11.854 2.35l2.396-.018a654.75 654.75 0 0 0 7.518-.123c1.707-.02 3.414-.038 5.121-.055 4.169-.044 8.336-.113 12.504-.195l-2.683-.995-3.532-1.33-3.496-1.307c-5.907-2.457-10.532-5.518-13.789-11.118-3.538-8.66-1.151-16.476 2.25-24.75 5.975-14.65 8.553-29.867 10.46-45.5.3-2.453.61-4.905.925-7.356.424-3.318.847-6.635 1.267-9.953 7.744-60.942 7.744-60.942 25.598-81.691l1.339-2.46c2.981-4.558 7.845-6.669 12.474-9.353l2.986-1.81 2.908-1.709 2.64-1.554c3.062-1.286 5.364-1.32 8.653-1.114-1.069-9.007-5.744-14.934-11-22-11.508-15.493-11.508-15.493-11.125-25.125.988-6.23 4.136-10.463 8.984-14.375 8.33-5.597 16.227-7 26.141-6.5l.719-1.805c2.795-4.79 8.684-7.297 13.777-9.058C402.852 1.7 412.062 3.264 421 9Zm-13.164 10.969-2.461 2.531-2.477 2.531L401 27l2 1c2.711-1.223 2.711-1.223 5.625-2.938l3.04-1.714L414 22l-2-4c-2.241-.224-2.241-.224-4.164 1.969ZM372 25l-1 3 5-2-4-1Zm47.688 6.5-1.956 1.879A483.565 483.565 0 0 0 413 38c3.417 0 4.551-.695 7.45-2.406l2.568-1.504 2.67-1.59 2.705-1.59C430.599 29.613 432.8 28.31 435 27c-6.918-4.612-10.218-.548-15.313 4.5ZM364.875 43l-2.758 1.688L360 46l2 3c3.21-1.382 5.05-2.924 7.25-5.625l1.578-1.914L372 40c-2.944 0-4.639 1.47-7.125 3ZM381 51c-2.718 1.452-2.718 1.452-5.625 3.438l-3.04 1.996L370 58l1 3c3.239-1.444 5.62-3.258 8.25-5.625l2.14-1.914L383 52l-2-1ZM98.437 73.375l-2.037.422c-6.225 1.31-8.97 2.62-13.4 7.203-2.697 2.546-5.446 5.037-8.184 7.54A270.436 270.436 0 0 0 65 98c4.097-1.253 7.623-2.765 11.309-4.941l2.994-1.758 3.135-1.864 3.216-1.895c3.12-1.84 6.234-3.689 9.346-5.542l2.583-1.538A2103.05 2103.05 0 0 0 110 73c-3.972-1.524-7.559-.505-11.563.375Zm22.25 5.125c-.74.525-1.48 1.05-2.244 1.59A594.596 594.596 0 0 0 113 84l2 1c2.08-.886 2.08-.886 4.352-2.273l2.578-1.5 2.695-1.602 2.719-1.578C130.71 76.086 130.71 76.086 134 74v-1c-5.56-.965-9.06 2.407-13.313 5.5Zm284.688-.5L402 80v1c2.33.419 2.33.419 5 0 2.336-2.399 2.336-2.399 4-5-2.463 0-3.52.753-5.625 2ZM147 77l-4 4 5-2-1-2Zm9.523 8.188-2.03 1.367L152.374 88l-2.14 1.445c-1.748 1.181-3.492 2.368-5.235 3.555l2 1c2.627-1.36 5.11-2.77 7.625-4.313l2.14-1.263c1.784-1.08 3.515-2.246 5.235-3.424v-2c-2.53 0-3.395.776-5.477 2.188ZM366 89l1 2 2-2h-3Zm-196.557 2.267-2.545 2.096c-3.928 3.095-7.856 6.01-12.046 8.742l-3.106 2.041a3167.423 3167.423 0 0 1-6.312 4.118c-4.935 3.249-9.514 6.29-13.434 10.736 3.661-1.383 7.017-3.029 10.43-4.941l3.14-1.757 3.305-1.865 3.375-1.899c6.28-3.546 12.547-7.11 18.75-10.788l1.847-1.084C175.966 94.87 175.966 94.87 178 92c-4.255-2.008-4.255-2.008-8.557-.733ZM423.5 96.313c-.88.594-1.76 1.19-2.668 1.802l-2.55 1.748-2.343 1.603c-2.182 1.564-2.182 1.564-3.939 4.534 3.556-1.342 6.791-2.922 10.082-4.82l2.822-1.621 2.909-1.684 2.966-1.707c2.409-1.386 4.816-2.776 7.221-4.168-5.85-3.9-9.36.772-14.5 4.313Zm-242.29 6.75-2.85 1.914-2.985 2.023-3.008 2.023A2725.88 2725.88 0 0 0 165 114l2 1c2.375-1.098 2.375-1.098 5.008-2.746l2.988-1.787 3.129-1.904 3.152-1.893c2.579-1.55 5.153-3.106 7.723-4.67l-1-2c-2.922 0-4.38 1.437-6.79 3.063Zm269.376 4.14-2.033 1.456-2.178 1.591-4.57 3.29-2.384 1.723a598.037 598.037 0 0 1-7.288 5.135l-2.353 1.64a1571.297 1571.297 0 0 1-4.509 3.127l-2.052 1.437-1.815 1.26c-1.559 1.103-1.559 1.103-2.404 3.138 3.55-1.343 6.8-2.918 10.098-4.793l2.913-1.652 3.051-1.743 3.112-1.768c6.97-3.967 13.923-7.962 20.826-12.044l-2-4c-3.3 0-3.853.347-6.414 2.203ZM464 117l-6 4 2 1c2.624-1.39 2.624-1.39 5-3l-1-2Zm-334 2-1 2 3-1-2-1Zm326 3-1 2 3-1-2-1Zm4.938 11.25c-6.574 4.836-13.315 9.37-20.159 13.813l-2.236 1.468-2 1.3c-1.696 1.105-1.696 1.105-2.543 3.169 3.77-1.417 7.204-3.14 10.71-5.117l3.274-1.84 3.391-1.918 3.367-1.895c5.43-3.057 10.852-6.13 16.258-9.23l-1-4c-4.003 0-5.99 1.94-9.063 4.25ZM329 135l1 2 5-5c-2.762 0-3.893 1.314-6 3Zm-113 5-39 26 2 1c2.552-1.161 2.552-1.161 5.426-2.902l3.338-1.94 3.548-2.095 3.572-2.087C202.658 153.43 210.392 148.82 218 144l-2-4Zm121 5c-2.721 1.376-2.721 1.376-5.625 3.313l-3.04 1.925L326 152v2c5.09-1.59 8.875-4.745 13-8l-2-1Zm95 8-1 2 3-1-2-1Zm39.266 2.57c-.793.56-1.585 1.12-2.4 1.698l-2.616 1.857a809.311 809.311 0 0 1-25.444 17.254l-2.525 1.66-2.217 1.444c-2.252 1.655-4.136 3.497-6.064 5.517 3.636-1.374 6.97-3.004 10.36-4.906l3.109-1.742 3.281-1.852 3.357-1.887A1252.848 1252.848 0 0 0 477 159l-1-6c-1.847 0-3.281 1.536-4.734 2.57ZM220 154l-22 15 2 1c2.375-1.098 2.375-1.098 5.008-2.746l2.988-1.787 3.129-1.905 3.152-1.892c2.579-1.55 5.153-3.106 7.723-4.67l-2-3Zm-165 3-1 2 3-1-2-1Zm-3 2c-2.6 1.194-2.6 1.194-5.531 2.973l-3.399 1.978-3.57 2.112A1907.062 1907.062 0 0 0 26 174l-3.04 1.8c-4.21 2.288-4.21 2.288-7.96 5.199a99.984 99.984 0 0 0 0 5c5.93-3.045 11.263-6.557 16.605-10.531 4.446-3.273 9.022-6.36 13.582-9.469l2.615-1.783c2.065-1.407 4.131-2.813 6.198-4.217l-2-1Zm-30 3-1 2 3-1-2-1Zm330 1c-2.7 1.227-2.7 1.227-5.742 3.043l-1.712.984a644.905 644.905 0 0 0-3.586 2.087 668.518 668.518 0 0 1-5.464 3.154c-1.163.674-2.326 1.349-3.488 2.025l-3.199 1.86c-2.698 1.774-4.831 3.291-6.809 5.847.136 2.219.136 2.219 1 4a4879.282 4879.282 0 0 0 31-22l-2-1Zm-336 3 1 2 4-4c-2.324-.185-2.324-.185-5 2Zm455.555 7.5-3.262 2.188-3.418 2.312-3.441 2.313A3572.46 3572.46 0 0 0 453 186l2 1c4.2-1.943 8.137-4.407 12.125-6.75l3.441-1.96 3.254-1.9 3.009-1.748L479 173v-3c-3.112 0-4.89 1.778-7.445 3.5ZM34 187c-1.886.805-1.886.805-3.914 2.09l-2.305 1.377-2.406 1.47-2.43 1.46A986.31 986.31 0 0 0 17 197l1 3 18-12-2-1Zm442.219 11.598-2.29 1.67c-.801.593-1.603 1.185-2.429 1.794a9174.46 9174.46 0 0 1-4.898 3.579l-2.394 1.752c-4.026 2.93-8.11 5.776-12.208 8.607l2 1a86.6 86.6 0 0 0 6.32-3.402l1.875-1.08c1.981-1.145 3.956-2.3 5.93-3.456l4.02-2.326c3.29-1.903 6.574-3.817 9.855-5.736v-5c-2.687 0-3.625 1.012-5.781 2.598ZM346 198l-1 2 3-1-2-1Zm-8.375 4.992-3.234 1.887-3.391 1.996-3.39 1.973c-5.638 3.132-5.638 3.132-10.61 7.152v3c3.493-1.29 6.433-2.8 9.504-4.898l2.494-1.704 2.565-1.773 2.576-1.75c3.972-2.73 7.515-5.383 10.861-8.875-2.993 0-4.803 1.49-7.375 2.992ZM483 212a2012.376 2012.376 0 0 0-8.188 5.688l-2.33 1.607c-4.226 2.957-7.975 5.917-11.482 9.705a62.812 62.812 0 0 0 9.645-4.602l2.548-1.484 2.62-1.539 2.677-1.563c2.172-1.267 4.342-2.538 6.51-3.812l-2-4Zm-33 5-1 2 3-1-2-1Zm-374 3c-2.552 1.161-2.552 1.161-5.426 2.902l-3.338 1.94-3.549 2.095-3.571 2.087C52.342 233.57 44.608 238.18 37 243l2 3c4.853-1.63 8.742-4.355 12.926-7.227l2.265-1.538a3020.59 3020.59 0 0 0 7.121-4.86c1.615-1.1 3.23-2.198 4.846-3.297A6244.97 6244.97 0 0 0 78 221l-2-1Zm273 5-1 2 3-1-2-1Zm-8.934 5.254-1.795 1.026a1357.07 1357.07 0 0 0-3.78 2.171 1471.672 1471.672 0 0 1-5.669 3.246 773.5 773.5 0 0 0-9.093 5.292 377.23 377.23 0 0 1-5.058 2.89l-3.019 1.773-2.66 1.527c-2.645 2.418-2.73 4.327-2.992 7.821 5.2-2.892 10.158-6.02 15.086-9.352l2.25-1.515c1.555-1.05 3.11-2.1 4.664-3.152 2.386-1.613 4.777-3.22 7.168-4.825l4.543-3.07 2.171-1.455c3.62-2.283 3.62-2.283 6.118-5.631-3.143 0-5.228 1.704-7.934 3.254ZM478.375 233l-1.852 1.445c-1.51 1.18-3.017 2.367-4.523 3.555 3.893 0 5.829-1.374 9.188-3.313l3.292-1.863L487 231v-3c-3.498 0-5.971 2.902-8.625 5ZM75 237l-1 2 3-1-2-1Zm-3 2c-2.57 1.196-2.57 1.196-5.445 2.965l-3.262 1.924-3.418 2.048-3.441 2.038A1976.226 1976.226 0 0 0 48 253l1 3c8.7-4.875 16.882-10.225 25-16l-2-1Zm263 12-1 2 3-1-2-1Zm46 1-1 2 3-1-2-1Zm111 0-1 2 3-1-2-1Zm-160 1c-2.57 1.196-2.57 1.196-5.445 2.965l-3.262 1.924-3.418 2.048-3.441 2.038A1976.226 1976.226 0 0 0 308 267l1 2c3.578-.641 5.99-2.134 8.984-4.16l2.832-1.904 2.934-1.998 2.98-2.01c2.427-1.638 4.85-3.28 7.27-4.928l-2-1Zm46 1c-2.681 1.226-2.681 1.226-5.723 3.05l-1.737 1a1010.6 1010.6 0 0 0-5.603 3.262c-1.274.74-2.55 1.478-3.825 2.216-3.138 1.817-6.27 3.644-9.4 5.474-2.446 1.426-4.897 2.84-7.349 4.256-1.538.892-3.076 1.785-4.613 2.68l-2.125 1.23c-1.56.915-3.095 1.868-4.625 2.832v1c5.128 1.29 5.128 1.29 10.12.09 2.293-1.457 4.46-3.017 6.63-4.652l2.439-1.755a671.823 671.823 0 0 0 5.128-3.728c4.57-3.33 9.228-6.538 13.87-9.767 2.94-2.06 5.877-4.124 8.813-6.188l-2-1Zm19 6-1 2 3-1-2-1Zm-3 2c-2.829 1.308-2.829 1.308-6.04 3.227l-1.816 1.044c-1.928 1.11-3.848 2.232-5.769 3.354l-3.816 2.2c-9.39 5.408-9.39 5.408-18.559 11.175v1c8.02.762 11.674-1.067 17.875-6l2.353-1.788a550.717 550.717 0 0 0 4.63-3.557c2.877-2.222 5.815-4.345 8.767-6.467L396 263l-2-1Zm17 7c-2.52 1.146-2.52 1.146-5.34 2.86-1.063.62-2.126 1.242-3.22 1.882l-3.377 2.008-3.366 1.96c-6.306 3.55-6.306 3.55-11.697 8.29 5.813.877 8.605-.026 13.375-3.5A354.36 354.36 0 0 0 403 278l2.926-2.313A634.655 634.655 0 0 0 413 270l-2-1Zm-335 4 1 2 3-3c-2.075-.15-2.075-.15-4 1Zm373 1c-1.836.755-1.836.755-3.809 1.984l-2.263 1.336-2.365 1.43-2.354 1.383c-3.444 2.053-6.457 3.92-9.209 6.867 5.252.5 9.223-.125 13.336-3.516 3.015-2.705 5.861-5.56 8.664-8.484l-2-1Zm-293 1c-1.786.708-1.786.708-3.695 1.871l-2.168 1.24-2.262 1.327-2.285 1.314c-1.868 1.075-3.73 2.16-5.59 3.248 3.625 1.145 5.627.718 9.117-.898 3.316-1.94 6.092-4.481 8.883-7.102l-2-1Zm310.875 4.5-3.32 1.969L461 283c3.33 1.665 6.29.095 9.71-.965 2.55-.892 2.55-.892 3.915-3.723L475 276c-3.216 0-5.4 1.877-8.125 3.5ZM125 279c-2.945 1.414-2.945 1.414-6.125 3.375l-3.32 1.96L113 286v1c3.2.318 4.687.195 7.457-1.531l2.356-1.969 2.394-1.969L127 280l-2-1Zm128.395 7.242-1.583 1.633-1.605 1.617c-1.415 1.446-1.415 1.446-1.207 3.508 4.308-1.566 8.062-3.683 12-6-3.78-2.562-3.78-2.562-7.605-.758ZM271 293l-12 11 2 1a100.377 100.377 0 0 0 6.625-3.938l1.852-1.17A696.475 696.475 0 0 0 274 297l-3-4Zm-248 1-2 8c5.235-1.44 9.63-3.817 14-7v-1H23Zm27.75 5a97.2 97.2 0 0 0-2.75 5l2 1c1.885-.788 1.885-.788 3.914-2.055l2.305-1.363 2.406-1.457 2.43-1.434c3.012-1.784 3.012-1.784 5.945-3.691v-1c-7.288-1.077-11.838-1.46-16.25 5Zm71.43 1.055c-1.353 1.85-1.353 1.85-1.18 3.945 4.023-1.485 7.613-3.399 11.313-5.563l3.238-1.878c.808-.515 1.616-1.03 2.449-1.559v-1c-7.63-1.105-11.052-.076-15.82 6.055Zm33.507-3.555L154 299c3.46-1.25 6.147-2.675 9-5-3.795-.527-4.63-.4-7.313 2.5Zm25 0L179 299c3.775-1.09 6.47-1.908 9-5-3.795-.527-4.63-.4-7.313 2.5ZM208 294l-2 3 5-2-3-1Zm81 0 1 3c2.473-.344 2.473-.344 5-1l1-2h-7Zm21 7 2 1c2.945-1.414 2.945-1.414 6.125-3.375l3.32-1.96c.843-.55 1.686-1.1 2.555-1.665v-1c-7.463-.9-9.86.852-14 7Zm47 2 2 1c1.786-.708 1.786-.708 3.695-1.871l2.168-1.24 2.262-1.327 2.285-1.314c1.868-1.075 3.73-2.16 5.59-3.248v-1c-9.24-1.534-12.75 1.608-18 9Zm29 1 2 1c1.885-.788 1.885-.788 3.914-2.055l2.305-1.363 2.406-1.457 2.43-1.434c3.012-1.784 3.012-1.784 5.945-3.691v-1c-9.73-1.828-13.42 2.452-19 10Zm51.102-4.531L436 301c4.308-1.566 8.062-3.683 12-6v-1c-5.83-.972-7.556 1.149-10.898 5.469ZM31 308l-9 5 3 3c3.367-1.393 4.986-2.979 7-6l-1-2Zm337 1c-1.885.788-1.885.788-3.914 2.055l-2.305 1.363-2.406 1.457-2.43 1.434c-3.012 1.784-3.012 1.784-5.945 3.691v1c3.52.662 6.496.824 10 0 3.53-2.946 6.273-6.312 9-10l-2-1Zm-268 1c-1.786.708-1.786.708-3.695 1.871l-2.168 1.24-2.262 1.327-2.285 1.314c-1.868 1.075-3.73 2.16-5.59 3.248v1c3.489.579 6.529.752 10 0 3.203-2.625 5.609-5.633 8-9l-2-1Zm237 0-14 8v1c3.106.435 5.91.598 9 0 2.5-2.015 4.255-4.318 6-7l-1-2Zm-145.625 6.5-2.477 1.406L187 319v1c2.788.503 2.788.503 6 0 2.064-1.824 3.39-3.728 5-6-2.743 0-4.255 1.146-6.625 2.5Zm210.5.438-2.758 1.652L397 320v1c2.745.588 2.745.588 6 0 2.331-2.095 4.173-4.46 6-7-2.933 0-4.635 1.43-7.125 2.938Zm-259.5.062L139 319v1c2.33.419 2.33.419 5 0 2.336-2.399 2.336-2.399 4-5-2.463 0-3.52.753-5.625 2ZM115 319l4 1 3-4c-2.895 0-4.597 1.482-7 3Zm51-1-2 2 4-1-2-1Zm257 2-2 2 4-1-2-1Zm-137 21-1 2 3-1-2-1Zm-67 12 1 2 1-2h-2Zm71 0-2.86 2.309C279.206 361.697 271.2 367.953 263 374l2 1c2.749-1.243 2.749-1.243 5.848-3.078l1.733-.992c1.21-.695 2.418-1.395 3.623-2.098a593.389 593.389 0 0 1 5.564-3.187 2124.22 2124.22 0 0 0 3.517-2.036l3.246-1.876c2.741-1.559 2.741-1.559 3.469-4.733-.875-2.167-.875-2.167-2-4Zm.352 19.781-2.284 1.793-2.443 1.926c-6.778 5.313-13.6 10.517-20.625 15.5l2 1c2.716-1.26 2.716-1.26 5.777-3.113l1.719-1c1.818-1.058 3.63-2.129 5.442-3.2l3.654-2.13c6.28-3.656 6.28-3.656 12.408-7.557l-1-6c-1.86 0-3.249 1.677-4.648 2.781ZM230 386c-3.319 1.425-6.385 3.366-9.5 5.188l-2.668 1.501-2.55 1.479-2.343 1.352c-2.195 1.676-3.069 2.868-3.939 5.48l1 3 2.781-2.195c6.354-5.008 12.715-9.992 19.219-14.805l-2-1Zm65.375 24-3.04 2.25L290 414l2 1c2.455-1.111 2.455-1.111 5.063-2.75l2.722-1.61c2.493-1.518 2.493-1.518 3.215-4.64-3.232 0-5.084 2.109-7.625 4ZM227 407l-1 2 3-1-2-1Zm-11.5 6.813-2.379 1.369-2.277 1.338-2.088 1.221c-2.045 1.31-2.045 1.31-3.756 4.259v3c4.494-2.116 8.236-5.021 12.188-8l2.232-1.656a346254814.243 346254814.243 0 0 1 4.061-3.047c1.654-1.241 1.654-1.241 2.519-3.297-3.855 0-7.251 2.895-10.5 4.813Zm85.57 8.144-2.41 1.873-2.535 1.983-2.512 1.947c-5.01 3.89-5.01 3.89-9.613 8.24 5.076-1.799 9.637-4.49 14.313-7.125l2.533-1.418c2.053-1.15 4.104-2.302 6.154-3.457l-1-5c-1.923 0-3.483 1.832-4.93 2.957ZM311 448l-4 4 5-2-1-2Zm-82.625 14L225 464c1.725.955 1.725.955 4 1 2.771-2.354 2.771-2.354 5-5-2.463 0-3.52.753-5.625 2ZM199 465c3.27-.564 4.826-1.5 7-4-3.133 0-4.68 2.046-7 4Zm-17 8a804.91 804.91 0 0 0-2.5 4.375l-1.406 2.46c-1.244 2.058-1.244 2.058-1.094 4.165 4.925-1.368 6.39-3.738 9-8 1.75-1.875 1.75-1.875 3-3h-7Zm81 0c-4.537 3.202-4.537 3.202-7 8 3.941-1.668 6.79-4.227 10-7l-3-1Zm68 2-2 2 1 3c2.537-1.355 2.537-1.355 5-3v-2h-4Zm-106.625 19.5-1.852 1.012c-1.51.825-3.016 1.656-4.523 2.488v1c3.132.501 5.888.688 9 0 2.554-2.352 4.289-4.994 6-8-3.26 0-5.833 1.955-8.625 3.5Zm70.5.438-2.758 1.652L290 498v1c2.745.588 2.745.588 6 0 2.331-2.095 4.173-4.46 6-7-2.933 0-4.635 1.43-7.125 2.938ZM317 498l4 1 3-4c-2.895 0-4.597 1.482-7 3Zm-49.625-.5L266 499c1.975-.348 1.975-.348 4-1l1-2c-2.124-.226-2.124-.226-3.625 1.5ZM174 497l-1 2 3-1-2-1Zm23 0-2 2 4-1-2-1Z"/><path fill="#77C4FA" d="m119.438 70.563 2.933.128c2.295.27 4.41.674 6.629 1.309v2c-1.377 1.145-1.377 1.145-3.281 2.383l-2.051 1.347-2.168 1.395-2.168 1.418A1115.918 1115.918 0 0 1 114 84c1.855-.914 3.71-1.831 5.563-2.75l3.335-1.648a72.967 72.967 0 0 0 6.79-3.977c5.215-2.558 9.901-2.412 15.375-.625L147 76l-1 3 2-1c4.835.45 8.641 1.995 13 4-2.966 3.192-6.05 5.46-9.75 7.75l-2.984 1.86L146 93a679826544.783 679826544.783 0 0 0 8.105-4.395 119.433 119.433 0 0 0 5.606-3.308C162 84 162 84 164.437 84.063c3.23 1.181 5.782 2.932 8.563 4.937-3.72 3.96-7.615 6.99-12.125 10l-4.227 2.863-2.258 1.522c-4.311 2.913-8.598 5.861-12.89 8.802-1.635 1.12-3.27 2.238-4.906 3.356l-2.104 1.438L133 118c3.671-1.992 7.337-3.992 11-6l2.046-1.12c2.236-1.228 4.47-2.46 6.704-3.692l2.32-1.279c3.814-2.116 7.579-4.282 11.282-6.589l2.06-1.278c1.279-.801 2.552-1.613 3.817-2.438 4.211-2.638 4.211-2.638 6.982-2.471 2.786 1.35 5.263 3.087 7.789 4.867-1.22 3.662-2.274 4.105-5.473 6.137l-2.724 1.748-2.865 1.802-2.877 1.838c-2.35 1.5-4.703 2.99-7.061 4.475l2.217-1.21a1857.66 1857.66 0 0 1 5.623-3.052 240.778 240.778 0 0 0 6.164-3.508l2.871-1.668 2.617-1.558c3.128-1.252 4.373-1.227 7.508-.004 8.985 7.633 15.247 17.844 21 28l1.844 3.227c1.276 3.06 1.348 3.784.156 6.773-1.563 1.43-1.563 1.43-3.602 2.749l-2.305 1.516-2.503 1.594-2.552 1.665c-2.693 1.753-5.396 3.49-8.1 5.226a5533.347 5533.347 0 0 0-5.479 3.559c-4.478 2.91-8.965 5.805-13.459 8.691a1393.16 1393.16 0 0 0 22.875-12.688l3.047-1.72c5.432-3.043 5.432-3.043 10.711-6.337L217 144l3 1 1 9c-7.147 5.322-14.423 10.31-22 15l2.02-1.102c1.935-1.055 3.871-2.11 5.808-3.164a851.992 851.992 0 0 0 6.281-3.468l2.953-1.641 2.723-1.523C221 157 221 157 223 157c.912 7.1 1.11 14.164 1.125 21.313l.014 2.604c-.07 29.745-15.715 58.561-36.014 79.395C178.407 269.918 164.702 280.32 151 283c1.302-2.905 2.709-4.81 5-7l-1.434.886c-2.182 1.34-4.374 2.665-6.566 3.989l-2.254 1.395c-7.145 4.287-13.295 6.031-21.746 5.855l-3.438-.055L118 288c1.491-3.795 3.757-5.61 7-8l-2.379 1.531-3.183 1.969-3.13 1.969c-6.383 2.954-12.083 1.362-18.496-.594l-2.23-.665C88.997 282.163 83.021 279.376 77 276v-2h-4c-8.294-4.24-18.774-10.549-23-19l23-15c-8.007 4.003-14.91 7.733-22.188 12.656C48 254 48 254 45.767 253.352 43.647 251.73 41.819 249.949 40 248c1.34-3.142 2.58-4.714 5.44-6.565l2.123-1.395 2.289-1.462 2.345-1.53a1627.66 1627.66 0 0 1 7.428-4.798c1.678-1.089 3.355-2.179 5.031-3.27 4.108-2.67 8.224-5.328 12.344-7.98a1143.29 1143.29 0 0 0-17.367 9.578l-3.242 1.828a4653.435 4653.435 0 0 0-6.602 3.735l-3.219 1.812-2.882 1.63C41.17 240.91 38.662 241.999 36 243c-9.47-10.653-16.655-24.876-19-39 .274-2.982.464-4.495 2.674-6.577l2.142-1.318 2.315-1.455 2.431-1.463 2.444-1.521A509.143 509.143 0 0 1 35 188l-2.195 1.207C18.584 197 18.584 197 16 197c-1.27-3.81-2.083-7.095-1-11 2.558-2.846 5.649-4.728 8.875-6.75l2.706-1.79a544.448 544.448 0 0 1 5.604-3.647c3.585-2.31 7.121-4.69 10.66-7.072 3.372-2.266 6.763-4.504 10.155-6.741-8.06 4.369-16.07 8.823-24.063 13.313l-6.66 3.738-2.93 1.646c-1.433.796-2.88 1.57-4.347 2.303a249.565 249.565 0 0 1-.25-5.75l-.14-3.234c.473-3.654 1.582-4.738 4.39-7.016l-3 1c.59-5.702 1.403-10.806 4-16l.313-3.125c1.01-5.692 3.504-10.1 6.687-14.875l.93-2.86c7.778-22.823 31.338-40.603 51.976-50.827C82.654 77.147 85.06 76.439 88 76c-1.523 3.864-3.826 5.72-7.063 8.25C75.8 88.338 70.874 92.602 66 97c8.24-3.993 16.19-8.327 24.063-13 3.97-2.348 7.95-4.681 11.937-7l2.969-1.758c8.775-5.043 8.775-5.043 14.469-4.68ZM130 119l-1 2 3-1-2-1Zm-75 38-1 2 3-1-2-1Zm-33 5-1 2 3-1-2-1Zm53 75-1 2 3-1-2-1Z"/><path fill="#76A757" d="M407.875 86.938c1.382.005 2.763.01 4.145.013 3.326.012 6.653.028 9.98.049v2h11v2c-1.744 1.42-1.744 1.42-4.156 3.04l-2.598 1.757-2.746 1.828-2.746 1.852A1535.15 1535.15 0 0 1 414 104c2.777-.926 4.761-1.983 7.238-3.504l2.487-1.494a640.51 640.51 0 0 0 5.14-3.14c8.146-4.86 8.146-4.86 13.135-3.862 2.633 1.39 2.633 1.39 5.125 3.25l2.508 1.828c2.294 1.863 4.393 3.721 6.367 5.922v2c-1.474 1.23-1.474 1.23-3.559 2.617l-2.336 1.574-2.543 1.684c-1.735 1.167-3.469 2.335-5.203 3.504l-2.69 1.809c-4.156 2.821-8.259 5.718-12.356 8.624l-2.23 1.58A5154.152 5154.152 0 0 0 420 130c13.278-6.852 26.13-14.415 39-22 3.012 2.865 4.676 5.028 6 9l-5 4 6-2c1.658 2.418 2.878 4.476 3.545 7.344-.732 3.568-2.64 4.621-5.576 6.577l-2.188 1.38-2.22 1.458a794.825 794.825 0 0 1-7.061 4.554c-1.59 1.035-3.18 2.072-4.77 3.11A1643.62 1643.62 0 0 1 436 151c3.144-1.048 5.698-2.43 8.586-4.055l3.32-1.863 3.469-1.957 3.445-1.934c5.994-3.34 5.994-3.34 11.858-6.899C469 133 469 133 472 133l.367 2.012c1.026 5.498 1.026 5.498 2.758 10.8 1.098 2.746 1.338 4.245.875 7.188-1.912 1.855-3.628 3.21-5.813 4.688l-1.928 1.36c-8.303 5.8-16.783 11.363-25.24 16.933l-1.758 1.16a3163.147 3163.147 0 0 1-4.793 3.154c-2.502 1.62-2.502 1.62-4.468 3.705a20044.13 20044.13 0 0 0 13.723-7.902c5.916-3.405 11.828-6.812 17.683-10.32l2.356-1.41c1.42-.851 2.835-1.709 4.248-2.573C474.67 159 474.67 159 478 159c1.104 3.475 1.603 6.38 1 10-3.107 3.499-7.003 5.626-11 8a494.106 494.106 0 0 0-3.852 2.496c-3.363 2.2-6.749 4.36-10.148 6.504 6.932-3.725 13.744-7.592 20.469-11.68C477 173 477 173 480 173c.338 2.708.67 5.416 1 8.125l.29 2.305c.18 1.499.345 3 .494 4.502.185 1.77.449 3.533.728 5.29-.593 3.216-1.047 3.548-3.555 5.454-1.368.9-2.75 1.777-4.144 2.637l-4.387 2.851c-.74.47-1.478.942-2.24 1.427-3.286 2.118-6.484 4.354-9.686 6.596l-3.219 2.231L453 216a1358.224 1358.224 0 0 0 18.163-9.999c1.636-.914 3.27-1.83 4.905-2.749l2.284-1.275 2.057-1.154C482 200 482 200 483 200c1.694 4.313 2.233 7.491 1 12-4.534 4.87-10.462 8.326-16.105 11.77-2.024 1.22-2.024 1.22-3.895 3.23l1.804-1.01c2.688-1.5 5.38-2.996 8.071-4.49l2.84-1.59 2.715-1.504 2.507-1.396C484 216 484 216 486 216c1.106 3.816 1.653 7.056 1 11-3.212 3.693-6.934 6.31-11 9l-1 1 2.336-1.313 3.039-1.687 3.023-1.688C486 231 486 231 488 231c.842 2.56 1.674 5.122 2.5 7.688l.723 2.185c1.222 3.825 2.088 7.06 1.777 11.127v1h2c2.624 4.495 2.165 8.053 1 13-3.325 6.783-9.379 11.155-16.313 13.875C476 281 476 281 473 281l2-5-2.816 1.68-3.747 2.195-1.845 1.105c-6.962 4.052-13.571 5.318-21.53 5.645l-2.36.117c-1.9.093-3.801.177-5.702.258 3.014-3.056 6.065-6.005 9.313-8.813l2.113-1.832L450 275l-2.816 1.61L436 283l-3.158 2.11c-4.31 2.45-8.195 2.403-13.057 2.28l-2.593-.017c-2.71-.022-5.42-.072-8.13-.123-1.846-.02-3.693-.038-5.54-.055-4.508-.044-9.015-.113-13.522-.195a468.623 468.623 0 0 1 9.207-7.234l2.275-1.739 2.33-1.777A450145892.7 450145892.7 0 0 1 412 270c-2.232 1.16-4.461 2.328-6.688 3.5l-2.057 1.076c-3.356 1.78-6.613 3.605-9.759 5.736-7.134 4.808-11.892 6.905-20.496 5.688l-2.238-.254A95.75 95.75 0 0 1 366 285c4.044-4.347 8.495-7.639 13.375-11l4.398-3.063 2.136-1.48A803.88 803.88 0 0 0 395 263c-7.701 3.7-15.078 7.853-22.438 12.188l-3.255 1.904c-5.721 3.345-5.721 3.345-11.307 6.908-2.996.047-2.996.047-6.438-.25l-3.433-.266c-2.888-.447-4.603-1.126-7.129-2.484l38-26a2897.739 2897.739 0 0 0-11 6l-2.046 1.12c-2.236 1.228-4.47 2.46-6.704 3.692l-2.33 1.28c-3.774 2.093-7.49 4.234-11.13 6.553l-2.006 1.264c-1.23.784-2.452 1.583-3.662 2.399-5.23 3.322-9.428 3.39-15.435 2.255L320 278v-2l-2.75-.25c-3.67-.847-4.949-1.83-7.25-4.75v-2c2.111-1.604 2.111-1.604 5.031-3.477l3.145-2.03 3.324-2.118 3.324-2.14c2.722-1.752 5.447-3.496 8.176-5.235-6.602 3.233-13.014 6.654-19.336 10.4-4.456 2.6-4.456 2.6-6.664 2.6-1.252-3.755-1.886-7.125-1-11 1.938-2.426 4.376-3.88 7-5.5l2.232-1.474a446.495 446.495 0 0 1 4.963-3.22c3.118-2.008 6.199-4.066 9.278-6.134 5.827-3.914 11.672-7.8 17.527-11.672-7.647 3.67-14.954 7.804-22.25 12.125a4259.932 4259.932 0 0 1-6.266 3.695l-2.758 1.634c-2.861 1.623-5.772 3.1-8.726 4.546.322-9.023 3.68-16.724 7-25l.742-2.47c1.678-3.374 3.716-4.605 6.852-6.667l1.658-1.107a593.768 593.768 0 0 1 5.248-3.444c1.751-1.155 3.5-2.314 5.248-3.475 1.583-1.049 3.172-2.089 4.762-3.129 2.523-1.619 2.523-1.619 4.49-3.708l-2.187 1.285c-2.67 1.567-5.34 3.133-8.012 4.696a4584.444 4584.444 0 0 0-5.182 3.042l-3.271 1.915-3.031 1.777C319 215 319 215 318 215c.14-2.125.288-4.25.438-6.375.08-1.183.162-2.367.246-3.586C319 202 319 202 320 200l-.035-2.758c-.071-8.755-.071-8.755 2.656-12.422a66.673 66.673 0 0 1 6.523-4.637c3.143-2.003 6.188-4.15 9.255-6.269a938.107 938.107 0 0 1 9.788-6.62c1.934-1.305 1.934-1.305 3.813-3.294l-2.323 1.361a3805.84 3805.84 0 0 1-8.566 4.993c-1.234.719-2.468 1.44-3.7 2.162-1.776 1.04-3.554 2.073-5.333 3.105l-3.237 1.889c-2.362 1.239-4.24 2.026-6.841 2.49.278-3.585.575-7.167.875-10.75l.238-3.078.254-2.969.222-2.73c.701-4.222 1.805-6.013 5.231-8.614l3.305-2.109 3.32-2.14L338 146l-12 6c-.42-6.73.652-12.317 5.188-17.5L333 133l-4 1c3.01-14.795 10.162-29.788 22.547-38.867C356.202 92.185 360.62 90.17 366 89l1 1c2.075-.064 2.075-.064 4.438-.375l2.433-.273C376.046 89.1 376.046 89.1 378 88c9.925-1.155 19.898-1.126 29.875-1.063ZM456 122l-1 2 3-1-2-1Zm-24 31-1 2 3-1-2-1Zm-86 45-1 2 3-1-2-1Zm104 19-1 2 3-1-2-1Zm-101 8-1 2 3-1-2-1Zm-14 26-1 2 3-1-2-1Zm46 1-1 2 3-1-2-1Zm16 8-1 2 3-1-2-1Z"/><path fill="#D7D8E6" d="m255 285-6 8 2.414-1.602 3.211-2.023 3.164-2.04C261 286 261 286 264.25 286.689c2.548 1.216 4.6 2.492 6.75 4.312-.463 4.292-2.902 6.03-6.063 8.75l-2.785 2.422L260 304l2.23-1.277 2.957-1.66 2.918-1.653c2.702-1.316 4.939-1.983 7.895-2.41 5.513 8.703 7.298 18.542 9.447 28.465.368 1.686.748 3.37 1.141 5.05l.557 2.387.499 2.106C288 337 288 337 288 341l-1 1h2l2 11c-8.824 7.263-17.638 14.435-27 21 5.1-2.756 10.188-5.529 15.223-8.402l2.175-1.239a986.831 986.831 0 0 0 4.293-2.462C290.778 359 290.778 359 293 359c1.48 4.438 2.44 7.493 1 12-1.607 1.742-1.607 1.742-3.684 3.305l-2.299 1.759-2.454 1.811-2.47 1.87C277.49 383.963 271.83 388.103 266 392c5.243-2.84 10.473-5.698 15.668-8.625l2.446-1.374c1.624-.912 3.246-1.829 4.866-2.749l2.274-1.275 2.041-1.154C295 376 295 376 297 376a7200.71 7200.71 0 0 1 3 13.313l.867 3.826.82 3.662.762 3.38C303 403 303 403 303 406c-2.625 2.043-2.625 2.043-6 4.188l-1.734 1.115c-1.416.908-2.84 1.804-4.266 2.697l2.336-1.313 3.039-1.687 3.023-1.688C302 408 302 408 304 408l2 11c-6.781 5.685-13.663 11.05-21 16l4.938-2.688 3.027-1.644c1.897-1.043 3.787-2.1 5.664-3.18l2.371-1.363 2.125-1.242C305 424 305 424 308 424c.675 3.06 1.339 6.124 2 9.188l.578 2.619.547 2.548.508 2.333c.397 2.5.528 4.785.367 7.312-1.5 1.813-1.5 1.813-3 3l4-2c.49 1.33.966 2.664 1.438 4l.808 2.25c.96 3.502 1.304 7.147 1.754 10.75h-89l4-5-1.562 1.083c-6.443 4.065-11.499 4.552-19 4.23l-3.057-.069c-2.462-.058-4.92-.14-7.381-.244l3-4-2.25 1.5C199 465 199 465 195 465c.656-4.406 1.665-8.59 2.875-12.875 1.16-4.14 2.19-8.239 2.879-12.484l.354-2.161c.314-2.004.602-4.011.888-6.02 2.066-7.121 9.11-10.982 14.816-15.272l2.39-1.811c1.93-1.462 3.863-2.921 5.798-4.377-6.433 3.168-12.763 6.46-19 10 .06-2.063.15-4.126.25-6.188l.14-3.48c1.184-6.471 5.933-9.607 10.985-13.332 1.113-.832 2.225-1.665 3.336-2.5l1.64-1.23c2.615-2.014 5.13-4.138 7.649-6.27l-1.728 1.01a6753.002 6753.002 0 0 1-7.71 4.49l-2.72 1.59-2.588 1.504-2.396 1.396C211 398 211 398 210 398c.115-1.917.242-3.834.375-5.75l.21-3.234c.397-2.882 1.11-4.482 2.415-7.016.309-2.31.309-2.31.375-4.813.52-6.987 1.58-18.141 6.625-23.187l-1-1c.456-7.96 2.496-15.405 4.625-23.063l.538-1.943c9.394-33.699 9.394-33.699 21.837-41.994 2.957-1.478 5.742-1.06 9-1Zm-28 122-1 2 3-1-2-1Z"/><path fill="#BDC0CF" d="m480.625 292.938 2.43.013c1.981.012 3.963.03 5.945.049v2l2.375.375C494 296 494 296 496 298c.649 4.214.227 8.156-.875 12.25-5.458 7.063-14.957 8.937-23.406 10.05-1.513.174-3.028.335-4.543.481-2.024.204-4.038.49-6.051.781-5.027.652-10.066.522-15.125.438v-2l-1.736.988c-2.405 1.075-3.877 1.246-6.487 1.207l-2.38-.02-2.46-.05-2.47-.027a714.618 714.618 0 0 1-4.538-.066A299.714 299.714 0 0 0 421 322h-18a56.54 56.54 0 0 1 4-7l-1.533 1.3c-8.542 6.22-17.011 5.39-27.092 5.075-1.689-.03-3.378-.058-5.066-.082A861.933 861.933 0 0 1 361 321c1.43-2.967 2.938-5.278 5.125-7.75l1.633-1.86L369 310l-2.922 1.68-3.828 2.195-1.922 1.105A846.66 846.66 0 0 1 355 318l-1.918 1.11c-2.441 1.044-4.2 1.12-6.848 1.085l-2.695-.02-2.789-.05-2.836-.027c-2.305-.024-4.61-.057-6.914-.098 1.838-3.151 3.76-6.12 6-9l-2.656 1.969c-12.078 8.196-23.101 8.075-37.344 7.031l-.867-3.078c-1.344-4.708-2.842-9.366-4.328-14.031C291 300 291 300 291 297c4.469-4.036 9.663-3.343 15.313-3.188l2.822.042c2.288.035 4.577.089 6.865.146l-5 7 2.336-1.277 3.039-1.66 3.023-1.653c4.733-2.565 8.444-2.539 13.766-2.508l2.75.005c2.903.005 5.807.018 8.711.03A7368.697 7368.697 0 0 1 365 294l-6 9 2.797-1.969c11.148-7.313 20.076-8.12 33.203-7.031l-1.277 1.68-1.66 2.195-1.653 2.18c-1.45 1.889-1.45 1.889-2.41 3.945l2.418-2.188C405.303 290.166 424.16 293.096 442 294l-5 6 1.633-1.313c9.21-6.235 18.563-5.223 29.295-4.669 4.147-.036 8.288-1.127 12.697-1.08Z"/><path fill="#BCBFCE" d="M15 294h8l-1 7c1.98-.977 3.96-1.956 5.938-2.938l3.34-1.652c2.57-1.157 2.57-1.157 3.722-2.41a69.436 69.436 0 0 1 4.473-.098l2.724.01 2.865.026 2.877.013c2.354.012 4.707.028 7.061.049-1.714 3.552-3.777 6.74-6 10l5.063-2.75 2.847-1.547c3.128-1.635 3.128-1.635 5.906-3.785 5.597-3.178 11.969-2.408 18.211-2.309 1.358.008 2.716.014 4.073.018 3.553.015 7.105.054 10.658.098 3.633.041 7.267.06 10.9.08 7.114.042 14.228.11 21.342.195a74.236 74.236 0 0 1-7 10l3.016-2.188c11.477-7.797 20.293-9.086 33.984-7.812l-2 4 2.848-1.984c4.764-2.723 9.232-2.467 14.59-2.266l2.794.055c2.257.046 4.512.112 6.768.195l-2 4 2.848-1.984c4.764-2.723 9.232-2.467 14.59-2.266l2.794.055c2.257.046 4.512.112 6.768.195v2l3-2c3.355-.195 3.355-.195 7.188-.125l3.855.055L225 294l-1.207 2.422c-3.24 6.717-5.588 12.833-6.762 20.215C216 319 216 319 213.492 320.324c-4.35.842-8.45.893-12.867.801l-2.52-.027c-2.035-.024-4.07-.06-6.105-.098l5-6-1.992 1.313c-9.389 5.495-17.389 5.324-28.008 4.687l-1-2-1.73.988c-2.436 1.086-3.953 1.245-6.598 1.207l-2.422-.02-2.5-.05-2.547-.027c-2.068-.024-4.135-.06-6.203-.098l2-4c-2.58.496-4.303 1.18-6.594 2.531-4.286 1.848-7.683 1.808-12.281 1.656l-2.375-.04A488.816 488.816 0 0 1 119 321l1-4-3.406 1.984c-4.78 2.39-8.836 2.489-14.094 2.266l-2.492-.055A395.705 395.705 0 0 1 94 321c1.825-3.923 4.183-6.738 7-10l-2.125 1.172L96 313.75l-2.813 1.547L90 317l-1.675 1.023c-5.762 3.295-10.78 3.562-17.325 3.508l-3.137.012c-2.178.003-4.357-.005-6.535-.022-3.318-.02-6.635 0-9.953.026-2.125-.003-4.25-.008-6.375-.016l-2.98.025C35.607 321.469 31.526 320.28 26 317l5-8-3.25 2c-3.06 1.883-3.884 2-7.75 2-3.676-4.727-5.14-8.262-5.063-14.188l.028-2.73L15 294Z"/><path fill="#BEC0D0" d="M307.858 471.925c3.047-.053 6.094-.088 9.142-.113l2.577-.039c4.544-.007 8.143.492 12.423 2.227l-2 5 2.25-1.625C335 476 335 476 337.062 476.5c3.736 2.892 6.062 5.857 6.938 10.5.162 1.683.264 3.372.312 5.062l.114 2.598C344 497 344 497 342.59 498.797c-4.037 1.875-7.952 1.517-12.34 1.39l-2.691-.04A538.028 538.028 0 0 1 321 500l1-4-2.879 1.984c-4.63 2.646-8.846 2.472-14.059 2.266l-2.65-.055A455.17 455.17 0 0 1 296 500a56.54 56.54 0 0 1 4-7l-2.082 1.277-2.73 1.66-2.708 1.653c-3.361 1.91-5.908 2.535-9.71 2.508l-2.432-.01-2.526-.026-2.56-.013c-2.084-.012-4.168-.03-6.252-.049v-3l-2.458 1.482c-4.31 1.847-7.6 1.903-12.222 1.811l-2.463-.013a923.787 923.787 0 0 1-7.732-.093c-1.755-.015-3.51-.028-5.266-.04-4.286-.033-8.573-.085-12.859-.147l6-8-2.867 1.75c-10.629 6.097-19.003 7.26-31.133 6.25l-1-2-1.73.988c-2.436 1.086-3.953 1.245-6.598 1.207l-2.422-.02-2.5-.05-2.547-.027c-2.068-.024-4.135-.06-6.203-.098l-1-2h-4c-2.976-5.02-2.73-10.342-2-16 1.547-3.72 3.312-7.156 7-9 2.333-.04 4.667-.043 7 0-1.225 4.053-2.699 7.444-5 11 4.117-2.114 5.723-4.04 8-8 2.455-2.452 3.796-2.978 7.29-3.36l3.957.02 2.189-.002c2.381.002 4.761.026 7.142.049a2603.983 2603.983 0 0 1 18 .087c4.438.03 8.875.044 13.313.06 8.703.032 17.406.083 26.109.146l-6 7a175479543.918 175479543.918 0 0 0 6.152-4.59c1.761-1.28 1.761-1.28 2.848-2.41 2.553-.161 5.081-.26 7.637-.316l2.373-.064c2.56-.066 5.118-.125 7.677-.183l2.618-.062c7.184-.17 14.368-.31 21.553-.45Z"/><path fill="#63864C" d="M408.563 15.5 411 17l-1.242 1.426-1.633 1.887-1.617 1.863c-1.672 1.959-1.672 1.959-3.508 4.824l1.828-1.129 2.422-1.433 2.39-1.442c2.684-1.133 3.702-1.072 6.36.004l1 1c1.853.072 3.708.084 5.563.063l3.066-.028L428 24c-4.273 5.234-8.816 9.671-14 14l2.852-1.645 3.773-2.167 1.871-1.08c10.541-6.048 10.541-6.048 14.504-6.295 4.55 1.8 6.768 4.907 9 9.187.717 4.156.478 6.104-1.5 9.813-1.358 1.822-2.805 3.55-4.266 5.292C432.128 60.888 426.334 70.706 423 83h-43l-1.242-3.395-1.633-4.418-.816-2.236-.801-2.158-.73-1.984c-.833-2.088-.833-2.088-2.778-4.809.14-2.987.974-3.973 3.066-6.14l2.497-2.11 2.503-2.14L382 52l-2.3 1.313c-.995.556-1.989 1.113-3.012 1.687l-2.989 1.688C371 58 371 58 368 58c-1.387-1.531-1.387-1.531-2.688-3.5l-1.324-1.969L363 51c1.65-4.292 4.738-6.88 8-10l-2.082 1.129-2.73 1.434-2.708 1.44C361 46 361 46 358 45c-2.286-3.25-2.467-6.11-2-10 2.484-4.776 5.25-7.485 10-10 3.875-.75 3.875-.75 7-1v3l3-2c1.45-.293 2.91-.54 4.375-.75 4.949-1 6.587-3.227 9.625-7.25 5.937-4.048 12.059-4.239 18.563-1.5ZM405.375 78 402 80v1c2.33.419 2.33.419 5 0 2.336-2.399 2.336-2.399 4-5-2.463 0-3.52.753-5.625 2Z"/><path fill="#282927" d="M405 150c1.875 1.125 1.875 1.125 3 3 .188 3.188.188 3.188 0 6l1.723.297c5.506 1.066 9.55 2.686 14.277 5.703-.336 2.52-.574 3.672-2.625 5.25-3.87 1.222-7.49 1.652-11.254-.148L408.188 169c-4.555-2.514-9.074-2.817-14.188-2-2.56 2.56-2.315 4.429-2.46 7.93.668 3.003 2.138 4.084 4.46 6.07 2.835 1.27 2.835 1.27 6.008 2.184 1.15.37 2.302.74 3.488 1.123 2.425.755 4.852 1.505 7.281 2.25l3.48 1.127 3.193.986c2.55 1.33 2.55 1.33 3.885 3.729 1.355 5.3 1.474 9.043-1.022 13.851-3.214 3.821-6.637 6.88-11.313 8.75h-3l-.188 2.813C407 221 407 221 404.875 222.875c-3.45 1.35-6.2 1.341-9.875 1.125v-8l-1.688-.043c-6.28-.393-10.279-2.24-15.312-5.957.79-3.844.79-3.844 2.688-5.25 3.119-1.012 5.02-1.185 8.312-.75a88.92 88.92 0 0 1 4.375 2.5c4.576 2.708 7.347 3.305 12.625 2.5 3.245-2.163 3.872-3.444 4.75-7.25L411 199c-4.351-4.058-8.915-5.638-14.438-7.5-15.425-5.225-15.425-5.225-18.562-11.5-.512-4.538-.46-6.956 1.375-11.125 3.609-3.952 7.79-6.598 12.625-8.875h3l-.25-2.75c.25-3.25.25-3.25 1.875-5.625 3.053-2.089 4.745-2.166 8.375-1.625Z"/><path fill="#27292A" d="M120.688 106c2.312 1 2.312 1 4.312 4 2.68 10.332 2.057 20.83 1.625 31.375a4677.03 4677.03 0 0 0-.336 9.523l-.084 2.318c-.251 7.263-.266 14.517-.205 21.784l2.798.687c3.43.847 6.856 1.703 10.282 2.566 1.482.371 2.965.739 4.45 1.103a868.73 868.73 0 0 1 6.396 1.601l2.008.483c3.466.894 5.84 1.673 8.066 4.56-1.25 3.653-1.671 4.78-5 7-2.797-.296-2.797-.296-6-1-1.006-.198-2.012-.397-3.049-.6-3.465-.726-6.927-1.467-10.388-2.213l-3.643-.751c-7.292-1.581-13.504-3.02-18.92-8.436-.274-2.826-.274-2.826-.306-6.482l-.026-2.016a831.18 831.18 0 0 1-.04-6.615l-.026-4.597c-.017-3.215-.025-6.43-.028-9.646-.005-4.116-.043-8.232-.088-12.348-.03-3.166-.037-6.332-.038-9.499a413.971 413.971 0 0 0-.038-4.551c-.027-2.126-.022-4.25-.01-6.376l-.015-3.663c.886-4.623 3.318-8.207 8.302-8.207Z"/><path fill="#2A2A2A" d="M257.688 311.563C260 312 260 312 262 314c.336 2.277.336 2.277.375 4.938l.086 2.652C262 324 262 324 260.207 325.8c-3.133 1.703-5.707 1.464-9.207 1.2-1.56-1.56-1.282-3.089-1.375-5.25.042-3.745.278-4.615 2.563-7.813C255 312 255 312 257.688 311.563Z"/><path fill="#64874D" d="M408 87h14l-4 2a445.458 445.458 0 0 0-4.152 2.277l-2.354 1.307-2.432 1.353-2.42 1.342c-3.218 1.79-6.406 3.572-9.52 5.537C395 102 395 102 392 102c1.401-4.204 4.476-5.68 8-8.063 4.668-2.837 4.668-2.837 8-6.937Z"/><path fill="#D7D8E7" d="M197 473c-9.429 8-9.429 8-14 8 .314-2.932 1.039-4.042 3.063-6.25 3.961-2.36 6.383-2.059 10.937-1.75Z"/><path fill="#D6D7E5" d="m313 471.5 3 .5c-2.405 2.635-5.019 4.403-8.063 6.25l-2.66 1.64L303 481l-2-1c7.37-8.576 7.37-8.576 12-8.5Z"/><path fill="#6FA552" d="M365 83v2c-2.1.866-4.205 1.717-6.313 2.563l-3.55 1.44C352 90 352 90 349 89c10.374-6.888 10.374-6.888 16-6Z"/><path fill="#D6D8E7" d="m269.5 472.563 2.5.437c-3.798 3.223-7.574 5.745-12 8l-2-1c6.897-6.862 6.897-6.862 11.5-7.438Z"/><path fill="#719D55" d="m347 90 2 1c-1.77 1.292-3.541 2.584-5.313 3.875l-2.988 2.18A190.048 190.048 0 0 1 335 101c.35-2.83.768-3.806 2.996-5.668l2.442-1.52 2.433-1.542C345 91 345 91 347 90Z"/><path fill="#B6B7C6" d="m234 312 2 1a516.663 516.663 0 0 1-3.375 3.5l-1.898 1.969C229 320 229 320 227 320l2-7 2 1 3-2Z"/><path fill="#D2D3E2" d="M327 478h2c-.125 1.813-.125 1.813-1 4-3.063 1.75-3.063 1.75-6 3v-2h2l.938-1.938C326 479 326 479 327 478Z"/></svg>