<svg xmlns="http://www.w3.org/2000/svg" width="9" height="102" fill="none"><path fill="#B3B8BA" d="M9 0H0v102h9V0Z"/><path fill="#D3D6D8" fill-rule="evenodd" d="M8.372 6.417v89.166c0 .492-.126.963-.35 1.31-.224.347-.528.543-.844.545H1.614c-.317-.001-.62-.197-.845-.545-.224-.347-.35-.818-.35-1.31V6.418c0-.491.126-.962.35-1.31.224-.347.528-.543.845-.545h5.564c.316.002.62.198.844.545.224.348.35.819.35 1.31Z" clip-rule="evenodd"/><path fill="#B3B8BA" fill-rule="evenodd" d="M4.186 6.248v89.5c0 .189-.05.37-.138.502-.088.134-.208.209-.333.21H1.519c-.125 0-.245-.076-.333-.21a.926.926 0 0 1-.14-.501v-89.5c.002-.189.052-.369.14-.501.089-.133.208-.208.333-.208h2.196c.125 0 .244.076.332.208a.924.924 0 0 1 .14.5Z" clip-rule="evenodd"/><path fill="#EAECEC" d="M6.174 5.54c-.752 0-1.36.973-1.36 2.172v86.576c0 1.2.608 2.172 1.36 2.172.752 0 1.36-.972 1.36-2.172V7.712c0-1.2-.608-2.172-1.36-2.172Z"/><path fill="#fff" fill-rule="evenodd" d="M7.326 8.625v35.86c0 .216-.056.422-.154.574-.098.152-.23.238-.37.238-.138 0-.271-.086-.37-.238a1.08 1.08 0 0 1-.153-.573V8.626c.002-.214.058-.418.156-.569.098-.15.23-.235.368-.236.137.001.27.086.367.236.098.15.154.355.156.568Z" clip-rule="evenodd"/></svg>