<svg xmlns="http://www.w3.org/2000/svg" width="9" height="102" fill="none"><path fill="url(#a)" d="M0 0h9v102H0z"/><path fill="#000" d="M4.5 89a.5.5 0 1 1 0 1 .5.5 0 0 1 0-1ZM2.5 85a.5.5 0 1 1 0 1 .5.5 0 0 1 0-1ZM7.5 73a.5.5 0 1 1 0 1 .5.5 0 0 1 0-1ZM4.5 73a.5.5 0 1 1 0 1 .5.5 0 0 1 0-1ZM2.5 67a.5.5 0 1 1 0 1 .5.5 0 0 1 0-1ZM7.5 43a.5.5 0 1 1 0 1 .5.5 0 0 1 0-1ZM2.5 35a.5.5 0 1 1 0 1 .5.5 0 0 1 0-1ZM7.5 25a.5.5 0 1 1 0 1 .5.5 0 0 1 0-1ZM4.5 20a.5.5 0 1 1 0 1 .5.5 0 0 1 0-1ZM2.5 22a.5.5 0 1 1 0 1 .5.5 0 0 1 0-1Z"/><path fill="url(#b)" d="M2.5 95a1.5 1.5 0 1 1 0 3 1.5 1.5 0 0 1 0-3Z"/><path fill="url(#c)" d="M2.5 42a1.5 1.5 0 1 1 0 3 1.5 1.5 0 0 1 0-3Z"/><path fill="url(#d)" d="M6.5 60a1.5 1.5 0 1 1 0 3 1.5 1.5 0 0 1 0-3Z"/><path fill="#000" d="M2.75 95c.69 0 1.25.672 1.25 1.5S3.44 98 2.75 98s-1.25-.672-1.25-1.5.56-1.5 1.25-1.5ZM2.75 42c.69 0 1.25.672 1.25 1.5S3.44 45 2.75 45s-1.25-.672-1.25-1.5.56-1.5 1.25-1.5ZM6.75 60c.69 0 1.25.672 1.25 1.5S7.44 63 6.75 63s-1.25-.672-1.25-1.5.56-1.5 1.25-1.5ZM6.5 81a1.5 1.5 0 1 1 0 3 1.5 1.5 0 0 1 0-3ZM2.5 4a1.5 1.5 0 1 1 0 3 1.5 1.5 0 0 1 0-3Z"/><defs><linearGradient id="a" x1="0" x2="9" y1="37.886" y2="37.886" gradientUnits="userSpaceOnUse"><stop stop-color="#C6B6B6"/><stop offset="1" stop-color="#927A7A"/></linearGradient><linearGradient id="b" x1="2.5" x2="2.5" y1="98" y2="95" gradientUnits="userSpaceOnUse"><stop stop-color="#75ACDE"/><stop offset=".475" stop-color="#FCFBFC"/><stop offset="1" stop-color="#7EB1DF"/></linearGradient><linearGradient id="c" x1="2.5" x2="2.5" y1="45" y2="42" gradientUnits="userSpaceOnUse"><stop stop-color="#75ACDE"/><stop offset=".475" stop-color="#FCFBFC"/><stop offset="1" stop-color="#7EB1DF"/></linearGradient><linearGradient id="d" x1="6.5" x2="6.5" y1="63" y2="60" gradientUnits="userSpaceOnUse"><stop stop-color="#75ACDE"/><stop offset=".475" stop-color="#FCFBFC"/><stop offset="1" stop-color="#7EB1DF"/></linearGradient></defs></svg>