<svg xmlns="http://www.w3.org/2000/svg" width="40" height="40" fill="none"><rect width="40" height="40" fill="#D3054F" rx="20"/><path fill="#fff" d="m25.534 13.454-2.03 2.032a5.69 5.69 0 0 0-3.504-1.2 5.69 5.69 0 0 0-3.504 1.2l-2.03-2.032A8.537 8.537 0 0 1 20 11.43c2.11 0 4.043.762 5.534 2.025Zm1.012 1.012A8.537 8.537 0 0 1 28.57 20c0 2.11-.762 4.043-2.025 5.534l-2.032-2.03a5.698 5.698 0 0 0 1.2-3.504c0-1.32-.448-2.536-1.2-3.504l2.032-2.03Zm-1.012 12.08A8.537 8.537 0 0 1 20 28.57a8.537 8.537 0 0 1-5.534-2.025l2.03-2.032a5.69 5.69 0 0 0 3.504 1.2c1.32 0 2.536-.448 3.504-1.2l2.03 2.032Zm-12.08-1.012A8.537 8.537 0 0 1 11.43 20c0-2.11.762-4.043 2.025-5.534l2.032 2.03a5.69 5.69 0 0 0-1.2 3.504c0 1.32.448 2.536 1.2 3.504l-2.032 2.03Zm9.315-8.805A4.27 4.27 0 0 1 24.286 20a4.268 4.268 0 0 1-1.517 3.271A4.27 4.27 0 0 1 20 24.286a4.268 4.268 0 0 1-3.271-1.517A4.27 4.27 0 0 1 15.714 20a4.268 4.268 0 0 1 1.517-3.271A4.27 4.27 0 0 1 20 15.714c1.056 0 2.021.382 2.769 1.015ZM20 10a10 10 0 1 0 0 20 10 10 0 0 0 0-20Z"/></svg>