<svg width="309" height="271" viewBox="0 0 309 271" fill="none" xmlns="http://www.w3.org/2000/svg">
<path fill-rule="evenodd" clip-rule="evenodd" d="M48.0784 165.769L48.1126 165.82L46.6592 163.37C46.6264 163.315 46.5915 163.262 46.5546 163.209L46.5532 163.207C46.5138 163.151 46.4721 163.097 46.4281 163.044L46.3912 163.003C46.3583 162.965 46.3241 162.927 46.2886 162.891L46.2811 162.883C46.2709 162.873 46.2586 162.864 46.2476 162.853C46.2066 162.813 46.1642 162.775 46.1205 162.738C45.9984 162.636 45.8668 162.546 45.7274 162.469C45.7055 162.456 45.6843 162.443 45.6624 162.432C45.5919 162.396 45.5198 162.362 45.4464 162.332L16.6617 150.691C16.5805 150.658 16.4977 150.629 16.4136 150.605C16.3876 150.598 16.3609 150.593 16.335 150.587C16.2782 150.572 16.2222 150.557 16.1654 150.546H16.1613L16.1346 150.542C16.0649 150.53 15.9946 150.521 15.9241 150.514C15.8974 150.512 15.8708 150.511 15.8448 150.51C15.8079 150.507 15.7716 150.504 15.7354 150.503L15.7005 150.505C15.5971 150.504 15.4937 150.509 15.3908 150.52L15.3833 150.521C15.2903 150.532 15.1987 150.548 15.1078 150.569L15.0818 150.573C15.0593 150.578 15.0381 150.587 15.0169 150.592C14.9553 150.608 14.8938 150.625 14.8336 150.646C14.8186 150.65 14.8029 150.654 14.7878 150.659C14.7701 150.665 14.7537 150.674 14.7366 150.68C14.675 150.703 14.6162 150.728 14.5575 150.756C14.5383 150.764 14.5178 150.771 14.4987 150.78C14.4891 150.784 14.4802 150.791 14.4713 150.796C14.3797 150.842 14.2895 150.891 14.204 150.946L14.2019 150.948C14.1377 150.99 14.0752 151.035 14.0146 151.082C13.9962 151.095 13.9791 151.111 13.9599 151.126C13.9326 151.149 13.9032 151.171 13.8765 151.195C13.8649 151.205 13.8553 151.217 13.8444 151.227C13.8061 151.263 13.7689 151.299 13.733 151.337C13.7056 151.364 13.6796 151.391 13.6537 151.419C13.6175 151.461 13.5826 151.503 13.5491 151.547C13.5265 151.575 13.5039 151.603 13.4827 151.632C13.4472 151.681 13.4144 151.733 13.3816 151.785C13.3652 151.812 13.3474 151.836 13.3323 151.864C13.2859 151.944 13.2435 152.027 13.2045 152.113L0.504912 180.819C0.339063 181.189 0.264302 181.593 0.286904 181.997C0.309506 182.402 0.428813 182.795 0.634808 183.144L2.08758 185.593C2.07732 185.577 2.07048 185.558 2.06023 185.541C2.33627 186.035 2.77291 186.42 3.29764 186.631L32.0823 198.272C33.4031 198.806 34.9598 198.166 35.5416 196.85L48.2418 168.144C48.4117 167.765 48.4857 167.35 48.4572 166.936C48.4287 166.522 48.2986 166.121 48.0784 165.769Z" fill="black"/>
<path fill-rule="evenodd" clip-rule="evenodd" d="M2.30907 185.403C2.55317 185.841 2.94004 186.181 3.40497 186.367L32.1889 198.008C33.3716 198.486 34.7595 197.915 35.2818 196.735L47.982 168.03C48.1328 167.693 48.1985 167.325 48.1735 166.957C48.1485 166.589 48.0334 166.233 47.8385 165.92L47.8398 165.918L46.4144 163.516C46.3541 163.414 46.2855 163.317 46.2093 163.226L46.1779 163.192C46.1478 163.158 46.1184 163.124 46.087 163.091L46.264 162.868L46.048 163.055C46.0128 163.021 45.9763 162.987 45.9386 162.955L45.8887 162.916C45.8512 162.887 45.8129 162.858 45.7738 162.83L45.7137 162.791C45.6733 162.765 45.632 162.74 45.5899 162.717L45.5325 162.685C45.4698 162.652 45.4054 162.622 45.3397 162.595L16.5558 150.955C16.4835 150.925 16.4098 150.9 16.3349 150.879L16.2652 150.862C16.2092 150.848 16.1709 150.838 16.136 150.83L16.1087 150.825C16.0388 150.813 15.9686 150.804 15.8981 150.798L15.7901 150.791C15.7696 150.79 15.7511 150.788 15.7313 150.788C15.7151 150.789 15.6989 150.79 15.6827 150.789C15.598 150.789 15.5152 150.793 15.4325 150.801L15.412 150.804C15.3307 150.814 15.2499 150.828 15.17 150.846L15.0893 150.867C15.0336 150.881 14.9784 150.897 14.9239 150.915L14.835 150.947C14.781 150.967 14.7276 150.99 14.675 151.013L14.6019 151.048C14.5181 151.089 14.4368 151.135 14.3585 151.185L14.3332 151.201C14.284 151.236 14.2361 151.27 14.1896 151.306L14.1117 151.37C14.096 151.382 14.0807 151.394 14.0659 151.408L14.0351 151.438C14.0009 151.469 13.9681 151.502 13.936 151.536L13.9148 151.558C13.8633 151.609 13.8157 151.664 13.7726 151.723L13.7487 151.752L13.7118 151.8C13.681 151.843 13.6516 151.89 13.6229 151.936L13.5784 152.006C13.5374 152.078 13.4985 152.152 13.4643 152.229L0.764008 180.934C0.617614 181.263 0.551671 181.621 0.571646 181.98C0.591621 182.339 0.696937 182.689 0.878862 182.999L2.30497 185.404L2.30839 185.402L2.30907 185.403ZM33.0578 198.745C32.6871 198.746 32.3199 198.674 31.9763 198.535L3.19167 186.896C2.627 186.67 2.15331 186.262 1.84487 185.738L1.84282 185.74L0.39005 183.29C0.161846 182.902 0.0296432 182.464 0.00443518 182.014C-0.0207729 181.565 0.0617432 181.115 0.245117 180.704L12.9447 151.998C12.9871 151.903 13.0349 151.812 13.0855 151.722L13.1245 151.661L13.1409 151.636C13.1765 151.578 13.2127 151.521 13.2523 151.465C13.2701 151.442 13.2879 151.419 13.307 151.396L13.3262 151.372C13.3638 151.324 13.4014 151.276 13.4424 151.231C13.4638 151.207 13.4857 151.184 13.508 151.161L13.5279 151.14C13.5689 151.097 13.6099 151.057 13.6523 151.017C13.6856 150.985 13.7205 150.955 13.7569 150.926L13.8417 150.857C13.9073 150.806 13.9757 150.756 14.0468 150.71L14.0741 150.693C14.1561 150.641 14.2443 150.592 14.3435 150.542C14.3704 150.527 14.3982 150.514 14.4269 150.503C14.5041 150.468 14.5691 150.44 14.6354 150.415C14.6607 150.404 14.6764 150.397 14.6935 150.391L14.7393 150.378C14.8104 150.354 14.8774 150.335 14.9458 150.317C14.9786 150.307 14.9963 150.302 15.0155 150.297L15.0551 150.29C15.1468 150.27 15.2479 150.251 15.3498 150.239L15.3607 150.238C15.4741 150.227 15.588 150.222 15.7019 150.222C15.7108 150.22 15.7265 150.22 15.7429 150.22C15.7702 150.22 15.801 150.222 15.8318 150.224L15.948 150.231C16.0273 150.239 16.1052 150.248 16.1832 150.262L16.2174 150.267C16.2721 150.278 16.3261 150.291 16.3801 150.305L16.4272 150.317C16.4498 150.321 16.4724 150.326 16.4949 150.333C16.5852 150.36 16.6775 150.391 16.7684 150.428L45.553 162.069C45.6364 162.103 45.7157 162.14 45.7937 162.181C45.9755 162.276 46.1465 162.39 46.3037 162.521C46.3515 162.562 46.3994 162.605 46.4452 162.649C46.503 162.7 46.5563 162.756 46.6045 162.817L46.6455 162.862C46.7411 162.976 46.8272 163.098 46.9032 163.226L48.354 165.672L48.3567 165.677L48.3553 165.678C48.584 166.065 48.7166 166.502 48.742 166.951C48.7675 167.401 48.6851 167.85 48.5016 168.261L35.8014 196.966C35.3112 198.073 34.2037 198.746 33.0578 198.746V198.745Z" fill="black"/>
<path fill-rule="evenodd" clip-rule="evenodd" d="M46.9 164.782C48.2208 165.315 48.8238 166.829 48.242 168.145L35.5417 196.85C34.96 198.166 33.4039 198.806 32.0824 198.272L3.29849 186.631C1.97904 186.098 1.37605 184.584 1.95784 183.268L14.6581 154.563C15.2399 153.247 16.7959 152.607 18.1154 153.141L46.8993 164.782H46.9Z" fill="white"/>
<path fill-rule="evenodd" clip-rule="evenodd" d="M17.6277 153.045C17.1581 153.046 16.6988 153.183 16.305 153.438C15.9113 153.694 15.5997 154.059 15.4079 154.487L2.70764 183.192C2.58285 183.469 2.51548 183.768 2.5096 184.072C2.50373 184.375 2.55947 184.677 2.67346 184.958C2.89906 185.517 3.33318 185.95 3.89446 186.177L32.6791 197.817C33.8618 198.295 35.2496 197.725 35.772 196.544L48.4722 167.839C48.7245 167.269 48.7361 166.643 48.5064 166.074C48.3956 165.799 48.23 165.549 48.0196 165.339C47.8093 165.129 47.5586 164.964 47.2827 164.854L18.4987 153.214C18.2219 153.102 17.9262 153.044 17.6277 153.045ZM33.5473 198.555C33.1767 198.555 32.8094 198.484 32.4658 198.345L3.68185 186.704C3.33566 186.566 3.02114 186.358 2.75732 186.095C2.49351 185.832 2.28589 185.518 2.14704 185.172C2.00431 184.82 1.93435 184.443 1.9414 184.063C1.94845 183.683 2.03236 183.309 2.18806 182.963L14.8883 154.257C15.533 152.799 17.2483 152.094 18.712 152.686L47.496 164.327C47.8426 164.465 48.1576 164.673 48.4218 164.936C48.686 165.2 48.8938 165.515 49.0328 165.861C49.3213 166.574 49.3063 167.358 48.9918 168.069L36.2915 196.775C35.802 197.882 34.6938 198.555 33.5473 198.555Z" fill="black"/>
<path fill-rule="evenodd" clip-rule="evenodd" d="M84.9131 81.1235C84.9099 81.1091 84.9064 81.0948 84.9029 81.0804C84.896 81.0476 84.8892 81.0141 84.881 80.982C84.8728 80.9512 84.8632 80.9218 84.8543 80.8918L84.8393 80.8405L84.8304 80.8111C84.8103 80.7511 84.7882 80.6918 84.7641 80.6333L84.7593 80.6238L84.7388 80.5773C84.7183 80.5315 84.6978 80.4857 84.6759 80.4412C84.6704 80.4317 84.6643 80.4228 84.6595 80.4132C84.641 80.3776 84.6205 80.3442 84.6007 80.3093C84.585 80.2819 84.5706 80.2525 84.5528 80.2252L84.5371 80.2026C84.4805 80.1141 84.4191 80.0288 84.3532 79.9469L84.3464 79.9374C84.3211 79.9066 84.293 79.8779 84.2671 79.8485C84.2404 79.8184 84.2151 79.7883 84.1878 79.7596C84.1563 79.7275 84.1228 79.6981 84.0907 79.6666C84.0613 79.6393 84.0339 79.612 84.0038 79.586C83.9697 79.5566 83.9341 79.5292 83.8979 79.5012C83.8678 79.4773 83.8377 79.452 83.8063 79.4294C83.7694 79.4021 83.7297 79.3781 83.6914 79.3529C83.66 79.3323 83.6285 79.3098 83.5957 79.29L83.5889 79.2865C83.582 79.2818 83.5731 79.2783 83.5649 79.2735C83.4836 79.2266 83.3998 79.184 83.314 79.1457C83.3011 79.1402 83.2894 79.132 83.2764 79.1266C83.2539 79.117 83.2313 79.1095 83.2081 79.1006C83.1705 79.0855 83.1327 79.0712 83.0946 79.0575L83.0433 79.0377C83.0139 79.0281 82.9831 79.0206 82.9531 79.0117L82.8745 78.9898L82.8416 78.9796C82.7801 78.9645 82.7186 78.9522 82.657 78.942L82.6523 78.9413L82.6386 78.9392C82.5864 78.9306 82.534 78.9236 82.4814 78.918C82.4622 78.916 82.4417 78.9153 82.4219 78.9139L82.3672 78.9098L82.3125 78.9064C82.2574 78.9045 82.2022 78.9043 82.147 78.9057H82.1313L51.4933 79.9709C51.4433 79.9723 51.3934 79.9752 51.3436 79.9798L51.2704 79.9893L51.2191 79.9962L51.1795 80.001C51.1208 80.0106 51.0624 80.0222 51.0045 80.0358L50.9703 80.0454C50.9279 80.0563 50.8848 80.0666 50.8438 80.0796L50.7973 80.0967C50.7727 80.1042 50.7495 80.1131 50.7255 80.122C50.705 80.1295 50.6832 80.1356 50.6633 80.1445C50.6408 80.1534 50.6196 80.1644 50.5977 80.1739C50.5669 80.1876 50.5362 80.2013 50.5061 80.2163C50.4924 80.2231 50.4774 80.2279 50.4637 80.2355C50.4452 80.245 50.4295 80.2566 50.4117 80.2662C50.3646 80.292 50.3183 80.3193 50.273 80.3482C50.2586 80.3578 50.2422 80.3653 50.2272 80.3756C50.2149 80.3838 50.2046 80.3941 50.1923 80.4029C50.1429 80.4378 50.0947 80.4745 50.048 80.513C50.0262 80.5308 50.0043 80.5472 49.9838 80.5657C49.9185 80.6233 49.8564 80.6844 49.7978 80.7489L47.1418 83.6995C47.1555 83.6838 47.1719 83.6708 47.1856 83.6558C46.9474 83.908 46.7671 84.2092 46.6573 84.5382C46.5475 84.8673 46.5108 85.2164 46.5498 85.5611L49.7377 116.153C49.884 117.557 51.1528 118.664 52.5571 118.616L83.1958 117.551C83.5193 117.543 83.8375 117.468 84.131 117.331C84.4245 117.195 84.6869 117 84.9022 116.758L84.8919 116.772L87.5472 113.823C87.6163 113.746 87.6785 113.663 87.7366 113.578L87.7824 113.507C87.8289 113.434 87.8713 113.358 87.9103 113.279C87.9164 113.266 87.9246 113.255 87.9308 113.242L87.9362 113.228C87.9704 113.152 88.0019 113.074 88.0278 112.995L88.0333 112.983C88.0563 112.913 88.0759 112.841 88.0921 112.77L88.0955 112.751L88.1051 112.699C88.1133 112.66 88.1208 112.621 88.127 112.581L88.1338 112.519C88.1364 112.499 88.1387 112.479 88.1407 112.459L88.1461 112.406C88.1502 112.349 88.153 112.293 88.153 112.236V112.231L88.1523 112.216C88.1518 112.131 88.1472 112.046 88.1386 111.961L84.9507 81.3696C84.943 81.2951 84.932 81.221 84.9179 81.1474L84.9131 81.1235Z" fill="black"/>
<path fill-rule="evenodd" clip-rule="evenodd" d="M47.3894 83.8483L47.3921 83.8511C47.183 84.074 47.0246 84.3396 46.9281 84.6296C46.8316 84.9196 46.7991 85.2271 46.8329 85.5308L50.0208 116.123C50.152 117.384 51.2869 118.369 52.5476 118.331L83.1856 117.267C83.4706 117.26 83.7512 117.194 84.0099 117.074C84.2686 116.954 84.5 116.782 84.6896 116.569L84.6903 116.571L87.336 113.632C87.3894 113.573 87.442 113.505 87.5022 113.417L87.5425 113.356C87.5835 113.29 87.6211 113.223 87.6546 113.154L87.6765 113.114C87.708 113.043 87.7353 112.975 87.7585 112.906L87.7688 112.875C87.7879 112.814 87.803 112.761 87.8153 112.706L87.8317 112.617C87.8365 112.592 87.8419 112.566 87.8454 112.54L87.8611 112.402C87.8712 112.297 87.8723 112.192 87.8645 112.087C87.8623 112.055 87.8596 112.023 87.8563 111.99L84.6629 81.3468C84.6563 81.2979 84.6484 81.2491 84.639 81.2005L84.9125 81.1233L84.6308 81.1629L84.5604 80.8984C84.5426 80.8455 84.523 80.7933 84.5016 80.7418L84.4784 80.6926C84.4558 80.6406 84.4401 80.6051 84.4223 80.5695L84.4073 80.5436C84.3956 80.521 84.382 80.4977 84.3683 80.4752L84.3122 80.3754C84.2568 80.2892 84.197 80.2059 84.1331 80.1258L84.114 80.0999C84.114 80.1046 84.1003 80.0862 84.0866 80.0725L84.0299 80.0089C84.0148 79.9918 83.9998 79.9734 83.9834 79.957C83.9635 79.9372 83.9433 79.9178 83.9226 79.8989L83.8644 79.8442C83.8292 79.8098 83.7918 79.7779 83.7523 79.7485L83.6881 79.6972C83.6725 79.6842 83.6565 79.6716 83.6402 79.6596C83.6183 79.6439 83.5951 79.6295 83.5725 79.6145L83.5 79.5666C83.4835 79.5552 83.4666 79.5443 83.4495 79.5338L83.4255 79.5215C83.3514 79.4787 83.2752 79.4397 83.1972 79.4046L83.1042 79.3649C83.0703 79.3513 83.0361 79.3383 83.0017 79.326L82.7774 79.2569C82.671 79.2301 82.5627 79.2113 82.4534 79.2009L82.3187 79.1913C82.2643 79.188 82.2098 79.1876 82.1553 79.1899L51.5029 80.2544C51.4582 80.2561 51.4135 80.2591 51.3689 80.2633L51.2554 80.2769L51.1843 80.0001L51.2267 80.2817C51.1771 80.2893 51.1279 80.2988 51.0791 80.3104L50.982 80.0417L51.0442 80.32C50.995 80.3323 50.9615 80.3405 50.928 80.3514L50.7099 80.4348C50.6835 80.4465 50.6573 80.4586 50.6313 80.4711L50.5451 80.5169C50.5075 80.5374 50.4665 80.562 50.4268 80.5873L50.3564 80.6345C50.3124 80.6652 50.2698 80.6978 50.2286 80.7322L50.1718 80.7787C50.1144 80.8292 50.0598 80.8828 50.0085 80.9394L47.3894 83.8483ZM52.4676 118.901C50.9533 118.901 49.6133 117.702 49.4554 116.182L46.2675 85.5903C46.2264 85.2164 46.2645 84.838 46.3791 84.4798C46.4937 84.1215 46.6823 83.7913 46.9327 83.5106L46.9306 83.5086L49.586 80.5586C49.7296 80.4004 49.8914 80.2598 50.0679 80.1395L50.1124 80.1129C50.1705 80.0766 50.2218 80.0465 50.2737 80.0171C50.3011 80 50.3181 79.9898 50.3352 79.9816L50.3728 79.9645C50.4145 79.944 50.4494 79.9289 50.4829 79.9132C50.525 79.8939 50.5679 79.8764 50.6114 79.8606L50.7071 79.8264L50.7584 79.8086C50.8015 79.7949 50.8446 79.7833 50.889 79.7724L50.9437 79.7587C51.01 79.7416 51.0722 79.73 51.1351 79.7198L51.3149 79.6965C51.3711 79.6915 51.4274 79.6881 51.4838 79.6863L82.1218 78.6218C82.1997 78.6191 82.2613 78.6197 82.3228 78.6218L82.5094 78.6348C82.5682 78.6403 82.6257 78.6485 82.6831 78.658L82.7125 78.6628C82.7733 78.6731 82.8417 78.6867 82.9094 78.7038L83.0618 78.7469C83.0858 78.7537 83.1104 78.7599 83.1343 78.7674L83.1794 78.7852C83.2307 78.8037 83.2731 78.8194 83.3155 78.8365C83.3517 78.8501 83.3715 78.857 83.3907 78.8659L83.4324 78.8864C83.526 78.9294 83.6183 78.9752 83.7079 79.0279L83.7469 79.0491C83.7674 79.0614 83.792 79.0778 83.8166 79.0942L83.8802 79.1359C83.9116 79.1564 83.9431 79.1769 83.9731 79.1988C83.9971 79.2159 84.021 79.235 84.0449 79.2535L84.101 79.2986C84.1311 79.3219 84.1605 79.3451 84.1899 79.3697C84.2138 79.3916 84.237 79.4128 84.2589 79.4347L84.3095 79.4825C84.3375 79.5085 84.3656 79.5338 84.3915 79.5618C84.4148 79.5858 84.4367 79.6097 84.4585 79.635L84.5043 79.6863C84.5249 79.7095 84.5467 79.7327 84.5659 79.7573L84.5864 79.7833C84.6438 79.8531 84.7094 79.9454 84.7764 80.0486L84.7942 80.0746C84.8079 80.0958 84.8195 80.1176 84.8318 80.1395L84.8469 80.1669C84.8769 80.2188 84.8947 80.2489 84.9111 80.2817L84.9289 80.3125C84.9515 80.3562 84.9713 80.4014 84.9911 80.4465L84.747 80.5969L85.0034 80.4738L85.0212 80.5128C85.0533 80.5887 85.0779 80.6543 85.0998 80.7213L85.134 80.8348C85.1503 80.8882 85.1642 80.9422 85.1757 80.9968L84.907 81.098L85.1839 81.0324L85.1976 81.0939C85.2092 81.1534 85.2181 81.2142 85.2263 81.2758L85.2331 81.34L88.421 111.932C88.4315 112.026 88.4365 112.12 88.436 112.215C88.436 112.301 88.434 112.364 88.4292 112.426L88.408 112.622C88.4027 112.658 88.3963 112.694 88.3889 112.73L88.1017 112.72L88.3813 112.768L88.3731 112.812C88.3526 112.904 88.3321 112.977 88.3103 113.047L88.2918 113.101C88.2261 113.297 88.1355 113.485 88.0224 113.659C87.9445 113.784 87.856 113.903 87.7579 114.013L85.1032 116.963H85.1019C84.8615 117.229 84.5694 117.444 84.2434 117.594C83.9174 117.744 83.5642 117.826 83.2054 117.836L52.5674 118.899C52.5343 118.901 52.5013 118.901 52.4682 118.901H52.4676Z" fill="black"/>
<path fill-rule="evenodd" clip-rule="evenodd" d="M79.4761 81.8563C80.8803 81.8077 82.1492 82.9152 82.2955 84.3188L85.4834 114.911C85.6297 116.315 84.6001 117.503 83.1958 117.551L52.5571 118.616C51.1529 118.664 49.884 117.556 49.7377 116.153L46.5499 85.561C46.4042 84.1568 47.4338 82.9693 48.8381 82.92L79.4761 81.8563Z" fill="white"/>
<path fill-rule="evenodd" clip-rule="evenodd" d="M79.4864 82.1401L48.8477 83.2046C48.2495 83.2251 47.7101 83.478 47.3293 83.9163C47.1392 84.1365 46.9969 84.3938 46.9114 84.6719C46.826 84.95 46.7993 85.2428 46.8329 85.5317L50.0208 116.123C50.1521 117.385 51.287 118.373 52.5476 118.331L83.1856 117.268C83.7838 117.247 84.3232 116.994 84.704 116.555C85.0869 116.116 85.2633 115.542 85.2011 114.941L82.0132 84.3483C81.8812 83.0877 80.7463 82.097 79.4864 82.1401ZM52.4683 118.902C50.954 118.902 49.6134 117.702 49.4554 116.182L46.2676 85.5905C46.1882 84.831 46.4132 84.1036 46.9006 83.543C47.1415 83.2663 47.4372 83.0429 47.7692 82.8868C48.1011 82.7307 48.4619 82.6455 48.8285 82.6364L79.4666 81.572C81.0212 81.5043 82.4165 82.7369 82.5786 84.2895L85.7664 114.882C85.8451 115.641 85.6201 116.369 85.1327 116.929C84.8919 117.206 84.5962 117.429 84.2644 117.585C83.9326 117.741 83.572 117.827 83.2055 117.836L52.5674 118.9C52.5342 118.901 52.5009 118.902 52.4676 118.902" fill="black"/>
<path fill-rule="evenodd" clip-rule="evenodd" d="M113.119 4.59918L82.6222 0.309931C81.434 0.142436 80.4482 0.975128 79.4945 1.54393L78.1484 2.34586C77.8119 2.54827 77.5282 2.82764 77.3207 3.16101C77.1132 3.49437 76.9878 3.87223 76.9547 4.26351L74.0697 35.3493C73.9377 36.7734 74.9735 38.1004 76.3709 38.2972L106.867 42.5872C107.417 42.667 107.978 42.5552 108.456 42.2707L111.341 40.5506C111.313 40.567 111.286 40.58 111.258 40.595C111.616 40.3986 111.92 40.1167 112.143 39.7744C112.365 39.432 112.5 39.0399 112.534 38.6329L115.419 7.54779C115.552 6.12305 114.516 4.79608 113.118 4.59987" fill="black"/>
<path fill-rule="evenodd" clip-rule="evenodd" d="M82.3152 0.572518C81.5467 0.572518 80.8426 1.02442 80.1589 1.46264C79.9839 1.57476 79.8116 1.68551 79.64 1.78806L78.2932 2.59067C77.6895 2.95096 77.3047 3.57035 77.2377 4.28955L74.3526 35.3754C74.2337 36.6552 75.1566 37.8393 76.4104 38.0156L106.906 42.3056C107.392 42.3774 107.888 42.2789 108.31 42.0267L111.124 40.349L111.122 40.3455C111.438 40.1709 111.707 39.9209 111.904 39.6177C112.101 39.3144 112.22 38.9673 112.251 38.607L115.136 7.52119C115.255 6.24276 114.332 5.05798 113.078 4.8816L82.5832 0.59166C82.4944 0.579085 82.4048 0.572689 82.3152 0.572518ZM107.22 42.8963C107.09 42.8963 106.959 42.8874 106.827 42.8689L76.3311 38.579C74.782 38.3602 73.6403 36.8999 73.7866 35.3227L76.6716 4.23691C76.7557 3.33449 77.2411 2.55649 78.0033 2.10185L79.3488 1.29924C79.5156 1.20011 79.6838 1.09278 79.8526 0.984079C80.6621 0.464501 81.5795 -0.124811 82.6625 0.0283282L113.158 4.31827C114.707 4.53635 115.848 5.99664 115.702 7.57452L112.817 38.6603C112.779 39.0958 112.639 39.516 112.407 39.8868C112.175 40.2575 111.859 40.5681 111.485 40.7933L111.486 40.7947L111.484 40.7961L108.601 42.5155C108.184 42.7654 107.706 42.897 107.22 42.8963Z" fill="black"/>
<path fill-rule="evenodd" clip-rule="evenodd" d="M113.119 4.59893C114.516 4.79582 115.552 6.12348 115.419 7.54753L112.534 38.6334C112.402 40.0581 111.15 41.0631 109.752 40.8669L79.2558 36.5762C77.8584 36.38 76.8227 35.053 76.9553 33.6283L79.8403 2.54249C79.9723 1.11775 81.2247 0.112781 82.6228 0.309674L113.118 4.59961L113.119 4.59893Z" fill="white"/>
<path fill-rule="evenodd" clip-rule="evenodd" d="M82.2721 0.569037C81.7895 0.569037 81.328 0.729015 80.9458 1.03119C80.7109 1.21786 80.5167 1.45063 80.3752 1.71517C80.2336 1.97971 80.1477 2.27042 80.1227 2.56942L77.2377 33.6552C77.1194 34.9343 78.0424 36.1191 79.2955 36.2955L109.791 40.5854C110.08 40.628 110.374 40.6108 110.656 40.5351C110.937 40.4594 111.2 40.3267 111.429 40.1452C111.664 39.9585 111.858 39.7257 111.999 39.4612C112.141 39.1966 112.226 38.9059 112.251 38.6069L115.136 7.52113C115.255 6.24201 114.332 5.05792 113.078 4.88154L82.5825 0.591599C82.4797 0.576686 82.376 0.569145 82.2721 0.569037ZM110.104 41.1754C109.973 41.1754 109.842 41.1663 109.713 41.1481L79.2169 36.8582C77.667 36.6401 76.526 35.1798 76.6723 33.6019L79.5573 2.51609C79.5891 2.14064 79.6974 1.77568 79.8755 1.44365C80.0537 1.11162 80.2978 0.819562 80.5931 0.585447C80.8816 0.356355 81.2141 0.188741 81.5698 0.0929191C81.9256 -0.00290253 82.2972 -0.0249045 82.6618 0.028267L113.158 4.31821C114.707 4.53629 115.849 5.99658 115.702 7.57446L112.817 38.6603C112.785 39.0359 112.677 39.401 112.499 39.7331C112.321 40.0653 112.076 40.3574 111.781 40.5916C111.304 40.9708 110.713 41.1767 110.104 41.1754Z" fill="black"/>
<path fill-rule="evenodd" clip-rule="evenodd" d="M289.483 147.681C289.478 147.649 289.468 147.62 289.461 147.588C289.444 147.511 289.429 147.435 289.405 147.36C289.393 147.321 289.376 147.285 289.362 147.248C289.338 147.183 289.317 147.117 289.288 147.054C289.268 147.011 289.243 146.972 289.222 146.931C289.192 146.877 289.166 146.821 289.133 146.768C289.081 146.686 289.024 146.608 288.963 146.533C288.947 146.512 288.928 146.492 288.91 146.471C288.888 146.445 288.867 146.417 288.844 146.392C288.805 146.35 288.764 146.309 288.722 146.27L286.604 144.294C286.617 144.305 286.627 144.318 286.639 144.33C286.295 143.994 285.86 143.767 285.388 143.675L255.032 137.769C253.641 137.498 252.241 138.429 251.921 139.835L244.948 170.526C244.845 170.967 244.862 171.428 244.996 171.86C245.131 172.292 245.379 172.68 245.714 172.985C245.703 172.976 245.692 172.968 245.682 172.959L247.799 174.935C248.127 175.241 248.541 175.462 249.015 175.553L279.372 181.46C279.464 181.478 279.557 181.489 279.648 181.497C279.678 181.5 279.709 181.499 279.739 181.5C279.801 181.503 279.862 181.506 279.922 181.505C279.959 181.504 279.994 181.5 280.03 181.498C280.084 181.494 280.139 181.489 280.194 181.483C280.231 181.478 280.268 181.471 280.305 181.465C280.394 181.449 280.483 181.428 280.571 181.403C280.708 181.365 280.842 181.315 280.971 181.254C281.005 181.238 281.038 181.223 281.071 181.206C281.12 181.18 281.167 181.153 281.215 181.125C281.244 181.107 281.275 181.09 281.303 181.071C281.355 181.038 281.403 181.003 281.452 180.966C281.472 180.951 281.493 180.938 281.513 180.923L281.52 180.916C281.616 180.841 281.705 180.757 281.789 180.668C281.799 180.659 281.81 180.651 281.819 180.641C281.83 180.63 281.838 180.617 281.848 180.606C281.903 180.545 281.955 180.482 282.004 180.417C282.014 180.403 282.027 180.391 282.037 180.378L282.045 180.364C282.103 180.284 282.157 180.2 282.206 180.114C282.215 180.098 282.222 180.08 282.23 180.065C282.265 179.999 282.298 179.933 282.328 179.865C282.331 179.856 282.336 179.848 282.341 179.838C282.349 179.818 282.355 179.795 282.363 179.773C282.388 179.711 282.41 179.648 282.429 179.584C282.435 179.568 282.442 179.553 282.446 179.536C282.46 179.489 282.472 179.442 282.483 179.394L289.455 148.703C289.471 148.633 289.484 148.563 289.494 148.492C289.499 148.461 289.5 148.431 289.503 148.401L289.511 148.319C289.528 148.106 289.519 147.892 289.483 147.681Z" fill="black"/>
<path fill-rule="evenodd" clip-rule="evenodd" d="M245.904 172.778L247.993 174.727C248.292 175.006 248.664 175.195 249.07 175.274L279.426 181.18C279.508 181.197 279.59 181.207 279.671 181.214L279.754 181.217C279.806 181.219 279.861 181.223 279.915 181.22C279.938 181.22 279.959 181.218 279.981 181.216L280.01 181.214C280.06 181.211 280.108 181.207 280.157 181.2C280.184 181.197 280.212 181.192 280.239 181.187C280.325 181.172 280.409 181.153 280.493 181.13C280.537 181.118 280.582 181.104 280.626 181.088C280.703 181.061 280.778 181.03 280.851 180.996L280.942 180.953C280.985 180.93 281.027 180.906 281.069 180.88L281.15 180.833C281.195 180.803 281.238 180.771 281.281 180.738L281.343 180.694C281.428 180.625 281.509 180.551 281.584 180.472L281.636 180.416C281.687 180.361 281.733 180.304 281.778 180.245L281.805 180.212L281.818 180.193C281.865 180.128 281.911 180.057 281.953 179.981L281.979 179.931C282.01 179.872 282.04 179.813 282.066 179.752L282.098 179.67C282.12 179.614 282.14 179.558 282.158 179.501L282.172 179.461C282.185 179.416 282.196 179.374 282.206 179.331L289.178 148.639C289.192 148.577 289.204 148.514 289.213 148.452L289.228 148.295C289.234 148.206 289.239 148.116 289.234 148.027C289.231 147.927 289.22 147.828 289.204 147.73L289.183 147.648C289.17 147.579 289.153 147.512 289.134 147.445C289.129 147.43 289.123 147.415 289.117 147.4L289.08 147.303C289.064 147.26 289.049 147.216 289.03 147.173C289.02 147.154 289.009 147.137 289 147.118L288.945 147.015C288.928 146.983 288.912 146.951 288.893 146.92L288.88 146.899C288.837 146.834 288.791 146.772 288.742 146.711L288.666 146.622L288.636 146.586C288.602 146.549 288.566 146.513 288.528 146.479L286.443 144.532L286.441 144.535C286.136 144.237 285.751 144.036 285.333 143.955L254.978 138.048C253.732 137.807 252.485 138.636 252.197 139.898L245.225 170.589C245.135 170.98 245.149 171.389 245.268 171.772C245.387 172.156 245.606 172.501 245.902 172.772L245.906 172.776L245.904 172.778ZM279.883 181.79C279.831 181.79 279.779 181.788 279.726 181.785L279.694 181.783C279.671 181.783 279.648 181.782 279.624 181.781C279.522 181.773 279.419 181.759 279.317 181.739L248.961 175.832C248.453 175.734 247.984 175.495 247.605 175.143L245.487 173.167L245.489 173.165C245.128 172.825 244.863 172.397 244.72 171.923C244.577 171.45 244.56 170.947 244.671 170.464L251.644 139.772C251.998 138.213 253.542 137.189 255.086 137.49L285.443 143.397C285.95 143.495 286.418 143.735 286.795 144.087L286.797 144.085L288.917 146.062C288.962 146.106 289.008 146.151 289.051 146.198C289.07 146.218 289.087 146.239 289.105 146.259L289.186 146.356C289.252 146.438 289.315 146.524 289.372 146.615L289.388 146.642C289.414 146.685 289.431 146.719 289.45 146.755L289.494 146.837C289.545 146.924 289.585 147.016 289.615 147.111L289.643 147.184C289.655 147.214 289.666 147.244 289.677 147.275C289.7 147.35 289.718 147.43 289.734 147.508L289.745 147.554C289.752 147.58 289.759 147.605 289.763 147.632C289.809 147.896 289.816 148.166 289.785 148.432C289.781 148.483 289.779 148.508 289.775 148.533C289.764 148.611 289.75 148.689 289.732 148.766L282.76 179.457C282.748 179.51 282.734 179.562 282.719 179.614L282.703 179.663C282.68 179.739 282.655 179.808 282.628 179.877C282.617 179.91 282.61 179.93 282.602 179.949L282.585 179.984C282.553 180.057 282.518 180.129 282.48 180.199C282.472 180.218 282.462 180.236 282.453 180.254L282.442 180.271C282.388 180.365 282.334 180.449 282.276 180.53C282.208 180.622 282.136 180.711 282.059 180.796C282.049 180.81 282.038 180.823 282.027 180.835L281.988 180.872C281.893 180.971 281.796 181.059 281.697 181.139C281.678 181.155 281.658 181.17 281.637 181.183C281.569 181.234 281.515 181.273 281.459 181.309L281.389 181.352L281.36 181.368C281.307 181.4 281.255 181.43 281.202 181.458C281.077 181.522 280.948 181.577 280.815 181.624C280.76 181.644 280.705 181.661 280.649 181.678C280.607 181.688 280.567 181.7 280.526 181.71C280.469 181.723 280.412 181.735 280.354 181.745C280.302 181.753 280.267 181.76 280.231 181.764C280.17 181.773 280.11 181.778 280.048 181.781C279.993 181.786 279.961 181.788 279.929 181.788C279.913 181.79 279.898 181.79 279.883 181.79Z" fill="black"/>
<path fill-rule="evenodd" clip-rule="evenodd" d="M285.388 143.675C286.779 143.946 287.657 145.319 287.337 146.725L280.365 177.417C280.045 178.824 278.645 179.754 277.254 179.483L246.897 173.577C245.506 173.306 244.629 171.933 244.949 170.526L251.921 139.835C252.24 138.428 253.641 137.499 255.031 137.769L285.388 143.676V143.675Z" fill="white"/>
<path fill-rule="evenodd" clip-rule="evenodd" d="M254.541 138.006C253.452 138.006 252.451 138.784 252.198 139.898L245.225 170.59C245.155 170.887 245.146 171.196 245.199 171.496C245.252 171.797 245.365 172.084 245.531 172.34C245.691 172.587 245.899 172.8 246.143 172.964C246.387 173.129 246.662 173.242 246.951 173.297L277.308 179.204C278.554 179.446 279.801 178.617 280.088 177.355L287.061 146.663C287.131 146.366 287.14 146.057 287.087 145.756C287.034 145.456 286.921 145.169 286.755 144.913C286.595 144.665 286.387 144.453 286.143 144.289C285.898 144.124 285.624 144.011 285.334 143.956L254.977 138.049C254.834 138.021 254.688 138.007 254.541 138.006ZM277.742 179.815C277.563 179.815 277.381 179.798 277.2 179.763L246.843 173.856C246.479 173.786 246.133 173.644 245.826 173.437C245.518 173.23 245.256 172.963 245.055 172.651C244.846 172.331 244.705 171.973 244.639 171.597C244.573 171.221 244.584 170.835 244.671 170.464L251.644 139.772C251.998 138.213 253.542 137.189 255.086 137.49L285.443 143.397C285.807 143.467 286.153 143.609 286.46 143.816C286.768 144.023 287.03 144.29 287.231 144.602C287.652 145.248 287.788 146.025 287.614 146.789L280.642 177.481C280.329 178.856 279.091 179.815 277.743 179.815" fill="black"/>
<path fill-rule="evenodd" clip-rule="evenodd" d="M304.18 234.311L301.853 230.751L301.882 230.799C300.573 228.761 298.222 227.448 295.532 227.542L271.768 228.372C267.612 228.518 264.161 231.967 264.101 236.034L263.755 259.292C263.729 260.708 264.137 262.098 264.924 263.276C264.911 263.255 264.896 263.236 264.883 263.216L267.21 266.775C268.525 268.788 270.863 270.079 273.531 269.985L297.295 269.155C301.452 269.009 304.902 265.56 304.963 261.493L305.307 238.235C305.329 236.779 304.913 235.432 304.18 234.311Z" fill="black"/>
<path fill-rule="evenodd" clip-rule="evenodd" d="M265.159 263.119L267.448 266.62C268.766 268.636 271.036 269.789 273.521 269.701L297.285 268.871C301.303 268.73 304.62 265.418 304.678 261.489L305.024 238.231C305.048 236.896 304.671 235.585 303.942 234.467L301.645 230.953L301.644 230.953L301.64 230.948C300.326 228.906 298.046 227.738 295.542 227.826L271.778 228.657C267.76 228.797 264.443 232.109 264.384 236.038L264.04 259.296C264.015 260.655 264.406 261.988 265.161 263.118L265.159 263.119ZM273.258 270.274C270.684 270.274 268.35 269.039 266.972 266.931L264.645 263.371L264.647 263.371C263.855 262.158 263.446 260.736 263.471 259.288L263.816 236.03C263.879 231.802 267.442 228.239 271.758 228.089L295.522 227.258C298.212 227.164 300.661 228.41 302.088 230.594H302.09L304.418 234.155C305.209 235.368 305.618 236.791 305.592 238.24L305.247 261.498C305.184 265.725 301.621 269.288 297.305 269.439L273.541 270.27C273.447 270.273 273.352 270.274 273.258 270.274Z" fill="black"/>
<path fill-rule="evenodd" clip-rule="evenodd" d="M295.532 227.542C299.69 227.397 303.041 230.608 302.98 234.675L302.636 257.933C302.575 262.001 299.125 265.449 294.968 265.595L271.204 266.425C267.048 266.57 263.695 263.359 263.755 259.292L264.101 236.034C264.161 231.966 267.613 228.518 271.769 228.372L295.532 227.542H295.532Z" fill="white"/>
<path fill-rule="evenodd" clip-rule="evenodd" d="M295.542 227.826L271.778 228.657C267.759 228.797 264.442 232.11 264.384 236.039L264.04 259.297C264.012 261.153 264.721 262.886 266.036 264.176C267.398 265.512 269.229 266.213 271.194 266.141L294.958 265.311C298.976 265.17 302.294 261.859 302.351 257.929L302.696 234.671C302.724 232.814 302.015 231.081 300.7 229.791C299.338 228.455 297.507 227.762 295.542 227.826ZM270.929 266.715C268.915 266.715 267.046 265.964 265.639 264.583C264.211 263.182 263.441 261.302 263.472 259.288L263.816 236.03C263.879 231.802 267.442 228.239 271.758 228.089L295.522 227.258C297.645 227.185 299.624 227.939 301.097 229.385C302.525 230.785 303.294 232.666 303.264 234.679L302.919 257.937C302.856 262.166 299.294 265.728 294.977 265.879L271.213 266.709C271.118 266.713 271.023 266.715 270.929 266.715Z" fill="black"/>
<path fill-rule="evenodd" clip-rule="evenodd" d="M307.662 68.849L299.555 43.7554C298.855 41.5909 296.528 40.3385 294.381 40.9736L269.488 48.3352C268.813 48.5333 268.204 48.9095 267.725 49.4243L265.725 51.5723C265.236 52.1011 264.898 52.7509 264.746 53.4543C264.593 54.1578 264.631 54.8893 264.856 55.5731L272.963 80.666C273.662 82.8304 275.991 84.0822 278.139 83.4471L303.032 76.0855C303.457 75.9598 303.857 75.7638 304.217 75.5057C304.425 75.355 304.618 75.1847 304.794 74.9971L306.793 72.849C306.781 72.8627 306.767 72.8757 306.754 72.8887C307.257 72.3601 307.606 71.7053 307.766 70.9938C307.926 70.2823 307.89 69.5409 307.662 68.8483" fill="black"/>
<path fill-rule="evenodd" clip-rule="evenodd" d="M267.75 49.8139L265.933 51.7665C265.013 52.7543 264.704 54.1798 265.126 55.4855L273.234 80.5791C273.888 82.6027 276.052 83.7684 278.058 83.1743L302.951 75.8127C303.423 75.6737 303.862 75.4412 304.241 75.129C304.362 75.0292 304.478 74.9191 304.586 74.8036L306.551 72.6931L306.549 72.6918C307.498 71.7018 307.82 70.2628 307.392 68.9358L299.284 43.8429C298.63 41.8186 296.466 40.6536 294.462 41.2464L269.568 48.608C268.856 48.8171 268.224 49.24 267.76 49.8194L267.758 49.8208L267.75 49.8139ZM276.992 83.8976C275.096 83.8976 273.309 82.6588 272.693 80.7534L264.585 55.6612C264.1 54.1586 264.457 52.5178 265.517 51.3795L267.505 49.2438C267.509 49.2395 267.513 49.2354 267.517 49.2315H267.518C268.031 48.679 268.684 48.2753 269.408 48.0631L294.301 40.7015C296.599 40.0219 299.077 41.353 299.825 43.6686L307.932 68.7614C308.419 70.2682 308.062 71.9028 307.001 73.0425L307.002 73.0432H307.001L305.002 75.1919C304.686 75.5303 304.317 75.8144 303.909 76.0328C303.655 76.1685 303.388 76.2778 303.112 76.3589L278.219 83.7205C277.821 83.8384 277.407 83.8983 276.992 83.8983V83.8976Z" fill="black"/>
<path fill-rule="evenodd" clip-rule="evenodd" d="M294.381 40.9737C296.528 40.3385 298.856 41.5903 299.555 43.7554L307.662 68.8483C308.361 71.0135 307.179 73.303 305.032 73.9375L280.138 81.2991C277.991 81.9342 275.662 80.6824 274.963 78.518L266.855 53.4251C266.156 51.2606 267.34 48.9704 269.488 48.3353L294.381 40.9737Z" fill="white"/>
<path fill-rule="evenodd" clip-rule="evenodd" d="M294.462 41.2464L269.568 48.608C269.099 48.7452 268.663 48.9756 268.285 49.2855C267.907 49.5954 267.596 49.9784 267.37 50.4115C267.134 50.8578 266.992 51.3469 266.95 51.8497C266.908 52.3524 266.968 52.8585 267.126 53.3376L275.233 78.4305C275.887 80.4548 278.051 81.6183 280.058 81.0263L304.951 73.6647C305.42 73.5277 305.856 73.2975 306.233 72.9878C306.611 72.6781 306.922 72.2954 307.148 71.8626C307.623 70.9602 307.71 69.921 307.392 68.9365L299.284 43.843C298.63 41.8187 296.467 40.6537 294.462 41.2464ZM278.991 81.7489C277.096 81.7489 275.308 80.5115 274.692 78.6055L266.586 53.5126C266.404 52.9614 266.335 52.3791 266.383 51.8007C266.432 51.2223 266.596 50.6596 266.867 50.1463C267.129 49.6458 267.488 49.2033 267.925 48.8452C268.361 48.4871 268.866 48.2209 269.408 48.0625L294.301 40.7009C296.598 40.0213 299.077 41.3524 299.825 43.6679L307.932 68.7608C308.114 69.3122 308.183 69.8945 308.135 70.473C308.086 71.0516 307.922 71.6144 307.651 72.1278C307.389 72.628 307.03 73.0702 306.594 73.428C306.157 73.7859 305.653 74.0519 305.112 74.2103L280.219 81.5719C279.812 81.6915 279.399 81.7489 278.991 81.7489Z" fill="black"/>
<path fill-rule="evenodd" clip-rule="evenodd" d="M189.637 76.2216L165.023 87.4226C163.702 88.027 162.311 87.919 161.239 87.2661L157.277 84.8637L157.219 84.8254C156.463 84.3708 155.862 83.6413 155.554 82.7006L147.403 57.7301C146.657 55.4494 147.888 52.7408 150.139 51.7167L174.753 40.5163C176.13 39.8881 177.579 40.0337 178.672 40.7597C178.627 40.7317 178.586 40.7002 178.541 40.6729L182.675 43.1826C183.379 43.6406 183.935 44.3428 184.222 45.2349L192.377 70.2054C193.122 72.4895 191.888 75.1975 189.637 76.2216Z" fill="black"/>
<path fill-rule="evenodd" clip-rule="evenodd" d="M176.532 40.4063C175.978 40.4063 175.411 40.528 174.871 40.7754L150.257 51.9758C148.127 52.9445 146.968 55.4863 147.673 57.6419L155.824 82.6124C156.103 83.4615 156.635 84.1424 157.365 84.5814L157.431 84.6244L161.386 87.0227C162.429 87.6585 163.712 87.7084 164.905 87.1635L189.519 75.9625C191.65 74.9938 192.811 72.4499 192.107 70.2936L183.952 45.3231C183.693 44.5198 183.198 43.8622 182.52 43.4212L178.526 40.9969L178.523 41.0017C177.933 40.6107 177.24 40.403 176.532 40.4063ZM163.241 88.1015C162.484 88.1053 161.74 87.9005 161.092 87.5095L157.065 85.0647C156.224 84.5588 155.606 83.7705 155.284 82.7895L147.133 57.819C146.34 55.3968 147.637 52.5432 150.022 51.4582L174.635 40.2579C175.989 39.6392 177.49 39.7069 178.687 40.4316L178.688 40.4295L182.822 42.9399C183.618 43.4574 184.193 44.219 184.492 45.1474L192.647 70.1166C193.438 72.5401 192.14 75.3944 189.754 76.4807L165.141 87.681C164.545 87.956 163.897 88.0994 163.241 88.1015Z" fill="black"/>
<path fill-rule="evenodd" clip-rule="evenodd" d="M174.754 40.5148C177.006 39.4893 179.457 40.5196 180.202 42.8016L188.354 67.7708C189.099 70.0549 187.868 72.7615 185.616 73.787L161.002 84.9887C158.751 86.0135 156.298 84.9839 155.553 82.6991L147.401 57.7293C146.656 55.4479 147.889 52.7413 150.14 51.7165L174.754 40.5148Z" fill="white"/>
<path fill-rule="evenodd" clip-rule="evenodd" d="M174.871 40.7735L150.258 51.9759C148.128 52.9446 146.968 55.4871 147.671 57.642L155.823 82.6111C156.151 83.6148 156.842 84.3921 157.769 84.8002C158.74 85.2268 159.847 85.2022 160.885 84.7298L185.498 73.5281C187.628 72.5587 188.788 70.0155 188.084 67.8599L179.932 42.8901C179.606 41.8885 178.915 41.1126 177.988 40.7044C177.017 40.2765 175.91 40.3011 174.871 40.7735ZM159.218 85.6726C158.64 85.6733 158.069 85.5534 157.54 85.3205C156.463 84.8467 155.661 83.947 155.283 82.7875L147.131 57.8184C146.341 55.3969 147.637 52.5433 150.023 51.4583L174.637 40.2559C175.824 39.7159 177.095 39.6892 178.217 40.1835C179.294 40.6573 180.094 41.5556 180.473 42.713L188.624 67.6828C189.415 70.1057 188.118 72.9607 185.734 74.0456L161.119 85.248C160.524 85.5237 159.875 85.6682 159.219 85.6719" fill="black"/>
<path d="M162.094 61.6002C161.5 61.6002 160.994 61.4709 160.576 61.2124C160.158 60.9512 159.838 60.5882 159.615 60.1234C159.395 59.6587 159.285 59.1197 159.285 58.5064C159.285 57.8932 159.395 57.3542 159.615 56.8894C159.838 56.4247 160.158 56.0631 160.576 55.8046C160.994 55.5433 161.5 55.4127 162.094 55.4127C162.686 55.4127 163.19 55.5433 163.608 55.8046C164.029 56.0631 164.349 56.4247 164.569 56.8894C164.789 57.3542 164.899 57.8932 164.899 58.5064C164.899 59.1197 164.789 59.6587 164.569 60.1234C164.349 60.5882 164.029 60.9512 163.608 61.2124C163.19 61.4709 162.686 61.6002 162.094 61.6002ZM162.094 60.7793C162.515 60.7848 162.864 60.6927 163.142 60.5029C163.423 60.3104 163.633 60.0437 163.773 59.7027C163.914 59.3589 163.984 58.9602 163.984 58.5064C163.984 58.0527 163.914 57.6567 163.773 57.3184C163.633 56.9774 163.423 56.7121 163.142 56.5223C162.864 56.3326 162.515 56.2363 162.094 56.2336C161.674 56.2281 161.323 56.3202 161.043 56.5099C160.765 56.6997 160.556 56.9664 160.416 57.3102C160.275 57.6539 160.204 58.0527 160.201 58.5064C160.198 58.9602 160.267 59.3576 160.407 59.6986C160.548 60.0368 160.758 60.3008 161.038 60.4906C161.322 60.6803 161.674 60.7766 162.094 60.7793ZM165.464 61.4764V55.5364H167.865C167.923 55.5364 167.994 55.5392 168.08 55.5447C168.165 55.5474 168.246 55.5557 168.323 55.5694C168.653 55.6217 168.928 55.7344 169.148 55.9077C169.371 56.0809 169.537 56.2996 169.647 56.5636C169.757 56.8276 169.812 57.1191 169.812 57.4381C169.812 57.9111 169.691 58.3194 169.449 58.6632C169.207 59.0042 168.844 59.2173 168.36 59.3026L168.01 59.3438H166.327V61.4764H165.464ZM168.938 61.4764L167.766 59.0592L168.637 58.8364L169.924 61.4764H168.938ZM166.327 58.5271H167.832C167.887 58.5271 167.948 58.5243 168.014 58.5188C168.082 58.5133 168.147 58.5037 168.208 58.4899C168.384 58.4487 168.525 58.3731 168.632 58.2631C168.74 58.1503 168.817 58.0211 168.863 57.8753C168.91 57.7296 168.934 57.5838 168.934 57.4381C168.934 57.2923 168.91 57.1479 168.863 57.0049C168.817 56.8592 168.74 56.7313 168.632 56.6213C168.525 56.5086 168.384 56.4316 168.208 56.3903C168.147 56.3738 168.082 56.3628 168.014 56.3573C167.948 56.3518 167.887 56.3491 167.832 56.3491H166.327V58.5271ZM173.051 61.6002C172.457 61.6002 171.951 61.4709 171.533 61.2124C171.115 60.9512 170.795 60.5882 170.572 60.1234C170.352 59.6587 170.242 59.1197 170.242 58.5064C170.242 57.8932 170.352 57.3542 170.572 56.8894C170.795 56.4247 171.115 56.0631 171.533 55.8046C171.951 55.5433 172.457 55.4127 173.051 55.4127C173.643 55.4127 174.147 55.5433 174.565 55.8046C174.986 56.0631 175.306 56.4247 175.526 56.8894C175.746 57.3542 175.856 57.8932 175.856 58.5064C175.856 59.1197 175.746 59.6587 175.526 60.1234C175.306 60.5882 174.986 60.9512 174.565 61.2124C174.147 61.4709 173.643 61.6002 173.051 61.6002ZM173.051 60.7793C173.472 60.7848 173.821 60.6927 174.099 60.5029C174.38 60.3104 174.59 60.0437 174.73 59.7027C174.871 59.3589 174.941 58.9602 174.941 58.5064C174.941 58.0527 174.871 57.6567 174.73 57.3184C174.59 56.9774 174.38 56.7121 174.099 56.5223C173.821 56.3326 173.472 56.2363 173.051 56.2336C172.631 56.2281 172.28 56.3202 172 56.5099C171.722 56.6997 171.513 56.9664 171.373 57.3102C171.232 57.6539 171.161 58.0527 171.158 58.5064C171.155 58.9602 171.224 59.3576 171.364 59.6986C171.505 60.0368 171.715 60.3008 171.995 60.4906C172.279 60.6803 172.631 60.7766 173.051 60.7793ZM156.779 69.4764V63.5364H159.18C159.238 63.5364 159.309 63.5392 159.395 63.5447C159.48 63.5474 159.561 63.5557 159.638 63.5694C159.968 63.6217 160.243 63.7344 160.463 63.9077C160.686 64.0809 160.852 64.2996 160.962 64.5636C161.072 64.8276 161.127 65.1191 161.127 65.4381C161.127 65.7598 161.072 66.0527 160.962 66.3167C160.852 66.5807 160.686 66.7993 160.463 66.9726C160.243 67.1458 159.968 67.2586 159.638 67.3108C159.561 67.3218 159.479 67.3301 159.391 67.3356C159.305 67.3411 159.235 67.3438 159.18 67.3438H157.642V69.4764H156.779ZM157.642 66.5271H159.147C159.202 66.5271 159.263 66.5243 159.329 66.5188C159.397 66.5133 159.462 66.5037 159.523 66.4899C159.699 66.4487 159.84 66.3731 159.947 66.2631C160.055 66.1503 160.132 66.0211 160.178 65.8753C160.225 65.7296 160.249 65.5838 160.249 65.4381C160.249 65.2923 160.225 65.1479 160.178 65.0049C160.132 64.8592 160.055 64.7313 159.947 64.6213C159.84 64.5086 159.699 64.4316 159.523 64.3903C159.462 64.3738 159.397 64.3628 159.329 64.3573C159.263 64.3518 159.202 64.3491 159.147 64.3491H157.642V66.5271ZM164.062 69.6002C163.597 69.6002 163.186 69.5053 162.828 69.3156C162.474 69.1231 162.196 68.8549 161.995 68.5112C161.794 68.1647 161.694 67.7577 161.694 67.2902V63.5406L162.568 63.5364V67.2448C162.568 67.4978 162.611 67.7206 162.696 67.9131C162.782 68.1056 162.896 68.2664 163.039 68.3957C163.182 68.5249 163.341 68.6226 163.517 68.6886C163.696 68.7546 163.877 68.7876 164.062 68.7876C164.249 68.7876 164.43 68.7546 164.606 68.6886C164.785 68.6198 164.946 68.5208 165.089 68.3916C165.232 68.2623 165.345 68.1014 165.427 67.9089C165.512 67.7164 165.555 67.4951 165.555 67.2448V63.5364H166.429V67.2902C166.429 67.7549 166.329 68.1606 166.128 68.5071C165.928 68.8536 165.648 69.1231 165.291 69.3156C164.936 69.5053 164.526 69.6002 164.062 69.6002ZM167.326 69.4764V63.5364H168.105L170.258 68.0038L172.399 63.5364H173.187V69.4723H172.37V65.4092L170.452 69.4764H170.06L168.138 65.4092V69.4764H167.326ZM174.085 69.4764V63.5364H176.486C176.544 63.5364 176.615 63.5392 176.7 63.5447C176.786 63.5474 176.867 63.5557 176.944 63.5694C177.274 63.6217 177.549 63.7344 177.769 63.9077C177.991 64.0809 178.158 64.2996 178.268 64.5636C178.378 64.8276 178.433 65.1191 178.433 65.4381C178.433 65.7598 178.378 66.0527 178.268 66.3167C178.158 66.5807 177.991 66.7993 177.769 66.9726C177.549 67.1458 177.274 67.2586 176.944 67.3108C176.867 67.3218 176.784 67.3301 176.696 67.3356C176.611 67.3411 176.541 67.3438 176.486 67.3438H174.947V69.4764H174.085ZM174.947 66.5271H176.453C176.508 66.5271 176.568 66.5243 176.634 66.5188C176.703 66.5133 176.768 66.5037 176.828 66.4899C177.004 66.4487 177.146 66.3731 177.253 66.2631C177.36 66.1503 177.437 66.0211 177.484 65.8753C177.531 65.7296 177.554 65.5838 177.554 65.4381C177.554 65.2923 177.531 65.1479 177.484 65.0049C177.437 64.8592 177.36 64.7313 177.253 64.6213C177.146 64.5086 177.004 64.4316 176.828 64.3903C176.768 64.3738 176.703 64.3628 176.634 64.3573C176.568 64.3518 176.508 64.3491 176.453 64.3491H174.947V66.5271Z" fill="black"/>
<path d="M60.7425 99.5852C60.2205 99.5852 59.7759 99.4716 59.4085 99.2444C59.0412 99.0149 58.7596 98.6959 58.5639 98.2874C58.3706 97.879 58.2739 97.4054 58.2739 96.8664C58.2739 96.3275 58.3706 95.8539 58.5639 95.4454C58.7596 95.037 59.0412 94.7192 59.4085 94.4921C59.7759 94.2625 60.2205 94.1477 60.7425 94.1477C61.2621 94.1477 61.7056 94.2625 62.0729 94.4921C62.4426 94.7192 62.7242 95.037 62.9175 95.4454C63.1109 95.8539 63.2075 96.3275 63.2075 96.8664C63.2075 97.4054 63.1109 97.879 62.9175 98.2874C62.7242 98.6959 62.4426 99.0149 62.0729 99.2444C61.7056 99.4716 61.2621 99.5852 60.7425 99.5852ZM60.7425 98.8638C61.1123 98.8686 61.4192 98.7877 61.6633 98.6209C61.9098 98.4518 62.0946 98.2174 62.2179 97.9177C62.3411 97.6156 62.4028 97.2652 62.4028 96.8664C62.4028 96.4677 62.3411 96.1197 62.2179 95.8224C62.0946 95.5228 61.9098 95.2896 61.6633 95.1228C61.4192 94.9561 61.1123 94.8715 60.7425 94.8691C60.3728 94.8642 60.0646 94.9452 59.8181 95.1119C59.5741 95.2787 59.3904 95.5131 59.2671 95.8152C59.1439 96.1173 59.0811 96.4677 59.0786 96.8664C59.0762 97.2652 59.1366 97.6144 59.2599 97.9141C59.3831 98.2113 59.568 98.4433 59.8145 98.6101C60.0634 98.7768 60.3728 98.8614 60.7425 98.8638ZM63.704 99.4764V94.2564H65.8138C65.8645 94.2564 65.9274 94.2589 66.0023 94.2637C66.0772 94.2661 66.1485 94.2734 66.2162 94.2854C66.5062 94.3314 66.7478 94.4304 66.9412 94.5827C67.1369 94.7349 67.2831 94.9271 67.3798 95.1591C67.4764 95.3911 67.5248 95.6472 67.5248 95.9276C67.5248 96.3432 67.4184 96.7021 67.2058 97.0042C66.9931 97.3039 66.6741 97.4911 66.2488 97.5661L65.9407 97.6023H64.4617V99.4764H63.704ZM66.7563 99.4764L65.7268 97.3522L66.4917 97.1564L67.6227 99.4764H66.7563ZM64.4617 96.8846H65.7848C65.8331 96.8846 65.8863 96.8821 65.9443 96.8773C66.0047 96.8725 66.0615 96.864 66.1147 96.8519C66.2693 96.8157 66.3938 96.7492 66.488 96.6526C66.5823 96.5535 66.6499 96.4399 66.691 96.3118C66.7321 96.1837 66.7527 96.0556 66.7527 95.9276C66.7527 95.7995 66.7321 95.6726 66.691 95.5469C66.6499 95.4189 66.5823 95.3065 66.488 95.2098C66.3938 95.1107 66.2693 95.0431 66.1147 95.0068C66.0615 94.9923 66.0047 94.9826 65.9443 94.9778C65.8863 94.973 65.8331 94.9706 65.7848 94.9706H64.4617V96.8846ZM70.3714 99.5852C69.8494 99.5852 69.4048 99.4716 69.0374 99.2444C68.6701 99.0149 68.3886 98.6959 68.1928 98.2874C67.9995 97.879 67.9028 97.4054 67.9028 96.8664C67.9028 96.3275 67.9995 95.8539 68.1928 95.4454C68.3886 95.037 68.6701 94.7192 69.0374 94.4921C69.4048 94.2625 69.8494 94.1477 70.3714 94.1477C70.891 94.1477 71.3345 94.2625 71.7018 94.4921C72.0716 94.7192 72.3531 95.037 72.5464 95.4454C72.7398 95.8539 72.8364 96.3275 72.8364 96.8664C72.8364 97.4054 72.7398 97.879 72.5464 98.2874C72.3531 98.6959 72.0716 99.0149 71.7018 99.2444C71.3345 99.4716 70.891 99.5852 70.3714 99.5852ZM70.3714 98.8638C70.7412 98.8686 71.0481 98.7877 71.2922 98.6209C71.5387 98.4518 71.7236 98.2174 71.8468 97.9177C71.9701 97.6156 72.0317 97.2652 72.0317 96.8664C72.0317 96.4677 71.9701 96.1197 71.8468 95.8224C71.7236 95.5228 71.5387 95.2896 71.2922 95.1228C71.0481 94.9561 70.7412 94.8715 70.3714 94.8691C70.0017 94.8642 69.6936 94.9452 69.4471 95.1119C69.203 95.2787 69.0193 95.5131 68.8961 95.8152C68.7728 96.1173 68.71 96.4677 68.7076 96.8664C68.7051 97.2652 68.7656 97.6144 68.8888 97.9141C69.0121 98.2113 69.1969 98.4433 69.4434 98.6101C69.6923 98.7768 70.0017 98.8614 70.3714 98.8638ZM55.9461 106.585C55.5716 106.585 55.2332 106.521 54.9311 106.393C54.6315 106.263 54.3838 106.078 54.188 105.838C53.9947 105.597 53.869 105.31 53.811 104.979L54.6013 104.86C54.681 105.179 54.8478 105.428 55.1015 105.606C55.3553 105.783 55.6513 105.871 55.9896 105.871C56.1999 105.871 56.3932 105.838 56.5696 105.773C56.7461 105.706 56.8874 105.61 56.9938 105.487C57.1025 105.361 57.1569 105.211 57.1569 105.037C57.1569 104.943 57.14 104.86 57.1061 104.787C57.0747 104.715 57.03 104.652 56.972 104.599C56.9164 104.543 56.8476 104.496 56.7654 104.457C56.6856 104.416 56.5974 104.381 56.5008 104.352L55.1631 103.957C55.0326 103.918 54.8997 103.869 54.7644 103.808C54.6291 103.746 54.5046 103.665 54.391 103.566C54.2798 103.464 54.1892 103.34 54.1191 103.192C54.0491 103.042 54.014 102.861 54.014 102.648C54.014 102.327 54.0962 102.055 54.2605 101.833C54.4273 101.608 54.652 101.439 54.9348 101.325C55.2175 101.209 55.5341 101.151 55.8845 101.151C56.2373 101.156 56.5527 101.219 56.8306 101.34C57.111 101.461 57.343 101.635 57.5266 101.862C57.7127 102.087 57.8408 102.36 57.9109 102.681L57.0989 102.819C57.0626 102.623 56.9853 102.455 56.8669 102.315C56.7485 102.172 56.6035 102.064 56.4319 101.989C56.2603 101.911 56.0742 101.871 55.8736 101.869C55.6803 101.864 55.5027 101.893 55.3408 101.956C55.1813 102.019 55.0532 102.107 54.9565 102.221C54.8623 102.334 54.8151 102.465 54.8151 102.612C54.8151 102.757 54.8574 102.874 54.942 102.964C55.0266 103.053 55.1305 103.125 55.2538 103.178C55.3794 103.228 55.5039 103.271 55.6271 103.305L56.5914 103.576C56.7122 103.61 56.8488 103.656 57.001 103.714C57.1557 103.77 57.3043 103.848 57.4469 103.95C57.5919 104.051 57.7115 104.187 57.8058 104.356C57.9 104.523 57.9471 104.733 57.9471 104.987C57.9471 105.25 57.894 105.482 57.7876 105.683C57.6813 105.881 57.5351 106.047 57.349 106.183C57.1653 106.316 56.9527 106.416 56.711 106.484C56.4693 106.551 56.2144 106.585 55.9461 106.585ZM58.4931 106.476V101.256H59.1782L61.0705 105.182L62.9518 101.256H63.6442V106.473H62.9265V102.902L61.2408 106.476H60.8965L59.2072 102.902V106.476H58.4931ZM64.0708 106.476L65.7673 101.256H66.8584L68.5549 106.476H67.7683L66.2059 101.713H66.4017L64.8574 106.476H64.0708ZM64.9517 105.298V104.588H67.6777V105.298H64.9517ZM68.9787 106.476V101.256H71.0884C71.1392 101.256 71.202 101.259 71.2769 101.264C71.3519 101.266 71.4231 101.273 71.4908 101.285C71.7808 101.331 72.0225 101.43 72.2158 101.583C72.4116 101.735 72.5578 101.927 72.6544 102.159C72.7511 102.391 72.7994 102.647 72.7994 102.928C72.7994 103.343 72.6931 103.702 72.4804 104.004C72.2678 104.304 71.9488 104.491 71.5234 104.566L71.2153 104.602H69.7363V106.476H68.9787ZM72.0309 106.476L71.0014 104.352L71.7663 104.156L72.8973 106.476H72.0309ZM69.7363 103.885H71.0594C71.1078 103.885 71.1609 103.882 71.2189 103.877C71.2794 103.872 71.3361 103.864 71.3893 103.852C71.544 103.816 71.6684 103.749 71.7627 103.653C71.8569 103.553 71.9246 103.44 71.9657 103.312C72.0068 103.184 72.0273 103.056 72.0273 102.928C72.0273 102.799 72.0068 102.673 71.9657 102.547C71.9246 102.419 71.8569 102.306 71.7627 102.21C71.6684 102.111 71.544 102.043 71.3893 102.007C71.3361 101.992 71.2794 101.983 71.2189 101.978C71.1609 101.973 71.1078 101.971 71.0594 101.971H69.7363V103.885ZM74.7688 106.476V101.971H73.0325V101.256H77.2628V101.971H75.5265V106.476H74.7688Z" fill="black"/>
<path d="M260.658 157.584C260.141 157.584 259.7 157.472 259.336 157.246C258.971 157.019 258.692 156.703 258.498 156.298C258.307 155.893 258.211 155.423 258.211 154.889C258.211 154.355 258.307 153.885 258.498 153.48C258.692 153.075 258.971 152.76 259.336 152.535C259.7 152.307 260.141 152.194 260.658 152.194C261.173 152.194 261.613 152.307 261.977 152.535C262.343 152.76 262.623 153.075 262.814 153.48C263.006 153.885 263.102 154.355 263.102 154.889C263.102 155.423 263.006 155.893 262.814 156.298C262.623 156.703 262.343 157.019 261.977 157.246C261.613 157.472 261.173 157.584 260.658 157.584ZM260.658 156.869C261.025 156.874 261.329 156.794 261.571 156.628C261.815 156.461 261.998 156.228 262.121 155.931C262.243 155.632 262.304 155.284 262.304 154.889C262.304 154.494 262.243 154.149 262.121 153.854C261.998 153.557 261.815 153.326 261.571 153.16C261.329 152.995 261.025 152.911 260.658 152.909C260.291 152.904 259.986 152.984 259.742 153.15C259.5 153.315 259.318 153.547 259.195 153.847C259.073 154.146 259.011 154.494 259.008 154.889C259.006 155.284 259.066 155.63 259.188 155.928C259.31 156.222 259.494 156.452 259.738 156.618C259.985 156.783 260.291 156.867 260.658 156.869ZM263.594 157.476V152.301H265.686C265.736 152.301 265.798 152.304 265.872 152.309C265.947 152.311 266.017 152.318 266.084 152.33C266.372 152.376 266.612 152.474 266.803 152.625C266.997 152.776 267.142 152.966 267.238 153.196C267.334 153.426 267.382 153.68 267.382 153.958C267.382 154.37 267.276 154.726 267.066 155.026C266.855 155.323 266.538 155.508 266.117 155.583L265.811 155.618H264.345V157.476H263.594ZM266.62 157.476L265.599 155.371L266.358 155.176L267.479 157.476H266.62ZM264.345 154.907H265.657C265.705 154.907 265.757 154.905 265.815 154.9C265.875 154.895 265.931 154.887 265.984 154.875C266.137 154.839 266.261 154.773 266.354 154.677C266.447 154.579 266.515 154.466 266.555 154.339C266.596 154.212 266.616 154.085 266.616 153.958C266.616 153.831 266.596 153.705 266.555 153.581C266.515 153.454 266.447 153.342 266.354 153.247C266.261 153.148 266.137 153.081 265.984 153.045C265.931 153.031 265.875 153.021 265.815 153.017C265.757 153.012 265.705 153.009 265.657 153.009H264.345V154.907ZM270.204 157.584C269.686 157.584 269.246 157.472 268.881 157.246C268.517 157.019 268.238 156.703 268.044 156.298C267.852 155.893 267.757 155.423 267.757 154.889C267.757 154.355 267.852 153.885 268.044 153.48C268.238 153.075 268.517 152.76 268.881 152.535C269.246 152.307 269.686 152.194 270.204 152.194C270.719 152.194 271.159 152.307 271.523 152.535C271.889 152.76 272.169 153.075 272.36 153.48C272.552 153.885 272.648 154.355 272.648 154.889C272.648 155.423 272.552 155.893 272.36 156.298C272.169 156.703 271.889 157.019 271.523 157.246C271.159 157.472 270.719 157.584 270.204 157.584ZM270.204 156.869C270.57 156.874 270.875 156.794 271.117 156.628C271.361 156.461 271.544 156.228 271.667 155.931C271.789 155.632 271.85 155.284 271.85 154.889C271.85 154.494 271.789 154.149 271.667 153.854C271.544 153.557 271.361 153.326 271.117 153.16C270.875 152.995 270.57 152.911 270.204 152.909C269.837 152.904 269.532 152.984 269.288 153.15C269.046 153.315 268.863 153.547 268.741 153.847C268.619 154.146 268.557 154.494 268.554 154.889C268.552 155.284 268.612 155.63 268.734 155.928C268.856 156.222 269.04 156.452 269.284 156.618C269.531 156.783 269.837 156.867 270.204 156.869ZM254.257 164.584C253.886 164.584 253.55 164.521 253.251 164.394C252.954 164.264 252.708 164.081 252.514 163.844C252.322 163.604 252.198 163.32 252.14 162.992L252.924 162.874C253.003 163.19 253.168 163.437 253.42 163.614C253.671 163.789 253.965 163.876 254.3 163.876C254.509 163.876 254.7 163.844 254.875 163.779C255.05 163.712 255.19 163.618 255.296 163.495C255.403 163.371 255.457 163.222 255.457 163.05C255.457 162.956 255.441 162.874 255.407 162.802C255.376 162.73 255.332 162.668 255.274 162.615C255.219 162.56 255.151 162.513 255.069 162.475C254.99 162.434 254.903 162.399 254.807 162.371L253.481 161.979C253.351 161.94 253.22 161.891 253.085 161.831C252.951 161.769 252.828 161.689 252.715 161.591C252.605 161.49 252.515 161.367 252.446 161.221C252.376 161.072 252.342 160.892 252.342 160.681C252.342 160.363 252.423 160.093 252.586 159.873C252.751 159.65 252.974 159.482 253.254 159.37C253.535 159.255 253.849 159.197 254.196 159.197C254.546 159.202 254.858 159.264 255.134 159.384C255.412 159.504 255.642 159.676 255.824 159.902C256.008 160.124 256.135 160.395 256.205 160.714L255.4 160.85C255.364 160.656 255.287 160.49 255.17 160.351C255.052 160.209 254.909 160.102 254.739 160.027C254.568 159.951 254.384 159.911 254.185 159.909C253.993 159.904 253.817 159.933 253.657 159.995C253.499 160.057 253.372 160.145 253.276 160.257C253.182 160.37 253.136 160.499 253.136 160.646C253.136 160.789 253.178 160.905 253.262 160.994C253.345 161.083 253.448 161.153 253.571 161.206C253.695 161.256 253.819 161.298 253.941 161.332L254.897 161.601C255.017 161.635 255.152 161.681 255.303 161.738C255.456 161.793 255.603 161.871 255.745 161.972C255.889 162.072 256.007 162.206 256.101 162.374C256.194 162.539 256.241 162.748 256.241 162.999C256.241 163.261 256.188 163.491 256.083 163.689C255.977 163.886 255.832 164.051 255.648 164.185C255.466 164.317 255.255 164.417 255.015 164.484C254.776 164.551 254.523 164.584 254.257 164.584ZM257.738 164.476L256.236 159.301H257.023L258.111 163.215L259.2 159.305L259.991 159.301L261.08 163.215L262.169 159.301H262.959L261.454 164.476H260.706L259.596 160.606L258.485 164.476H257.738ZM263.41 164.476V159.301H264.161V164.476H263.41ZM266.306 164.476V160.009H264.584V159.301H268.778V160.009H267.057V164.476H266.306ZM271.288 164.584C270.771 164.584 270.33 164.472 269.966 164.246C269.602 164.019 269.323 163.703 269.129 163.298C268.937 162.893 268.841 162.423 268.841 161.889C268.841 161.355 268.937 160.885 269.129 160.48C269.323 160.075 269.602 159.76 269.966 159.535C270.33 159.307 270.771 159.194 271.288 159.194C271.885 159.194 272.378 159.345 272.769 159.646C273.162 159.948 273.435 160.354 273.588 160.865L272.826 161.07C272.726 160.708 272.546 160.424 272.287 160.218C272.031 160.012 271.698 159.909 271.288 159.909C270.922 159.909 270.616 159.991 270.372 160.157C270.128 160.322 269.943 160.553 269.819 160.85C269.696 161.147 269.635 161.494 269.635 161.889C269.633 162.284 269.693 162.63 269.815 162.928C269.94 163.225 270.124 163.456 270.368 163.621C270.615 163.786 270.922 163.869 271.288 163.869C271.698 163.869 272.031 163.766 272.287 163.56C272.546 163.352 272.726 163.068 272.826 162.708L273.588 162.913C273.435 163.423 273.162 163.83 272.769 164.131C272.378 164.433 271.885 164.584 271.288 164.584ZM274.154 164.476V159.301H274.905V161.533H277.493V159.301H278.247V164.476H277.493V162.241H274.905V164.476H274.154Z" fill="black"/>
<path d="M286.356 63.5843C286.008 63.5843 285.689 63.5244 285.396 63.4046C285.104 63.2824 284.85 63.1051 284.634 62.8727C284.419 62.6403 284.251 62.3576 284.131 62.0246C284.012 61.6915 283.952 61.313 283.952 60.8889C283.952 60.3307 284.053 59.8515 284.257 59.4514C284.461 59.0489 284.743 58.7399 285.105 58.5243C285.467 58.3062 285.884 58.1972 286.356 58.1972C286.964 58.1972 287.45 58.3386 287.811 58.6213C288.175 58.904 288.423 59.2945 288.555 59.7928L287.793 59.9294C287.688 59.6203 287.518 59.3736 287.283 59.1891C287.048 59.0046 286.754 58.9112 286.399 58.9088C286.032 58.9064 285.727 58.9878 285.483 59.1532C285.241 59.3185 285.058 59.5509 284.936 59.8503C284.814 60.1474 284.752 60.4936 284.749 60.8889C284.747 61.2843 284.807 61.6305 284.929 61.9275C285.051 62.2222 285.235 62.4522 285.479 62.6175C285.726 62.7828 286.032 62.8667 286.399 62.8691C286.694 62.8739 286.946 62.82 287.157 62.7074C287.37 62.5924 287.539 62.4247 287.664 62.2043C287.789 61.9838 287.869 61.7131 287.905 61.3921H286.898V60.7883H288.703C288.707 60.8314 288.711 60.8889 288.713 60.9608C288.716 61.0303 288.717 61.0746 288.717 61.0938C288.717 61.573 288.625 62.0006 288.44 62.3768C288.256 62.7529 287.987 63.0488 287.635 63.2644C287.283 63.4776 286.857 63.5843 286.356 63.5843ZM291.26 63.4764V62.5744H288.924V61.8628L290.606 58.3014H291.465L289.783 61.8628H291.26V60.4613H292.022V61.8628H292.536V62.5744H292.022V63.4764H291.26Z" fill="black"/>
<path d="M92.2054 18.5629C91.7904 18.5629 91.4369 18.4726 91.1448 18.292C90.8528 18.1095 90.6289 17.8558 90.4733 17.5311C90.3196 17.2064 90.2427 16.8298 90.2427 16.4013C90.2427 15.9729 90.3196 15.5963 90.4733 15.2716C90.6289 14.9469 90.8528 14.6942 91.1448 14.5136C91.4369 14.3311 91.7904 14.2398 92.2054 14.2398C92.6185 14.2398 92.9711 14.3311 93.2632 14.5136C93.5571 14.6942 93.781 14.9469 93.9347 15.2716C94.0884 15.5963 94.1652 15.9729 94.1652 16.4013C94.1652 16.8298 94.0884 17.2064 93.9347 17.5311C93.781 17.8558 93.5571 18.1095 93.2632 18.292C92.9711 18.4726 92.6185 18.5629 92.2054 18.5629ZM92.2054 17.9894C92.4994 17.9932 92.7434 17.9288 92.9375 17.7963C93.1335 17.6618 93.2804 17.4754 93.3784 17.2371C93.4764 16.997 93.5254 16.7184 93.5254 16.4013C93.5254 16.0843 93.4764 15.8076 93.3784 15.5713C93.2804 15.3331 93.1335 15.1476 92.9375 15.0151C92.7434 14.8825 92.4994 14.8152 92.2054 14.8133C91.9115 14.8095 91.6665 14.8738 91.4705 15.0064C91.2764 15.139 91.1304 15.3254 91.0324 15.5655C90.9344 15.8057 90.8845 16.0843 90.8826 16.4013C90.8806 16.7184 90.9287 16.996 91.0267 17.2343C91.1247 17.4706 91.2716 17.655 91.4676 17.7876C91.6655 17.9202 91.9115 17.9874 92.2054 17.9894ZM94.56 18.4764V14.3263H96.2374C96.2777 14.3263 96.3277 14.3282 96.3872 14.332C96.4468 14.3339 96.5035 14.3397 96.5573 14.3493C96.7878 14.3858 96.98 14.4646 97.1337 14.5856C97.2893 14.7067 97.4056 14.8594 97.4824 15.0439C97.5593 15.2283 97.5977 15.432 97.5977 15.6549C97.5977 15.9854 97.5132 16.2707 97.3441 16.5109C97.175 16.7491 96.9214 16.898 96.5832 16.9576L96.3382 16.9864H95.1624V18.4764H94.56ZM96.9867 18.4764L96.1682 16.7875L96.7763 16.6319L97.6755 18.4764H96.9867ZM95.1624 16.4158H96.2143C96.2527 16.4158 96.295 16.4138 96.3411 16.41C96.3892 16.4061 96.4343 16.3994 96.4766 16.3898C96.5995 16.361 96.6985 16.3082 96.7734 16.2313C96.8484 16.1525 96.9022 16.0622 96.9348 15.9604C96.9675 15.8586 96.9838 15.7567 96.9838 15.6549C96.9838 15.5531 96.9675 15.4522 96.9348 15.3523C96.9022 15.2504 96.8484 15.1611 96.7734 15.0842C96.6985 15.0055 96.5995 14.9517 96.4766 14.9228C96.4343 14.9113 96.3892 14.9036 96.3411 14.8998C96.295 14.8959 96.2527 14.894 96.2143 14.894H95.1624V16.4158ZM99.8609 18.5629C99.4459 18.5629 99.0924 18.4726 98.8003 18.292C98.5083 18.1095 98.2845 17.8558 98.1288 17.5311C97.9751 17.2064 97.8983 16.8298 97.8983 16.4013C97.8983 15.9729 97.9751 15.5963 98.1288 15.2716C98.2845 14.9469 98.5083 14.6942 98.8003 14.5136C99.0924 14.3311 99.4459 14.2398 99.8609 14.2398C100.274 14.2398 100.627 14.3311 100.919 14.5136C101.213 14.6942 101.436 14.9469 101.59 15.2716C101.744 15.5963 101.821 15.9729 101.821 16.4013C101.821 16.8298 101.744 17.2064 101.59 17.5311C101.436 17.8558 101.213 18.1095 100.919 18.292C100.627 18.4726 100.274 18.5629 99.8609 18.5629ZM99.8609 17.9894C100.155 17.9932 100.399 17.9288 100.593 17.7963C100.789 17.6618 100.936 17.4754 101.034 17.2371C101.132 16.997 101.181 16.7184 101.181 16.4013C101.181 16.0843 101.132 15.8076 101.034 15.5713C100.936 15.3331 100.789 15.1476 100.593 15.0151C100.399 14.8825 100.155 14.8152 99.8609 14.8133C99.567 14.8095 99.322 14.8738 99.126 15.0064C98.932 15.139 98.7859 15.3254 98.6879 15.5655C98.59 15.8057 98.54 16.0843 98.5381 16.4013C98.5362 16.7184 98.5842 16.996 98.6822 17.2343C98.7802 17.4706 98.9272 17.655 99.1231 17.7876C99.321 17.9202 99.567 17.9874 99.8609 17.9894ZM84.2597 24.4764L83.055 20.3263H83.6862L84.5595 23.4648L85.4327 20.3291L86.0668 20.3263L86.9401 23.4648L87.8133 20.3263H88.4474L87.2398 24.4764H86.6403L85.7498 21.3724L84.8592 24.4764H84.2597ZM88.7508 24.4764V20.3263H91.4023V20.894H89.3532V22.0584H91.0565V22.6261H89.3532V23.9087H91.4023V24.4764H88.7508ZM91.6261 24.4764L92.9749 20.3263H93.8425L95.1913 24.4764H94.5659L93.3237 20.6894H93.4793L92.2515 24.4764H91.6261ZM92.3265 23.5398V22.9749H94.4938V23.5398H92.3265ZM96.2195 24.4764V20.894H94.839V20.3263H98.2024V20.894H96.8218V24.4764H96.2195ZM98.4834 24.4764V20.3263H99.0858V22.116H101.161V20.3263H101.766V24.4764H101.161V22.6838H99.0858V24.4764H98.4834ZM102.396 24.4764V20.3263H105.047V20.894H102.998V22.0584H104.701V22.6261H102.998V23.9087H105.047V24.4764H102.396ZM105.559 24.4764V20.3263H107.237C107.277 20.3263 107.327 20.3282 107.386 20.332C107.446 20.3339 107.503 20.3397 107.556 20.3493C107.787 20.3858 107.979 20.4646 108.133 20.5856C108.288 20.7067 108.405 20.8594 108.482 21.0439C108.558 21.2283 108.597 21.432 108.597 21.6549C108.597 21.9854 108.512 22.2707 108.343 22.5109C108.174 22.7491 107.921 22.898 107.582 22.9576L107.337 22.9864H106.162V24.4764H105.559ZM107.986 24.4764L107.167 22.7875L107.775 22.6319L108.675 24.4764H107.986ZM106.162 22.4158H107.213C107.252 22.4158 107.294 22.4138 107.34 22.41C107.388 22.4061 107.433 22.3994 107.476 22.3898C107.599 22.361 107.698 22.3082 107.773 22.2313C107.848 22.1525 107.901 22.0622 107.934 21.9604C107.967 21.8586 107.983 21.7567 107.983 21.6549C107.983 21.5531 107.967 21.4522 107.934 21.3523C107.901 21.2504 107.848 21.1611 107.773 21.0842C107.698 21.0055 107.599 20.9517 107.476 20.9228C107.433 20.9113 107.388 20.9036 107.34 20.8998C107.294 20.8959 107.252 20.894 107.213 20.894H106.162V22.4158Z" fill="black"/>
<path d="M17.7704 173.608C17.1404 173.608 16.6038 173.471 16.1604 173.196C15.7171 172.919 15.3773 172.534 15.1411 172.041C14.9077 171.549 14.7911 170.977 14.7911 170.326C14.7911 169.676 14.9077 169.104 15.1411 168.611C15.3773 168.119 15.7171 167.735 16.1604 167.461C16.6038 167.184 17.1404 167.045 17.7704 167.045C18.3975 167.045 18.9327 167.184 19.3761 167.461C19.8223 167.735 20.1621 168.119 20.3954 168.611C20.6288 169.104 20.7454 169.676 20.7454 170.326C20.7454 170.977 20.6288 171.549 20.3954 172.041C20.1621 172.534 19.8223 172.919 19.3761 173.196C18.9327 173.471 18.3975 173.608 17.7704 173.608ZM17.7704 172.737C18.2167 172.743 18.5871 172.645 18.8817 172.444C19.1792 172.24 19.4023 171.957 19.5511 171.595C19.6998 171.231 19.7742 170.808 19.7742 170.326C19.7742 169.845 19.6998 169.425 19.5511 169.066C19.4023 168.705 19.1792 168.423 18.8817 168.222C18.5871 168.021 18.2167 167.919 17.7704 167.916C17.3242 167.91 16.9523 168.008 16.6548 168.209C16.3602 168.41 16.1386 168.693 15.9898 169.058C15.8411 169.422 15.7652 169.845 15.7623 170.326C15.7594 170.808 15.8323 171.229 15.9811 171.591C16.1298 171.95 16.3529 172.23 16.6504 172.431C16.9509 172.632 17.3242 172.734 17.7704 172.737ZM21.3447 173.476V167.176H23.8909C23.9522 167.176 24.028 167.179 24.1184 167.185C24.2088 167.188 24.2949 167.197 24.3766 167.211C24.7266 167.267 25.0182 167.386 25.2516 167.57C25.4878 167.754 25.6643 167.986 25.7809 168.266C25.8976 168.546 25.9559 168.855 25.9559 169.193C25.9559 169.695 25.8276 170.128 25.5709 170.493C25.3143 170.854 24.9293 171.08 24.4159 171.171L24.0441 171.215H22.2591V173.476H21.3447ZM25.0284 173.476L23.7859 170.913L24.7091 170.676L26.0741 173.476H25.0284ZM22.2591 170.348H23.8559C23.9143 170.348 23.9784 170.345 24.0484 170.34C24.1213 170.334 24.1899 170.324 24.2541 170.309C24.4407 170.265 24.5909 170.185 24.7047 170.068C24.8184 169.949 24.9001 169.812 24.9497 169.657C24.9993 169.502 25.0241 169.348 25.0241 169.193C25.0241 169.039 24.9993 168.886 24.9497 168.734C24.9001 168.579 24.8184 168.444 24.7047 168.327C24.5909 168.207 24.4407 168.126 24.2541 168.082C24.1899 168.065 24.1213 168.053 24.0484 168.047C23.9784 168.041 23.9143 168.038 23.8559 168.038H22.2591V170.348ZM29.3915 173.608C28.7615 173.608 28.2249 173.471 27.7815 173.196C27.3382 172.919 26.9984 172.534 26.7622 172.041C26.5288 171.549 26.4122 170.977 26.4122 170.326C26.4122 169.676 26.5288 169.104 26.7622 168.611C26.9984 168.119 27.3382 167.735 27.7815 167.461C28.2249 167.184 28.7615 167.045 29.3915 167.045C30.0186 167.045 30.5538 167.184 30.9972 167.461C31.4434 167.735 31.7832 168.119 32.0165 168.611C32.2499 169.104 32.3665 169.676 32.3665 170.326C32.3665 170.977 32.2499 171.549 32.0165 172.041C31.7832 172.534 31.4434 172.919 30.9972 173.196C30.5538 173.471 30.0186 173.608 29.3915 173.608ZM29.3915 172.737C29.8378 172.743 30.2082 172.645 30.5028 172.444C30.8003 172.24 31.0234 171.957 31.1722 171.595C31.3209 171.231 31.3953 170.808 31.3953 170.326C31.3953 169.845 31.3209 169.425 31.1722 169.066C31.0234 168.705 30.8003 168.423 30.5028 168.222C30.2082 168.021 29.8378 167.919 29.3915 167.916C28.9453 167.91 28.5734 168.008 28.2759 168.209C27.9813 168.41 27.7597 168.693 27.6109 169.058C27.4622 169.422 27.3863 169.845 27.3834 170.326C27.3805 170.808 27.4534 171.229 27.6022 171.591C27.7509 171.95 27.974 172.23 28.2715 172.431C28.5719 172.632 28.9453 172.734 29.3915 172.737ZM12.2635 182.476V176.176H13.1779V181.615H16.0304V182.476H12.2635ZM16.4997 182.476V176.176H20.5247V177.038H17.4141V178.806H19.9997V179.668H17.4141V181.615H20.5247V182.476H16.4997ZM22.7807 182.476L20.7332 176.176H21.6826L23.4282 181.553L25.1957 176.176H26.1451L24.0976 182.476H22.7807ZM26.5314 182.476V176.176H30.5564V177.038H27.4458V178.806H30.0314V179.668H27.4458V181.615H30.5564V182.476H26.5314ZM31.4212 182.476V176.176H32.3356V181.615H35.1881V182.476H31.4212Z" fill="black"/>
<path d="M266.594 251.476V244.756H269.31C269.376 244.756 269.456 244.76 269.553 244.766C269.649 244.769 269.741 244.778 269.828 244.794C270.202 244.853 270.513 244.98 270.762 245.176C271.014 245.372 271.202 245.62 271.326 245.918C271.451 246.217 271.513 246.547 271.513 246.908C271.513 247.443 271.376 247.905 271.102 248.294C270.828 248.68 270.418 248.921 269.87 249.017L269.474 249.064H267.57V251.476H266.594ZM270.524 251.476L269.198 248.742L270.183 248.49L271.639 251.476H270.524ZM267.57 248.14H269.273C269.335 248.14 269.404 248.137 269.478 248.13C269.556 248.124 269.629 248.113 269.698 248.098C269.897 248.051 270.057 247.966 270.178 247.841C270.3 247.714 270.387 247.567 270.44 247.402C270.492 247.238 270.519 247.073 270.519 246.908C270.519 246.743 270.492 246.58 270.44 246.418C270.387 246.253 270.3 246.108 270.178 245.984C270.057 245.856 269.897 245.769 269.698 245.722C269.629 245.704 269.556 245.691 269.478 245.685C269.404 245.679 269.335 245.676 269.273 245.676H267.57V248.14ZM274.048 251.476V245.676H271.813V244.756H277.259V245.676H275.024V251.476H274.048ZM280.393 251.616C279.867 251.616 279.402 251.509 278.997 251.294C278.596 251.077 278.282 250.773 278.055 250.384C277.828 249.992 277.714 249.532 277.714 249.003V244.761L278.703 244.756V248.952C278.703 249.238 278.752 249.49 278.848 249.708C278.944 249.926 279.074 250.108 279.235 250.254C279.397 250.4 279.578 250.51 279.777 250.585C279.979 250.66 280.184 250.697 280.393 250.697C280.604 250.697 280.81 250.66 281.009 250.585C281.211 250.507 281.393 250.395 281.555 250.249C281.716 250.103 281.844 249.921 281.937 249.703C282.034 249.485 282.082 249.235 282.082 248.952V244.756H283.071V249.003C283.071 249.529 282.958 249.988 282.731 250.38C282.504 250.772 282.188 251.077 281.783 251.294C281.382 251.509 280.918 251.616 280.393 251.616ZM283.992 248.504V247.72H286.792V248.504H283.992ZM287.713 251.476V244.756H288.595L291.031 249.81L293.453 244.756H294.344V251.472H293.42V246.875L291.25 251.476H290.807L288.632 246.875V251.476H287.713ZM296.531 251.476V245.83L295.267 246.6V245.512L296.531 244.756H297.525V251.476H296.531Z" fill="black"/>
</svg>
