<svg width="420" height="389" viewBox="0 0 420 389" fill="none" xmlns="http://www.w3.org/2000/svg">
<g clip-path="url(#clip0_2899_3320)">
<path fill-rule="evenodd" clip-rule="evenodd" d="M283.946 291.235C283.89 291.235 283.835 291.218 283.789 291.186C283.743 291.155 283.706 291.111 283.685 291.059C283.664 291.007 283.658 290.95 283.669 290.895C283.68 290.84 283.706 290.79 283.746 290.75C294.78 279.723 303.443 266.883 309.494 252.588C315.759 237.786 318.936 222.062 318.936 205.855C318.936 200.546 318.585 195.204 317.894 189.978C317.886 189.94 317.886 189.9 317.894 189.862C317.901 189.823 317.917 189.787 317.94 189.755C317.962 189.723 317.991 189.695 318.025 189.675C318.058 189.655 318.096 189.641 318.135 189.636C318.174 189.631 318.213 189.634 318.251 189.645C318.289 189.656 318.324 189.674 318.354 189.699C318.384 189.724 318.409 189.755 318.426 189.79C318.444 189.826 318.454 189.864 318.456 189.903C319.151 195.154 319.503 200.52 319.503 205.855C319.503 222.14 316.311 237.937 310.017 252.81C303.937 267.173 295.233 280.074 284.147 291.153C284.094 291.206 284.021 291.235 283.946 291.235ZM96.5745 269.804C96.5263 269.804 96.4788 269.792 96.4366 269.769C96.3944 269.745 96.3588 269.712 96.3332 269.671C84.3904 250.563 78.0776 228.495 78.0776 205.855C78.0776 193.896 79.8243 182.084 83.2692 170.749C83.278 170.711 83.2945 170.675 83.3177 170.644C83.3409 170.613 83.3703 170.587 83.4041 170.567C83.4378 170.548 83.4753 170.535 83.514 170.531C83.5527 170.526 83.5919 170.53 83.6292 170.541C83.6665 170.553 83.7011 170.572 83.7307 170.597C83.7604 170.622 83.7846 170.653 83.8017 170.688C83.8189 170.723 83.8286 170.761 83.8304 170.8C83.8322 170.839 83.826 170.878 83.8121 170.915C80.3835 182.196 78.645 193.952 78.645 205.855C78.645 228.389 84.9278 250.351 96.8145 269.369C96.8412 269.412 96.856 269.461 96.8573 269.511C96.8587 269.562 96.8465 269.612 96.822 269.657C96.7976 269.701 96.7618 269.738 96.7183 269.764C96.6748 269.79 96.6252 269.804 96.5745 269.804ZM284.447 121.546C284.409 121.546 284.372 121.539 284.337 121.525C284.303 121.51 284.271 121.489 284.245 121.462C273.191 110.287 260.286 101.508 245.887 95.3707C230.98 89.0175 215.134 85.7961 198.79 85.7961C192.524 85.7961 186.231 86.2821 180.087 87.242C180.013 87.2524 179.938 87.2333 179.878 87.1887C179.818 87.1442 179.778 87.0779 179.767 87.0041C179.755 86.9303 179.773 86.855 179.817 86.7943C179.86 86.7337 179.926 86.6926 180 86.68C186.217 85.7125 192.499 85.2268 198.791 85.2273C215.211 85.2273 231.131 88.4637 246.109 94.8477C260.576 101.014 273.542 109.833 284.648 121.062C284.688 121.102 284.715 121.152 284.725 121.207C284.736 121.262 284.73 121.319 284.709 121.371C284.687 121.423 284.651 121.467 284.604 121.499C284.558 121.53 284.503 121.546 284.447 121.546ZM45.1165 193.025C45.0792 193.025 45.0423 193.018 45.0079 193.004C44.9735 192.99 44.9422 192.969 44.9159 192.942C44.8895 192.916 44.8686 192.885 44.8544 192.85C44.8401 192.816 44.8328 192.779 44.8328 192.742C44.8328 166.823 52.0829 141.365 65.7991 119.119C65.841 119.06 65.9037 119.019 65.9746 119.005C66.0455 118.991 66.1191 119.004 66.1806 119.042C66.242 119.08 66.2867 119.14 66.3055 119.21C66.3243 119.279 66.3158 119.354 66.2818 119.418C52.621 141.573 45.4009 166.928 45.4009 192.741C45.4009 192.898 45.2737 193.025 45.1172 193.025M339.121 133.53C339.067 133.53 339.014 133.515 338.969 133.486C338.923 133.457 338.887 133.416 338.864 133.368C326.928 108.078 307.698 86.613 283.254 71.2923C258.181 55.5778 228.974 47.2707 198.79 47.2707C198.715 47.2707 198.642 47.2407 198.589 47.1874C198.536 47.1341 198.506 47.0617 198.506 46.9863C198.506 46.9109 198.536 46.8385 198.589 46.7852C198.642 46.7319 198.715 46.7019 198.79 46.7019C229.081 46.7019 258.392 55.0384 283.555 70.8103C308.091 86.1892 327.394 107.737 339.378 133.125C339.398 133.168 339.407 133.216 339.404 133.263C339.401 133.311 339.386 133.357 339.36 133.398C339.335 133.438 339.299 133.471 339.258 133.494C339.216 133.518 339.168 133.53 339.121 133.53ZM284.448 314.056C284.386 314.056 284.326 314.036 284.277 313.999C284.228 313.962 284.192 313.91 284.175 313.851C284.158 313.792 284.16 313.729 284.182 313.672C284.204 313.614 284.243 313.565 284.295 313.532C326.802 286.415 352.18 241.26 352.18 192.741C352.178 192.702 352.183 192.663 352.196 192.626C352.209 192.59 352.23 192.556 352.256 192.527C352.283 192.499 352.315 192.476 352.351 192.46C352.386 192.445 352.425 192.437 352.464 192.437C352.503 192.437 352.542 192.445 352.577 192.46C352.613 192.476 352.645 192.499 352.672 192.527C352.699 192.556 352.719 192.59 352.732 192.626C352.745 192.663 352.751 192.702 352.748 192.741C352.748 241.456 327.272 286.79 284.6 314.012C284.554 314.041 284.502 314.056 284.448 314.056Z" fill="#1DA5B7"/>
<path fill-rule="evenodd" clip-rule="evenodd" d="M41.9868 138.68C41.9412 138.679 41.8962 138.668 41.8558 138.647C41.8153 138.626 41.7806 138.595 41.7544 138.558C41.7283 138.521 41.7115 138.478 41.7056 138.432C41.6996 138.387 41.7046 138.341 41.7202 138.298C47.2872 123.012 55.2983 108.659 65.5319 95.64C75.6521 82.7668 87.7316 71.4625 101.438 62.0418C129.905 42.4742 163.593 32.1318 198.863 32.1318C198.938 32.1318 199.01 32.1618 199.064 32.2151C199.117 32.2685 199.147 32.3408 199.147 32.4162C199.147 32.4917 199.117 32.564 199.064 32.6173C199.01 32.6707 198.938 32.7006 198.863 32.7006C163.709 32.7006 130.131 43.0088 101.759 62.5114C88.1001 71.8994 76.0623 83.164 65.9784 95.9921C55.7816 108.963 47.7993 123.263 42.2535 138.493C42.2336 138.548 42.1973 138.595 42.1496 138.629C42.1019 138.662 42.0451 138.679 41.9868 138.68ZM362.078 218.563C362.036 218.563 361.994 218.554 361.956 218.536C361.918 218.518 361.885 218.492 361.858 218.459C361.832 218.427 361.812 218.389 361.802 218.348C361.792 218.308 361.791 218.265 361.799 218.224C363.6 208.854 364.506 199.333 364.505 189.791C364.505 176.624 362.783 163.538 359.388 150.898C356.093 138.627 351.212 126.738 344.882 115.562C332.45 93.6116 314.423 74.5205 292.75 60.3545C292.69 60.312 292.649 60.248 292.635 60.1759C292.621 60.1039 292.636 60.0293 292.676 59.9677C292.716 59.9062 292.778 59.8625 292.85 59.8458C292.921 59.8291 292.996 59.8406 293.059 59.878C314.808 74.0939 332.899 93.252 345.377 115.281C351.73 126.499 356.628 138.433 359.937 150.749C363.35 163.483 365.077 176.609 365.072 189.792C365.072 199.379 364.158 208.982 362.355 218.332C362.343 218.397 362.309 218.456 362.258 218.498C362.207 218.54 362.143 218.563 362.077 218.563" fill="#1DA5B7"/>
<path fill-rule="evenodd" clip-rule="evenodd" d="M363.404 168.194L363.007 167.788L371.826 159.116L372.224 159.522L363.404 168.194ZM366.355 171.201L365.957 170.794L374.776 162.122L375.174 162.528L366.355 171.201ZM369.306 174.207L368.907 173.801L373.713 169.075L374.111 169.48L369.306 174.207Z" fill="white"/>
<path fill-rule="evenodd" clip-rule="evenodd" d="M121.181 117.295L121.133 117.296L121.181 117.294M122.375 118.167C122.436 118.314 122.437 118.392 122.287 118.4C122.438 118.392 122.436 118.314 122.375 118.167Z" fill="#58A478"/>
<path fill-rule="evenodd" clip-rule="evenodd" d="M250.763 33.3931C250.359 33.3941 249.967 33.5221 249.64 33.759C249.314 33.9958 249.07 34.3294 248.944 34.7125C248.805 35.1473 248.826 35.6174 249.002 36.0384C249.179 36.4594 249.499 36.8038 249.907 37.0096L251.07 33.4177C250.967 33.4013 250.865 33.3931 250.763 33.3931ZM249.98 37.6228C249.921 37.6228 249.862 37.6112 249.808 37.5886C249.235 37.3473 248.773 36.9004 248.513 36.3358C248.253 35.7711 248.214 35.1297 248.403 34.5375C248.798 33.3172 250.085 32.5932 251.33 32.8899C251.39 32.9039 251.446 32.9303 251.495 32.9672C251.545 33.0042 251.586 33.0511 251.616 33.1048C251.647 33.1585 251.666 33.2179 251.672 33.2793C251.678 33.3407 251.672 33.4027 251.653 33.4614L250.405 37.3152C250.375 37.4046 250.319 37.4826 250.243 37.5378C250.166 37.5931 250.075 37.6228 249.981 37.6228H249.98ZM47.9762 275.178C47.9234 275.178 47.8716 275.163 47.8267 275.136C47.7818 275.108 47.7455 275.068 47.7219 275.021C38.6723 256.895 33.1798 237.7 31.3968 217.971C31.3948 217.899 31.4205 217.828 31.4687 217.774C31.5168 217.72 31.5839 217.686 31.6561 217.679C31.7284 217.673 31.8004 217.694 31.8575 217.739C31.9146 217.783 31.9526 217.848 31.9636 217.92C33.7397 237.578 39.2131 256.704 48.2305 274.766C48.252 274.809 48.262 274.857 48.2598 274.906C48.2575 274.954 48.243 275.001 48.2175 275.042C48.1921 275.083 48.1566 275.117 48.1143 275.141C48.0721 275.165 48.0246 275.177 47.9762 275.177" fill="#1DA5B7"/>
<path fill-rule="evenodd" clip-rule="evenodd" d="M15.0583 239.575C13.706 239.575 12.3373 239.922 11.0883 240.651C7.32476 242.848 6.04974 247.7 8.24633 251.464C8.76702 252.363 9.46076 253.149 10.2874 253.777C11.114 254.406 12.0571 254.864 13.062 255.125C15.1034 255.662 17.2323 255.372 19.0549 254.308C22.8178 252.11 24.0921 247.259 21.8969 243.494C20.4291 240.979 17.7779 239.575 15.0583 239.575ZM15.0856 255.958C14.363 255.958 13.6349 255.864 12.9171 255.676C11.8399 255.395 10.8291 254.904 9.94308 254.23C9.05708 253.557 8.31353 252.714 7.75546 251.751C5.40095 247.715 6.76758 242.515 10.8018 240.159C14.8354 237.804 20.0332 239.172 22.3877 243.208C24.7423 247.244 23.3756 252.443 19.3414 254.799C18.0511 255.556 16.582 255.957 15.0856 255.958Z" fill="black"/>
<path fill-rule="evenodd" clip-rule="evenodd" d="M11.6406 241.599L18.5018 253.36Z" fill="white"/>
<path fill-rule="evenodd" clip-rule="evenodd" d="M18.2564 253.503L11.3953 241.742L11.8868 241.455L18.7473 253.217L18.2564 253.503Z" fill="black"/>
<path fill-rule="evenodd" clip-rule="evenodd" d="M20.9493 244.047L9.19312 250.911Z" fill="white"/>
<path fill-rule="evenodd" clip-rule="evenodd" d="M9.3367 251.157L9.04956 250.666L20.8064 243.802L21.0935 244.293L9.3367 251.157Z" fill="black"/>
<path fill-rule="evenodd" clip-rule="evenodd" d="M21.6535 249.211L8.48901 245.747Z" fill="white"/>
<path fill-rule="evenodd" clip-rule="evenodd" d="M21.5816 249.486L8.41717 246.022L8.56074 245.473L21.7259 248.935L21.5816 249.486ZM369.973 112.327C369.299 112.328 368.653 112.597 368.176 113.073C367.7 113.55 367.431 114.196 367.431 114.871C367.431 115.545 367.7 116.191 368.176 116.668C368.653 117.145 369.299 117.413 369.973 117.414C370.647 117.413 371.294 117.145 371.77 116.668C372.247 116.191 372.515 115.545 372.516 114.871C372.515 114.196 372.247 113.55 371.77 113.073C371.293 112.596 370.647 112.328 369.973 112.327ZM369.973 117.983C369.148 117.982 368.357 117.654 367.774 117.07C367.191 116.487 366.863 115.696 366.862 114.871C366.862 113.155 368.258 111.759 369.973 111.759C371.689 111.759 373.084 113.155 373.084 114.871C373.083 115.696 372.755 116.487 372.172 117.07C371.589 117.654 370.797 117.982 369.973 117.983ZM415.97 194.476C415.296 194.477 414.65 194.745 414.173 195.222C413.696 195.699 413.428 196.345 413.428 197.019C413.428 197.693 413.696 198.34 414.173 198.817C414.65 199.293 415.296 199.562 415.97 199.562C416.644 199.562 417.291 199.293 417.767 198.817C418.244 198.34 418.512 197.693 418.513 197.019C418.512 196.345 418.244 195.699 417.767 195.222C417.291 194.745 416.644 194.477 415.97 194.476ZM415.97 200.131C415.145 200.13 414.355 199.802 413.772 199.218C413.188 198.635 412.861 197.844 412.86 197.019C412.861 196.194 413.188 195.404 413.772 194.82C414.355 194.237 415.145 193.909 415.97 193.907C417.686 193.907 419.081 195.303 419.081 197.019C419.081 198.735 417.686 200.131 415.97 200.131ZM76.7424 57.1673C76.0683 57.1684 75.4222 57.4367 74.9458 57.9134C74.4693 58.3902 74.2013 59.0364 74.2006 59.7105C74.2013 60.3845 74.4693 61.0308 74.9458 61.5075C75.4222 61.9843 76.0683 62.2526 76.7424 62.2537C77.4167 62.2529 78.0631 61.9848 78.5399 61.508C79.0167 61.0312 79.2849 60.3848 79.2856 59.7105C79.2849 59.0362 79.0167 58.3897 78.5399 57.913C78.0631 57.4362 77.4167 57.168 76.7424 57.1673ZM76.7424 62.8225C75.9174 62.8214 75.1265 62.493 74.5433 61.9095C73.9601 61.3259 73.6323 60.5348 73.6318 59.7098C73.6318 57.9938 75.0271 56.5978 76.7424 56.5978C78.4584 56.5978 79.853 57.9945 79.853 59.7098C79.853 61.4258 78.4584 62.8225 76.7424 62.8225ZM104.469 237.773C103.794 237.773 103.148 238.042 102.671 238.518C102.194 238.995 101.926 239.642 101.926 240.316C101.926 240.99 102.194 241.637 102.671 242.113C103.148 242.59 103.794 242.858 104.469 242.859C105.143 242.858 105.789 242.59 106.265 242.113C106.742 241.636 107.01 240.99 107.011 240.316C107.01 239.642 106.742 238.996 106.265 238.519C105.789 238.042 105.143 237.774 104.469 237.773ZM104.469 243.429C103.644 243.427 102.853 243.099 102.27 242.516C101.686 241.932 101.359 241.141 101.358 240.316C101.358 238.6 102.753 237.204 104.469 237.204C106.184 237.204 107.579 238.6 107.579 240.316C107.579 242.032 106.184 243.429 104.469 243.429ZM287.135 254.952C286.461 254.953 285.815 255.221 285.338 255.698C284.862 256.175 284.594 256.821 284.593 257.495C284.594 258.17 284.862 258.816 285.339 259.293C285.815 259.77 286.462 260.038 287.136 260.039C287.81 260.038 288.456 259.769 288.933 259.292C289.409 258.816 289.677 258.169 289.678 257.495C289.677 256.821 289.409 256.175 288.932 255.698C288.456 255.221 287.809 254.953 287.135 254.952ZM287.135 260.607C286.31 260.606 285.52 260.278 284.937 259.694C284.354 259.111 284.026 258.32 284.025 257.495C284.026 256.671 284.354 255.88 284.937 255.296C285.52 254.713 286.31 254.385 287.135 254.383C288.851 254.383 290.246 255.779 290.246 257.495C290.246 259.211 288.851 260.607 287.135 260.607ZM386.325 59.7105L390.009 61.7259L392.024 65.4108L394.038 61.7259L397.722 59.7105L394.038 57.6951L392.024 54.0088L390.009 57.6937L386.325 59.7105ZM392.024 66.5963L389.59 62.145L385.14 59.7105L389.591 57.2753L392.024 52.8247L394.458 57.2753L398.907 59.7105L394.457 62.1443L392.024 66.5963ZM330.195 324.686L333.878 326.703L335.893 330.387L337.908 326.703L341.591 324.686L337.908 322.671L335.893 318.986L333.878 322.671L330.195 324.686ZM335.893 331.573L333.459 327.121L329.01 324.687L333.46 322.252L335.894 317.801L338.327 322.251L342.777 324.686L338.327 327.121L335.893 331.573ZM1.18478 166.346L4.86831 168.362L6.88373 172.047L8.89778 168.362L12.5813 166.346L8.89778 164.331L6.88373 160.645L4.86831 164.33L1.18478 166.346ZM6.88373 173.232L4.44991 168.782L0 166.346L4.44991 163.911L6.88373 159.459L9.31754 163.911L13.7668 166.346L9.31686 168.78L6.88304 173.231L6.88373 173.232ZM173.003 114.78L176.687 116.796L178.702 120.481L180.716 116.796L184.401 114.78L180.716 112.765L178.702 109.08L176.687 112.765L173.003 114.78ZM178.702 121.667L176.268 117.215L171.818 114.781L176.268 112.346L178.702 107.894L181.136 112.346L185.585 114.78L181.135 117.215L178.701 121.667H178.702ZM162.156 6.88646L165.84 8.90188L167.855 12.5868L169.87 8.90188L173.553 6.88646L169.87 4.87036L167.855 1.18546L165.84 4.87036L162.156 6.88646ZM167.855 13.7722L165.421 9.32164L160.971 6.88646L165.422 4.45197L167.855 0L170.288 4.45197L174.738 6.88578L170.288 9.32096L167.855 13.7722H167.855Z" fill="#1DA5B7"/>
</g>
<defs>
<clipPath id="clip0_2899_3320">
<rect width="419.081" height="389" fill="white"/>
</clipPath>
</defs>
</svg>
