<svg width="187" height="98" viewBox="0 0 187 98" fill="none" xmlns="http://www.w3.org/2000/svg">
<path d="M65.3284 30.8012V43.5104C65.3284 53.4519 62.656 61.0962 57.316 66.4339C51.9749 71.7773 44.3341 74.4462 34.3892 74.4462H31.0749C22.2482 74.4462 15.2367 72.3824 10.0439 68.248C9.79425 68.049 9.54807 67.8465 9.30765 67.6383C9.42383 63.4659 10.4051 54.5183 16.4468 50.8556C16.6528 51.433 16.8886 51.9864 17.1543 52.5132C17.7698 53.7453 18.5428 54.8416 19.4735 55.801C22.2367 58.6551 26.1479 60.0815 31.213 60.0815H34.1142C39.1758 60.0815 43.0906 58.6562 45.8537 55.801C48.6135 52.9481 49.9951 48.8942 49.9951 43.645V30.8012C49.9951 25.4634 48.6135 21.3635 45.8537 18.5106C43.0906 15.6565 39.1758 14.2301 34.1142 14.2301H31.213C30.1351 14.2301 29.1078 14.2945 28.1346 14.4256C10.6501 15.2136 0 35.6408 0 43.6945V30.8C0 20.9494 2.67115 13.3535 8.01232 8.01118C13.35 2.67347 21.0391 0 31.0761 0H34.3903C44.3353 0 51.976 2.67231 57.3172 8.01118C62.656 13.3535 65.3284 20.9505 65.3284 30.8012Z" fill="white"/>
<path d="M117.531 15.1241H107.172C102.567 15.1241 98.7687 16.7956 95.7778 20.1397C92.7845 23.4839 91.289 27.7253 91.289 32.8617V74.4452H76.0972V31.2627C76.0972 21.2798 78.8121 13.5746 84.2453 8.14483C89.6774 2.71739 97.2284 0.0025177 106.896 0.0025177H117.531V15.1241Z" fill="white"/>
<path d="M129.683 66.4352C124.342 61.0963 121.673 53.4521 121.673 43.5084V30.8014C121.673 20.9496 124.342 13.3537 129.683 8.01254C135.022 2.67367 142.711 0.0025177 152.748 0.0025177H156.063C166.006 0.0025177 173.648 2.67367 178.989 8.01254C184.328 13.3537 186.999 20.9496 186.999 30.8014V43.5084C186.999 53.4521 184.328 61.0963 178.989 66.4352C173.648 71.7764 166.006 74.4452 156.063 74.4452H152.748C142.711 74.4452 135.022 71.7764 129.683 66.4352ZM167.526 55.8C170.288 52.9471 171.67 48.8944 171.67 43.6464V30.8014C171.67 25.4625 170.288 21.3649 167.526 18.5097C164.764 15.6567 160.849 14.228 155.786 14.228H152.886C147.821 14.228 143.909 15.6567 141.147 18.5097C138.385 21.3649 137.003 25.4625 137.003 30.8014V43.6464C137.003 48.8944 138.385 52.9471 141.147 55.8C143.909 58.6553 147.821 60.0817 152.886 60.0817H155.786C160.849 60.0817 164.764 58.6553 167.526 55.8Z" fill="white"/>
<path d="M33.3634 39.1166C24.9266 39.2558 19.1012 41.5807 15.0864 44.8431C14.7597 45.1054 14.4445 45.3769 14.1419 45.6553C13.9912 45.7945 13.8428 45.9337 13.6979 46.0729C6.39993 53.1488 6.18711 62.2597 6.31365 65.2737C6.29869 65.2599 6.28949 65.2438 6.27914 65.2311C5.50149 63.8323 4.79171 62.3966 4.14981 60.9207C-0.263012 48.4507 2.43116 39.0476 7.53535 32.3467C9.71645 29.488 12.291 27.4001 14.9437 25.8816C14.9495 25.8781 14.9529 25.8747 14.9587 25.8712C15.604 25.5031 16.2551 25.1649 16.9063 24.8601C24.7414 21.1869 33.3439 21.876 33.3439 21.876L33.3634 39.1166Z" fill="#1DA5B7"/>
<path d="M1.19661 94.9805C1.88913 95.3348 2.95092 95.6879 4.04837 95.6879C5.22865 95.6879 5.85215 95.199 5.85215 94.4571C5.85215 93.7484 5.31263 93.3435 3.94714 92.8546C2.05708 92.1966 0.82619 91.1509 0.82619 89.4966C0.82619 87.5571 2.44476 86.072 5.12742 86.072C6.40893 86.072 7.35453 86.3423 8.0275 86.646L7.45462 88.7213C6.99908 88.5027 6.18921 88.1806 5.07681 88.1806C3.9644 88.1806 3.42257 88.6868 3.42257 89.2769C3.42257 90.0028 4.06448 90.3226 5.5312 90.8805C7.53859 91.6225 8.48305 92.6682 8.48305 94.2707C8.48305 96.1769 7.01633 97.7954 3.89538 97.7954C2.59546 97.7954 1.31394 97.4584 0.673187 97.104L1.19661 94.9805Z" fill="white"/>
<path d="M13.5899 86.411C14.3825 86.2753 15.4961 86.174 17.0652 86.174C18.6515 86.174 19.7812 86.4789 20.5404 87.0851C21.2663 87.6592 21.7564 88.6036 21.7564 89.7172C21.7564 90.8307 21.3848 91.7752 20.7107 92.4159C19.833 93.2431 18.5342 93.6135 17.0157 93.6135C16.6786 93.6135 16.3749 93.5962 16.138 93.5629V97.6283H13.5911L13.5899 86.411ZM16.1357 91.5727C16.3554 91.6233 16.6257 91.6406 16.9961 91.6406C18.3628 91.6406 19.206 90.9492 19.206 89.7862C19.206 88.7405 18.4813 88.1159 17.1986 88.1159C16.6763 88.1159 16.322 88.1665 16.1357 88.2171V91.5727Z" fill="white"/>
<path d="M29.3362 86.2584V97.6286H26.756V86.2584H29.3362Z" fill="white"/>
<path d="M34.9322 86.411C35.7593 86.2753 36.9902 86.174 38.3568 86.174C40.0444 86.174 41.2247 86.4283 42.0345 87.0679C42.7087 87.6085 43.0802 88.4 43.0802 89.4457C43.0802 90.8975 42.0507 91.8925 41.0728 92.2468V92.2975C41.8643 92.6173 42.3037 93.3765 42.5902 94.4233C42.9445 95.7048 43.2988 97.19 43.5185 97.6283H40.8876C40.7013 97.3085 40.4321 96.3801 40.095 94.9801C39.7913 93.5629 39.3024 93.1752 38.2556 93.1579H37.4791V97.6283H34.9322V86.411ZM37.4791 91.3024H38.4914C39.7741 91.3024 40.5322 90.6616 40.5322 89.6666C40.5322 88.6209 39.8247 88.0975 38.6421 88.0802C38.0186 88.0802 37.6643 88.1308 37.4779 88.1642L37.4791 91.3024Z" fill="white"/>
<path d="M50.8826 86.2584V97.6286H48.3023V86.2584H50.8826Z" fill="white"/>
<path d="M58.6726 88.4177H55.6195V86.2584H64.3577V88.4177H61.2541V97.6286H58.6738L58.6726 88.4177Z" fill="white"/>
<path d="M86.2744 91.8263C86.2744 95.5535 84.0139 97.814 80.6905 97.814C77.3165 97.814 75.3447 95.267 75.3447 92.0287C75.3447 88.6213 77.5212 86.0733 80.878 86.0733C84.3682 86.0733 86.2744 88.6892 86.2744 91.8263ZM78.0584 91.9781C78.0584 94.2052 79.1041 95.7732 80.8251 95.7732C82.5621 95.7732 83.5572 94.1201 83.5572 91.9114C83.5572 89.8706 82.5782 88.1152 80.8078 88.1152C79.0708 88.1152 78.0584 89.7683 78.0584 91.9781Z" fill="white"/>
<path d="M91.3294 86.2584H98.2788V88.367H93.9097V90.9657H97.9923V93.0571H93.9097V97.6286H91.3294V86.2584Z" fill="white"/>
<path d="M110.364 97.6286V86.2584H113.367L115.729 90.425C116.404 91.6226 117.078 93.0398 117.584 94.3225H117.635C117.467 92.8213 117.416 91.2855 117.416 89.583V86.2584H119.778V97.6286H117.078L114.65 93.2423C113.974 92.0275 113.233 90.5596 112.676 89.2275L112.625 89.2448C112.693 90.7471 112.726 92.3485 112.726 94.2051V97.6298H110.364V97.6286Z" fill="white"/>
<path d="M128.017 94.7102L127.208 97.6286H124.543L128.018 86.2584H131.394L134.918 97.6286H132.152L131.275 94.7102H128.017ZM130.902 92.7879L130.194 90.3744C129.991 89.7003 129.789 88.8571 129.621 88.1818H129.587C129.419 88.8571 129.25 89.7176 129.064 90.3744L128.39 92.7879H130.902Z" fill="white"/>
<path d="M140.593 88.4177H137.54V86.2584H146.279V88.4177H143.175V97.6286H140.595L140.593 88.4177Z" fill="white"/>
<path d="M153.575 86.2584V92.804C153.575 94.7596 154.318 95.7547 155.633 95.7547C156.984 95.7547 157.724 94.8102 157.724 92.804V86.2584H160.289V92.6349C160.289 96.1447 158.517 97.8139 155.548 97.8139C152.681 97.8139 150.994 96.2287 150.994 92.6015V86.2584H153.575Z" fill="white"/>
<path d="M165.883 86.411C166.71 86.2753 167.941 86.174 169.307 86.174C170.995 86.174 172.175 86.4283 172.985 87.0679C173.659 87.6085 174.031 88.4 174.031 89.4457C174.031 90.8975 173.001 91.8925 172.023 92.2468V92.2975C172.815 92.6173 173.254 93.3765 173.541 94.4233C173.895 95.7048 174.249 97.19 174.469 97.6283H171.838C171.652 97.3085 171.382 96.3801 171.045 94.9801C170.742 93.5629 170.253 93.1752 169.206 93.1579H168.429V97.6283H165.883V86.411ZM168.429 91.3024H169.442C170.724 91.3024 171.483 90.6616 171.483 89.6666C171.483 88.6209 170.775 88.0975 169.592 88.0802C168.969 88.0802 168.615 88.1308 168.428 88.1642L168.429 91.3024Z" fill="white"/>
<path d="M186.017 92.8225H181.833V95.5213H186.507V97.6299H179.253V86.2597H186.271V88.3683H181.834V90.7312H186.018L186.017 92.8225Z" fill="white"/>
</svg>
